<svg xmlns="http://www.w3.org/2000/svg" viewBox="0 0 194.02 256.79"><defs><style>.cls-101{fill:#f78c74;}.cls-102{fill:#564d4e;}.cls-103{fill:#ffe2cc;}.cls-104{fill:#ffc3a1;}.cls-105{fill:#f97d8f;}.cls-106{fill:#c988e5;}.cls-107{fill:#775f5f;}.cls-108{fill:#dd507b;}.cls-109{fill:#440829;}</style></defs><g id="Layer_2" data-name="Layer 2"><g id="svg2"><path id="path238" class="cls-101" d="M97.92,113.37a7.48,7.48,0,0,0,5.27-3.74C100,111.07,96.56,112,93.13,111c1.26,1.47,2.79,2.56,4.79,2.38"/><path id="path240" class="cls-102" d="M65.31,63.91a14.15,14.15,0,0,0-5,3.74,67.34,67.34,0,0,1,11.93-3.12c1.51-.4,3-.32,4.22-1.34-2.46-2.31-8.44-.46-11.2.72"/><path id="path242" class="cls-103" d="M75.07,91.94c-1.42-.27-2-1.85-2.15-3.14-.41-2.57.27-5.67,3.08-6.26C81.24,81.83,79.22,92.21,75.07,91.94ZM88.64,78c-2-4.12-8.64-2.7-12.33-2.74-6.74.53-13.65,1.19-20.28,2.35-3.89,1-10.44,1.55-9.59,7,2.47,11.7,6,22.68,20.29,21.09h-.2c6.51-.68,13.5-3,18-7.91C88.9,92.43,90.05,84.63,88.64,78"/><path id="path244" class="cls-102" d="M132.87,67.65a14.18,14.18,0,0,0-5-3.74c-2.76-1.18-8.74-3-11.2-.72,1.18,1,2.71.94,4.22,1.34a67.44,67.44,0,0,1,11.94,3.12"/><path id="path246" class="cls-103" d="M120.31,88.8c-.15,1.29-.73,2.87-2.16,3.14-4.15.27-6.17-10.11-.93-9.4C120,83.13,120.71,86.23,120.31,88.8Zm26.47-4.2c.85-5.46-5.7-6-9.59-7-6.63-1.16-13.54-1.82-20.28-2.35-3.68,0-10.28-1.38-12.32,2.74-1.42,6.65-.27,14.45,4.11,19.81,4.5,4.92,11.49,7.23,18,7.91h-.21c14.29,1.59,17.83-9.39,20.29-21.09"/><path id="path248" class="cls-104" d="M135.58,67.39c.75,1,1.21,2.72-.31,3.13-1.43,0-2.72-1-4.1-1.3a53,53,0,0,0-6.34-1.74c-3-1.12-10.88,0-10.87-4.46C116.05,55.36,133.25,62.08,135.58,67.39Zm-67.19.09a53.56,53.56,0,0,0-6.34,1.74c-1.38.35-2.67,1.32-4.09,1.3-1.53-.41-1.06-2.18-.32-3.13C60,62.08,77.18,55.36,79.26,63,79.27,67.52,71.37,66.36,68.39,67.48Zm28.17-17c-14.77,6.79-34.39,9.84-48.16,8.94a20.69,20.69,0,0,0-3-.19c-.45,1.63-1.67,3.78-1.77,4.54A45,45,0,0,0,40.91,80c.12,1.26.26,2.51.41,3.77a5.87,5.87,0,0,0,.58-.39,4.93,4.93,0,0,1,1.52-.67,11.84,11.84,0,0,1,.24-1.86c2.23-7.8,26.5-7.76,33.92-8.75,4.83-.23,11.9-.56,14,4.75l.62-.26c3-1,6.62-1.45,9.65-.24,2.33-4.8,9.12-4.47,13.79-4.25,7.42,1,31.69,1,33.92,8.75a11.36,11.36,0,0,1,.23,1.64h.07a11.59,11.59,0,0,1,3.37.7c.31-1.65.61-3.3.88-5a10.87,10.87,0,0,1,.51-2.38c-9.2-5.41-15-15.19-17.57-25.37-1-4.13-2-8.44-1.74-12.7-7,9.64-26.57,20.08-37.11,20a3.65,3.65,0,0,1-2.87-4.49,7.55,7.55,0,0,1,1.23-2.74"/><path id="path250" class="cls-105" d="M96.34,135.82a16.06,16.06,0,0,0-2.31,2,14.74,14.74,0,0,0,7.25,1.18,14.06,14.06,0,0,0,9.63-4.92c.23-.25.45-.51.67-.79a20,20,0,0,0-15.24,2.57"/><path id="path252" class="cls-106" d="M99.57,218.27c-21.06-4.43-39-19.84-48.57-38.88-.42-1-1-2.18-1.36-3.35-14.42,9.17-26.59,21.81-34.29,37.15a98.7,98.7,0,0,0-4.93,11.26c-.43.83-.89,3.05-1.64,4.37.88.66,1.61,1.59,2.47,2.26a54.18,54.18,0,0,0,5.3,4.13c14.29,9.39,31.22,13.24,47.84,15.92,28.59,4.3,58.07,3.28,86.06-4.09,9-2.33,17.82-5.29,25.54-10.21,3-2,5.78-4.38,8.62-6.56a1.65,1.65,0,0,1-.6-.82,99.18,99.18,0,0,0-39.58-53.8l-.72-.48c-.19,1.49-1.66,3.35-2.15,4.48a93.44,93.44,0,0,1-14.58,19c-4.31,4.42-21.73,20.46-27.41,19.61"/><path id="path254" class="cls-107" d="M176.69,118.49c-.6,1.86,1.63,2.58,2.56,3.92,3.79,4,3.05,10.54-.44,14.52-.21.51-1.36,1.1-2.47,1.71a18.64,18.64,0,0,0-.31-11.49c-.16-.58-.91-1.22-1.35-.52a7.54,7.54,0,0,0-.31,2.64c.09,8.3-2.33,15-10.08,18.93a54.48,54.48,0,0,1-3.18-7.19,1.56,1.56,0,0,0-2.83.59c-.25,1-.34,1.72-.7,2.79-2.59,7.28-8.57,12.75-14.89,16.89-2.66,1.7-5.51,3.35-8.28,5l-.1.06a59.64,59.64,0,0,0-5.87-2.39,51.31,51.31,0,0,0-5.08-1.53c-.13-2.6,0-5.2,0-7.79,1.65-.64,3.27-1.31,4.87-2.05a27.45,27.45,0,0,0,15.49-16.48,144.42,144.42,0,0,0,5.8-19.27c.58,6.32,1.56,12.64-.4,18.87a97.7,97.7,0,0,1-3.61,9.71c-.16.32-.29.72.09.92a.48.48,0,0,0,.61-.15,35.21,35.21,0,0,0,3.73-7.53c3.59-8.82,2.67-18.4,2.34-27.69a73.38,73.38,0,0,1,.84-10.87c1.15-5.76,2.31-11.54,3.43-17.32.32-1.93.63-3.88.83-5.82,0-.12,0-.24,0-.36a1.4,1.4,0,0,0,.16-2.31,49.79,49.79,0,0,1-9-7.59C141.08,58,138.11,46,137.94,34.76c0-1.83-1.16-2.07-1.84-1,0,0-.07,0-.1,0a8.34,8.34,0,0,0-1.91,1.84C124.61,45.75,111.45,53.05,97.67,55c-.32-.79.19-1.59.5-2.31a28,28,0,0,1,2.7-4.31,46.52,46.52,0,0,0,8-5.52c1.89-1.75,4.16-3.59,4.68-6.26-.33-2.12-3.61,2-4.52,2.56C95.5,50.75,77,54.78,59.54,56.42a145.07,145.07,0,0,1-16.42-.17,1.36,1.36,0,0,0-1.32,1.16,1.3,1.3,0,0,0,.91,1.39,28.64,28.64,0,0,0-2,4.36A44.09,44.09,0,0,0,38.45,86c1.17,6.25,2.16,12.59,3.24,18.89.16,3.75.87,7.57.7,11.32-.14,10.51-.76,21.77,5,31.09a.58.58,0,0,0,1-.52c-.62-1.71-1.53-3.28-2-5-1.41-6.25-1.34-12.67-1.22-19.11a127.3,127.3,0,0,0,5.31,17.22c3,7,10.68,11.65,19.33,14.7a24.52,24.52,0,0,1,.35,4.11c0,1.36,0,2.7-.08,4.05-1,0-2.13.68-3,1q-4.73,1.86-9.29,4.15c-3-1.78-6.29-3.39-9.19-5.48-8.28-5.19-13.37-11.73-14.38-21.73-.12-.87-1-4.77-2-2.42a19.94,19.94,0,0,0,.51,10.08c-.45.13-.89.31-1.33.48a4.89,4.89,0,0,1-2,.43c-7.37-2.18-9.7-10.35-10.2-17.23,0-.9.08-2.46-1.17-2.74a1.74,1.74,0,0,0-1.92.91A28.72,28.72,0,0,1,12.68,136c.13-6.44,1.71-13,5.48-18.33.67-1.27,2.32-2.29,2.32-3.78-.3-.88-1.47-.41-2-.11a15.63,15.63,0,0,0-3.18,2.93c-4.7-.33-10.69-2-12.31-6.91a20,20,0,0,0,15.59-7.26c12-15,7.57-35.9,8.7-53.72C28.2,36,35.72,24.37,45.57,16.48c6.55-4.85,14.28-7.91,22.11-10.07C89,.6,118.54,2.31,137.34,14.69A37.35,37.35,0,0,1,143,19.34a2.88,2.88,0,0,0,.81.74,1.69,1.69,0,0,0,1.62,1C156.16,20.15,162.29,31.79,164,41c1.87,10.91,2.36,22,3.75,33,1.46,15.87,4.31,34,23.07,37-2.41,4-7.49,5.85-11.94,6.43a2,2,0,0,0-2.16,1"/><path id="path256" class="cls-101" d="M95,159.49a106.2,106.2,0,0,1-20.85-3.59,7.44,7.44,0,0,0,.84,1.3c7.22,9.11,20.61,10,31.13,7.45,5.46-1.56,9.83-5.11,14-8.65v-.28a67.12,67.12,0,0,1-19.76,3.56c-1.59.47-4.26,0-5.41.21"/><path id="path258" class="cls-104" d="M91.11,125c2.55-.85,5.18.36,7.77.06,3.77-.19,6.81-2.76,10.42-3.61,9.07-1.51,8.39,5.77,5,11.64-3.34,6-10.62,9.11-17.35,8.09-4-.47-8-2.74-9.72-6.46-2.14-3.64-.51-8.84,3.85-9.72Zm-1.46-17.09a1,1,0,0,1,1.2-.69c1.55,1.09,3,2,5,2.08,2.83.25,5.51-.82,8-1.95.66-.45,1.79-.8,2.1.22.22.72-.64,1.24-.91,1.77-1.6,3.47-5.06,6.42-9.09,5.38-2.44-.5-4-2.59-5.31-4.54-.37-.72-1.25-1.35-1-2.27ZM52,134.68c2.27,9.26,10.29,13.79,18.6,16.64a93.5,93.5,0,0,0,27.07,5.12,77.09,77.09,0,0,0,26.83-5.71c11.79-4.54,15.36-11.65,18.78-23.19,4-12.6,6.09-25.66,8.78-38.56.18-.84.34-1.69.51-2.53-.75,0-1.63-.32-2.69-.41h-.29c-.54,3.33-1.94,6.63-3,9.74-2.32,7.19-7.53,12.7-15.43,12.92a33,33,0,0,1-23-7.1c-6-5.33-8.09-14.23-7.09-22.1-3.25-.61-6.64-.67-8.92.44C93,87.68,90.87,96.36,85,101.59a33.07,33.07,0,0,1-23,7.1c-7.9-.22-13.11-5.73-15.42-12.92-1-3.11-2.46-6.4-3-9.73l-1.87.82c1.17,8,2.92,16,4.32,24A156.92,156.92,0,0,0,52,134.68"/><path id="path260" class="cls-104" d="M133.27,169.11h0c-1.76-.87-3.56-1.67-5.4-2.38-1.34-.67-2.9-1-4.31-1.58.18,1.88.41,4.36-1.09,4.39-2.2-.95-2.4-6.77-2.34-11-7,7.08-15.9,10.91-26.2,9.61-7.79-.94-14.9-4.93-20.67-10.14.39,5.15,0,12.27-2.48,11.84a1.44,1.44,0,0,1-.64-1.13,24.67,24.67,0,0,1-.09-2.85c-1.4.55-2.79,1.15-4.17,1.73a108.09,108.09,0,0,0-13.75,7c8.23,19,25.13,34.82,45.4,39.93a.6.6,0,0,1,0-.2,19.44,19.44,0,0,1,2.07-8.1.38.38,0,1,1,.69.29c-.2,2-.57,4-.8,6A6.1,6.1,0,0,1,99,214.8c.56.13,1.13.25,1.69.36,15.35-7.68,32.66-25.25,39.92-40.76a1.74,1.74,0,0,1,.64-.86c-2.41-1.51-4.87-2.92-7.42-4.19a1.39,1.39,0,0,1-.51-.24"/><path id="path262" class="cls-108" d="M92.24,136.76a5.94,5.94,0,0,1,1-1.11c3.72-3.31,8.94-4.33,13.79-4.26,1.81.17,3.66.27,5.46.59a11.48,11.48,0,0,0,1.76-6c-.37-2.65-4.14-2-6-1.37-3.27,1.42-6.53,3.31-10.25,3-2.3-.2-4.81-.76-7-.09-2.6,1-2.69,4.27-1.41,6.34a9,9,0,0,0,2.67,2.9"/><path id="path264" class="cls-109" d="M72.29,64.53a67.34,67.34,0,0,0-11.93,3.12,14.15,14.15,0,0,1,5-3.74c2.76-1.18,8.74-3,11.2-.72-1.18,1-2.71.94-4.22,1.34ZM57.64,67.39c-.74,1-1.21,2.72.32,3.13,1.42,0,2.71-1,4.09-1.3a53.56,53.56,0,0,1,6.34-1.74c3-1.12,10.88,0,10.87-4.46-2.08-7.66-19.28-.94-21.62,4.37"/><path id="path266" class="cls-109" d="M76,82.54c-2.81.59-3.49,3.69-3.08,6.26.14,1.29.73,2.87,2.15,3.14,4.15.27,6.17-10.11.93-9.4"/><path id="path268" class="cls-109" d="M127.91,63.91a14.18,14.18,0,0,1,5,3.74,67.44,67.44,0,0,0-11.94-3.12c-1.51-.4-3-.32-4.22-1.34C119.17,60.88,125.15,62.73,127.91,63.91Zm-3.08,3.57a53,53,0,0,1,6.34,1.74c1.38.35,2.67,1.32,4.1,1.3,1.52-.41,1.06-2.18.31-3.13-2.33-5.31-19.53-12-21.62-4.37,0,4.5,7.89,3.34,10.87,4.46"/><path id="path270" class="cls-109" d="M117.22,82.54c-5.24-.71-3.22,9.67.93,9.4,1.43-.27,2-1.85,2.16-3.14.4-2.57-.28-5.67-3.09-6.26"/><path id="path272" class="cls-109" d="M103.19,109.63a7.48,7.48,0,0,1-5.27,3.74c-2,.18-3.53-.91-4.79-2.38,3.43,1,6.91.08,10.06-1.36Zm-7.25,5.11c4,1,7.49-1.91,9.09-5.38.27-.53,1.13-1,.91-1.77-.31-1-1.44-.67-2.1-.22-2.51,1.13-5.19,2.2-8,1.95-2,0-3.42-1-5-2.08a1,1,0,0,0-1.2.69c-.27.92.61,1.55,1,2.27,1.31,2,2.87,4,5.31,4.54"/><path id="path274" class="cls-109" d="M91,127.52c2.21-.67,4.72-.11,7,.09,3.72.26,7-1.63,10.25-3,1.83-.58,5.6-1.28,6,1.37a11.48,11.48,0,0,1-1.76,6c-1.8-.32-3.65-.42-5.46-.59-4.85-.07-10.07,1-13.79,4.26a5.94,5.94,0,0,0-1,1.11,9,9,0,0,1-2.67-2.9c-1.28-2.07-1.19-5.39,1.41-6.34ZM110.91,134a14.06,14.06,0,0,1-9.63,4.92A14.74,14.74,0,0,1,94,137.78a16.06,16.06,0,0,1,2.31-2,20,20,0,0,1,15.24-2.57C111.36,133.53,111.14,133.79,110.91,134ZM97,141.2c6.73,1,14-2,17.35-8.09,3.36-5.87,4-13.15-5-11.64-3.61.85-6.65,3.42-10.42,3.61-2.59.3-5.22-.91-7.77-.06-4.36.88-6,6.08-3.85,9.72,1.75,3.72,5.72,6,9.72,6.46"/><path id="path276" class="cls-109" d="M178.84,117.44a2,2,0,0,0-2.14,1c-.62,1.85,1.61,2.58,2.55,3.93,3.78,4,3.06,10.53-.44,14.52-.21.5-1.36,1.09-2.46,1.69a18.65,18.65,0,0,0-.32-11.49c-.16-.58-.91-1.21-1.35-.51a7.57,7.57,0,0,0-.31,2.65c.09,8.28-2.33,14.95-10.09,18.92a56.56,56.56,0,0,1-3.17-7.19,1.56,1.56,0,0,0-2.83.6,26.94,26.94,0,0,1-.7,2.78c-2.59,7.28-8.57,12.76-14.89,16.89-2.66,1.7-5.51,3.35-8.28,5l-.11.05a59.89,59.89,0,0,0-10.94-3.92c-.13-2.59,0-5.2,0-7.79,1.64-.64,3.28-1.31,4.87-2.05a27.48,27.48,0,0,0,15.5-16.49,145.28,145.28,0,0,0,5.79-19.26c.58,6.32,1.57,12.64-.39,18.86a102.13,102.13,0,0,1-3.61,9.72c-.17.31-.3.72.08.93a.48.48,0,0,0,.61-.16,34.27,34.27,0,0,0,3.72-7.53c3.61-8.82,2.68-18.4,2.35-27.68a74.43,74.43,0,0,1,.84-10.87c1.15-5.78,2.31-11.55,3.43-17.33.33-1.92.64-3.87.83-5.82,0-.12,0-.24,0-.36a1.4,1.4,0,0,0,.16-2.31,50.2,50.2,0,0,1-9-7.59C141.07,58,138.11,46,138,34.76c0-1.82-1.17-2.07-1.85-1l-.11,0a9,9,0,0,0-1.91,1.84C124.61,45.76,111.46,53,97.67,55c-.32-.79.19-1.59.51-2.31a26.76,26.76,0,0,1,2.69-4.31,46.19,46.19,0,0,0,8-5.51c1.9-1.76,4.17-3.61,4.69-6.28-.33-2.11-3.62,2-4.52,2.57C95.51,50.75,77,54.78,59.54,56.42a145.09,145.09,0,0,1-16.42-.17,1.38,1.38,0,0,0-1.33,1.16,1.3,1.3,0,0,0,.92,1.39,28.21,28.21,0,0,0-2,4.36A44.18,44.18,0,0,0,38.45,86c1.16,6.26,2.16,12.58,3.25,18.89.15,3.76.85,7.57.69,11.32-.14,10.51-.76,21.77,5,31.09a.59.59,0,0,0,1-.53c-.62-1.7-1.52-3.27-2-5-1.42-6.25-1.33-12.67-1.22-19.11a127.34,127.34,0,0,0,5.32,17.22c3,7,10.67,11.65,19.32,14.69a23.74,23.74,0,0,1,.35,4.13c0,1.34,0,2.69-.08,4-1,0-2.12.68-3,1-3.15,1.23-6.25,2.63-9.29,4.16-3-1.78-6.3-3.4-9.19-5.49-8.28-5.2-13.37-11.73-14.37-21.72-.13-.88-1-4.77-2-2.44a19.87,19.87,0,0,0,.5,10.09c-1.09.32-2.13,1-3.3.9C22.1,147,19.76,138.85,19.25,132c0-.9.09-2.47-1.15-2.74a1.72,1.72,0,0,0-1.92.91,29.88,29.88,0,0,1-3.5,5.82c.13-6.45,1.71-13,5.48-18.35.67-1.26,2.33-2.27,2.32-3.78-.29-.86-1.47-.4-2-.09a15.55,15.55,0,0,0-3.17,2.93c-4.7-.34-10.69-2.06-12.32-6.92a20,20,0,0,0,15.6-7.26c12-15,7.57-35.9,8.71-53.72.93-12.78,8.45-24.4,18.3-32.29,6.56-4.85,14.28-7.91,22.1-10.08C89,.61,118.54,2.3,137.33,14.69A38,38,0,0,1,143,19.34a2.85,2.85,0,0,0,.81.73,1.66,1.66,0,0,0,1.62,1C156.16,20.15,162.29,31.79,164,41c1.87,10.91,2.36,22,3.76,33,1.46,15.86,4.31,34,23.07,37-2.41,4-7.5,5.84-11.95,6.43Zm-58.67,38.28V156c-4.22,3.54-8.59,7.09-14,8.65C95.6,167.22,82.21,166.31,75,157.2a7.44,7.44,0,0,1-.84-1.3A106.2,106.2,0,0,0,95,159.49c1.15-.22,3.82.26,5.41-.21a67.12,67.12,0,0,0,19.76-3.56ZM43.62,86c.54,3.33,2,6.62,3,9.73,2.31,7.19,7.52,12.7,15.42,12.92a33.07,33.07,0,0,0,23-7.1c5.83-5.23,8-13.91,7.14-21.66,2.28-1.11,5.67-1.05,8.92-.44-1,7.87,1.14,16.77,7.09,22.1a33,33,0,0,0,23,7.1c7.9-.22,13.11-5.73,15.43-12.92,1-3.11,2.45-6.41,3-9.74h.29c1.06.09,1.94.45,2.69.41-.17.84-.33,1.69-.51,2.53-2.69,12.9-4.81,26-8.78,38.56-3.42,11.54-7,18.65-18.78,23.19a77.09,77.09,0,0,1-26.83,5.71,93.5,93.5,0,0,1-27.07-5.12c-8.31-2.85-16.33-7.38-18.6-16.64a156.92,156.92,0,0,1-5.94-23.78c-1.4-8-3.15-16-4.32-24L43.62,86Zm23.11,19.65C52.44,107.28,48.91,96.3,46.44,84.6c-.85-5.46,5.7-6,9.59-7,6.63-1.16,13.54-1.82,20.28-2.35,3.69,0,10.28-1.38,12.33,2.74,1.41,6.65.26,14.45-4.12,19.81C80,102.71,73,105,66.53,105.7Zm42-7.9c-4.38-5.36-5.53-13.16-4.11-19.81,2-4.12,8.64-2.7,12.32-2.74,6.74.53,13.65,1.19,20.28,2.35,3.89,1,10.44,1.55,9.59,7-2.46,11.7-6,22.68-20.29,21.09h.21c-6.51-.68-13.5-3-18-7.91Zm-10.5-40c10.54.07,30.13-10.37,37.11-20-.27,4.26.73,8.57,1.74,12.7,2.61,10.18,8.37,20,17.57,25.37a10.87,10.87,0,0,0-.51,2.38c-.27,1.65-.57,3.3-.88,5a11.59,11.59,0,0,0-3.37-.7h-.07a11.36,11.36,0,0,0-.23-1.64c-2.23-7.8-26.5-7.76-33.92-8.75-4.67-.22-11.46-.55-13.79,4.25-3-1.21-6.63-.81-9.65.24l-.62.26c-2.1-5.31-9.17-5-14-4.75-7.42,1-31.69,1-33.92,8.75a11.84,11.84,0,0,0-.24,1.86,4.93,4.93,0,0,0-1.52.67,5.87,5.87,0,0,1-.58.39c-.15-1.26-.29-2.51-.41-3.77a45,45,0,0,1,2.72-16.15c.1-.76,1.32-2.91,1.77-4.54a20.69,20.69,0,0,1,3,.19c13.77.9,33.39-2.15,48.16-8.94a7.55,7.55,0,0,0-1.23,2.74A3.65,3.65,0,0,0,98.2,57.75Zm43,115.79a1.74,1.74,0,0,0-.64.86c-7.26,15.51-24.57,33.08-39.92,40.76-.56-.11-1.13-.23-1.69-.36a6.1,6.1,0,0,0,.49-2.38c.23-2,.6-4,.8-6a.38.38,0,1,0-.69-.29,19.44,19.44,0,0,0-2.07,8.1.6.6,0,0,0,0,.2c-20.27-5.11-37.17-20.88-45.4-39.93a108.09,108.09,0,0,1,13.75-7c1.38-.58,2.77-1.18,4.17-1.73a24.67,24.67,0,0,0,.09,2.85,1.44,1.44,0,0,0,.64,1.13c2.47.43,2.87-6.69,2.48-11.84,5.77,5.21,12.88,9.2,20.67,10.14,10.3,1.3,19.23-2.53,26.2-9.61-.06,4.26.14,10.08,2.34,11,1.5,0,1.27-2.51,1.09-4.39,1.41.56,3,.91,4.31,1.58,1.84.71,3.64,1.51,5.4,2.38h0a1.39,1.39,0,0,0,.51.24c2.55,1.27,5,2.68,7.42,4.19Zm2.51,1.63.72.48A99.18,99.18,0,0,1,184,229.45a1.65,1.65,0,0,0,.6.82c-2.84,2.18-5.6,4.59-8.62,6.56-7.72,4.92-16.57,7.88-25.54,10.21-28,7.37-57.47,8.39-86.06,4.09-16.62-2.68-33.55-6.53-47.84-15.92a54.18,54.18,0,0,1-5.3-4.13c-.86-.67-1.59-1.6-2.47-2.26.75-1.32,1.21-3.54,1.64-4.37a98.7,98.7,0,0,1,4.93-11.26c7.7-15.34,19.87-28,34.29-37.15.35,1.17.94,2.32,1.36,3.35,9.57,19,27.51,34.45,48.57,38.88,5.68.85,23.1-15.19,27.41-19.61a93.44,93.44,0,0,0,14.58-19c.49-1.13,2-3,2.15-4.48Zm43.62-68.33a20.19,20.19,0,0,1-8.3-5.45c-7.17-8.66-7.09-20.6-8.54-31.22-.59-5.41-1.18-10.82-1.68-16.24-1.05-11.89-2.47-25.77-13-33.22-2.18-1.51-7.09-3.69-10.19-2.8a9.44,9.44,0,0,0-1.7-1.92,43.14,43.14,0,0,0-11.5-7.86C105.25-3.82,68.89-3.13,44,13.76A53.23,53.23,0,0,0,25.89,39.12c-2.48,7.42-2.07,15.37-1.66,23.08.3,15,0,39.93-18.17,44.21-2.2.52-5.73-.27-6.06,2.88.7,5.71,7.17,9.19,12.41,10,.29,0,.64.07,1,.12-2.94,5.22-3.65,11.94-3.73,17.71a2.33,2.33,0,0,0,2.85,2.1c1.88-.5,3-2.24,4-3.77.79,7.24,4.64,14.82,12.1,16.91a6.49,6.49,0,0,0,3.63-.48c.52-.21,1.09-.37,1.6-.61,3.9,8.18,12.66,14.48,20.82,18.24-16.79,9.11-31.27,22.6-40.44,39.44a104.54,104.54,0,0,0-6.95,15.37c-.44,1.57-1.53,3.44-.76,5.06h0c.14,2.54,8.28,8.51,9.88,9.43C36.27,250.87,60,254.39,82.81,256.29a214.5,214.5,0,0,0,67.4-5.91c12.2-3,24.31-7.37,33.68-16,1-1,2.25-1.75,2.93-3a1.12,1.12,0,0,0-.21-1.25c1.17-1.12-.21-3.41-.55-4.82-.75-2.18-1.55-4.35-2.43-6.48-6.26-14.72-15.59-28.21-28-38.4a104.31,104.31,0,0,0-18-12.47c1.21-.65,2.42-1.35,3.62-2.08,7.88-4.87,15.78-11.09,19-20.07,3,8.37,4.94,6,10.68,1.49a18.06,18.06,0,0,0,4.44-6.15c2.92,0,5.54-2.39,6.92-4.83,3.59-5.05,3.2-12.48-1.55-16.66,3.65-.61,7.39-1.62,10.27-4.09,1.8-1.48,4.19-4.5,2.21-6.69-1.62-1.39-4.05-1.15-5.95-2.06"/><path id="path278" class="cls-102" d="M166.22,109.57a32.92,32.92,0,0,1-1.3,28.67c-1.08-.39-1.61-1.62-2-2.7l-4.14-11.36c1.05,9.32-4.34,18.21-10.81,25a75.13,75.13,0,0,1-19.53,14.71,51.31,51.31,0,0,0-5.08-1.53c-.13-2.6,0-5.2,0-7.79,1.65-.64,3.27-1.31,4.87-2.05a27.45,27.45,0,0,0,15.49-16.48,144.42,144.42,0,0,0,5.8-19.27c.58,6.32,1.56,12.64-.4,18.87a97.7,97.7,0,0,1-3.61,9.71c-.16.32-.29.72.09.92a.48.48,0,0,0,.61-.15,35.21,35.21,0,0,0,3.73-7.53c3.59-8.82,2.67-18.4,2.34-27.69a73.38,73.38,0,0,1,.84-10.87c1.15-5.76,2.31-11.54,3.43-17.32.32-1.93.63-3.88.83-5.82,0-.12,0-.24,0-.36a1.4,1.4,0,0,0,.16-2.31,49.79,49.79,0,0,1-9-7.59C141.08,58,138.11,46,137.94,34.76c0-1.83-1.16-2.07-1.84-1,0,0-.07,0-.1,0a8.34,8.34,0,0,0-1.91,1.84C124.61,45.75,111.45,53.05,97.67,55c-.32-.79.19-1.59.5-2.31a28,28,0,0,1,2.7-4.31,46.52,46.52,0,0,0,8-5.52c1.89-1.75,4.16-3.59,4.68-6.26-.33-2.12-3.61,2-4.52,2.56C95.5,50.75,77,54.78,59.54,56.42a145.07,145.07,0,0,1-16.42-.17,1.36,1.36,0,0,0-1.32,1.16,1.3,1.3,0,0,0,.91,1.39,28.64,28.64,0,0,0-2,4.36A44.09,44.09,0,0,0,38.45,86c1.17,6.25,2.16,12.59,3.24,18.89.16,3.75.87,7.57.7,11.32-.14,10.51-.76,21.77,5,31.09a.58.58,0,0,0,1-.52c-.62-1.71-1.53-3.28-2-5-1.41-6.25-1.34-12.67-1.22-19.11a127.3,127.3,0,0,0,5.31,17.22c3,7,10.68,11.65,19.33,14.7a24.52,24.52,0,0,1,.35,4.11c0,1.36,0,2.7-.08,4.05-1,0-2.13.68-3,1q-4.73,1.86-9.29,4.15c-3-1.78-6.29-3.39-9.19-5.48-8.28-5.19-13.37-11.73-14.38-21.73-.12-.87-1-4.77-2-2.42a19.94,19.94,0,0,0,.51,10.08c-.45.13-.89.31-1.33.48-4.21-3.85-6.38-9.9-6.57-15.73-.23-7.22,2.09-14.26,4.39-21.12.66-2,1.33-4,2-6a19.22,19.22,0,0,1-11.94,3.52c5.26-7,8.42-15.38,10.29-23.92s2.48-17.31,3.09-26c.74-10.57,9.07-18.94,17.33-25.6A69.92,69.92,0,0,0,35.37,44.68c1.35-8.11,6.39-15.29,12.82-20.43s14.16-8.36,22-10.78C83,9.57,96.73,7.74,109.7,10.89a8.37,8.37,0,0,1,4.54,2.27,5.75,5.75,0,0,1,.94,5.07,12.63,12.63,0,0,1-2.55,4.67,32.89,32.89,0,0,1-7.51,6.91c7.38-2.12,13.89-7.35,21.46-8.62a3.4,3.4,0,0,1,2.44.24c1.41.89,1,3,.35,4.53-2.32,5.13-6.2,9.36-10,13.49a148.19,148.19,0,0,1,19.3-14.3c7,2.7,13.25,8,16,14.94.83,2.06,1.33,4.22,2,6.33.75,2.33,1.71,4.61,2.39,7,1.59,5.58,1.56,11.49,2,17.28a110.58,110.58,0,0,0,5,25.81c1.82,5.69,4.58,11.75,10,14.19-3.49.91-6.73.81-9.8-1.11"/></g></g></svg>