<svg xmlns="http://www.w3.org/2000/svg" viewBox="0 0 161.15 262.93"><defs><style>.cls-111{fill:#ffb9a1;}.cls-112{fill:#f97d8f;}.cls-113{fill:#c66a2c;}.cls-114{fill:#ffe2cc;}.cls-115{fill:#ff8dc1;}.cls-116{fill:#dd507b;}.cls-117{fill:#440829;}.cls-118{fill:#a54921;}.cls-119{fill:#ea5eb8;}</style></defs><g id="Layer_2" data-name="Layer 2"><g id="svg2"><path id="path194" class="cls-111" d="M82.31,119.7c2.65,0,5-1.72,6.54-3.8a20.81,20.81,0,0,1-12.38.87,7.54,7.54,0,0,0,5.84,2.93"/><path id="path196" class="cls-112" d="M76.51,142.94a18.42,18.42,0,0,0-3.16,1.61c1.87,3.36,4.41,6,8,6.24,3.44-.08,5.48-2.69,7-5.55-1.54-1-3.17-1.85-4.78-2.71a10.39,10.39,0,0,0-7.08.41"/><path id="path198" class="cls-113" d="M57.17,68.68C53.7,68.1,49,73.47,46.89,75.89c3.46-1.58,7.4-2.67,10.49-4.85.95-.74,1.1-2-.21-2.36"/><path id="path200" class="cls-113" d="M158.38,155.17c-1.6-1.54-2.42-3.74-3.92-5.39.4-2.42.36-4.64-.5-6.19-.73-.63-1.52.2-1.74.91-1.24,8.83-4.45,17.8-11.2,24-.64.61-1.34,1.21-2,1.82a.11.11,0,0,0,0,0c1.28-3.56,2.55-7.88.84-11.47-.85-.54-1.07,1.32-1.26,1.9-1.14,8-4.94,15.73-11.87,20.19-.75.54-1.84,1.26-2.72,1.83l0,0a62.73,62.73,0,0,0-6.65-3.93c-1.13-.62-2.25-1.24-3.33-1.93-2.26-2.63-4.35-5.76-7.55-7.32a6.1,6.1,0,0,0-3.14-.5,38.54,38.54,0,0,1,1.15-8.46c19.44-9.44,25.81-29,31.06-52.87.29-2.27,5.33-24,1.61-22.49a5.57,5.57,0,0,0-1.13,3,61.14,61.14,0,0,1-4.91-8.28C128,73.2,127,65.78,126.54,58.46c-.15-.77-.24-3.62-1.58-2.55a12.14,12.14,0,0,0-1.15,6.78c-.22,0-.43,0-.62.06-8.2.42-16.26.51-24.35-1.42-7.77-2-15-5.81-22.14-9.45-.57-.27-1.44-.74-2-.22-.85,2.7,6.37,5.33,8.31,6.66,2,1.08,4,2.07,6.12,3a28.61,28.61,0,0,1-11,1C65.11,61,54.4,53.51,49.2,41.37c-1-1.58-1.45-3.81-3-4.93-1.3-.19-1.15,1.34-.69,2.88C46.5,50.1,45.84,59.54,39,68a54.86,54.86,0,0,0,.53-18.34c.16-.49-.59-.7-.63-.2,0,.34-.25.64-.3,1-1.12,4.87-1,9.84-2.06,14.74a47.44,47.44,0,0,1-6.74,17.46,105.09,105.09,0,0,1-6.32,9c-.85,1.07-2.45,3.1-.31,3.77a1.36,1.36,0,0,0,.75-.08c.27,1.59.76,3.3.83,4.06.78,3.77,1.59,7.54,2.56,11.25,3.3,11.26,6.52,22.76,12.18,33.1a42.34,42.34,0,0,0,18.82,17.27,2.68,2.68,0,0,0,.07.27,20.74,20.74,0,0,1,1.4,7c-5.3.4-9,5.37-11.71,9.48a42.17,42.17,0,0,0-6,2.46c-1.23.63-2.41,1.31-3.57,2a1.88,1.88,0,0,0-.87-.66,40,40,0,0,1-10.11-9.72c-1.34-1.51-2.28-4.38-4.16-5.4a1.6,1.6,0,0,0-1.91,1.8,9.71,9.71,0,0,1-1.15,5.38.69.69,0,0,1-.65-.1,21.12,21.12,0,0,1-3.41-3.79c-3-4.11-5.17-8.77-5.51-13.87a81.64,81.64,0,0,1-.16-10c.1-1.09.05-4.91-1.49-2.38a36.46,36.46,0,0,0-.72,16.33,8.34,8.34,0,0,1-1.22-1.08c-4.05-4.3-3.06-10.76-1.43-16,3.53-9.14,7.93-18.16,6.86-28.3C11.05,91.55,8.3,67.77,17,46c3.7-9,9-18.37,17.83-23.22,1.86-1.1,4-1.47,5.84-2.59a1.4,1.4,0,0,0,.56-.65,31.67,31.67,0,0,1,2.39-2.58A56.25,56.25,0,0,1,74.72,3.42c22.79-2.18,46,8.66,60.53,26.17,12.77,15.42,15.91,36.5,15.93,56,.51,13-2.77,26.37.58,39.22,2.65,10.05,8,19.65,6.62,30.36"/><path id="path202" class="cls-114" d="M68.48,199.57c3.29,3.61,8.59,11.18,13.7,11.33,8.95-2.28,16.12-20,20.58-28.81a4.48,4.48,0,0,1-.11-.6,43.27,43.27,0,0,1-2.14-12.28c0-.73.09-2.55.27-4.51-6.26,6.6-14.37,11.22-23.75,9.22a29.13,29.13,0,0,1-14.53-7.86c.08.53.14,1,.19,1.3.67,5.07-.85,9.9-2.58,14.59.81,6.51,4.26,12.57,8.37,17.62"/><path id="path204" class="cls-111" d="M86.16,165.83a6,6,0,0,1-.85,0q-.94.07-1.89.09a3.12,3.12,0,0,1-1.86.27,54.51,54.51,0,0,1-18.8-3.32c2.45,2.17,4.58,4.73,7.2,6.71,6.2,4.94,15,4.64,21.27.13h0a62.56,62.56,0,0,0,8.92-7.26,64.9,64.9,0,0,1-14,3.41"/><path id="path206" class="cls-113" d="M110.15,73.28c2.47,1,4.81,2.26,7.17,3.48-2-3.07-4.44-6.51-8-7.9-2.51-.91-6.86-.53-3.42,2.64a32,32,0,0,0,4.21,1.78"/><path id="path208" class="cls-114" d="M99.51,101.58c-1.27-1.9,1.62-2.83,2.83-3.68,2.78-1.59,5.71-3.42,9-3.38,2.19-.47,11.24,2.84,8.52,5.71-.8.7-1.9.22-2.63-.33a10,10,0,0,0-4.06-2.05c-3.6-.76-6.77,1-9.71,2.74-1.21.57-2.69,2.38-4,1ZM95,136.36c-2.16,7-5.29,18.25-14.57,17.32-7.16-1-10.15-8.56-12.32-14.55a43.43,43.43,0,0,1-1.72-6.22c-.14-.61-.27-1.22-.39-1.82a1.21,1.21,0,0,1,1-1.39,1.43,1.43,0,0,1,.6.06,3,3,0,0,1,1.28.11c7.27,1.64,14.64.55,21.56-2,4.77-1.28,5.62,5.13,4.57,8.45ZM62.69,100.87a1.33,1.33,0,0,1-1.45.64c-5.64-3.45-10.1-5.9-16.1-1.35-1.88,1.06-3-1.25-1.42-2.48C47,94.32,52,94.52,56,96.23c1.58.78,7.83,2.32,6.66,4.64ZM43,77.3a19.49,19.49,0,0,1,3.08-4.89c3.14-3.71,8.47-8.79,13.33-4.9,5,4.81-4.44,7.85-7.93,9.15-2.56.82-4.94,2-7.47,2.62a.79.79,0,0,1-1.24-.19C42.44,78.53,42.76,77.84,43,77.3Zm31.41,35.54c2.21.58,4.35,2.28,6.73,2.12a21.83,21.83,0,0,0,6.27-1c1.13-.18,3.17-1.34,3.7.24a1.24,1.24,0,0,1-.31.94c-1.06,1.42-1.83,3.11-3.25,4.2a9.88,9.88,0,0,1-8,1.24c-2-.5-3.56-2.11-4.8-3.7-.34-.46-.88-1-.71-1.61-.83-.67-.91-2.35.39-2.45Zm29.07-46.46c5.91-2.48,12.75,3.8,15,8.89h0A10.92,10.92,0,0,1,119.66,78c0,.61-.49,1.38-1.12,1.32a2.64,2.64,0,0,1-1-.22c-4-2-8.32-3.43-12.47-5.16C102.42,72.67,100.46,68.37,103.46,66.38Zm29.67,37.74c.79-4.06,1.55-8.12,2.2-12.2-6-6.54-9.63-15.28-11-24-.09-.81-.2-1.66-.3-2.51l-.88.05a72.4,72.4,0,0,1-13.72.56A54.18,54.18,0,0,1,94.1,63.15c-1.08.42-2.59.51-3.46.88-3.93,1-8,1.86-12.08,1.37-12.48-1-24.12-7.85-30-18.75.51,8.69-2.07,17.63-8.29,23.84-.71.5-1.59,1.74-2.51,2.39a45.44,45.44,0,0,1-6.93,13.8C29.31,88.86,27.7,91,26.07,93c.05.15.1.31.14.47,1.85,6.73,3.39,13.9,5.32,20.53,3.22,9.78,6,20,11.2,28.88,7.83,13.16,22.92,19.77,37.8,20h1.19a3.92,3.92,0,0,1,.48,0,51.25,51.25,0,0,0,6.6-.74c7.89-1.72,15.75-4.19,22-9.3C125.36,141,129,121.47,133.13,104.12"/><path id="path210" class="cls-115" d="M158,245.4c0,.38,0,.85,0,1.3,0,0-.06,0-.09,0-5.71,2-11.49,3.87-17.36,5.46-3.46.93-7,1.77-10.49,2.44-1,.19-2.08.4-3.12.58-30.33,5.53-62.12,6.86-92.42.54-.73-.14-1.43-.3-2.16-.45.22-4.39-2.89-16.56-3.18-17.63s-.71-2.28-1.06-3.43c0,0,0,0,0,0-2-6.63-4.23-13.46-8.73-18.74a1.22,1.22,0,0,1-.17-.29c-.35-.49-.84.06-.48.5.13.36.27.72.42,1.07,1.74,4.49,4.1,8.78,5.41,13.45,2.68,8,3.73,16.45,5.79,24.63q-5-1.14-9.89-2.6c-1.91-.55-3.79-1.14-5.67-1.77a55,55,0,0,1-11.9-5.52c.06-.22.11-.44.16-.65,2.63-8.22,5.25-16.71,8.86-24.61a109,109,0,0,1,22.4-31c4.49-3.85,9.65-7.29,15.41-8.92,1.81-1.48,2.7-3.92,4.53-5.44a20.93,20.93,0,0,1,5.5-3.7c0,.75,0,1.49-.08,2.23a12.27,12.27,0,0,1-.37,2.05c-1.74-1.18-2.71,2.64-2.57,4.09,0,9.71,5.36,18.4,11.64,25.44,3.54,3.78,7.2,8.6,12.53,9.71,8.95.26,15.77-13.55,19.57-20.4,2.7-5.76,7.25-11.71,5.58-18.4a.9.9,0,0,0-1.74.26v.05a27.41,27.41,0,0,1-.91-3.65c0-.13,0-.26,0-.39a7.34,7.34,0,0,1,2.71,1.11c2.38,1.72,3.59,4.56,5.8,6.42a75.62,75.62,0,0,1,15.34,10.16A107.68,107.68,0,0,1,145,211.54a23.16,23.16,0,0,0-1.68,3.29h0c-1.32,3.07-2.48,6.26-3.72,9.38A138.64,138.64,0,0,0,133,246c-.23,1.08-.45,2.18-.68,3.28a.33.33,0,0,0,.25.4.34.34,0,0,0,.4-.26c.45-2.14.93-4.27,1.37-6.41a104.51,104.51,0,0,1,4.86-15.71,70.5,70.5,0,0,1,5.73-11.34v0a1.1,1.1,0,0,1,.09-.14,17.9,17.9,0,0,1,1.29-2,112.49,112.49,0,0,1,9,20.32c1,3.42,2.41,7.22,2.72,10.9,0,.13,0,.26,0,.37"/><path id="path212" class="cls-116" d="M91.7,130.57c-2.19.52-4.25,1.46-6.45,2a29.54,29.54,0,0,1-16.2-.54,60.38,60.38,0,0,0,3.36,10.66,7.7,7.7,0,0,1,2.66-2c3.71-1.69,8.08-.48,11.69.94a7.31,7.31,0,0,1,2.53,1.76l.84-1.79c1.25-2.81,2.62-5.89,2.57-9-.12-.72-.22-1.77-1-2.06"/><path id="path214" class="cls-117" d="M158,246.71a.33.33,0,0,0-.1,0,199.71,199.71,0,0,1-27.86,7.88c-32,6.16-65.71,7.74-97.69.67.23-4.37-2.89-16.56-3.18-17.62-2.42-7.65-4.51-16-9.81-22.21a1.64,1.64,0,0,1-.16-.29c-.34-.49-.84.06-.48.5,1.77,4.87,4.41,9.47,5.83,14.52,2.68,8,3.72,16.46,5.79,24.64q-7.86-1.83-15.57-4.38A55.38,55.38,0,0,1,2.92,244.9c.06-.22.11-.44.16-.64,2.64-8.23,5.26-16.72,8.86-24.62a109.32,109.32,0,0,1,22.4-31c4.49-3.85,9.65-7.3,15.4-8.91,1.81-1.49,2.7-3.93,4.54-5.45a21.21,21.21,0,0,1,5.5-3.71c0,.75,0,1.5-.08,2.24a12.24,12.24,0,0,1-.36,2.05c-1.74-1.17-2.71,2.64-2.58,4.08,0,9.72,5.36,18.41,11.63,25.45,3.55,3.78,7.22,8.6,12.54,9.72,8.95.25,15.77-13.57,19.58-20.42,2.69-5.76,7.24-11.7,5.57-18.39a.9.9,0,0,0-1.74.26v0a27,27,0,0,1-.91-3.64l0-.39a7.66,7.66,0,0,1,2.71,1.11c2.37,1.72,3.58,4.57,5.79,6.42a75.62,75.62,0,0,1,15.34,10.16A107.56,107.56,0,0,1,145,211.54a25.93,25.93,0,0,0-1.67,3.28c-1.32,3.08-2.49,6.28-3.72,9.41A137.65,137.65,0,0,0,133,246c-.22,1.09-.45,2.18-.68,3.28a.34.34,0,0,0,.26.4.33.33,0,0,0,.4-.26c.46-2.14.93-4.27,1.36-6.41a104.59,104.59,0,0,1,4.88-15.71,72.08,72.08,0,0,1,5.81-11.5,21.2,21.2,0,0,1,1.28-2,111.53,111.53,0,0,1,9,20.32c1,3.42,2.41,7.22,2.72,10.9,0,.13,0,.26,0,.38,0,.37,0,.84,0,1.3ZM88.8,162.16a51.25,51.25,0,0,1-6.6.74,3.92,3.92,0,0,0-.48,0H80.53c-14.88-.23-30-6.84-37.8-20-5.23-8.88-8-19.1-11.2-28.88-1.93-6.63-3.47-13.8-5.32-20.53,0-.16-.09-.32-.14-.47,1.63-2.08,3.24-4.17,4.73-6.35a45.44,45.44,0,0,0,6.93-13.8c.92-.65,1.8-1.89,2.51-2.39,6.22-6.21,8.8-15.15,8.29-23.84,5.91,10.9,17.55,17.78,30,18.75,4.08.49,8.15-.35,12.08-1.37.87-.37,2.38-.46,3.46-.88A54.18,54.18,0,0,0,109.46,66a72.4,72.4,0,0,0,13.72-.56l.88-.05c.1.85.21,1.7.3,2.51,1.34,8.75,5,17.49,11,24-.65,4.08-1.41,8.14-2.2,12.2-4.12,17.35-7.77,36.88-22.34,48.74-6.24,5.11-14.1,7.58-22,9.3Zm2.43,7.52c-6.3,4.51-15.07,4.81-21.27-.13-2.62-2-4.75-4.54-7.2-6.71a54.51,54.51,0,0,0,18.8,3.32,3.12,3.12,0,0,0,1.86-.27q.94,0,1.89-.09a6,6,0,0,0,.85,0,64.9,64.9,0,0,0,14-3.41,62.56,62.56,0,0,1-8.92,7.26Zm-28.54-2.32c0-.31-.11-.77-.19-1.3A29.13,29.13,0,0,0,77,173.92c9.38,2,17.49-2.62,23.75-9.22-.18,2-.22,3.78-.27,4.51a43.27,43.27,0,0,0,2.14,12.28,4.48,4.48,0,0,0,.11.6C98.3,191,91.13,208.62,82.18,210.9c-5.11-.15-10.41-7.72-13.7-11.33-4.11-5-7.56-11.11-8.37-17.62,1.73-4.69,3.25-9.52,2.58-14.59Zm-35.15,4.41c-1.33-1.51-2.27-4.39-4.17-5.4a1.59,1.59,0,0,0-1.89,1.8,10,10,0,0,1-1.16,5.38.69.69,0,0,1-.65-.11,20.86,20.86,0,0,1-3.41-3.79,27,27,0,0,1-5.51-13.86,81.51,81.51,0,0,1-.17-10c.11-1.1.05-4.92-1.47-2.39a36.21,36.21,0,0,0-.73,16.34,9.05,9.05,0,0,1-1.23-1.09c-4.05-4.31-3.05-10.76-1.43-16,3.54-9.13,7.93-18.16,6.86-28.3C11.05,91.55,8.3,67.77,17,46c3.7-9,9-18.38,17.84-23.22,1.85-1.1,4-1.47,5.85-2.6a1.42,1.42,0,0,0,.55-.64,29.86,29.86,0,0,1,2.4-2.58A56.12,56.12,0,0,1,74.71,3.42c22.81-2.17,46,8.66,60.54,26.17C148,45,151.16,66.1,151.18,85.59c.51,13-2.77,26.37.59,39.21,2.63,10.06,8,19.66,6.61,30.38-1.6-1.55-2.43-3.75-3.93-5.39.41-2.43.37-4.65-.49-6.2-.72-.63-1.53.2-1.74.9-1.24,8.84-4.45,17.81-11.19,24-.65.59-1.34,1.2-2,1.81a.14.14,0,0,0,0-.06c1.28-3.55,2.55-7.88.83-11.46-.85-.54-1.07,1.32-1.26,1.9-1.13,8-4.93,15.73-11.86,20.19-.75.54-1.84,1.26-2.72,1.83l0,0c-3.14-2.26-6.72-3.8-10-5.85-2.26-2.64-4.34-5.76-7.54-7.33a6.27,6.27,0,0,0-3.15-.51,38.62,38.62,0,0,1,1.15-8.45c19.44-9.44,25.81-29,31.07-52.88.27-2.27,5.32-24,1.6-22.49a5.64,5.64,0,0,0-1.14,3,62.13,62.13,0,0,1-4.9-8.28c-3.12-6.72-4.07-14.14-4.52-21.46-.15-.78-.25-3.62-1.58-2.55a12,12,0,0,0-1.15,6.78l-.63.06c-8.19.42-16.25.51-24.34-1.42-7.77-2-15-5.81-22.14-9.44-.57-.28-1.44-.76-2-.22C73.85,54.35,81.07,57,83,58.32c2,1.08,4,2.08,6.12,3a28.61,28.61,0,0,1-11,1C65.1,61,54.4,53.51,49.19,41.37c-1-1.59-1.43-3.82-3-4.93-1.31-.19-1.15,1.34-.7,2.88,1,10.79.35,20.22-6.51,28.65a55.05,55.05,0,0,0,.53-18.33c.16-.49-.59-.69-.63-.19,0,.33-.25.63-.3,1-1.13,4.85-1,9.84-2.06,14.74a47.31,47.31,0,0,1-6.75,17.45,98,98,0,0,1-6.32,9c-.84,1.08-2.44,3.1-.31,3.77a1.37,1.37,0,0,0,.76-.08c.26,1.59.76,3.3.83,4.07.78,3.76,1.58,7.52,2.55,11.24,3.3,11.26,6.54,22.76,12.19,33.11a42.32,42.32,0,0,0,18.82,17.26,1.38,1.38,0,0,0,.08.27,20.77,20.77,0,0,1,1.38,7c-5.29.4-9,5.36-11.7,9.48a41.89,41.89,0,0,0-9.54,4.5,1.74,1.74,0,0,0-.86-.66,39.87,39.87,0,0,1-10.11-9.72Zm118.11,35.08c-5.45-8.31-11.64-16.35-19.54-22.47,5-2.74,9.37-6.54,11.85-11.62a.72.72,0,0,0,.43-.09,28.05,28.05,0,0,0,10.69-9.44,44,44,0,0,0,4.78-10.82c.23.32.45.61.58.83,1.16,1.45,2.05,3.48,3.84,4.22,3.63.4,2.34-6.91,2.63-9.46,0-4.9-1.64-9.6-3.2-14.18a63.74,63.74,0,0,1-3.91-30.54c1.45-24.61,1.07-51.58-13.61-72.53C123.78,8.57,94.2-4.72,66.81,1.56A59.38,59.38,0,0,0,44.56,12.21c-1.8,1.54-4.46,3.37-5.22,5.75a9.83,9.83,0,0,0-1.87.37C26.92,21.66,20.21,31.56,15.73,41.15,7,59.9,7,81.22,8.5,101.45c.5,7.37,1.54,14.61.55,22-1.38,8.56-6.84,15.9-7.68,24.59-.82,5.68,1.31,13.34,7.73,14.45,2.65,7.15,12.22,21.19,14.29,8.31,3,5.05,7.59,10.19,13,12.75a60.73,60.73,0,0,0-12.65,12.31A104.76,104.76,0,0,0,4.14,231.32q-1.6,5-3.14,10c-.2,1.54-2,4.26-.14,5.19,2.14,2.81,9.45,5.52,12,6.5a184.92,184.92,0,0,0,48.9,9.49c29.57,1.55,59.62-1.12,88-9.7,3.08-1.1,6.36-1.86,9.27-3.35a1.37,1.37,0,0,0,.58-1.22c.62-.2,1-1,1.21-2,1.5-3.62-3.74-15.95-4.46-18.45a99.83,99.83,0,0,0-10.77-21"/><path id="path216" class="cls-117" d="M56,96.23c-4-1.71-9.06-1.91-12.31,1.45-1.58,1.23-.46,3.54,1.42,2.48,6-4.55,10.46-2.1,16.1,1.35a1.33,1.33,0,0,0,1.45-.64C63.86,98.55,57.61,97,56,96.23"/><path id="path218" class="cls-117" d="M113.18,97.85a10,10,0,0,1,4.06,2.05c.73.55,1.83,1,2.63.33,2.72-2.87-6.33-6.18-8.52-5.71-3.3,0-6.23,1.79-9,3.38-1.21.85-4.1,1.78-2.83,3.68,1.27,1.39,2.75-.42,4-1,2.94-1.77,6.11-3.5,9.71-2.74"/><path id="path220" class="cls-117" d="M57.17,68.68c1.31.41,1.16,1.62.21,2.36-3.09,2.18-7,3.27-10.49,4.85C49,73.47,53.7,68.1,57.17,68.68ZM44,79.28c2.53-.66,4.91-1.8,7.47-2.62,3.49-1.3,12.9-4.34,7.93-9.15-4.86-3.89-10.19,1.19-13.33,4.9A19.49,19.49,0,0,0,43,77.3c-.22.54-.54,1.23-.23,1.79a.79.79,0,0,0,1.24.19"/><path id="path222" class="cls-117" d="M109.36,68.86c3.52,1.39,5.94,4.83,8,7.9-2.36-1.22-4.7-2.5-7.17-3.48a32,32,0,0,1-4.21-1.78c-3.44-3.17.91-3.55,3.42-2.64ZM105.11,74c4.15,1.73,8.44,3.18,12.47,5.16a2.64,2.64,0,0,0,1,.22c.63.06,1.16-.71,1.12-1.32a10.92,10.92,0,0,0-1.16-2.75h0c-2.29-5.09-9.13-11.37-15-8.89-3,2-1,6.29,1.65,7.58"/><path id="path224" class="cls-117" d="M88.85,115.9c-1.49,2.08-3.89,3.84-6.54,3.8h0a7.54,7.54,0,0,1-5.84-2.93A20.81,20.81,0,0,0,88.85,115.9Zm-14.14,1c1.24,1.59,2.77,3.2,4.8,3.7a9.88,9.88,0,0,0,8-1.24c1.42-1.09,2.19-2.78,3.25-4.2a1.24,1.24,0,0,0,.31-.94c-.53-1.58-2.57-.42-3.7-.24a21.83,21.83,0,0,1-6.27,1c-2.38.16-4.52-1.54-6.73-2.12-1.3.1-1.22,1.78-.39,2.45-.17.63.37,1.15.71,1.61"/><path id="path226" class="cls-117" d="M82.36,119.7h0"/><path id="path228" class="cls-117" d="M90.13,141.61l-.84,1.79a7.31,7.31,0,0,0-2.53-1.76c-3.61-1.42-8-2.63-11.69-.94a7.7,7.7,0,0,0-2.66,2A60.38,60.38,0,0,1,69.05,132a29.54,29.54,0,0,0,16.2.54c2.2-.51,4.26-1.45,6.45-2,.78.29.88,1.34,1,2.06,0,3.09-1.32,6.17-2.57,9Zm-8.78,9.18c-3.59-.27-6.13-2.88-8-6.24a18.42,18.42,0,0,1,3.16-1.61,10.39,10.39,0,0,1,7.08-.41c1.61.86,3.24,1.75,4.78,2.71-1.54,2.86-3.58,5.47-7,5.55Zm9.08-22.88c-6.92,2.51-14.29,3.6-21.56,2a3,3,0,0,0-1.28-.11,1.43,1.43,0,0,0-.6-.06,1.21,1.21,0,0,0-1,1.39c.12.6.25,1.21.39,1.82a43.43,43.43,0,0,0,1.72,6.22c2.17,6,5.16,13.55,12.32,14.55,9.28.93,12.41-10.27,14.57-17.32,1-3.32.2-9.73-4.57-8.45"/><path id="path230" class="cls-118" d="M142.12,156.24a82.09,82.09,0,0,0-4.76-12.56c-.13,13.79-7.27,27.61-19.16,34.59l-.9.52c-1.13-.62-2.25-1.24-3.33-1.93-2.26-2.63-4.35-5.76-7.55-7.32a6.1,6.1,0,0,0-3.14-.5,38.54,38.54,0,0,1,1.15-8.46c19.44-9.44,25.81-29,31.06-52.87.29-2.27,5.33-24,1.61-22.49a5.57,5.57,0,0,0-1.13,3,61.14,61.14,0,0,1-4.91-8.28C128,73.2,127,65.78,126.54,58.46c-.15-.77-.24-3.62-1.58-2.55a12.14,12.14,0,0,0-1.15,6.78c-.22,0-.43,0-.62.06-8.2.42-16.26.51-24.35-1.42-7.77-2-15-5.81-22.14-9.45-.57-.27-1.44-.74-2-.22-.85,2.7,6.37,5.33,8.31,6.66,2,1.08,4,2.07,6.12,3a28.61,28.61,0,0,1-11,1C65.11,61,54.4,53.51,49.2,41.37c-1-1.58-1.45-3.81-3-4.93-1.3-.19-1.15,1.34-.69,2.88C46.5,50.1,45.84,59.54,39,68a54.86,54.86,0,0,0,.53-18.34c.16-.49-.59-.7-.63-.2,0,.34-.25.64-.3,1-1.12,4.87-1,9.84-2.06,14.74a47.44,47.44,0,0,1-6.74,17.46,105.09,105.09,0,0,1-6.32,9c-.85,1.07-2.45,3.1-.31,3.77a1.36,1.36,0,0,0,.75-.08c.27,1.59.76,3.3.83,4.06.78,3.77,1.59,7.54,2.56,11.25,3.3,11.26,6.52,22.76,12.18,33.1a42.34,42.34,0,0,0,18.82,17.27,2.68,2.68,0,0,0,.07.27,20.74,20.74,0,0,1,1.4,7c-5.3.4-9,5.37-11.71,9.48a42.17,42.17,0,0,0-6,2.46,73.22,73.22,0,0,1-17-31.4c-2.18,4.8-4.69,9.37-6.86,14.16a32.54,32.54,0,0,1-3.71-18.67c.46-4.45,1.83-8.76,2.74-13.13a64.65,64.65,0,0,0-.56-28.86c-3-11.73-1.42-24.52.89-36.39A82.41,82.41,0,0,1,31.8,32.73a5.26,5.26,0,0,1,2.44-2.14c1-.33,2.45.25,2.54,1.36a66.47,66.47,0,0,1-.53,15.24,32.25,32.25,0,0,0,2.87-17.06c0-.19.07-.43.26-.45s.34.28.16.35c10.25.81,19.84,3.37,27.92,9.75A55.57,55.57,0,0,0,45.31,26.63c-.83-.25-1.87-.77-1.74-1.63.08-.56.61-.91,1.09-1.16a32.49,32.49,0,0,1,19.49-3.63,45,45,0,0,0-14.46-.77c2.81-2.76,6.56-4.37,10.32-5.6a69.09,69.09,0,0,1,25.42-3.22,56.42,56.42,0,0,1,14.34,2.63c11.75,3.88,21.46,12.11,30.86,20.15,9.09,7.78,11,20.84,12.44,32.72s.82,23.89.18,35.84c-.45,8.36,2.71,15.77,4.16,24a45.71,45.71,0,0,1-5.29,30.26"/><path id="path232" class="cls-119" d="M24.59,230.16c2.68,8,3.73,16.45,5.79,24.63q-5-1.14-9.89-2.6c0-1.19.08-2.38.1-3.56.07-2.53-.87-32.08-1.81-32a.82.82,0,0,1,.4.06c1.74,4.49,4.1,8.78,5.41,13.45"/><path id="path234" class="cls-119" d="M144.92,215.94a209,209,0,0,0-4.34,36.22c-3.46.93-7,1.77-10.49,2.44-1,.19-2.08.4-3.12.58a109.61,109.61,0,0,1,5.34-21.09c2.41-7.06,5.44-14.4,11-19.24-1.32,3.07-2.48,6.26-3.72,9.38A138.64,138.64,0,0,0,133,246c-.23,1.08-.45,2.18-.68,3.28a.33.33,0,0,0,.25.4.34.34,0,0,0,.4-.26c.45-2.14.93-4.27,1.37-6.41a104.51,104.51,0,0,1,4.86-15.71,70.5,70.5,0,0,1,5.73-11.34"/></g></g></svg>