<svg xmlns="http://www.w3.org/2000/svg" viewBox="0 0 188.29 253.64"><defs><style>.cls-91{fill:#fff4ee;}.cls-92{fill:#ffe2cc;}.cls-93{fill:#ffb9a1;}.cls-94{fill:#c66a2c;}.cls-95{fill:#ffb864;}.cls-96{fill:#f78834;}.cls-97{fill:#ea63a1;}.cls-98{fill:#c94b93;}.cls-99{fill:#440829;}</style></defs><g id="Layer_2" data-name="Layer 2"><g id="svg2"><path id="path140" class="cls-91" d="M115.29,97.59c-3.27,2.46-5.65-3.28-4.87-5.93a2.27,2.27,0,0,1,4.08-.87c1.41,1.76,2.12,4.83.79,6.8Zm-7.23-18.51c-3.76,2.68-5.56,7-6.54,11.42-.23,10.24,6.14,20.54,17.65,19.53,12.1-1,18.73-11.22,16.86-22.47a21.79,21.79,0,0,0-3.33-5c-6-6.7-17-8.19-24.64-3.48"/><path id="path142" class="cls-92" d="M61,64.67a11.57,11.57,0,0,1,4.7-7.52c2.9-2.6,9.81-2.87,10.33,2-.16,3-3.91,2.84-5.92,3.93-2.21.88-4.3,2-6.42,3.09a1.73,1.73,0,0,1-1.09.21.87.87,0,0,1-1,.22c-.68-.35-.59-1.26-.56-1.91Zm59.93-7.52a11.57,11.57,0,0,1,4.7,7.52c0,.65.12,1.56-.55,1.91a.89.89,0,0,1-1-.22,1.69,1.69,0,0,1-1.08-.21c-2.13-1.07-4.22-2.21-6.43-3.09-2-1.09-5.76-.93-5.92-3.93.52-4.85,7.43-4.58,10.33-2ZM47.07,89.35a25,25,0,0,1,1.89-5C57,69,83.84,69,87.23,87.82c0,.53.23,1.57.36,2.66l.46-.22c3.09-1.21,7.91-1.73,10.93.2.13-1.08.33-2.11.36-2.64C102.73,69,129.54,69,137.62,84.3a21.56,21.56,0,0,1,2,5.61c.16,0,.31.09.47.12,1.22.32,2.49.53,3.68.93a59.59,59.59,0,0,0-5.85-25.35c-5.64-10.6-13.28-20.42-24.21-25.73a52.59,52.59,0,0,0-24.07-4.15c-5.27.36-10.42,2.57-15,4.79C57.53,49.23,44.83,66.63,43,85.77a53,53,0,0,0-.43,5.47c1.28-.68,2.69-1.3,3.77-1.8a2,2,0,0,1,.71-.09"/><path id="path144" class="cls-93" d="M98.49,113.62a11.62,11.62,0,0,1-8.82.83c1.3,1.17,2.68,2.75,4.57,2.56s3.3-1.82,4.25-3.39"/><path id="path146" class="cls-94" d="M69.53,58a7.49,7.49,0,0,0-6.68,6.25A34.56,34.56,0,0,1,73.34,59.3C73,57.84,70.78,57.87,69.53,58"/><path id="path148" class="cls-95" d="M91.14,219.21a.38.38,0,0,1-.24,0l-1.07-.13c-2-.15-4.09-.37-6.21-.68-2.67-.27-5.34-.52-8-.82a177.09,177.09,0,0,1-19.39-5.43c-12.44-4.46-25-10-35.07-18.71a89.64,89.64,0,0,0-14.4,23.58c-1.4,3.42-2.8,6.86-3.86,10.42a.81.81,0,0,1-.07.22c16,12.3,36.12,17,55.7,19.82a300.92,300.92,0,0,0,33.23,2.86c.08-3.72.13-7.45.18-11.17.09-5.29.09-10.6.22-15.89.13-1.3,0-2.7.17-4h-.24c-.31,0-.64-.05-1-.07"/><path id="path150" class="cls-92" d="M81.89,131c.93-.25,1.31.71.92,1.39.41.41.77.93,1.16,1.28a11.28,11.28,0,0,0,6.83,3.92,14.25,14.25,0,0,0,13.83-7.4,1.1,1.1,0,0,1,.15-.26c-.54-.53-.78-1.09,0-1.6,1.43-.34,2.34,1.2,3,2.18a.67.67,0,0,1-.94.92,4.14,4.14,0,0,0-.53-.38,6.71,6.71,0,0,1-.55,1c-3.18,5.23-9.31,8.74-15.48,7.45a12.35,12.35,0,0,1-8.36-5c-.11-.14-.24-.34-.38-.54a1.07,1.07,0,0,1-1.29.39c-1.05-.9.69-2.93,1.63-3.28Zm5.48-18.84c.91-.06,1.8.66,2.66.83a10,10,0,0,0,5.31-.13c1.67-.27,3.09-1.45,4.73-1.63,1.57.63.47,2.78-.16,3.77a6,6,0,0,1-6.7,3.08c-2.08-.49-3.7-2.09-5-3.68a1.37,1.37,0,0,1-.35-.85c-.37-.28-1.08-1-.47-1.39Zm-.12,48.19a34.21,34.21,0,0,0,10.48.27c1-.26,1.9-.5,2.86-.68,9.51-2.51,18.5-7.31,25-14.76,7.3-8.49,9.29-19.62,12.61-29.92,1.71-5.93,3.58-11.86,5.25-17.84a18.08,18.08,0,0,0,.24-2.58c0-.13,0-.27,0-.41a4.56,4.56,0,0,1-1.1-.28c-1-.35-2.33-1-3.27-1.43.07,10.3-9.12,19.83-19.64,20.34-10.89,1.41-20.89-8.35-20.73-18.91h-.07l-.2,0a4.84,4.84,0,0,1-1.43-.73c-2.77-1.88-7.48-1.94-9.63-.08.72,10.88-9.54,21.21-20.73,19.76-10.47-.5-19.61-9.94-19.63-20.19l-.32.17c-1.26.63-2.5,1.3-3.74,2,1.83,7,4,14,6,21,2.73,8.52,5.08,17.21,10.08,24.61,6.47,9.58,16.55,17.49,28,19.71"/><path id="path152" class="cls-96" d="M26.79,192.84c-.47-.46-1.59-1.45-2.66-2.55a4.6,4.6,0,0,1-.35.31c-.39.41-.76.84-1.14,1.25,9.59,9.32,21.72,15.08,34.38,19.09-11.51-4.67-22.32-11-30.23-18.1"/><path id="path154" class="cls-94" d="M117,58c-1.25-.12-3.43-.15-3.81,1.31a34.44,34.44,0,0,1,10.49,4.94A7.49,7.49,0,0,0,117,58"/><path id="path156" class="cls-91" d="M71.28,97.6c-1.33-2-.62-5,.79-6.81a2.27,2.27,0,0,1,4.08.87c.78,2.65-1.6,8.39-4.87,5.94Zm7.23-18.52c-7.62-4.71-18.67-3.22-24.64,3.48a22.12,22.12,0,0,0-3.33,5C48.68,98.81,55.3,109.08,67.4,110c11.51,1,17.89-9.29,17.65-19.53-1-4.42-2.78-8.74-6.54-11.42"/><path id="path158" class="cls-97" d="M139.68,208.27a103.06,103.06,0,0,1-16.47,6.54c0,5.14-.36,10.27-.73,15.39a33.75,33.75,0,0,1-1.6,8.08c-.28,3.05-1,6.15-3,5.46-.91-.82-1-2.25-1.13-3.4-1.11-5.74-.91-11.6-.64-17.41.16-.86.09-4.18.55-6.39a104.36,104.36,0,0,1-21.45,2.71,12.14,12.14,0,0,1,0,1.7q-.09,6-.19,12c-.07,5.15-.16,10.29-.35,15.43,0,.52,0,1.3-.08,2.06a225.45,225.45,0,0,0,24.65-.86,149.09,149.09,0,0,0,19.39-3c.3-3.07.77-6.14.86-9.22.52-9.7,0-19.42.16-29.11"/><path id="path160" class="cls-97" d="M108,195.38c-19.8-2-38.55-11.58-50.11-28-.38-.39.13-1,.52-.4,4.33,3.85,8.92,7.46,13.51,11,.31.24.63.46.94.69a47.44,47.44,0,0,0,21.77,3.72,61.38,61.38,0,0,0,21.73-6c2.33-1.12,4.71-2.19,7.09-3.19a1,1,0,0,1,1.3.42,1,1,0,0,1-.37,1.42c-.48.31-.94.64-1.41,1a30.77,30.77,0,0,1-25.06,13.64c-1.22-.06-2.43-.1-3.64-.14a78.78,78.78,0,0,0,32.91,2.57,91,91,0,0,0,16.76-5.87.4.4,0,0,1,.4.69A52,52,0,0,1,108,195.38ZM42,131.1c-.53-.76-2.35-4-1-3.51,1.8,1.53,3.34,3.38,5.07,5,3.41,3.2,6.93,6.65,10.62,10a56.64,56.64,0,0,1-7.3-15.31c-5.33-16.62-10.8-33.45-13.14-50.79A71.26,71.26,0,0,1,37.5,56.19a71.32,71.32,0,0,1,1.91-8.29c.77-2.43,1.67-4.2,2.5-3.25a1,1,0,0,1,0,.17c.42,2.32-.61,4.73-.86,7-1.22,7.24-2.21,14.7-1.79,22,.29,3.3.75,6.55,1.33,9.79.37-3,1-6,1.64-8.86,4.91-18,19.35-32.93,36.62-39.57.5-.22,1-.43,1.54-.61a36.51,36.51,0,0,1,13.46-2.11,62.31,62.31,0,0,1,16,2.55C125.24,40,136.06,53.67,142.4,68a66.93,66.93,0,0,1,4.1,16.86,96,96,0,0,0,1.64-11.94c.63-8.29-.73-16.51-2.41-24.62,0-.12,0-.24-.08-.36-.06-1.21-1.08-4.41.39-4.2a11.4,11.4,0,0,1,2.58,5.24c.32,1.22.58,2.44.89,3.58a65.3,65.3,0,0,1,1.82,19.79c-1,16.3-6.72,31.84-11.18,47.44-2.27,7.69-4.4,15.78-8.58,22.67,5.09-4.94,9.87-10.24,14.68-15.37.27-.25.42-.74.86-.65a.45.45,0,0,1,.28.62,14.57,14.57,0,0,1-.91,1.86c-5.17,8.89-13.13,15.94-21,22.4-6.93,5.29-14.55,10.55-23.21,12a36.56,36.56,0,0,1-12.33,1,24,24,0,0,1-6-1.32,43.29,43.29,0,0,1-13.09-6.08A72.75,72.75,0,0,1,58.73,148c-5.89-5.27-12.09-10.4-16.69-16.89Zm102.77,36.23c-1-.79-.37-1.86-.36-2.89a16.49,16.49,0,0,0-2.07-7.43c-.11-.22-.22-.41-.35-.62-1.13,1.64-2.27,3.27-3.38,4.91-1.13,1.28-2,4.33-4.13,3.24a1.58,1.58,0,0,1-.46-2.18c2.3-3.44,4.72-6.82,7-10.26,1.66-2.47,3.26-5,4.73-7.54a49.36,49.36,0,0,0,3.43-7.49,22.54,22.54,0,0,0,1.37-8.22c0-1.62-.07-3.16,0-4.71.31-1,.86-2,1.25-3,6.1-15.2,12.45-30.93,12.36-47.53-.55-10.37-1.58-20.62-5.45-30.24a76.42,76.42,0,0,0-8.27-13.67c-7-9.26-16.23-16.76-27.28-20.67A74,74,0,0,0,96.92,3.31a4.72,4.72,0,0,0-.62-.08l-1,0-1.82,0c-.43,0-.86,0-1.28,0A65.78,65.78,0,0,0,74.46,6.38C61.69,10.27,49,16.31,40.16,26.53A63.45,63.45,0,0,0,33.75,36C23.9,53.73,22.43,75.65,26.54,95.3c1.73,7.91,4.73,15.43,7.7,22.91.8,2.2,1.56,4.42,2.34,6.62.86.07,1.19,1.62,1,2.64-2.23,12.08,6.09,22.36,14,30.45a24.63,24.63,0,0,1,1.74,1.93A1.58,1.58,0,0,1,51,162c-1.61-1.67-3.35-3.51-5.09-5.49a4,4,0,0,0-.91,1.32,18.7,18.7,0,0,0-2.3,7.69,4,4,0,0,1-.61,1.77c-.58.94-1.86,1.09-2.8,1.36-1.61.44-3.2.85-4.72,1.41a19.24,19.24,0,0,0-3.56,1.62c-5.25,3-8.19,10.09-5.75,15.77a8.8,8.8,0,0,0,1,1,82.2,82.2,0,0,0,12,9.47c3.43,2.08,7,4.08,10.78,5.91,13.25,6.59,28.11,11.37,42.45,12.29,15.14.48,30.19-3.27,44-9.23a100.24,100.24,0,0,0,17.26-10.39c2.61-1.89,5.15-3.86,7.66-5.87.21-.44.56-.85.79-1.28,1.59-2.94,1.05-6.47-.23-9.42-2.79-6.94-10.21-9.26-16.19-12.61"/><path id="path162" class="cls-98" d="M119.15,241c.29-.91.56-1.82.8-2.74l.42-3.11.12-1.92a.27.27,0,0,1,.16-.24c.79-6,1.51-12,1.75-18-1.13.34-2.26.65-3.4.94.32,1.56,0,3.32,0,4.88,0,6.72-.11,13.45.1,20.17"/><path id="path164" class="cls-95" d="M165.69,194.21c-.63-.86-1.59-1.58-2.25-2.44-1.37,1.73-4.58,3.71-5.35,4.6a97.77,97.77,0,0,1-15.68,10.47,5.29,5.29,0,0,1,.08.79c0,4.72.21,9.44.25,14.16a131.63,131.63,0,0,1-1.07,22.71,11.14,11.14,0,0,0-.19,1.45,160.93,160.93,0,0,0,35.23-13c2.68-1.38,5.42-2.78,8-4.32-3.78-8.56-7-17.61-12.24-25.41a92.77,92.77,0,0,0-6.77-9"/><path id="path166" class="cls-98" d="M109.48,186.05a33.34,33.34,0,0,0,10.61-8.22c-10.67,5.95-23.29,9-35.47,7.29l-2.15-.4a69.49,69.49,0,0,0,9.5,4c1.37.06,2.75.11,4.12.15a30.9,30.9,0,0,0,13.39-2.83"/><path id="path168" class="cls-99" d="M49.19,116.07c-2-7-4.16-14-6-21,1.24-.66,2.48-1.33,3.74-2l.32-.17c0,10.25,9.16,19.69,19.63,20.19,11.19,1.45,21.45-8.88,20.73-19.76,2.15-1.86,6.86-1.8,9.63.08a4.84,4.84,0,0,0,1.43.73l.2,0H99c-.16,10.56,9.84,20.32,20.73,18.91,10.52-.51,19.71-10,19.64-20.34.94.44,2.3,1.08,3.27,1.43a4.56,4.56,0,0,0,1.1.28c0,.14,0,.28,0,.41a18.08,18.08,0,0,1-.24,2.58c-1.67,6-3.54,11.91-5.25,17.84-3.32,10.3-5.31,21.43-12.61,29.92-6.49,7.45-15.48,12.25-25,14.76-1,.18-1.91.42-2.86.68a34.21,34.21,0,0,1-10.48-.27c-11.43-2.22-21.51-10.13-28-19.71-5-7.4-7.35-16.09-10.08-24.61ZM85.05,90.5C85.29,100.74,78.91,111,67.4,110c-12.1-1-18.72-11.22-16.86-22.47a22.12,22.12,0,0,1,3.33-5c6-6.7,17-8.19,24.64-3.48,3.76,2.68,5.56,7,6.54,11.42ZM119.17,110c-11.51,1-17.88-9.29-17.65-19.53,1-4.42,2.78-8.74,6.54-11.42,7.62-4.71,18.67-3.22,24.64,3.48a21.79,21.79,0,0,1,3.33,5c1.87,11.25-4.76,21.52-16.86,22.47ZM43,85.77c1.81-19.14,14.51-36.54,31.61-45.25,4.56-2.22,9.71-4.43,15-4.79a52.59,52.59,0,0,1,24.07,4.15c10.93,5.31,18.57,15.13,24.21,25.73A59.59,59.59,0,0,1,143.74,91c-1.19-.4-2.46-.61-3.68-.93-.16,0-.31-.08-.47-.12a21.56,21.56,0,0,0-2-5.61C129.54,69,102.73,69,99.34,87.82c0,.53-.23,1.56-.36,2.64-3-1.93-7.84-1.41-10.93-.2l-.46.22c-.13-1.09-.33-2.13-.36-2.66C83.84,69,57,69,49,84.3a25,25,0,0,0-1.89,5,2,2,0,0,0-.71.09c-1.08.5-2.49,1.12-3.77,1.8A53,53,0,0,1,43,85.77Zm27.79,71.05a43.1,43.1,0,0,0,13.09,6.1,24.68,24.68,0,0,0,6,1.31,37.08,37.08,0,0,0,12.33-1c8.67-1.43,16.28-6.69,23.21-12,7.89-6.46,15.84-13.52,21-22.39a16.82,16.82,0,0,0,.91-1.86.45.45,0,0,0-.29-.62c-.43-.09-.58.4-.85.64-4.81,5.13-9.58,10.43-14.68,15.37,4.19-6.88,6.3-15,8.58-22.67,4.46-15.6,10.14-31.14,11.18-47.44a65.3,65.3,0,0,0-1.82-19.79c-.82-3-1.23-6.57-3.47-8.83-1.48-.2-.45,3-.39,4.21,1.71,8.22,3.13,16.55,2.49,25a95.74,95.74,0,0,1-1.64,11.94A67,67,0,0,0,142.4,68C136.06,53.67,125.23,40,109.89,35c-10-2.82-21.2-4.05-31,.16C61.61,41.83,47.17,56.81,42.26,74.76c-.62,2.85-1.27,5.85-1.64,8.86-.58-3.23-1-6.49-1.33-9.78-.42-7.27.57-14.74,1.8-22,.24-2.37,1.32-4.84.81-7.22C40,42.47,37.79,54.4,37.5,56.19c-1.18,6.69-1.92,13.51-1.17,20.29,2.34,17.35,7.81,34.17,13.14,50.79a56.07,56.07,0,0,0,7.3,15.31c-3.69-3.35-7.21-6.8-10.62-10-1.72-1.61-3.27-3.46-5.06-5-1.4-.5.42,2.74.95,3.5,4.6,6.49,10.8,11.63,16.69,16.9a72.64,72.64,0,0,0,12.08,8.82"/><path id="path170" class="cls-99" d="M98.49,113.62c-.95,1.57-2.33,3.17-4.25,3.39s-3.27-1.39-4.57-2.56A11.62,11.62,0,0,0,98.49,113.62Zm-10.65,0a1.37,1.37,0,0,0,.35.85c1.32,1.59,2.94,3.19,5,3.68a6,6,0,0,0,6.7-3.08c.63-1,1.73-3.14.16-3.77-1.64.18-3.06,1.36-4.73,1.63A10,10,0,0,1,90,113c-.86-.17-1.75-.89-2.66-.83-.61.35.1,1.11.47,1.39"/><path id="path172" class="cls-99" d="M81.55,133.93c.14.2.27.4.38.54a12.35,12.35,0,0,0,8.36,5c6.17,1.29,12.3-2.22,15.48-7.45a6.71,6.71,0,0,0,.55-1,4.14,4.14,0,0,1,.53.38.67.67,0,0,0,.94-.92c-.68-1-1.59-2.52-3-2.18-.77.51-.53,1.07,0,1.6a1.1,1.1,0,0,0-.15.26,14.25,14.25,0,0,1-13.83,7.4A11.28,11.28,0,0,1,84,133.71c-.39-.35-.75-.87-1.16-1.28.39-.68,0-1.64-.92-1.39s-2.68,2.38-1.63,3.28a1.07,1.07,0,0,0,1.29-.39"/><path id="path174" class="cls-99" d="M69.53,58c1.25-.12,3.43-.15,3.81,1.31a34.56,34.56,0,0,0-10.49,4.94A7.49,7.49,0,0,1,69.53,58Zm-8,8.59a.87.87,0,0,0,1-.22,1.73,1.73,0,0,0,1.09-.21c2.12-1.07,4.21-2.21,6.42-3.09,2-1.09,5.76-.93,5.92-3.93-.52-4.85-7.43-4.58-10.33-2A11.57,11.57,0,0,0,61,64.67c0,.65-.12,1.56.56,1.91"/><path id="path176" class="cls-99" d="M72.07,90.79c-1.41,1.76-2.12,4.83-.79,6.81,3.27,2.45,5.65-3.29,4.87-5.94a2.27,2.27,0,0,0-4.08-.87"/><path id="path178" class="cls-99" d="M117,58a7.49,7.49,0,0,1,6.68,6.25,34.44,34.44,0,0,0-10.49-4.94c.38-1.46,2.56-1.43,3.81-1.31Zm-.55,5.07c2.21.88,4.3,2,6.43,3.09a1.69,1.69,0,0,0,1.08.21.89.89,0,0,0,1,.22c.67-.35.58-1.26.55-1.91a11.57,11.57,0,0,0-4.7-7.52c-2.9-2.6-9.81-2.87-10.33,2,.16,3,3.91,2.84,5.92,3.93"/><path id="path180" class="cls-99" d="M110.42,91.66c-.78,2.65,1.6,8.39,4.87,5.93,1.33-2,.62-5-.79-6.8a2.27,2.27,0,0,0-4.08.87"/><path id="path182" class="cls-99" d="M82.47,184.72l2.15.4c12.18,1.71,24.8-1.34,35.47-7.29a33.34,33.34,0,0,1-10.61,8.22,30.9,30.9,0,0,1-13.39,2.83c-1.37,0-2.75-.09-4.12-.15a69.49,69.49,0,0,1-9.5-4Zm61.44,1.46a90.76,90.76,0,0,1-16.76,5.87,78.62,78.62,0,0,1-32.91-2.58l3.63.15A30.82,30.82,0,0,0,123,176c.46-.33.92-.66,1.4-1a1,1,0,0,0-.93-1.86c-2.39,1-4.75,2.08-7.1,3.21a61,61,0,0,1-21.72,6,47.25,47.25,0,0,1-21.77-3.71c-.31-.23-.63-.45-.94-.7-4.59-3.57-9.18-7.18-13.51-11-.39-.59-.91,0-.52.4,11.56,16.47,30.3,26.06,50.11,28a52,52,0,0,0,36.35-8.5.41.41,0,0,0-.41-.7"/><path id="path184" class="cls-99" d="M176.71,232.91a160.93,160.93,0,0,1-35.23,13,11.14,11.14,0,0,1,.19-1.45,131.63,131.63,0,0,0,1.07-22.71c0-4.72-.23-9.44-.25-14.16a5.29,5.29,0,0,0-.08-.79,97.77,97.77,0,0,0,15.68-10.47c.77-.89,4-2.87,5.35-4.6.66.86,1.62,1.58,2.25,2.44a92.77,92.77,0,0,1,6.77,9c5.2,7.8,8.46,16.85,12.24,25.41-2.57,1.54-5.31,2.94-8,4.32Zm-37.19,4.47c-.09,3.08-.56,6.15-.86,9.22a149.09,149.09,0,0,1-19.39,3,225.45,225.45,0,0,1-24.65.86c0-.76,0-1.54.08-2.06.19-5.14.28-10.28.35-15.43q.09-6,.19-12a12.14,12.14,0,0,0,0-1.7,104.36,104.36,0,0,0,21.45-2.71c-.46,2.21-.39,5.53-.55,6.39-.27,5.81-.47,11.67.64,17.41.17,1.15.22,2.58,1.13,3.4,2,.69,2.7-2.41,3-5.46a33.75,33.75,0,0,0,1.6-8.08c.37-5.12.71-10.25.73-15.39a103.06,103.06,0,0,0,16.47-6.54C139.49,218,140,227.68,139.52,237.38ZM119,216c1.14-.29,2.27-.6,3.4-.94-.24,6-1,12-1.75,18a.27.27,0,0,0-.16.24l-.12,1.92L120,238.3c-.24.92-.51,1.83-.8,2.74-.21-6.72-.15-13.45-.1-20.17-.09-1.56.27-3.32,0-4.88Zm-27.48.14c-18.37-1.18-37.6-8.68-53.24-18.21a80.85,80.85,0,0,1-12-9.46,9.55,9.55,0,0,1-1-1c-2.43-5.7.5-12.73,5.75-15.78a32.79,32.79,0,0,1,8.29-3c.93-.27,2.21-.43,2.79-1.36a4,4,0,0,0,.61-1.78,18.48,18.48,0,0,1,2.31-7.67,3.83,3.83,0,0,1,.89-1.33c1.74,2,3.49,3.83,5.1,5.49a1.58,1.58,0,0,0,2.25-2.16,24,24,0,0,0-1.73-1.91c-7.91-8.11-16.22-18.38-14-30.46.21-1-.14-2.57-1-2.64-.78-2.2-1.54-4.42-2.34-6.63-3-7.47-6-15-7.7-22.9C21.65,72,24.65,45.46,40.16,26.53,49,16.3,61.69,10.27,74.45,6.38A65.93,65.93,0,0,1,92.21,3.25c.43,0,.86,0,1.29,0l1.82,0,1,0a3.47,3.47,0,0,1,.63.08,74,74,0,0,1,26.3,5.75c16.13,5.7,28.35,19.08,35.55,34.34,3.86,9.62,4.9,19.87,5.45,30.24.1,16.6-6.26,32.33-12.37,47.53-.38,1-.93,2-1.24,3-.07,1.55,0,3.09,0,4.7.18,5.67-2.12,10.78-4.8,15.73-3.53,6.17-7.81,11.88-11.76,17.79a1.59,1.59,0,0,0,.46,2.19c2.11,1.09,3-2,4.13-3.24,1.11-1.65,2.25-3.28,3.38-4.93a16.69,16.69,0,0,1,2.42,8.06c0,1-.67,2.1.36,2.89,6,3.35,13.4,5.66,16.19,12.61,1.27,2.95,1.82,6.49.23,9.43-.23.42-.58.83-.79,1.26-7.74,6.22-15.87,12.11-24.93,16.27-13.81,6-28.86,9.71-44,9.23Zm.64,7.18c-.13,5.29-.13,10.6-.22,15.89,0,3.72-.1,7.45-.18,11.17a300.92,300.92,0,0,1-33.23-2.86C39,244.65,18.81,240,2.83,227.69a.81.81,0,0,0,.07-.22c1.06-3.56,2.46-7,3.86-10.42a89.64,89.64,0,0,1,14.4-23.58c10.05,8.74,22.63,14.25,35.07,18.71a177.09,177.09,0,0,0,19.39,5.43c2.66.3,5.33.55,8,.82,2.12.31,4.18.53,6.21.68l1.07.13a.38.38,0,0,0,.24,0c.31,0,.64.06,1,.07h.24C92.17,220.61,92.29,222,92.16,223.31ZM23.78,190.6a4.6,4.6,0,0,0,.35-.31c1.07,1.1,2.19,2.09,2.66,2.55C34.7,200,45.51,206.27,57,210.94c-12.66-4-24.79-9.77-34.38-19.09.38-.41.75-.84,1.14-1.25Zm163.61,37.18c-1-4-2.95-7.7-4.49-11.47a110.89,110.89,0,0,0-7.61-14.43c-.92-1.24-7.12-10.91-10.5-12.75a15.93,15.93,0,0,0,.57-3.21c.29-11.13-9.76-17.38-18.87-21.17.35-3.61-.28-8-2.8-10.78a80.56,80.56,0,0,0,7.38-12.79,30.18,30.18,0,0,0,2.06-14.69c.84-2.29,2-4.51,2.89-6.83,5.52-14.54,11.4-29.59,11.39-45.36-.35-9.94-1.55-20-4.63-29.48C156.12,28.71,144,14.23,127.64,7.46A76.74,76.74,0,0,0,99.17.33H99c-7.84-1-16,.41-23.56,2.49C60.06,7.21,44.51,14.69,35,28,22.4,45.83,19.3,68.73,22.29,90c1.46,10.13,5,19.74,8.86,29.18,1.12,3.11,2.21,6.27,3.33,9.4-2.09,9,3.34,18.17,9.56,25.7-.13.15-.24.29-.34.42-2.81,2.83-2.77,6.77-3.29,10.4-5.21,1.28-10.95,2.71-14.7,6.87-3.28,3.79-5.56,9.87-3.88,14.8a3.14,3.14,0,0,0,.56,1.42A31.66,31.66,0,0,0,17,193.65,97.09,97.09,0,0,0,2.36,220.26c-.22,1.23-2,4.61-2.07,6.7a1,1,0,0,0-.26.49,3.21,3.21,0,0,0,1.28,2.68,32.4,32.4,0,0,0,4.56,3.52c24.37,15.39,55,18,83.17,19.76,27.35,1.2,55.16-2.25,80.3-13.51a133.2,133.2,0,0,0,18.28-9.52,1.49,1.49,0,0,0-.23-2.6"/><path id="path186" class="cls-98" d="M41.08,51.87c.25-2.32,1.28-4.73.86-7l.11-.13c.32,2.24-.46,4.49-.53,6.76s1.06,4.92,3.29,5.26,4.14-2,5.52-3.93A42.53,42.53,0,0,1,66.17,39.25a60.11,60.11,0,0,1,14.25-4.67c-.52.18-1,.39-1.54.61C61.61,41.83,47.17,56.81,42.26,74.76c-.62,2.85-1.27,5.84-1.64,8.86-.58-3.24-1-6.49-1.33-9.79-.42-7.26.57-14.72,1.79-22"/><path id="path188" class="cls-98" d="M109.89,35a62.31,62.31,0,0,0-16-2.55,31.59,31.59,0,0,1,10.84.81c14.36,3.94,28.23,10,36.29,22.55.61.94,1.42,2,2.53,1.91,1.38-.14,1.8-1.92,1.87-3.31.1-2.07.22-4.12.32-6.18,1.68,8.11,3,16.33,2.41,24.62a96,96,0,0,1-1.64,11.94A66.93,66.93,0,0,0,142.4,68C136.06,53.67,125.24,40,109.89,35"/><path id="path190" class="cls-98" d="M108,195.38c-19.8-2-38.55-11.58-50.11-28-.38-.39.13-1,.52-.4,4.33,3.85,8.92,7.46,13.51,11,.31.24.63.46.94.69a47.44,47.44,0,0,0,21.77,3.72,61.38,61.38,0,0,0,21.73-6c2.33-1.12,4.71-2.19,7.09-3.19a1,1,0,0,1,1.3.42,1,1,0,0,1-.37,1.42c-.48.31-.94.64-1.41,1a30.77,30.77,0,0,1-25.06,13.64c-1.22-.06-2.43-.1-3.64-.14a78.78,78.78,0,0,0,32.91,2.57,91,91,0,0,0,16.76-5.87.4.4,0,0,1,.4.69A52,52,0,0,1,108,195.38Zm42-8.18c1.06-1.13,2.19-2.43,2.16-4a6,6,0,0,0-1.54-3.27c-1.62-2.17-3.36-4.41-5.87-5.43s-5.52-.63-8-1.83a2.43,2.43,0,0,1-1.22-1.1,2.77,2.77,0,0,1,.06-1.88c1.34-4.63,4.26-8.59,6.8-12.7-.11-.22-.22-.41-.35-.62-1.13,1.64-2.27,3.27-3.38,4.91-1.13,1.28-2,4.33-4.13,3.24a1.58,1.58,0,0,1-.46-2.18c2.3-3.44,4.72-6.82,7-10.26a73.13,73.13,0,0,1-16.39,10.26c-2,.91-4.53,1.68-6.24.31,10.85-7.82,21.84-15.76,30.79-25.6a22.54,22.54,0,0,0,1.37-8.22c0-1.62-.07-3.16,0-4.71.31-1,.86-2,1.25-3,6.1-15.2,12.45-30.93,12.36-47.53-.55-10.37-1.58-20.62-5.45-30.24a76.42,76.42,0,0,0-8.27-13.67c3.54,7.37,5.85,15.14,5.07,23.18a2.53,2.53,0,0,1-.91,2c-1.11.66-2.39-.51-3.11-1.57-1-1.45-2-2.94-2.94-4.45.32,1.22.58,2.44.89,3.58a65.3,65.3,0,0,1,1.82,19.79c-1,16.3-6.72,31.84-11.18,47.44-2.27,7.69-4.4,15.78-8.58,22.67,5.09-4.94,9.87-10.24,14.68-15.37.27-.25.42-.74.86-.65a.45.45,0,0,1,.28.62,14.57,14.57,0,0,1-.91,1.86c-5.17,8.89-13.13,15.94-21,22.4-6.93,5.29-14.55,10.55-23.21,12a36.56,36.56,0,0,1-12.33,1,24,24,0,0,1-6-1.32,43.29,43.29,0,0,1-13.09-6.08A72.75,72.75,0,0,1,58.73,148c-5.89-5.27-12.09-10.4-16.69-16.89-.53-.76-2.35-4-1-3.51,1.8,1.53,3.34,3.38,5.07,5,3.41,3.2,6.93,6.65,10.62,10a56.64,56.64,0,0,1-7.3-15.31c-5.33-16.62-10.8-33.45-13.14-50.79A71.26,71.26,0,0,1,37.5,56.19a71.32,71.32,0,0,1,1.91-8.29c-2.76,3.87-4.72,8.36-7,12.55-.16.26-.33.55-.62.63a1,1,0,0,1-1-.48,6.33,6.33,0,0,1-.94-4c.05-7,1.73-13.92,4-20.65C23.9,53.73,22.43,75.65,26.54,95.3c1.73,7.91,4.73,15.43,7.7,22.91.8,2.2,1.56,4.42,2.34,6.62.86.07,1.19,1.62,1,2.64-2.23,12.08,6.09,22.36,14,30.45a24.63,24.63,0,0,1,1.74,1.93A1.58,1.58,0,0,1,51,162c-1.61-1.67-3.35-3.51-5.09-5.49a4,4,0,0,0-.91,1.32,18.7,18.7,0,0,0-2.3,7.69,4,4,0,0,1-.61,1.77c-.58.94-1.86,1.09-2.8,1.36-1.61.44-3.2.85-4.72,1.41a8.88,8.88,0,0,0,7.15-1.25c1-.74,2-1.73,3.19-2,2.65-.62,4.72,2.14,6.22,4.42,5.25,8,12.84,14.31,21.17,19.07s17.4,8.07,26.53,11a104.33,104.33,0,0,1-49.8,2.56c13.25,6.59,28.11,11.37,42.45,12.29,15.14.48,30.19-3.27,44-9.23a100.24,100.24,0,0,0,17.26-10.39,91.78,91.78,0,0,1-12.39.84c3.2-3.38,6.39-6.78,9.58-10.15"/></g></g></svg>