<svg xmlns="http://www.w3.org/2000/svg" viewBox="0 0 190.02 265.63"><defs><style>.cls-121{fill:#f2ab4e;}.cls-122{fill:#ffb9a1;}.cls-123{fill:#ffe2cc;}.cls-124{fill:#ffda88;}.cls-125{fill:#bec4ed;}.cls-126{fill:#440829;}.cls-127{fill:#959cdb;}</style></defs><g id="Layer_2" data-name="Layer 2"><g id="svg2"><path id="path282" class="cls-121" d="M72.24,75.81c2-1.77-2.6-2.3-3.65-1.76a11.79,11.79,0,0,0-7.82,9.12c0,.1,0,.2,0,.31a27.3,27.3,0,0,1,11.49-7.67"/><path id="path284" class="cls-122" d="M95,118.5a5.66,5.66,0,0,0,3.45-1.45,22.59,22.59,0,0,0,1.66-2.73,14.17,14.17,0,0,1-9.73,1.73c1.13,1.51,2.66,2.73,4.62,2.45"/><path id="path286" class="cls-123" d="M60.84,78.22c2.1-3.12,5.14-5.91,8.93-6.63,1.86-.27,4.33.11,5.17,2a3.23,3.23,0,0,1-.85,4c-3.51,1.95-7.51,3.63-10.59,6.19-1,.58-1.8,2.09-3,1.87C57,84.88,59.57,80.08,60.84,78.22ZM77.19,99.09a4.09,4.09,0,0,1-3.47,3.07c-4.83-.44-3.62-10.83,1.29-10C77.83,92.89,77.63,96.79,77.19,99.09Zm6.71,36.34c1-.77,1.86.31,2.6.9a19.53,19.53,0,0,0,10.1,1.89c3.3-.42,7-.36,9.46-2.89a1.23,1.23,0,0,1,1.69.22c1.7,2.94-7.83,4.68-9.76,4.36-2,0-17.34-.69-14.09-4.48Zm5.3-21.67a9.17,9.17,0,0,0,6.61.6,13.17,13.17,0,0,0,3-.82c.86-.3,2.11-1.72,2.78-.47a6.31,6.31,0,0,1-7,6.3,7.78,7.78,0,0,1-6.2-3.88c-1.77-.83-1.21-2.82.71-1.73Zm25-21.64c4.91-.79,6.12,9.6,1.29,10a4.09,4.09,0,0,1-3.47-3.07C111.6,96.79,111.41,92.89,114.23,92.12Zm.07-18.5c.84-1.92,3.31-2.3,5.17-2,3.79.72,6.83,3.51,8.92,6.63,1.27,1.86,3.87,6.66.39,7.49-1.24.22-2.06-1.29-3-1.88-3.09-2.55-7.08-4.23-10.59-6.18a3.23,3.23,0,0,1-.85-4ZM89.4,167.38a18.34,18.34,0,0,0,2.24.36c2,0,3.9,0,5.85-.05,1,0,2,0,3-.11,2.65-.44,5.38-.62,8-1.32A44.08,44.08,0,0,0,140.9,136a317.47,317.47,0,0,0,9.61-45.78c1-6.88,1.94-13.81,1.66-20.77-1.19,3.38-3,5.93-5,4.66-2.08-3.08-2-7.19-3-10.69-.73,3.68-3,7.75-7.23,7.84A35.08,35.08,0,0,1,121.4,68a7.43,7.43,0,0,1-4-5.27c-.39,1.75-1.37,2.74-3.93,2.55-4.51.08-8.94.12-13.42.41-6.82.37-17.34,1.78-19.46-6.82C80,61.73,78.18,68,74.23,65.66c-1.48-1.8-1.89-4.35-2.35-6.59C68.66,69,64.05,69.5,54.76,71c-2.81.21-5.95,1.56-8.64.39-1.53-1.36-1.75-3.68-2.4-5.53-.78,2.28-2.74,12.44-6.33,7.86-.24-.52-.46-1.06-.68-1.59.17,4,.56,8,1.07,12a342.25,342.25,0,0,0,8,41.51c5,23.67,19.29,38.78,43.66,41.75"/><path id="path288" class="cls-123" d="M40.6,117.76h0c-1.78-8.31-3.6-16.64-4.89-25A7.9,7.9,0,0,0,34,91.15c-2.56-2.48-5.9.09-6.74,2.9-2.49,8.1,1.79,18.51,5.45,25.77A17.88,17.88,0,0,0,40.62,127a5,5,0,0,0,2.19.1q-.83-3.28-1.6-6.56h0a10,10,0,0,1-2.63-2.12,20,20,0,0,1-7.76-20.31,6.75,6.75,0,0,0-1.5-1.57c-.44-.35-1.38-.78-1.05-1.47,1.21-1.06,3.81,1.15,4.69,2.07A14.72,14.72,0,0,1,36,105.35c-.47,2.68-.57,5.47,1.13,7.77a35.18,35.18,0,0,0,3.46,4.64"/><path id="path290" class="cls-121" d="M128.48,83.48a3,3,0,0,0,0-.31,11.76,11.76,0,0,0-7.82-9.12c-1-.54-5.59,0-3.65,1.76a27.27,27.27,0,0,1,11.49,7.67"/><path id="path292" class="cls-122" d="M31.44,99.15c-1.12,5.74.7,12.88,5.33,16.62-1.69-3.23-2.37-7.17-3.52-10.53a28.24,28.24,0,0,0-1.81-6.09"/><path id="path294" class="cls-122" d="M96.54,170.9a11.08,11.08,0,0,1-1.73.07c-.28,0-.56,0-.84,0-.75,0-1.51,0-2.25-.05a24.31,24.31,0,0,1-3.39-.4,57.92,57.92,0,0,1-12-2.86c0,1-.09,2.18-.12,3.08.59.44,1.09,1.05,1.62,1.37,11.22,8.84,24.07,8.09,33.85-2,0-.42,0-.83,0-1.25a46,46,0,0,1-11.79,1.92c-1.13.11-2.26.16-3.4.2"/><path id="path296" class="cls-123" d="M151.5,119.56c-.92.78-1.77,2-3.1,1.93a1.18,1.18,0,0,1-.46,0c-.06.25-.11.49-.16.73l-1.17,5c4.28.48,8-3.42,10-6.9,3-5,9.48-29.51.39-30.2-1-.19-2.38,1-3.5,1.63-1.28,9.25-3,18.32-5,27.37a19,19,0,0,0,2.37-4c.85-1.91,1.88-3.59,2.23-5.57,0-5-.21-10.3,3.83-13.89.79-.77,2.78-2.48,3.51-.89.16.58-.26,1.17-.55,1.64-.17.23-.33.47-.5.71a25.56,25.56,0,0,1-4.82,16.71,2,2,0,0,0-.37.46,14,14,0,0,1-2.67,5.29"/><path id="path298" class="cls-123" d="M53.61,198.52c-1.4.65-2.82,1.85-4.36,2.17,3.13,5.19,4.67,11.22,6.66,16.91a133.06,133.06,0,0,1,23.39,2.18,59.87,59.87,0,0,1,15,4.35c1.16-1.38,4.72-2,6-2.64,10.57-3.48,22-3.24,33-2.45.9-1.84,3.3-9.61,5.82-15.39-2.08-1.18-3.9-3.19-5.81-4.59-5.07-4.27-10.71-8.4-15.36-13-2-2.32-5.08-4.33-5.78-7.42-.26-2.26-.43-4.55-.47-6.84a25.15,25.15,0,0,1-20.3,7.77h.09c-5.34-.73-11-1.8-15-5.69l-.24-.25a26.2,26.2,0,0,1-.54,7.1c-1.22,1.9-3.07,3.32-4.69,4.86a95.55,95.55,0,0,1-17.37,12.9"/><path id="path300" class="cls-124" d="M162,169.55c.33,13.67,2.53,27.27,3.38,40.91l-2.09-.94c-1-1.08-1.84-2.23-2.78-3.36l-.51-.68c-6.62-8.66-16.77-17.17-28.38-14.53a7,7,0,0,0-2.32.92c-4.86-3.88-9.59-7.75-13.62-12.62-1-1.1-.89-2.66-1-4.09-.1-2-.15-4-.25-6,0-.33,0-.77-.11-1.22a47.4,47.4,0,0,0,24.94-20.31c3.27-5.54,5.19-11.63,6.76-17.84l.09,0c0,.21,0,.41-.06.62-.26,11.84.1,23.7.34,35.54.15,6.07,1.14,12.08,1.23,18.17,1.28,2,.15-6.4.31-7.24.12-13.58.19-27.17,1-40.73-.13-2.05.22-4.22.07-6.28a12.38,12.38,0,0,0,8.49-5.07c4.08-5.22,5.79-13.4,6.58-19.37.63-5.42,1.66-14.53-3.82-17.42a7,7,0,0,0-2.43-.8,7.24,7.24,0,0,0-3.78,1c1-7.92,2.54-21.64-.26-27a4.7,4.7,0,0,0-.46-2.44c-1.74-1.16-1.9,2.15-2,3.22a47,47,0,0,1-2.5,8.51c-.91-4.83-2-9.61-3.12-14.38a.75.75,0,0,0,0-.12,1.4,1.4,0,0,0-2.77-.27c-.56,6.27-1.33,14-9.7,12.17C128.21,67,120,66.68,119.81,60.1c-.5-3.28-.64-6.65-1.4-9.89a2.39,2.39,0,0,0-.93-1.53,1.37,1.37,0,0,0-2.09,1,5.37,5.37,0,0,0,.21,2c0,.16,0,.3,0,.44-.18,3.37.07,6.81-.86,10.07-4.36,0-8.72.21-13.08.47-5.4,0-14,2-17.68-3-1.62-3.3-1.57-7.18-1.88-10.78A1.43,1.43,0,0,0,79.59,48c-1.35,3.74-1.07,8-2.24,11.91-.45,1.21-.65,2.93-1.85,3.64a2.72,2.72,0,0,1-1-1.9A94.21,94.21,0,0,1,74,49.3a1.35,1.35,0,0,0-2.11-1.08,2.08,2.08,0,0,0-.75,1.13c-.52,2-.88,4.07-1.41,6.1-1,3.78-2.33,8.27-6,10.34A72.45,72.45,0,0,1,48,68.7c-1.85-3.8-2.48-7.87-3-12.05a1.4,1.4,0,0,0-2.68.41c-.27,2.84-.82,5.76-1,8.65-.16,2.25-.33,4.61-1.61,6.55A57.2,57.2,0,0,1,37,60.05c-.2-.78-.15-1.78-.8-2.33-.63-.36-1.15.4-1.33.93a15.2,15.2,0,0,0-.38,4.41c-1.4,4.07-.09,15.07-.12,17.63.18,2.54.46,5.06.78,7.59a6.51,6.51,0,0,0-5.72-.76,7.12,7.12,0,0,0-4.05,3.68C21.14,97.89,25,114.84,32,123.94a20.69,20.69,0,0,0,3.43,3.54c0,.65.12,1.32.09,1.94.17,4.42.42,9.13.44,13.65.28,14.59-1.1,29.84.41,44.09a.31.31,0,0,0,.34-.31c0-2.2-.1-4.42,0-6.63.45-13,.85-25.93,1.57-38.88,0-1.3.57-7.81.1-12.1a8.21,8.21,0,0,0,2.79.65,7.68,7.68,0,0,0,2.35-.24,70.76,70.76,0,0,0,6.21,16.17c5.24,9.61,13.78,16.5,23.61,20.63a4.26,4.26,0,0,0,0,1,84.53,84.53,0,0,1-.52,11.8,95.15,95.15,0,0,1-13.4,11.89c-1-.77-2.89-1-3.91-1-4.64-.38-9.26,1.07-13.37,3.13a37.17,37.17,0,0,0-10.72,8.51c-2.41,2.61-4.67,5.4-7,8l-.16.08c.15-2.56.27-5.11.4-7.65.46-8.21.72-16.43.91-24.64.56-17.32,1.07-34.67-.57-51.94a428.21,428.21,0,0,1-1.75-47,85.33,85.33,0,0,1,2.22-22.44c5.45-22.42,22.19-43.16,45-49.37A102.68,102.68,0,0,1,89.06,3.16c1.57-.21,3.16-.26,4.73-.45,1.29.68,2.91.36,4.34.54A104.94,104.94,0,0,1,117.43,6c19.2,4.33,35.56,18.44,44.08,36,9.73,21.43,3.66,53.7,2.08,77A410.09,410.09,0,0,0,162,169.55"/><path id="path302" class="cls-125" d="M185.59,236.11a45.57,45.57,0,0,1-4.78,1.5,1.41,1.41,0,0,0-.69.94,7.2,7.2,0,0,1-.42,4.62c-2.31,3.8-7.38,4-11.38,4.08-.83-.19-1.76.4-1.44,1.2-3.64,1.56-7.29,3-11,4.35-2.65.94-5.34,1.8-8.07,2.56.43-2.06.52-5,.67-5.64,1.08-9,4.23-17.61,7.61-26,.5-1.27,1-2.52,1.52-3.77.18-.39-.42-.63-.59-.27s-.17.43-.27.65c-3.68,9.13-7.87,18.09-9.74,27.81a38.41,38.41,0,0,0-1.3,7.8c-1,.26-2,.5-3,.74l-2.63.56c-27.62,5.86-57.34,7.91-85.09,1.71-3.94-.88-7.84-1.92-11.69-3.15a86.41,86.41,0,0,0-3.13-16.08c-2.19-6.8-4.67-13.56-7.3-20.19q-.33-.84-.66-1.65c-.49-.78-1.63-.66-1.54.36.31.5.59,1,.87,1.51,4.81,8.54,6.66,18.4,8.39,28,.47,2.43.86,4.85,1.2,7.3-2.82-1-5.6-2-8.36-3.16q-4.62-1.93-9.13-4.27c-.72-.23-2.18-1.48-3.34-2A1.33,1.33,0,0,0,19,244.51c-3.42-.29-9.69-.22-11.12-4-.43-1.26,0-2.66-.48-3.9-1.23-1.5-3.83-1.5-4.85-3.33-.5-3.83,2.84-7.07,5.14-9.79A44.71,44.71,0,0,1,21.6,214c1.82-.94,4.37-1.46,5.87-3,5.12-7,11.93-14.52,20.32-17.06a20,20,0,0,1,8.73-.71c-.78.54-1.58,1.07-2.37,1.6C52.45,195.92,50.72,197,49,198a3.42,3.42,0,0,0-1,.74c-.16-.22-.28-.44-.45-.65a3,3,0,0,0-1-.82c-.45-.24-.91-.26-1.17.28a4.13,4.13,0,0,0,.52,2.36c.83,1.91,1.84,4.08,2.7,6.1,1.46,3.35,2.61,7,3.74,10.52.58,2.23,1.16,4.25,3.9,4.17A113.07,113.07,0,0,1,94,227a1.34,1.34,0,0,0,1.19-.53,1.43,1.43,0,0,0,.93-.12,37.77,37.77,0,0,1,6.33-2.31c10-2.79,20.52-2.8,30.76-1.9a2.18,2.18,0,0,0,2.88-1.8c1-2.88,2.06-5.74,3.15-8.58,1.62-4.34,3.43-8.63,4.92-13,.13-.53.32-1.19,0-1.65a1,1,0,0,0-.75,0c-.91.32-1.93,1.78-3,3.79-2.89-2.51-5.93-4.85-8.91-7.27a3.87,3.87,0,0,1,.93-.2,24.11,24.11,0,0,1,8.37.43c.64.18,1.26.39,1.87.62,7.5,2.89,12.65,10.06,17.67,16.12,1,1.51,2.87,1.4,4.38,2a46.49,46.49,0,0,1,13.17,6.94c3.85,2.77,7.3,6.19,9.15,10.66.92,2,1,5-1.43,5.84"/><path id="path304" class="cls-122" d="M158.24,98.92a.76.76,0,0,0,0-.15,20.53,20.53,0,0,0-3.66,8.69,28.59,28.59,0,0,0-.08,4.8c.5-.74,1-1.49,1.43-2.24a17.24,17.24,0,0,0,2.32-11.1"/><path id="path306" class="cls-126" d="M185.58,236.11a47.07,47.07,0,0,1-4.77,1.5,1.37,1.37,0,0,0-.68.94,7.13,7.13,0,0,1-.44,4.62c-2.3,3.8-7.36,4-11.37,4.08-.83-.19-1.76.41-1.44,1.2a151.08,151.08,0,0,1-19.06,6.92c.43-2.07.51-5,.67-5.65,1.25-10.36,5.21-20.16,9.13-29.77a.33.33,0,0,0-.59-.28c-3.75,9.35-8.1,18.5-10,28.46-.52,2.53-1.32,5.2-1.3,7.81-1,.25-2,.5-3,.72-32.28,7.15-67.58,9.26-99.41-.87a87.08,87.08,0,0,0-3.13-16.08c-2.37-7.36-5.08-14.69-8-21.85-.49-.76-1.63-.65-1.54.37,5.47,8.89,7.42,19.34,9.26,29.55.47,2.42.86,4.85,1.2,7.31a124.47,124.47,0,0,1-17.5-7.43c-.71-.24-2.17-1.49-3.33-2A1.33,1.33,0,0,0,19,244.51c-3.42-.28-9.68-.23-11.12-4-.43-1.27,0-2.68-.47-3.91-1.25-1.49-3.83-1.5-4.86-3.33-.49-3.83,2.84-7.07,5.13-9.79A44.6,44.6,0,0,1,21.61,214c1.81-.95,4.36-1.47,5.87-3,6.79-9.26,16.56-19.5,29-17.77-.79.55-1.58,1.08-2.38,1.61C52.45,195.91,50.71,197,49,198a3.76,3.76,0,0,0-1,.73c-.16-.21-.29-.43-.45-.63-.44-.6-1.65-1.55-2.13-.54a4,4,0,0,0,.52,2.34c.83,1.92,1.84,4.09,2.71,6.11,1.45,3.35,2.6,7,3.73,10.53.58,2.22,1.16,4.23,3.9,4.16A112.86,112.86,0,0,1,94,227a1.34,1.34,0,0,0,1.19-.53,1.47,1.47,0,0,0,.94-.12,38.34,38.34,0,0,1,6.33-2.31c9.94-2.78,20.51-2.8,30.75-1.9a2.17,2.17,0,0,0,2.88-1.8c1-2.88,2.06-5.74,3.15-8.58,1.61-4.35,3.44-8.63,4.92-13,.12-.53.32-1.19,0-1.66-1.08-.43-2.39,1.23-3.72,3.81-2.9-2.51-5.94-4.85-8.92-7.27a3.87,3.87,0,0,1,.93-.2,24.27,24.27,0,0,1,8.36.43c8.55,2.34,14.12,10.19,19.54,16.73,1,1.52,2.89,1.42,4.39,2.06a46.55,46.55,0,0,1,13.16,6.94c3.86,2.77,7.31,6.18,9.16,10.67.92,2,1,5-1.44,5.83ZM75.67,180.76a26.2,26.2,0,0,0,.54-7.1l.24.25c4,3.89,9.69,5,15,5.69h-.09a25.15,25.15,0,0,0,20.3-7.77c0,2.29.21,4.58.47,6.84.7,3.09,3.78,5.1,5.78,7.42,4.65,4.58,10.29,8.71,15.36,13,1.91,1.4,3.73,3.41,5.81,4.59-2.52,5.78-4.92,13.55-5.82,15.39-10.94-.79-22.41-1-33,2.45-1.24.64-4.8,1.26-6,2.64a59.87,59.87,0,0,0-15-4.35,133.06,133.06,0,0,0-23.39-2.18c-2-5.69-3.53-11.72-6.66-16.91,1.54-.32,3-1.52,4.36-2.17A95.55,95.55,0,0,0,71,185.62c1.62-1.54,3.47-3,4.69-4.86Zm36.06-12c0,.42,0,.83,0,1.25-9.78,10.13-22.63,10.88-33.85,2-.53-.32-1-.93-1.62-1.37,0-.9.15-2,.12-3.08a57.92,57.92,0,0,0,12,2.86,24.31,24.31,0,0,0,3.39.4c.74,0,1.5,0,2.25.05.28,0,.56,0,.84,0a11.08,11.08,0,0,0,1.73-.07c1.14,0,2.27-.09,3.4-.2A46,46,0,0,0,111.73,168.78Zm42.84-61.32a20.53,20.53,0,0,1,3.66-8.69.76.76,0,0,1,0,.15,17.24,17.24,0,0,1-2.32,11.1c-.43.75-.93,1.5-1.43,2.24a28.59,28.59,0,0,1,.08-4.8Zm0,6.35a25.56,25.56,0,0,0,4.82-16.71c.17-.24.33-.48.5-.71.29-.47.71-1.06.55-1.64-.73-1.59-2.72.12-3.51.89-4,3.59-3.84,8.94-3.83,13.89-.35,2-1.38,3.66-2.23,5.57a19,19,0,0,1-2.37,4c2-9,3.74-18.12,5-27.37,1.12-.62,2.48-1.82,3.5-1.63,9.09.69,2.6,25.17-.39,30.2-2,3.48-5.71,7.38-10,6.9l1.17-5c.05-.24.1-.48.16-.73a1.18,1.18,0,0,0,.46,0c1.33.07,2.18-1.15,3.1-1.93a14,14,0,0,0,2.67-5.29,2,2,0,0,1,.37-.46ZM37.78,84.12c-.51-4-.9-8-1.07-12,.22.53.44,1.07.67,1.59,3.6,4.58,5.56-5.58,6.34-7.86.65,1.85.87,4.17,2.4,5.53,2.69,1.17,5.83-.18,8.64-.39C64.05,69.5,68.66,69,71.88,59.07c.46,2.24.87,4.79,2.35,6.59,4,2.33,5.76-3.93,6.33-6.81C82.68,67.45,93.2,66,100,65.67c4.48-.29,8.91-.33,13.42-.41,2.56.19,3.54-.8,3.93-2.55a7.43,7.43,0,0,0,4,5.27,35.08,35.08,0,0,0,15.52,3.24c4.2-.09,6.5-4.16,7.23-7.84,1.07,3.5,1,7.61,3,10.69,2,1.27,3.78-1.28,5-4.66.28,7-.71,13.89-1.66,20.77A317.47,317.47,0,0,1,140.9,136a44.08,44.08,0,0,1-32.4,30.3c-2.6.7-5.33.88-8,1.32-1,.07-2,.13-3,.11-1.95.09-3.9.1-5.85.05a18.34,18.34,0,0,1-2.24-.36c-24.37-3-38.69-18.08-43.66-41.75a342.25,342.25,0,0,1-8-41.51Zm-1,31.65c-4.63-3.74-6.45-10.88-5.33-16.62a28.24,28.24,0,0,1,1.81,6.09c1.15,3.36,1.83,7.3,3.52,10.53ZM36,105.35a14.72,14.72,0,0,0-3.08-8.25c-.88-.92-3.48-3.13-4.69-2.07-.33.69.61,1.12,1.05,1.47a6.75,6.75,0,0,1,1.5,1.57,20,20,0,0,0,7.76,20.31,10,10,0,0,0,2.63,2.12h0q.78,3.27,1.6,6.56a5,5,0,0,1-2.19-.1,17.88,17.88,0,0,1-7.92-7.15c-3.66-7.26-7.94-17.67-5.45-25.77.84-2.81,4.18-5.38,6.74-2.9a7.9,7.9,0,0,1,1.73,1.58c1.29,8.4,3.11,16.73,4.89,25h0a35.18,35.18,0,0,1-3.46-4.64c-1.7-2.3-1.6-5.09-1.13-7.77ZM23.2,78.66a85.37,85.37,0,0,1,2.22-22.44c5.46-22.42,22.19-43.15,45-49.38A104.18,104.18,0,0,1,89.05,3.16c1.57-.2,3.17-.26,4.73-.45,1.3.68,2.93.36,4.35.53A103.88,103.88,0,0,1,117.42,6c19.2,4.33,35.58,18.44,44.1,36,9.72,21.44,3.64,53.7,2.07,77A410,410,0,0,0,162,169.54c.33,13.68,2.53,27.28,3.38,40.93l-2.08-.95c-1-1.08-1.85-2.23-2.79-3.37-6.62-8.89-17-17.9-28.89-15.19a6.78,6.78,0,0,0-2.32.91c-4.85-3.88-9.59-7.75-13.61-12.62-1-1.1-.89-2.66-1-4.1-.11-2-.16-4-.26-6,0-.33,0-.78-.1-1.23a47.32,47.32,0,0,0,24.93-20.31c3.27-5.53,5.19-11.63,6.77-17.82l.08,0-.06.62c-.27,11.84.1,23.69.34,35.54.14,6.08,1.14,12.08,1.23,18.16,1.27,2,.15-6.39.31-7.22.12-13.58.2-27.18,1-40.74-.13-2.06.22-4.22.06-6.29,10.55-1.17,13.88-15.35,15.08-24.43.71-6.12,1.93-16.93-6.26-18.22a7.23,7.23,0,0,0-3.77,1c1-7.92,2.54-21.64-.26-27a4.63,4.63,0,0,0-.46-2.43c-1.74-1.16-1.9,2.13-2,3.2a46.87,46.87,0,0,1-2.49,8.52c-.93-4.83-2-9.61-3.13-14.38a.76.76,0,0,0,0-.2.81.81,0,0,0,0,.15h0a1.4,1.4,0,0,0-2.77-.35c-.56,6.26-1.33,14-9.7,12.17C128.2,67,120,66.68,119.81,60.1c-.5-3.28-.64-6.65-1.4-9.89a2.39,2.39,0,0,0-.93-1.53,1.37,1.37,0,0,0-2.09,1,5.19,5.19,0,0,0,.21,2c0,.15,0,.3,0,.44-.17,3.36.06,6.81-.86,10.08-4.36,0-8.72.2-13.07.45-5.41,0-14,2-17.69-3-1.62-3.3-1.57-7.18-1.88-10.78A1.43,1.43,0,0,0,79.59,48c-1.36,3.74-1.06,8-2.24,11.91-.45,1.22-.65,2.93-1.84,3.64h0a2.8,2.8,0,0,1-1-1.9A94.21,94.21,0,0,1,74,49.3a1.36,1.36,0,0,0-2.11-1.09,2,2,0,0,0-.74,1.15c-.52,2-.89,4.07-1.41,6.09-1.07,3.78-2.35,8.27-6,10.35A73,73,0,0,1,48,68.7c-1.85-3.8-2.48-7.87-3-12.05a1.4,1.4,0,0,0-2.68.41c-.27,2.84-.84,5.77-1,8.66-.16,2.24-.33,4.6-1.61,6.55A57.42,57.42,0,0,1,37,60.05c-.2-.78-.14-1.78-.8-2.33-.64-.36-1.15.4-1.32.93a14.84,14.84,0,0,0-.39,4.41c-1.4,4.07-.09,15.08-.13,17.63.19,2.53.47,5.06.8,7.59-3.18-2.08-7.64-1.3-9.78,2.91-4.82,7.71,1,29.07,10.08,36.29,0,.65.12,1.31.1,1.93.16,4.42.41,9.13.43,13.67.29,14.58-1.09,29.83.42,44.08a.31.31,0,0,0,.33-.31c0-2.21-.1-4.42,0-6.63.46-13,.86-25.93,1.57-38.88,0-1.29.57-7.81.11-12.1a8.61,8.61,0,0,0,2.79.66,8.23,8.23,0,0,0,2.33-.25,70.79,70.79,0,0,0,6.22,16.17c5.23,9.6,13.78,16.51,23.61,20.63a4.26,4.26,0,0,0,0,1,84.54,84.54,0,0,1-.53,11.8,95.78,95.78,0,0,1-13.4,11.89c-.95-.77-2.88-1-3.91-1-4.64-.39-9.26,1.06-13.38,3.11-7.44,3.65-12.36,10.55-17.73,16.55l-.17.08c.15-2.55.27-5.1.4-7.66.46-8.2.72-16.42.91-24.64.55-17.32,1.07-34.65-.57-51.93a428.12,428.12,0,0,1-1.75-47ZM181,218.55a43.22,43.22,0,0,0-10.71-6c-.74-.29-1.47-.61-2.2-.92,0-.21,0-.41-.07-.62a1.54,1.54,0,0,0,.08-.57c-.41-5.83-1-11.64-1.4-17.47a383.82,383.82,0,0,1-.65-65.3c1.16-16.57,3.5-33.16,3.87-49.83.71-16.42-1.06-33.81-11.37-47.26-9.9-13.78-24.39-24.47-41.16-27.94C115.63,2.28,98.6-1.2,94.18.44c-3.17-1.35-14,.9-15.93,1.2C50.75,6.2,30.44,26.6,23,53.05c-3.11,10.3-3,21.11-2.89,31.76.25,12.83,1,25.64,1.84,38.44.86,12.14,1.85,24.31,1.52,36.49-.43,9.78-.95,19.55-1,29.34-.14,7.29-.38,14.57-.84,21.86,0,.05,0,.1,0,.15-5.06,2.41-10.14,5-14.16,9C2.27,225-5.24,234.79,5.36,238.3c-.92,5.5,4.34,8.26,9.07,8.64,1.08,0,3.33.55,4.71.2,3,3.09,7.14,4.78,10.91,6.71,17.52,7.88,36.82,11.21,55.94,11.71a225,225,0,0,0,47.53-4,121.16,121.16,0,0,0,32.28-9.77c.91-.69,3.56-1.22,4.4-2.33,6,.36,14-2.21,12.22-9.61,2.58-.81,6-1.37,7.26-4.1,1.79-6.71-3.76-13.23-8.68-17.17"/><path id="path308" class="cls-126" d="M60.77,83.17a11.79,11.79,0,0,1,7.82-9.12c1-.54,5.6,0,3.65,1.76a27.3,27.3,0,0,0-11.49,7.67C60.76,83.37,60.77,83.27,60.77,83.17Zm-.31,2.54c1.24.22,2.06-1.29,3-1.87,3.08-2.56,7.08-4.24,10.59-6.19a3.23,3.23,0,0,0,.85-4c-.84-1.92-3.31-2.3-5.17-2-3.79.72-6.83,3.51-8.93,6.63-1.27,1.86-3.87,6.66-.38,7.49"/><path id="path310" class="cls-126" d="M73.72,102.16a4.09,4.09,0,0,0,3.47-3.07c.44-2.3.64-6.2-2.18-7-4.91-.79-6.12,9.6-1.29,10"/><path id="path312" class="cls-126" d="M120.64,74.05a11.76,11.76,0,0,1,7.82,9.12,3,3,0,0,1,0,.31A27.27,27.27,0,0,0,117,75.81c-1.94-1.77,2.61-2.3,3.65-1.76Zm-5.49,3.6c3.51,1.95,7.5,3.63,10.59,6.18,1,.59,1.8,2.1,3,1.88,3.48-.83.88-5.63-.39-7.49-2.09-3.12-5.13-5.91-8.92-6.63-1.86-.27-4.33.11-5.17,2a3.23,3.23,0,0,0,.85,4"/><path id="path314" class="cls-126" d="M115.52,102.16c4.83-.44,3.62-10.83-1.29-10-2.82.77-2.63,4.67-2.18,7a4.09,4.09,0,0,0,3.47,3.07"/><path id="path316" class="cls-126" d="M100.13,114.32a22.59,22.59,0,0,1-1.66,2.73A5.66,5.66,0,0,1,95,118.5h0c-2,.28-3.49-.94-4.62-2.45a14.17,14.17,0,0,0,9.73-1.73Zm-11.64,1.17a7.78,7.78,0,0,0,6.2,3.88,6.31,6.31,0,0,0,7-6.3c-.67-1.25-1.92.17-2.78.47a13.17,13.17,0,0,1-3,.82,9.17,9.17,0,0,1-6.61-.6c-1.92-1.09-2.48.9-.71,1.73"/><path id="path318" class="cls-126" d="M95,118.5h0"/><path id="path320" class="cls-126" d="M98,139.91c1.93.32,11.46-1.42,9.76-4.36a1.23,1.23,0,0,0-1.69-.22c-2.45,2.53-6.16,2.47-9.46,2.89a19.53,19.53,0,0,1-10.1-1.89c-.74-.59-1.58-1.67-2.6-.9C80.65,139.22,96,139.92,98,139.91"/><path id="path322" class="cls-121" d="M73.32,166.45a4.26,4.26,0,0,0,0,1,84.53,84.53,0,0,1-.52,11.8,95.15,95.15,0,0,1-13.4,11.89c-1-.77-2.89-1-3.91-1-4.64-.38-9.26,1.07-13.37,3.13a37.17,37.17,0,0,0-10.72,8.51c.94-25.94,1.79-51.93.58-77.81a20.69,20.69,0,0,0,3.43,3.54c0,.65.12,1.32.09,1.94.17,4.42.42,9.13.44,13.65.28,14.59-1.1,29.84.41,44.09a.31.31,0,0,0,.34-.31c0-2.2-.1-4.42,0-6.63.45-13,.85-25.93,1.57-38.88,0-1.3.57-7.81.1-12.1a8.21,8.21,0,0,0,2.79.65,7.68,7.68,0,0,0,2.35-.24,70.76,70.76,0,0,0,6.21,16.17c5.24,9.61,13.78,16.5,23.61,20.63"/><path id="path324" class="cls-121" d="M160,205.48c-6.62-8.66-16.77-17.17-28.38-14.53a7,7,0,0,0-2.32.92c-4.86-3.88-9.59-7.75-13.62-12.62-1-1.1-.89-2.66-1-4.09-.1-2-.15-4-.25-6,0-.33,0-.77-.11-1.22a47.4,47.4,0,0,0,24.94-20.31c3.27-5.54,5.19-11.63,6.76-17.84l.09,0c0,.21,0,.41-.06.62-.26,11.84.1,23.7.34,35.54.15,6.07,1.14,12.08,1.23,18.17,1.28,2,.15-6.4.31-7.24.12-13.58.19-27.17,1-40.73-.13-2.05.22-4.22.07-6.28a12.38,12.38,0,0,0,8.49-5.07A473.29,473.29,0,0,0,160,205.48"/><path id="path326" class="cls-121" d="M160.17,88.05a7,7,0,0,0-2.43-.8,7.24,7.24,0,0,0-3.78,1c1-7.92,2.54-21.64-.26-27a4.7,4.7,0,0,0-.46-2.44c-1.74-1.16-1.9,2.15-2,3.22a47,47,0,0,1-2.5,8.51c-.91-4.83-2-9.61-3.12-14.38a.75.75,0,0,0,0-.12,1.4,1.4,0,0,0-2.77-.27c-.56,6.27-1.33,14-9.7,12.17C128.21,67,120,66.68,119.81,60.1c-.5-3.28-.64-6.65-1.4-9.89a2.39,2.39,0,0,0-.93-1.53,1.37,1.37,0,0,0-2.09,1,5.37,5.37,0,0,0,.21,2c0,.16,0,.3,0,.44-.18,3.37.07,6.81-.86,10.07-4.36,0-8.72.21-13.08.47-5.4,0-14,2-17.68-3-1.62-3.3-1.57-7.18-1.88-10.78A1.43,1.43,0,0,0,79.59,48c-1.35,3.74-1.07,8-2.24,11.91-.45,1.21-.65,2.93-1.85,3.64a2.72,2.72,0,0,1-1-1.9A94.21,94.21,0,0,1,74,49.3a1.35,1.35,0,0,0-2.11-1.08,2.08,2.08,0,0,0-.75,1.13c-.52,2-.88,4.07-1.41,6.1-1,3.78-2.33,8.27-6,10.34A72.45,72.45,0,0,1,48,68.7c-1.85-3.8-2.48-7.87-3-12.05a1.4,1.4,0,0,0-2.68.41c-.27,2.84-.82,5.76-1,8.65-.16,2.25-.33,4.61-1.61,6.55A57.2,57.2,0,0,1,37,60.05c-.2-.78-.15-1.78-.8-2.33-.63-.36-1.15.4-1.33.93a15.2,15.2,0,0,0-.38,4.41c-1.4,4.07-.09,15.07-.12,17.63.18,2.54.46,5.06.78,7.59a6.51,6.51,0,0,0-5.72-.76,107,107,0,0,1,1-19.2C34.12,42.61,53,19.69,77.49,11,72.36,20.3,71,30.63,70.66,41.21a60.62,60.62,0,0,0,8.26-15.16c1.43-3.9,2.54-8.06,5.25-11.21s7.7-4.83,11.08-2.42l7,23.16a39.14,39.14,0,0,0-.07-21.88A53.55,53.55,0,0,1,129,41.7c.68-9.5-5.42-18-11.22-25.56C137,22.8,152.23,38,157.69,57.64c2.73,9.87,3,20.13,2.48,30.41"/><path id="path328" class="cls-127" d="M39.93,247.78c.47,2.43.86,4.85,1.19,7.3q-4.21-1.43-8.35-3.16c.11-.71.23-1.4.35-2.11a67.28,67.28,0,0,0-.93-27.29,15.81,15.81,0,0,1-.65-2.78c4.81,8.54,6.66,18.4,8.39,28"/><path id="path330" class="cls-127" d="M148.49,249.72c1.08-9,4.23-17.61,7.61-26,0,.22-.09.44-.13.65a89.25,89.25,0,0,0-.08,28.44c-2.65.94-5.34,1.8-8.07,2.56.43-2.06.52-5,.67-5.64"/><path id="path332" class="cls-127" d="M56.52,193.21c-.78.54-1.58,1.07-2.37,1.6C52.45,195.92,50.72,197,49,198a3.42,3.42,0,0,0-1,.74c-.16-.22-.28-.44-.45-.65a3,3,0,0,0-1-.82,5.7,5.7,0,0,1,.13-1.09,6.67,6.67,0,0,1,1.11-2.29,20,20,0,0,1,8.73-.71"/><path id="path334" class="cls-127" d="M143.37,197.13c-.91.32-1.93,1.78-3,3.79-2.89-2.51-5.93-4.85-8.91-7.27a3.87,3.87,0,0,1,.93-.2,24.11,24.11,0,0,1,8.37.43c.64.18,1.26.39,1.87.62a6.47,6.47,0,0,1,.71,2.41c0,.08,0,.14,0,.22"/></g></g></svg>