<svg xmlns="http://www.w3.org/2000/svg" viewBox="0 0 178.59 275.3"><defs><style>.cls-61{fill:#c93147;}.cls-62{fill:#ffb9a1;}.cls-63{fill:#fff;}.cls-64{fill:#ffe2cc;}.cls-65{fill:#a54921;}.cls-66{fill:#c66a2c;}.cls-67{fill:#9eadac;}.cls-68{fill:#e56161;}.cls-69{fill:#440829;}</style></defs><g id="Layer_2" data-name="Layer 2"><g id="svg2"><path id="path72" class="cls-61" d="M147.37,206.94c-4.42,1.82-9.39,1.57-14.08,2.29l-1.32.23c6.63-.08,13.32.74,19.87,1.38-1.31-1.24-2.66-2.44-4.09-3.58a1.7,1.7,0,0,1-.38-.32"/><path id="path74" class="cls-62" d="M90.9,129.84c3.34-.27,5.8-3.37,8.07-5.52a17.43,17.43,0,0,1-14.76,1.46c1.54,2.22,3.88,4.07,6.69,4.06"/><path id="path76" class="cls-63" d="M85.62,152.39c-.93,0-1.86.11-2.79,0a12.45,12.45,0,0,1-8-3.56,8.21,8.21,0,0,1-4.25-.44,6.39,6.39,0,0,0,1.53,3.24c3.91,4.55,10.31,5.83,16,6.21a37.6,37.6,0,0,0,26.15-8.72,13.18,13.18,0,0,0,2.08-5.85l-.12.07a15.66,15.66,0,0,1-4.74,1.24,72.89,72.89,0,0,1-7.63,3,.37.37,0,0,1-.42-.23.38.38,0,0,1,.18-.45c2-1,4.13-1.87,6.05-3,.65-.32,1.14-1,1.85-1.14a9.91,9.91,0,0,0,2.86-.7,5.89,5.89,0,0,0,2-1.63c-.42-2.85-2.12-5.16-5.74-5.27a15.07,15.07,0,0,0-5.59,1.5C94.53,143.07,88,139.65,76.93,140a7.36,7.36,0,0,0-6.26,5.72l.24.07c1.38.47,3.12.1,4.28,1.06.49.76.33,1.15,1.24,1.77,2.88,1.92,6.64,1.35,9.87,1.89a.93.93,0,0,1,.87.86c.08.89-.89,1.1-1.55,1"/><path id="path78" class="cls-64" d="M155.42,108.58a63.63,63.63,0,0,0-4.85,5.65l-.18.22c-.65,4-2,8.89-2.16,10.42-.64,2.84-1.26,5.72-1.92,8.61a6.39,6.39,0,0,0,1-.63,13.87,13.87,0,0,0,5-7.6c.86-3.83-.25-7.7,3-10.7,1-1.23,6.26-7,7.11-3.69a3.05,3.05,0,0,1-1.11,1.77l-.51.51c.14,6.21-1.65,12.86-6.71,16.81-.55.47-1.14,1-1.75,1.5a11.11,11.11,0,0,1-3.29,3.16c-.91.47-2.31,1.74-3.32,1.28-.23.93-.46,1.87-.7,2.81a7.45,7.45,0,0,0,4-.46c9.9-3.92,16.08-18.78,15.31-28.84-.72-6.48-5.85-4.18-8.91-.82"/><path id="path80" class="cls-65" d="M50.51,89.12a24.8,24.8,0,0,1,17.89-2c-3.23-7.89-14.23-3.12-17.89,2"/><path id="path82" class="cls-64" d="M31.87,133.8a13,13,0,0,1-4.63-3.66c-6-2.75-8.37-10.67-8.31-16.88a.59.59,0,0,1,.19-.42q-.63-.51-1.29-1c-.34-.26-.77-.81-.31-1.16,2.25-.24,4.66,1.8,6.26,3.27,5.21,4.2.58,7.35,3.57,12a31,31,0,0,0,5.11,5.78c-.75-3.07-1.48-6.31-2.22-9.77,0-.83-.66-3.08-1.15-5.37a41.85,41.85,0,0,0-2.44-3.54c-2.54-3.08-9-11.45-12.37-5.27-2.48,6.62,4.75,24.69,10.93,28a12.49,12.49,0,0,0,8.7,1.52c-.35-1.25-.69-2.54-1-3.86a.91.91,0,0,1-1,.28"/><path id="path84" class="cls-62" d="M26.18,128.54A9.05,9.05,0,0,1,25,123.41c-.05-3.71-2.1-7.08-4.79-9.61-.31,5.3,1.36,11.86,6,14.74"/><path id="path86" class="cls-65" d="M129,89.12c-3.66-5.16-14.65-9.93-17.89-2a24.79,24.79,0,0,1,17.89,2"/><path id="path88" class="cls-66" d="M172.46,71.35a21.27,21.27,0,0,1-3.21,11.06c0-.27,0-.54,0-.8a15.8,15.8,0,0,0-.95-6c-.21-.55-.52-1.25-1.16-1.37s-.84.6-.92,1c0,6.92-.46,13.94-3.46,20.34a58,58,0,0,1-2.91,6,1.26,1.26,0,0,0-.12.47c-3.19.67-6.48,3.52-8.82,6.59-.18.23-.34.46-.51.69a.73.73,0,0,0-.29-.29A101.17,101.17,0,0,0,150.4,97c-.13-1.72.7-4.18-1.11-5.35-5.2-3.89-9.17-9.35-10-15.85a28.93,28.93,0,0,0,10.84,3,10.43,10.43,0,0,0,2.16-.1,1.25,1.25,0,0,0,0-2.48c-6.52-.95-13.42-2.71-17.5-8.33-3-3.74-4.48-8.15-5.59-12.8-1.11-4.07-2.08-8.93-5.94-11.31a5,5,0,0,0-3.7-.51,4.26,4.26,0,0,0-.71.29c-4.57-8.1-14.45-10.42-21.94-4.68-5,3.62-7.79,9.31-10.9,14.45-5.13,9.27-13.41,16.83-23.86,19.41a39.61,39.61,0,0,0,6-8.27c.36-1,1.61-2.33,1.53-3.43,2.14-3.17,3.65-6.57,3.58-10,.13-.43-.56-.57-.62-.16-2.48,3.18-4,7-6.71,10.14A52,52,0,0,1,50.64,74.41c-3.39,1.94-6.87,3.7-10.38,5.43-.18.11-.4.24-.64.36a28,28,0,0,0,1.29-6c.06-.76.47-7.54-1.18-5-1.43,3.83-1.89,8-3.61,11.75-2,5-5.31,9.58-8.12,14.17a140.47,140.47,0,0,0,1.38,15.23.84.84,0,0,0-.52.34,27,27,0,0,0-5.78-5.94,13.52,13.52,0,0,0-3.88-2.1.87.87,0,0,0-.07-.52,50.45,50.45,0,0,1-3-7.49C14.07,88.13,14.2,81.36,15,74.54c0-.47.44-4.14-.58-3a18.28,18.28,0,0,0-2.92,9c-.36-1-.69-2.12-1-3.2-1.92-13.14,2.4-26.65,11-36.85C40.92,15.93,68-1.9,100.46,4.32c9.38,2,19.09,6.11,25.43,13.61a18.55,18.55,0,0,1,2,3.43l.45.83c-.4.61-.41,1.63.48,1.72,2.27-.43,4.25-1.95,6.54-2.48a20.32,20.32,0,0,1,10.94-.19c19.36,5.2,26.83,32.24,26.14,50.11"/><path id="path90" class="cls-62" d="M154.78,122c-.35,3-.55,5.56-1.53,7.85,3.84-3.65,6.07-10.34,6.28-15.34a19.22,19.22,0,0,0-4.75,7.49"/><path id="path92" class="cls-61" d="M44.72,209.81c-1.6-.25-3.21-.47-4.81-.68a25.31,25.31,0,0,1-9.43-2.53,1.73,1.73,0,0,1-.46.48,72.57,72.57,0,0,0-7.35,7.1A99.19,99.19,0,0,1,42.25,210l2.47-.23"/><path id="path94" class="cls-67" d="M71.94,217.67a12.36,12.36,0,0,1,1.83-3c-.68-.86-1.41-1.69-2.14-2.5a9.12,9.12,0,0,0-.93,1.44,52.39,52.39,0,0,0-6.55,18c-.75,4.95-3.22,17.83.1,21.49,2.28,1.26,1.14-3.18,1.37-4.18a60.64,60.64,0,0,1,.6-11.89,76.72,76.72,0,0,1,5.72-19.3"/><path id="path96" class="cls-65" d="M96.74,43a28.52,28.52,0,0,0-2.21,2.59c5.93-3.51,13.76-5.28,20.17-2.67-5.16-5.36-12.26-5.61-18,.08"/><path id="path98" class="cls-68" d="M176.1,252.46q-6.33,3.38-12.87,6.32A149.14,149.14,0,0,1,110,271.63c-24.54,1.62-49.38-.07-73.21-6.31-11.77-3-23.69-6.82-33.61-14.07A3.58,3.58,0,0,0,3.61,250c.68-2.5,1.43-5,2.32-7.42a88.24,88.24,0,0,1,15.22-26.61,71.49,71.49,0,0,1,8.29-2.68,88.67,88.67,0,0,1,19.61-2.7c2.25.42,4.47.89,6.68,1.49a53.37,53.37,0,0,1,11.17,4.08c-1,2.07-1.77,4-2,4.67-2.19,5.53-8.63,34,0,34.82,5.61-.1,2.83-7.09,3.17-10.61a75.71,75.71,0,0,1,5.62-26.31c.09-.48.75-1.59,1.16-2.6.12.18.25.33.36.51a.67.67,0,0,0,.84.22c1-.73-.55-2.32-.77-3.22a15,15,0,0,0-4.46-5.11,1.53,1.53,0,0,0-1.24-.43c-1.43.62-.12,1.9.67,2.61a12.73,12.73,0,0,0-2,2.79c-3.61-2.82-13.9-4.83-17-5.67-9.76-2.45-23.1-.31-25.8-13-1.24-6,3.92-9.45,7.89-12.89a2.26,2.26,0,0,0,.6-1.37c.11-2.24.1-4.48.36-6.72a29.52,29.52,0,0,1,7.5-16.37,36.58,36.58,0,0,0,6.9,8.5,37.72,37.72,0,0,0,11,6.83c.11.23.24.46.35.7-.48,1-.86,2-1.37,3-.18.37-.35.76-.53,1.13a1.32,1.32,0,0,0-1,.11c-1.55.84-2,2.76-2.45,4.34C51.39,197.47,71.49,196.9,80.4,203a15.57,15.57,0,0,1,2.2,2.17c2.2,2.59,3.68,5.78,5.39,8.71a1.68,1.68,0,0,0,.45,1.26c1.18.59,1.57-1.38,2-2.13A21.44,21.44,0,0,1,93,208.65a19.27,19.27,0,0,1,3-3h0c6.78-5.67,16.51-6.64,24-11.24a20.25,20.25,0,0,0,6.94-7.73c.4-1.63,3.33-6.57,1-7.34a1.37,1.37,0,0,0-1.65.69c-.13.46-.28.91-.42,1.36a19.16,19.16,0,0,0-3.19-9.16,33.31,33.31,0,0,0,9.94-6.56c.73-.84,1.4-1.69,2-2.57a46.08,46.08,0,0,0,3.33-5.22c7.27,5,9.95,12.55,8.35,21.32-.48,1.71,1.05,2.9,2,4.1,3,3.65,6.93,8.07,5.42,13.2-1.9,6.79-9.63,8.91-15.91,9.11A65.53,65.53,0,0,0,124.49,208c-1.84.59-11.06,3.35-13.72,6.05-.41-.75-.85-1.5-1.29-2.22a6.84,6.84,0,0,0-.81-1.07,6.43,6.43,0,0,0,1.42-2.22.67.67,0,0,0-.44-.65c-2.83-.14-4.49,3.19-5.82,5.25-.43,1.11-1,2-1.36,3.25a.76.76,0,0,0,.41.81.74.74,0,0,0,.9-.18c.14-.2.27-.41.41-.63l.16.21c4.85,7,6.42,15.77,6.43,24.21,0,2.33,0,5-.2,7.41-.09,2.24-.62,5.18,1.7,6.52,1.37.85,3.07.17,4.11-.89,5.19-6.06,1.69-19,0-26.14A56.7,56.7,0,0,0,112,216.31l.67-.33c1.22-.63,2.45-1.25,3.71-1.79a74.82,74.82,0,0,1,10.07-3.49c8.86-.8,17.81.42,26.68,1.35C164,223,170.55,237.66,176,252.12a1.43,1.43,0,0,0,.14.34"/><path id="path100" class="cls-67" d="M115.64,250.71c3-10.91-2.79-28.23-8.32-37.81a2.2,2.2,0,0,1-.28-.38,8.65,8.65,0,0,0-1,1.33c-.27.31-.49.65-.73,1,1.17.65,2.12,2.86,2.73,3.74,3.37,6.68,4.68,14.21,5,21.64.14,3.81,0,7.63-.15,11.44.48,2.19,2.4.31,2.78-.94"/><path id="path102" class="cls-64" d="M48.78,88.4c2.79-4.28,7.63-7.78,12.82-8.08,3.84-.1,8.35,2,9.18,6,.13,1.06.09,2.54-1.07,3-2.63,0-5.43-1.09-8-.84-4.79-.11-8.95,1.59-13.14,3.39C47,91.39,48.37,89.37,48.78,88.4Zm30.06,48.82c2.55,0,4.92,1,7.36,1.55a24.55,24.55,0,0,0,11.09-1.41c4.28-1.32,7.72-4.37,12.2-5,10.64-1.19,12.62,13,5.82,18.86-7,6.64-17,9.4-26.54,9.34-9.55.45-25.95-5.9-20.07-17.9a10.23,10.23,0,0,1,10.14-5.46Zm1.69-17.6c.64-1.24,1.87-.7,2,.53.32,4.44,5.47,5.48,9.13,4.89s6.35-2.38,9.46-3.77a.93.93,0,0,1,.64,1.53c-.79,1-1.34,2.13-2.1,3.13-2,3.19-5.55,5.68-9.48,5.15-3.68-.73-7.45-3.33-8.76-6.93a4.17,4.17,0,0,1-.92-4.53Zm28.24-33.27c.82-4.07,5.33-6.13,9.18-6,5.19.3,10,3.8,12.82,8.08.4,1,1.81,3,.23,3.49-4.19-1.8-8.35-3.5-13.15-3.39-2.59-.25-5.38.82-8,.84C108.68,88.89,108.63,87.41,108.77,86.35Zm12,28.49c-3.74.83-6.89-3.1-6.31-6.63.17-1.82,1.08-4,3.17-4.12C123.43,103.42,127.24,113,120.74,114.84Zm-61.94,0C52.31,113,56.12,103.42,62,104.09c2.09.09,3,2.3,3.17,4.12C65.7,111.74,62.55,115.67,58.8,114.84Zm28,60.45c1,.26,2.53,0,3.69.25a7.56,7.56,0,0,1,2.27-.12,84.49,84.49,0,0,0,13-1.86c8.78-1.62,18.13-3.74,24.64-10.28,9.21-11.11,11.78-25.88,14.83-39.55.55-1.41,1.2-7,2.26-10.83-.68-3.1.67-11.65.72-13.26s1-4.51-.63-5.49c-6.34-4.57-11.19-11.35-11.47-19.39a3.6,3.6,0,0,1,0-1c-12.32-9.6-8.09-28.88-17.49-27.86-.61.32-1.59,0-2.3-1a29.34,29.34,0,0,0-23.78,3.66c-2.38,3.68-4.36,7.66-7,11.2A36.81,36.81,0,0,1,63,75.21c-.9.23-1.95.65-2.81.11a1.06,1.06,0,0,1-.49-1l0-.12h0c1.21-1.77,2.29-3.62,3.32-5.5-.77.76-1.53,1.47-2.24,2.12-5,4.45-10.94,7.62-16.93,10.49-1.88.86-3.76,1.75-5.71,2.44a81.24,81.24,0,0,1-8,12.82c-.25,3.22,1,6.47,1.14,9.72a64.05,64.05,0,0,1,.36,7.82c1.51,6.35,2.67,12.78,4.43,19.08,7.4,31.85,19.11,39,50.59,42.13"/><path id="path104" class="cls-64" d="M62.85,192.51c7.35,4.2,17.74,3.85,22.92,11.43a20,20,0,0,1,3.09,5.7c1.41-3.33,4.28-6,7.28-8,5.94-4.52,13.73-5.47,20.21-8.86a1.34,1.34,0,0,1-.5-.75c-.8-3.39-1.91-9.88-1.14-14.8-7.55,7.44-17,14.87-28,14.6-6.67-.65-13.33-3.14-18.16-7.9-1.29-1.4-2.8-2.66-4.22-4a70.37,70.37,0,0,1-.93,9.33c-.28.76-.26,2.14-.52,3.24"/><path id="path106" class="cls-61" d="M117.87,188.47c0,.88.53,2.12.54,3.12.35-.23.7-.46,1-.71a18.64,18.64,0,0,0,4.79-5.88,13.22,13.22,0,0,0,.35-1.75c.38-3.75-1.13-7.44-3.06-10.59-.88.36-1.78.7-2.68,1a2,2,0,0,1-.22.5c-1.68,4.55-1.43,9.59-.76,14.3"/><path id="path108" class="cls-61" d="M59.61,176.93c-.32.66-.65,1.32-1,2-1,3.11-1.88,6.64-.32,9.76a14.59,14.59,0,0,0,2.11,2.12c.07-.67.12-1.34.2-2.07.36-4.36,1.23-9.05.07-13.29-.06-.12-.11-.25-.16-.37-.32.62-.65,1.23-.92,1.87"/><path id="path110" class="cls-62" d="M74.24,186.87c12.35,7.06,26.9-.3,36.35-8.93,1.12-.92,2.12-1.88,3.11-2.82-4.34,1-8.72,1.9-13.11,2.68-3,.36-6.33,1.24-9.37.76a1.54,1.54,0,0,1-.89.25c-11.1-.83-19.86-2.27-26.91-4.6.08.24.16.48.23.73,1.17,1.86,2.14,3.86,3.47,5.61a28.45,28.45,0,0,0,7.12,6.32"/><path id="path112" class="cls-69" d="M33.8,140.58h0"/><path id="path114" class="cls-69" d="M33.89,140.55l0,0,.08,0h0"/><path id="path116" class="cls-69" d="M50.51,89.12c3.66-5.16,14.66-9.93,17.89-2A24.8,24.8,0,0,0,50.51,89.12Zm19.2.22c1.16-.45,1.2-1.93,1.07-3-.83-4.07-5.34-6.13-9.18-6-5.19.3-10,3.8-12.82,8.08-.41,1-1.81,3-.23,3.49,4.19-1.8,8.35-3.5,13.14-3.39,2.59-.25,5.39.82,8,.84"/><path id="path118" class="cls-69" d="M62,104.09c-5.83-.67-9.64,8.91-3.15,10.75,3.75.83,6.9-3.1,6.32-6.63-.17-1.82-1.08-4-3.17-4.12"/><path id="path120" class="cls-69" d="M129,89.12a24.79,24.79,0,0,0-17.89-2C114.38,79.19,125.37,84,129,89.12Zm-19.19.22c2.63,0,5.42-1.09,8-.84,4.8-.11,9,1.59,13.15,3.39,1.58-.5.17-2.52-.23-3.49-2.8-4.28-7.63-7.78-12.82-8.08-3.85-.1-8.36,2-9.18,6-.14,1.06-.09,2.54,1.07,3"/><path id="path122" class="cls-69" d="M117.6,104.09c-2.09.09-3,2.3-3.17,4.12-.58,3.53,2.57,7.46,6.31,6.63,6.5-1.84,2.69-11.42-3.14-10.75"/><path id="path124" class="cls-69" d="M99,124.32c-2.27,2.15-4.73,5.25-8.07,5.52-2.81,0-5.15-1.84-6.69-4.06A17.43,17.43,0,0,0,99,124.32Zm-8.76,6.76c3.93.53,7.43-2,9.48-5.15.76-1,1.31-2.15,2.1-3.13a.93.93,0,0,0-.64-1.53c-3.11,1.39-5.83,3.28-9.46,3.77s-8.81-.45-9.13-4.89c-.16-1.23-1.39-1.77-2-.53a4.17,4.17,0,0,0,.92,4.53c1.31,3.6,5.08,6.2,8.76,6.93"/><path id="path126" class="cls-69" d="M86.3,150.52c-3.23-.54-7,0-9.87-1.89-.91-.62-.75-1-1.24-1.77-1.16-1-2.9-.59-4.28-1.06l-.24-.07A7.36,7.36,0,0,1,76.93,140c11-.36,17.6,3.06,28.08-3.3a15.07,15.07,0,0,1,5.59-1.5c3.62.11,5.32,2.42,5.74,5.27a5.89,5.89,0,0,1-2,1.63,9.91,9.91,0,0,1-2.86.7c-.71.17-1.2.82-1.85,1.14-1.92,1.13-4.05,2-6.05,3a.38.38,0,0,0-.18.45.37.37,0,0,0,.42.23,72.89,72.89,0,0,0,7.63-3,15.66,15.66,0,0,0,4.74-1.24l.12-.07a13.18,13.18,0,0,1-2.08,5.85,37.6,37.6,0,0,1-26.15,8.72c-5.73-.38-12.13-1.66-16-6.21a6.39,6.39,0,0,1-1.53-3.24,8.21,8.21,0,0,0,4.25.44,12.45,12.45,0,0,0,8,3.56c.93.08,1.86,0,2.79,0,.66.09,1.63-.12,1.55-1a.93.93,0,0,0-.87-.86Zm-17.6-7.84c-5.88,12,10.52,18.35,20.07,17.9,9.49.06,19.54-2.7,26.54-9.34,6.8-5.89,4.82-20.05-5.82-18.86-4.48.61-7.92,3.66-12.2,5a24.55,24.55,0,0,1-11.09,1.41c-2.44-.55-4.81-1.53-7.36-1.55a10.23,10.23,0,0,0-10.14,5.46"/><path id="path128" class="cls-69" d="M113,240.21c-.3-7.43-1.61-15-5-21.64-.61-.88-1.56-3.09-2.73-3.74.24-.33.46-.67.73-1a8.65,8.65,0,0,1,1-1.33,2.2,2.2,0,0,0,.28.38c5.53,9.58,11.33,26.9,8.32,37.81-.38,1.25-2.3,3.13-2.78.94C113.05,247.84,113.15,244,113,240.21Zm-47.39,8.65c-.23,1,.91,5.44-1.37,4.18-3.32-3.66-.85-16.54-.1-21.49a52.39,52.39,0,0,1,6.55-18,9.12,9.12,0,0,1,.93-1.44c.73.81,1.46,1.64,2.14,2.5a12.36,12.36,0,0,0-1.83,3A76.72,76.72,0,0,0,66.22,237a60.64,60.64,0,0,0-.6,11.89Zm97.62,9.92a149.2,149.2,0,0,1-53.3,12.85c-24.54,1.62-49.36-.06-73.2-6.31-11.78-3-23.68-6.82-33.61-14.07A3.6,3.6,0,0,0,3.61,250c.68-2.51,1.43-5,2.33-7.44a88.16,88.16,0,0,1,15.21-26.6,73,73,0,0,1,8.3-2.69,89.85,89.85,0,0,1,19.6-2.69c2.25.42,4.48.9,6.7,1.49h0a53.13,53.13,0,0,1,11.18,4.09c-1,2.07-1.78,4-2,4.66-2.19,5.53-8.63,34,0,34.83,5.62-.12,2.84-7.1,3.18-10.62a75.53,75.53,0,0,1,5.62-26.31c.1-.47.76-1.59,1.16-2.6.12.17.25.34.36.51a.66.66,0,0,0,.84.22c1-.73-.55-2.32-.77-3.22a14.89,14.89,0,0,0-4.46-5.11,1.47,1.47,0,0,0-1.25-.42c-1.43.61-.1,1.89.68,2.6a12.49,12.49,0,0,0-2,2.79c-3.61-2.82-13.9-4.83-17-5.67-9.77-2.44-23.11-.3-25.81-13-1.23-6,3.92-9.45,7.89-12.89a2.28,2.28,0,0,0,.6-1.37c.11-2.24.1-4.48.35-6.72a29.63,29.63,0,0,1,7.51-16.38,35.83,35.83,0,0,0,17.89,15.34c.12.23.24.46.35.7-.48,1-.86,2-1.37,3-.19.37-.35.76-.53,1.13a1.36,1.36,0,0,0-1,.11c-1.54.83-2,2.76-2.44,4.35C51.39,197.46,71.49,196.89,80.41,203c3.51,2.81,5.36,7.06,7.58,10.88a1.68,1.68,0,0,0,.45,1.26c1.18.6,1.57-1.38,2-2.13a22.63,22.63,0,0,1,2.5-4.35c6.63-8.47,18.3-8.95,26.93-14.25a20.36,20.36,0,0,0,6.94-7.74c.4-1.62,3.33-6.57,1-7.34a1.39,1.39,0,0,0-1.66.69c-.13.46-.27.91-.43,1.35a19.17,19.17,0,0,0-3.17-9.15,33.45,33.45,0,0,0,9.93-6.56,45.57,45.57,0,0,0,5.37-7.79c7.27,5,9.95,12.55,8.35,21.31-.48,1.72,1.05,2.91,2,4.11,3,3.65,6.93,8.07,5.43,13.2-1.92,6.79-9.64,8.91-15.92,9.11A65.42,65.42,0,0,0,124.5,208c-1.85.6-11.07,3.36-13.73,6-.42-.75-.84-1.49-1.29-2.21a7.61,7.61,0,0,0-.81-1.08,6,6,0,0,0,1.41-2.21.64.64,0,0,0-.43-.65c-2.82-.14-4.49,3.19-5.82,5.26-.44,1.1-1,2-1.36,3.24a.74.74,0,0,0,.41.81.76.76,0,0,0,.9-.18c.14-.2.28-.41.41-.62l.16.2c4.85,7,6.42,15.77,6.44,24.22,0,2.32,0,5-.21,7.4-.09,2.24-.61,5.19,1.7,6.53,1.37.84,3.06.16,4.11-.9,5.19-6,1.7-19,0-26.14A57.86,57.86,0,0,0,112,216.3a6.9,6.9,0,0,0,.67-.32c1.22-.62,2.45-1.25,3.71-1.79a74.82,74.82,0,0,1,10.07-3.49c8.87-.8,17.81.42,26.68,1.34C164,223,170.55,237.66,176,252.11a1.23,1.23,0,0,0,.15.35c-4.21,2.24-8.51,4.34-12.86,6.32ZM30,207.08a1.73,1.73,0,0,0,.46-.48,25.31,25.31,0,0,0,9.43,2.53c1.6.21,3.21.43,4.81.68l-2.47.23a99.19,99.19,0,0,0-19.58,4.14,72.57,72.57,0,0,1,7.35-7.1Zm30.6-18.36c-.08.73-.13,1.4-.2,2.07a14.59,14.59,0,0,1-2.11-2.12c-1.56-3.12-.72-6.65.32-9.76.33-.66.66-1.32,1-2s.6-1.25.92-1.87c0,.12.1.25.16.37C61.85,179.67,61,184.36,60.62,188.72Zm2.8-14.51c7,2.33,15.81,3.77,26.91,4.6a1.54,1.54,0,0,0,.89-.25c3,.48,6.34-.4,9.37-.76,4.39-.78,8.77-1.67,13.11-2.68-1,.94-2,1.9-3.11,2.82-9.45,8.63-24,16-36.35,8.93a28.45,28.45,0,0,1-7.12-6.32c-1.33-1.75-2.3-3.75-3.47-5.61-.07-.25-.15-.49-.23-.73Zm.88,5.73c1.42,1.34,2.93,2.6,4.22,4,4.83,4.76,11.49,7.25,18.16,7.9,11.07.27,20.48-7.16,28-14.6-.77,4.92.34,11.41,1.14,14.8a1.34,1.34,0,0,0,.5.75c-6.48,3.39-14.27,4.34-20.21,8.86-3,2-5.87,4.66-7.28,8a20,20,0,0,0-3.09-5.7c-5.18-7.58-15.57-7.23-22.92-11.43.26-1.1.24-2.48.52-3.24A70.37,70.37,0,0,0,64.3,179.94Zm57.23-7.28c1.93,3.15,3.44,6.84,3.06,10.59a13.22,13.22,0,0,1-.35,1.75,18.64,18.64,0,0,1-4.79,5.88c-.34.25-.69.48-1,.71,0-1-.56-2.24-.54-3.12-.67-4.71-.92-9.75.76-14.3a2,2,0,0,0,.22-.5c.9-.31,1.8-.65,2.68-1Zm-85.36-39.5c-1.76-6.3-2.92-12.73-4.43-19.08a64.05,64.05,0,0,0-.36-7.82c-.17-3.25-1.39-6.5-1.14-9.72a81.24,81.24,0,0,0,8-12.82c1.95-.69,3.83-1.58,5.71-2.44,6-2.87,11.94-6,16.93-10.49.71-.65,1.47-1.36,2.24-2.12-1,1.88-2.11,3.73-3.32,5.5h0l0,.12a1.06,1.06,0,0,0,.49,1c.86.54,1.91.12,2.81-.11A36.81,36.81,0,0,0,85.55,59.69c2.6-3.54,4.58-7.52,7-11.2a29.34,29.34,0,0,1,23.78-3.66c.71,1.07,1.69,1.36,2.3,1,9.4-1,5.17,18.26,17.49,27.86a3.6,3.6,0,0,0,0,1c.28,8,5.13,14.82,11.47,19.39,1.65,1,.64,3.84.63,5.49s-1.4,10.16-.72,13.26c-1.06,3.86-1.71,9.42-2.26,10.83-3.05,13.67-5.62,28.44-14.83,39.55-6.51,6.54-15.86,8.66-24.64,10.28a84.49,84.49,0,0,1-13,1.86,7.56,7.56,0,0,0-2.27.12c-1.16-.23-2.69,0-3.69-.25C55.28,172.15,43.57,165,36.17,133.16Zm-10-4.62c-4.61-2.88-6.28-9.44-6-14.74,2.69,2.53,4.74,5.9,4.79,9.61A9.05,9.05,0,0,0,26.18,128.54Zm-1,7.32c-6.18-3.34-13.41-21.41-10.93-28,3.34-6.18,9.83,2.19,12.37,5.27a41.85,41.85,0,0,1,2.44,3.54c.49,2.29,1.11,4.54,1.15,5.37.74,3.46,1.47,6.7,2.22,9.77A31,31,0,0,1,27.35,126c-3-4.66,1.64-7.81-3.57-12-1.6-1.47-4-3.51-6.26-3.27-.46.35,0,.9.31,1.16s.87.62,1.29,1a.59.59,0,0,0-.19.42c-.06,6.21,2.33,14.13,8.31,16.88a13,13,0,0,0,4.63,3.66.91.91,0,0,0,1-.28c.33,1.32.67,2.61,1,3.86a12.49,12.49,0,0,1-8.7-1.52ZM114.7,42.94c-6.41-2.61-14.24-.84-20.17,2.67A28.52,28.52,0,0,1,96.74,43C102.44,37.33,109.54,37.58,114.7,42.94ZM16.13,94.69c-2-6.56-1.94-13.33-1.1-20.15,0-.47.44-4.14-.58-3a18.23,18.23,0,0,0-2.9,9c-.37-1.06-.71-2.12-1-3.2-1.93-13.13,2.4-26.65,11-36.85C40.93,15.93,68-1.89,100.46,4.32c9.38,2,19.1,6.12,25.43,13.6a18.41,18.41,0,0,1,2,3.44c.15.26.3.56.46.84-.41.6-.42,1.62.47,1.7,2.26-.42,4.26-1.94,6.54-2.46a20.32,20.32,0,0,1,10.94-.2c19.36,5.2,26.83,32.24,26.15,50.11a21.37,21.37,0,0,1-3.22,11.06c0-.27,0-.53,0-.8a15.84,15.84,0,0,0-1-6c-.2-.55-.51-1.25-1.16-1.37s-.83.6-.91,1c0,6.94-.46,13.95-3.46,20.35a56,56,0,0,1-2.91,6,1.55,1.55,0,0,0-.12.47c-3.44.72-7,4-9.33,7.28a.78.78,0,0,0-.28-.29A102.84,102.84,0,0,0,150.4,97c-.13-1.72.69-4.18-1.12-5.35-5.18-3.88-9.15-9.36-10-15.85a29.3,29.3,0,0,0,10.84,3,9.75,9.75,0,0,0,2.16-.1,1.25,1.25,0,0,0,0-2.48c-6.53-.95-13.42-2.7-17.5-8.33-3-3.73-4.48-8.15-5.6-12.8-1.11-4.06-2.07-8.93-5.92-11.31a5,5,0,0,0-3.7-.51,4.41,4.41,0,0,0-.72.28c-4.58-8.09-14.46-10.42-21.94-4.67-5,3.62-7.79,9.31-10.9,14.46-5.13,9.26-13.41,16.82-23.86,19.4a40,40,0,0,0,6-8.27c.36-1,1.6-2.34,1.52-3.43,2.14-3.16,3.65-6.58,3.58-10,.12-.43-.56-.57-.63-.16-2.46,3.18-4,7-6.69,10.14A51.84,51.84,0,0,1,50.64,74.4c-3.39,1.95-6.88,3.7-10.38,5.44a4.73,4.73,0,0,1-.65.36,27,27,0,0,0,1.29-6c.06-.77.48-7.54-1.17-5-1.43,3.83-1.89,8-3.61,11.75-2,5-5.31,9.57-8.12,14.16a140.43,140.43,0,0,0,1.38,15.24.78.78,0,0,0-.52.35c-2.57-3.61-6.38-7-9.66-8a.89.89,0,0,0-.08-.52,51.51,51.51,0,0,1-3-7.49Zm137.12,35.12c1-2.29,1.18-4.89,1.53-7.85a19.22,19.22,0,0,1,4.75-7.49c-.21,5-2.44,11.69-6.28,15.34Zm11.08-20.41c.77,10.06-5.41,24.92-15.31,28.84a7.45,7.45,0,0,1-4,.46c.24-.94.47-1.88.7-2.81,1,.46,2.41-.81,3.32-1.28a11.11,11.11,0,0,0,3.29-3.16c.61-.5,1.2-1,1.75-1.5,5.06-3.95,6.85-10.6,6.71-16.81l.51-.51a3.05,3.05,0,0,0,1.11-1.77c-.85-3.3-6.09,2.46-7.11,3.69-3.26,3-2.15,6.87-3,10.7a13.87,13.87,0,0,1-5,7.6,6.39,6.39,0,0,1-1,.63c.66-2.89,1.28-5.77,1.92-8.61.15-1.53,1.51-6.46,2.16-10.42l.18-.22a63.63,63.63,0,0,1,4.85-5.65c3.06-3.36,8.19-5.66,8.91.82ZM151.84,210.84c-6.55-.64-13.24-1.46-19.87-1.38l1.32-.23c4.69-.72,9.66-.47,14.08-2.29a1.7,1.7,0,0,0,.38.32C149.18,208.4,150.53,209.6,151.84,210.84Zm26.75,40.9c-.37-3.37-2.31-6.4-3.39-9.59a121.11,121.11,0,0,0-6.77-14.68,80.4,80.4,0,0,0-9.06-13.07c-2.8-3.09-5.56-6.69-9.16-8.89,4.54-2.66,7.76-7.85,6.88-13.2-1.14-5.23-4.81-9.72-8.52-13.4,1.23-8.41.47-16.18-6.78-21.69-.59-.42-1.52-1.3-2.51-2a80.06,80.06,0,0,0,5-13.8C153,143,159.84,135.09,163.16,128c3.15-7.1,7-16.82,2.32-24a6.19,6.19,0,0,0-2.69-1.73c1-1.77,1.91-3.6,2.78-5.44A38.52,38.52,0,0,0,169,85.25a26.54,26.54,0,0,0,3.7-5c4.95-9.59,2.62-21.26.2-31.29C168.63,34.13,158.18,17.32,141,17.48c-3.46.18-7.41.83-10.4,2.79a8.08,8.08,0,0,0-.86-2.13C125.25,10.68,116.88,6.49,109,3.47c-24-8.2-51.24-1.34-70.2,15C24.7,30.75,9.47,45.45,7.43,65a36.75,36.75,0,0,0,.38,10.47,25.15,25.15,0,0,0,3.79,10,42.75,42.75,0,0,0,5.46,16.87,5,5,0,0,0-.56.08c-12.51,3.08-2.27,24.43,2.05,31.28a15.81,15.81,0,0,0,12.83,7.12,6.48,6.48,0,0,0,2.51-.31h0a6.48,6.48,0,0,0,.81-.28,82,82,0,0,0,5.58,14.56c-2.3,1.38-4.92,6.66-5.7,8.09-2.68,5.13-2.23,11-3,16.49-3.14,2.36-6.5,4.91-8.23,8.54-2.58,5.8-.25,12.77,4.46,16.78-12.37,10.64-21,25.23-26,40.67-.42,1.34-.83,2.69-1.14,4.07a4.82,4.82,0,0,0-.14,1,1.11,1.11,0,0,0-.47.68C0,253,2,254,3.3,255c19.26,13.19,56.52,19.47,79.84,20,32.57,1.31,66.38-3.15,94.68-20.3a1.32,1.32,0,0,0,.29-2,1.22,1.22,0,0,0,.48-1.07"/><path id="path130" class="cls-69" d="M33.89,140.55h0"/><path id="path132" class="cls-65" d="M164.42,69l-6.89-6.55c3,6.74,2.23,14.47,1.2,21.76a73.15,73.15,0,0,1-3.8,16.52,62.56,62.56,0,0,1-4,8c-.18.23-.34.46-.51.69a.73.73,0,0,0-.29-.29A101.17,101.17,0,0,0,150.4,97c-.13-1.72.7-4.18-1.11-5.35-5.2-3.89-9.17-9.35-10-15.85a28.93,28.93,0,0,0,10.84,3,10.43,10.43,0,0,0,2.16-.1,1.25,1.25,0,0,0,0-2.48c-6.52-.95-13.42-2.71-17.5-8.33-3-3.74-4.48-8.15-5.59-12.8-1.11-4.07-2.08-8.93-5.94-11.31a5,5,0,0,0-3.7-.51,4.26,4.26,0,0,0-.71.29c-4.57-8.1-14.45-10.42-21.94-4.68-5,3.62-7.79,9.31-10.9,14.45-5.13,9.27-13.41,16.83-23.86,19.41a39.61,39.61,0,0,0,6-8.27c.36-1,1.61-2.33,1.53-3.43,2.14-3.17,3.65-6.57,3.58-10,.13-.43-.56-.57-.62-.16-2.48,3.18-4,7-6.71,10.14A52,52,0,0,1,50.64,74.41c-3.39,1.94-6.87,3.7-10.38,5.43-.18.11-.4.24-.64.36a28,28,0,0,0,1.29-6c.06-.76.47-7.54-1.18-5-1.43,3.83-1.89,8-3.61,11.75-2,5-5.31,9.58-8.12,14.17a140.47,140.47,0,0,0,1.38,15.23.84.84,0,0,0-.52.34,27,27,0,0,0-5.78-5.94A78.38,78.38,0,0,1,22.19,84,51.37,51.37,0,0,1,31.27,59L20.75,68.62c.93-5.9,3.55-11.27,6.71-16.33,8.73-14,20.68-26.19,35.39-33.55s32.33-9.57,47.92-4.31A27.22,27.22,0,0,1,118,17.89c3.65,2.59,6.23,6.42,8.52,10.27,5.95-2.65,12.35-.5,18,2.76A41.27,41.27,0,0,1,164.42,69"/><path id="path134" class="cls-61" d="M82.6,205.15a187.72,187.72,0,0,1-24.35-6.56c-3.3-1.12-6.67-2.41-9.14-4.86a17,17,0,0,1-4.39-9.39,26.34,26.34,0,0,1,4-18.36,37.72,37.72,0,0,0,11,6.83c.11.23.24.46.35.7-.48,1-.85,2-1.37,3-.18.37-.35.76-.53,1.13a1.33,1.33,0,0,0-1,.11c-1.55.84-2,2.76-2.45,4.34C51.39,197.47,71.49,196.9,80.4,203a15.57,15.57,0,0,1,2.2,2.17"/><path id="path136" class="cls-61" d="M139.81,178.93c-.76,7-5.9,12.95-12,16.5s-13.12,5.09-20,6.59c-4.07.89-7.93,2.6-11.85,3.6,6.79-5.67,16.51-6.64,24-11.24a20.25,20.25,0,0,0,6.94-7.73c.4-1.63,3.33-6.57,1-7.34a1.37,1.37,0,0,0-1.65.69c-.13.46-.28.91-.42,1.36a19.16,19.16,0,0,0-3.19-9.16,33.35,33.35,0,0,0,9.95-6.56c.72-.84,1.39-1.69,2-2.57,3.51,4.66,5.83,10.18,5.21,15.86"/></g></g></svg>