<svg xmlns="http://www.w3.org/2000/svg" viewBox="0 0 187.38 268.04"><defs><style>.cls-71{fill:#ed546e;}.cls-72{fill:#ffdecc;}.cls-73{fill:#ce88d8;}.cls-74{fill:#d8855b;}.cls-75{fill:#fc9595;}.cls-76{fill:#ff737d;}.cls-77{fill:#a0ace0;}.cls-78{fill:#e9f5ff;}.cls-79{fill:#26073d;}.cls-710{fill:#7783bf;}.cls-711{fill:#bddbef;}.cls-712{fill:#7f88c6;}.cls-713{fill:#b067c1;}.cls-714{fill:#9170c1;}</style></defs><g id="Layer_2" data-name="Layer 2"><g id="svg2"><path id="path354" class="cls-71" d="M91.41,146.43a9.65,9.65,0,0,1,7.52-1.1c.54.14,1.14.22,1.71.38.11-.65.2-1.26.29-1.8.23-2.66,1.26-5.64-.21-7.94-1.64-.79-3.45.92-5.11,1.21a26.41,26.41,0,0,1-5.73,1c-1.69-.05-3.39-.61-5.08-.6a39.29,39.29,0,0,0,3,12.11,9.11,9.11,0,0,1,3.61-3.3"/><path id="path356" class="cls-72" d="M83.28,143c-.27-2.21-1.16-4.82,0-6.82,1.36-1.15,3.57-.15,5.12-.19,3.68.21,7.17-1.43,10.76-2a3,3,0,0,1,3.38,1.37c2.76,3.34,1.55,8,.87,11.92-1.07,4.75-3.17,12.36-9.31,11.74-7.22-1.24-9.49-9.8-10.81-16ZM76.61,75.26c-3.48,1.73-7.56,2.28-11.14,3.89-2.46.8-4.54,2.62-6.92,3.34a.82.82,0,0,1-1.06-.32c-.56-4.9,5.52-10.72,9.95-12.06,3.07-.82,7.31-1.06,9.45,1.71A2.6,2.6,0,0,1,76.61,75.26Zm-2.76,29a12.65,12.65,0,0,0-7.74-2c-1.46,0-3,.88-4.35.32-1.93-1.55,1-3.29,2.41-3.37a12.15,12.15,0,0,1,9,1.28,7.82,7.82,0,0,1,2.21,1.88A1.3,1.3,0,0,1,73.85,104.29Zm11,12.7c1.29.07,2.42.87,3.56,1.3a15.1,15.1,0,0,0,4.5.1,16.54,16.54,0,0,0,6.34-1.32,1.21,1.21,0,0,1,1.84.5,2.73,2.73,0,0,1-.43,2.1c-1.55,3-4.84,5.28-8.32,4.51-3.13-.65-5.53-3.33-7.31-5.8-.36-.33-1-1.19-.18-1.39Zm33.26-47.28c5.4,1.22,9.51,5.87,11,11.06v0a.89.89,0,0,1-1.23,1.24,2.16,2.16,0,0,1-1.17-.55,39.43,39.43,0,0,0-10.39-4.21c-1.84-.59-3.88-.88-5.33-2.27C107.69,70.9,115,68.63,118.09,69.71Zm5.74,32.7a11.74,11.74,0,0,0-9.75.62c-.93.39-2,1.7-2.91.58s.72-2,1.58-2.55a13.78,13.78,0,0,1,8.6-2.43,7.66,7.66,0,0,1,3.89,1.44,1.4,1.4,0,0,1-1.41,2.34Zm-22.54,69.46c13.32-4,25.16-14.77,34.22-24.92,5.69-7.17,6.25-16.64,8.1-25.26a261.2,261.2,0,0,0,3.66-27.44,60,60,0,0,0-11.18-26.79C127,53.22,112.84,41.3,95.85,38.63c-10.86-1.74-27.3,8.3-35.49,15A63,63,0,0,0,44.43,74.93c-1.7,4-3.23,8.09-4.54,12.24a241,241,0,0,0,4.68,35.1c1.32,6.52,2.44,13.16,5.47,19.06,7.32,14.08,24.51,26.8,39.61,31.13,1.2.36,2.47.48,3.66.85a48.33,48.33,0,0,0,8-1.44"/><path id="path358" class="cls-73" d="M157.07,115a67,67,0,0,1-6.67,15.66,54.94,54.94,0,0,1-8.12,11.17c-2,4.89-5.52,9-9.28,12.68a112.31,112.31,0,0,1-12.69,11c-7.8,5.88-16.63,10.75-26.54,10.76a2.24,2.24,0,0,1-1.41.06c-16.25-2.44-37.15-18-45-33.07a116.38,116.38,0,0,1-18-29.47.35.35,0,0,1,0-.42c.64-.43,1.29,1,1.6,1.4,2.47,4.14,5.29,8,7.8,12.17,1.79,2.92,3.68,5.79,5.57,8.65-2.64-8.48-3.72-17.46-5.37-26.17-1-6.39-1.71-12.84-2.13-19.29a1.76,1.76,0,0,1-.08-.84s0,0,0-.07c-.27-4.39-.39-8.77-.31-13.16a114.7,114.7,0,0,1,2.16-18.75c.4-2,.91-3.89,1.5-5.8a.44.44,0,0,1,.65-.12l.07.08a.37.37,0,0,1,.09.2c0,.56,0,1.12-.07,1.68-.34,8.38-1.28,16.68-1.25,25A65.73,65.73,0,0,1,66.79,44.93c6.13-3.4,12.66-7.3,19.58-8.9h.06a26.22,26.22,0,0,1,5.73-.73,22.58,22.58,0,0,1,4.61.34C111.41,38,124.83,47,133.73,58.7c5.68,7.47,11.19,15.89,13.82,25a249.69,249.69,0,0,0-2.14-30.19,6.63,6.63,0,0,1,.28-3.12.39.39,0,0,1,.58,0h0a.25.25,0,0,1,.05.08l-.06-.08c3.48,7.2,3.24,15.72,4.06,23.56a143.39,143.39,0,0,1-1.25,34c-1.41,9.43-2.75,18.94-5.08,28.18,1.79-3,3.53-6,5.29-9,2.4-4.51,5.16-9,7.47-13.47a.35.35,0,0,1,.4-.27c.64.28,0,1.22-.09,1.68Zm6.78-28.52c1.16-11.3,1.24-23.13-3.3-33.74a93.86,93.86,0,0,0-4.47-8.63C142.6,20.9,119.76,4.29,92,3.39a63.67,63.67,0,0,0-8.54.67c-.9.21-1.8.45-2.68.71C69.69,7.59,59,11.9,50.55,19.61a96,96,0,0,0-22,30.26c-.2.4-.39.82-.57,1.23-3.42,7.93-4.3,16.19-4.88,24.59A112.53,112.53,0,0,0,23,93.77c.48,8.53,2.33,16.5,4.24,24.74a35.08,35.08,0,0,0,1.32,12.7c4.95,18.2,18.85,32.42,34.19,42.49a112.43,112.43,0,0,0,11,5.55c.62.24.32,1.22-.26,1.22a.52.52,0,0,1-.24-.05,80,80,0,0,1-24.87-13.8,32.34,32.34,0,0,0,5.77,9.81c13.8,14.9,36.34,19.44,55.5,14,4.57-1,8.56-3.49,12.76-5.43a1.22,1.22,0,0,1,1.09,2.18,69.54,69.54,0,0,1-37.49,6.42c-8.56-1.18-17.23-2.92-24.75-7.28a38.82,38.82,0,0,1-13.13-12.74c-3,4.64.48,10.66,3.22,14.68,11.76,16.78,35.28,19.41,54.06,16.24,9.24-1.87,18.14-5.8,24.85-12.43,3.79-3.37,7.29-7.56,8.35-12.6a18.8,18.8,0,0,0-.22-8.92c-.81,1.19-1.68,2.27-2.32,3.09a46,46,0,0,1-4.68,4.68c-.44.39-.8,1-1.33,1.26a.35.35,0,0,1-.25-.58,33.34,33.34,0,0,0,7.56-12.45,85.78,85.78,0,0,1-15,8.4,106.63,106.63,0,0,1-15,6.05c-6.24,2.06-12.44,5.58-19,6.16-1.66-.64-.48-2.21.86-2.29,7.29-.93,13.81-4.49,20.7-6.79.91-.34,1.83-.69,2.75-1,4.76-2.08,9.45-4.32,14-6.79a104.22,104.22,0,0,0,21.63-17.81c6.69-7.57,11.73-17.19,12.56-27.32,0-3.09-1.41-6-.32-9.13,2-9.71,2.43-19.63,3.25-29.5"/><path id="path360" class="cls-74" d="M113.32,73.89c2.24.77,4.45,1.54,6.65,2.34a35.6,35.6,0,0,1,7.24,3.58c-2.1-5-9.36-10.26-14.56-6.8-.37.41.32.76.67.88"/><path id="path362" class="cls-74" d="M68.91,72.07a13.05,13.05,0,0,0-9.42,8c4.6-3.23,10.32-4.67,15.47-6.53h0c-1-2.18-4.09-1.71-6-1.42"/><path id="path364" class="cls-75" d="M98,119.65a15.9,15.9,0,0,1-10.61-.08,8.85,8.85,0,0,0,6.24,3c1.84-.16,3.28-1.56,4.37-2.93"/><path id="path366" class="cls-76" d="M100.47,146.7c-5.1-1.13-9.14.28-11.72,4.93,1.58,2.86,3.65,4.86,6.2,4.56,3.57-.82,4.82-5.64,5.52-9.49"/><path id="path368" class="cls-77" d="M178.89,229.07a103.58,103.58,0,0,0-38.1-44l-.16-.13-.62-.48a21.56,21.56,0,0,1-2.46,4.17c-6.31,8.85-15.46,14.52-25.55,17.55-.8,3.12-1.55,6.29-2.23,9.48A226.2,226.2,0,0,0,105.08,250c-.25,3.89-.39,7.8-.35,11.71,0,.66.1,1.74,0,2.68A203.32,203.32,0,0,0,150,256.79a141.71,141.71,0,0,0,32.21-14.09c.59-.32,1.15-.68,1.72-1-1.53-4.26-3.1-8.5-5-12.6"/><path id="path370" class="cls-78" d="M109.59,206.79a61.76,61.76,0,0,0-2.83,9.86c-1.59,7.22-2.77,15.13-3,16.57a198.8,198.8,0,0,0-2,26.48c0,1.61,0,3.23.15,4.83q-9.12.45-18.24.32c-.15-3.78-.41-7.54-.67-11.31-1.06-12.28-1.86-24.87-4.66-36.92A93.27,93.27,0,0,0,75.69,207a58.63,58.63,0,0,0,10,1.54,69,69,0,0,0,23.92-1.7"/><path id="path372" class="cls-77" d="M80.56,264.79h-.23c-22.12-.54-43.73-7-63.58-16.52A98.24,98.24,0,0,1,2.69,240s0,0,0,0c.56-1,.68-2.61,1.2-3.49a99.82,99.82,0,0,1,4.2-10c4.51-8.8,10.78-16.59,17.34-24A96.86,96.86,0,0,1,45.65,185l.23-.14c.13.32.28.64.43.94,4.88,10.32,15.44,17.1,26.7,20.4a.42.42,0,0,0,0,.16c.82,3,1.52,6.1,2.15,9.16,3.33,16.19,4.36,32.67,5.36,49.24"/><path id="path374" class="cls-79" d="M181.77,240.34a.25.25,0,0,0,0-.09.28.28,0,0,0,0-.06s0,0,0,0,0,.07,0,.11"/><path id="path376" class="cls-79" d="M50,141.33c-3-5.9-4.15-12.54-5.47-19.06a241.37,241.37,0,0,1-4.68-35.1q2-6.23,4.54-12.24A63,63,0,0,1,60.36,53.65c8.19-6.72,24.61-16.78,35.49-15,17,2.68,31.15,14.6,40.24,28.83a60.15,60.15,0,0,1,11.18,26.79,261.2,261.2,0,0,1-3.66,27.44c-1.85,8.62-2.41,18.09-8.1,25.26-9,10.15-20.88,20.92-34.22,24.92a47.29,47.29,0,0,1-8,1.43c-1.19-.36-2.46-.49-3.66-.85C74.55,168.13,57.36,155.41,50,141.33Zm43.73,34.94c9.91,0,18.74-4.88,26.54-10.76a112.4,112.4,0,0,0,12.69-11c3.76-3.63,7.29-7.79,9.29-12.68a55.11,55.11,0,0,0,8.11-11.16A67,67,0,0,0,157.08,115c0-.46.73-1.4.09-1.68a.34.34,0,0,0-.4.26c-2.32,4.52-5.06,9-7.48,13.46-1.76,3-3.5,6-5.29,9,2.33-9.25,3.67-18.74,5.08-28.18a143.43,143.43,0,0,0,1.25-34c-.81-7.84-.58-16.36-4.05-23.56h0a.38.38,0,0,0-.57,0,6.37,6.37,0,0,0-.28,3.12,245.82,245.82,0,0,1,2.13,30.19c-2.63-9.12-8.13-17.56-13.81-25C124.84,47,111.43,38,96.77,35.61c-10.85-1.94-20.86,4.24-30,9.29A65.75,65.75,0,0,0,39.56,78.37c0-8.91,1-17.76,1.32-26.71a.44.44,0,0,0-.81-.16c-2.46,7.91-3.26,16.29-3.64,24.55-.08,4.38,0,8.78.3,13.16,0,0,0,0,0,.06a2,2,0,0,0,.08.83C37.23,96.55,38,103,39,109.41c1.65,8.7,2.72,17.68,5.37,26.16-1.89-2.87-3.79-5.72-5.57-8.66-2.51-4.12-5.34-8-7.8-12.17-.31-.44-1-1.84-1.6-1.4a.36.36,0,0,0,0,.43,116.57,116.57,0,0,0,18,29.46c7.89,15.08,28.8,30.63,45.05,33.07a2.07,2.07,0,0,0,1.37,0"/><path id="path378" class="cls-79" d="M146.28,50.43a.46.46,0,0,1,.07.07s0,0-.07-.07a.08.08,0,0,0,0,0s0,0,0,0h0"/><path id="path382" class="cls-79" d="M182.21,242.7A141.24,141.24,0,0,1,150,256.78a203.33,203.33,0,0,1-45.25,7.59c.06-.94-.06-2,0-2.7,0-3.89.09-7.8.36-11.69A229.12,229.12,0,0,1,112,206.13c10.11-3,19.24-8.7,25.55-17.56a21.79,21.79,0,0,0,2.46-4.16c.27.21.54.41.78.61a103.6,103.6,0,0,1,38.1,44c2,4.1,3.51,8.35,5,12.6-.56.35-1.13.71-1.72,1ZM102,264.53q-9.12.45-18.24.32c-.15-3.78-.41-7.54-.67-11.31-1.36-15.6-2.28-31.69-7.4-46.59a58.47,58.47,0,0,0,10,1.54,69.19,69.19,0,0,0,23.92-1.7c-2.9,6.84-5.5,24.22-5.79,26.42a197.41,197.41,0,0,0-2,26.49c0,1.61,0,3.23.15,4.83Zm-21.67.26c-22.12-.54-43.73-7-63.58-16.52A96.41,96.41,0,0,1,2.69,240l0,0c.56-1,.68-2.61,1.2-3.49a95.5,95.5,0,0,1,4.22-10c4.5-8.8,10.77-16.59,17.33-23.95a96,96,0,0,1,20.27-17.5l.22-.15c4.67,10.85,15.52,17.95,27.14,21.35,0,.05,0,.1,0,.17,5.1,19.09,6.33,38.69,7.52,58.4a.83.83,0,0,0-.26,0ZM28.6,131.21a35.08,35.08,0,0,1-1.32-12.7c-1.91-8.24-3.76-16.21-4.25-24.74a111.39,111.39,0,0,1,.06-18.08C23.68,67.29,24.56,59,28,51.1A96.77,96.77,0,0,1,50.53,19.61C59,11.9,69.68,7.59,80.76,4.77c.89-.26,1.79-.48,2.69-.71A60.58,60.58,0,0,1,92,3.41c31.06,1,56,21.72,68.53,49.37,4.55,10.61,4.47,22.44,3.31,33.76-.83,9.85-1.27,19.77-3.26,29.49-1.09,3.08.31,6,.32,9.14-.82,10.13-5.86,19.73-12.56,27.32a104.07,104.07,0,0,1-21.64,17.81c-4.52,2.47-9.2,4.71-14,6.79-.92.32-1.84.65-2.74,1-6.9,2.29-13.42,5.85-20.71,6.8-1.33.07-2.52,1.65-.85,2.28,6.53-.59,12.73-4.11,19-6.16a106.39,106.39,0,0,0,15-6.05,87.1,87.1,0,0,0,15-8.4A33.5,33.5,0,0,1,129.84,179a.34.34,0,0,0,.24.57c.53-.22.89-.86,1.33-1.25a45.85,45.85,0,0,0,4.67-4.68c.65-.83,1.51-1.91,2.32-3.09a18.55,18.55,0,0,1,.21,8.92c-1.05,5-4.56,9.22-8.34,12.61-6.71,6.63-15.62,10.56-24.87,12.41-18.76,3.18-42.29.55-54-16.22-2.75-4-6.2-10-3.23-14.68a38.88,38.88,0,0,0,13.15,12.74c7.52,4.35,16.19,6.1,24.75,7.28a69.57,69.57,0,0,0,37.49-6.42,1.22,1.22,0,0,0-1.09-2.18c-4.2,1.94-8.19,4.4-12.76,5.43-19.18,5.45-41.7.91-55.5-14a32.41,32.41,0,0,1-5.77-9.8,80.18,80.18,0,0,0,24.87,13.8.71.71,0,0,0,.24.06c.58,0,.88-1,.26-1.23a115.7,115.7,0,0,1-11-5.53c-15.3-10.14-29.2-24.38-34.15-42.56Zm112.29,51a18,18,0,0,0,.2-11.16,8.46,8.46,0,0,0-1.28-2.71,8.09,8.09,0,0,0,1.15-4.38,66.14,66.14,0,0,0,18.8-22.74,39.07,39.07,0,0,0,3.41-11.14c.67-3.43-.42-6.94.11-10.32,2.56-11.32,3-23,4-34.48.7-8,1-16.12-.68-24-2.12-11-8.35-20.58-14.88-29.46-11-14.68-26.95-25.68-45-29.66C99.85.62,91.19-.94,83.8.7h0C73.37,3,63,6.38,54.21,12.57c-13.5,9.66-23.52,23.93-30,39.1-3.33,8.56-4,17.82-4.56,26.91a108.07,108.07,0,0,0,2.61,31.72c.79,3.27,1.42,6.57,2.27,9.81.12,6,.76,12.06,3.07,17.67A66.56,66.56,0,0,0,45,163.54a2.36,2.36,0,0,0-.16,1,23.84,23.84,0,0,0,1.85,6.09c-2.21,1.36-2.88,4.88-2.8,7.3a29.42,29.42,0,0,0,1.2,4.81,3.33,3.33,0,0,0-.48.21c-16.53,9.18-33.51,29.6-41.23,46.78-1,2.34-1.86,4.74-2.69,7.16-.28,1-1,2.34-.51,3.22-.29,2.63,6.87,6.3,8.87,7.58,20.64,11.2,43.6,18.85,67.15,20.09,36.24,1.41,74.52-2.64,106.2-21.56,1-.76,2.48-1.36,3.5-2.25a1.55,1.55,0,0,0,1.38-.92c.38-1.2-.35-2.4-.67-3.55-8.11-23.21-23.55-45.68-45.71-57.32"/><path id="path384" class="cls-79" d="M73.12,100.53a12.2,12.2,0,0,0-9-1.28c-1.42.08-4.34,1.82-2.41,3.37,1.39.55,2.91-.35,4.35-.32a12.79,12.79,0,0,1,7.74,2,1.31,1.31,0,0,0,1.47-1.9,8,8,0,0,0-2.2-1.86"/><path id="path386" class="cls-79" d="M121.35,98.63a13.78,13.78,0,0,0-8.6,2.43c-.86.56-2.42,1.35-1.58,2.55s2-.19,2.91-.58a11.7,11.7,0,0,1,9.75-.62,1.4,1.4,0,0,0,1.4-2.34,7.59,7.59,0,0,0-3.88-1.44"/><path id="path388" class="cls-79" d="M75,73.49c-5.13,1.85-10.85,3.3-15.47,6.53a13.05,13.05,0,0,1,9.42-8c2-.29,5.06-.76,6,1.42Zm-7.52-3.38C63,71.46,56.93,77.27,57.49,82.17a.82.82,0,0,0,1.06.32c2.38-.72,4.46-2.54,6.92-3.34,3.58-1.61,7.66-2.16,11.14-3.89a2.6,2.6,0,0,0,.28-3.44c-2.14-2.76-6.38-2.53-9.45-1.71"/><path id="path390" class="cls-79" d="M112.65,73c5.19-3.46,12.46,1.79,14.56,6.8A36.63,36.63,0,0,0,120,76.22c-2.21-.79-4.41-1.57-6.65-2.35-.35-.1-1-.45-.67-.88Zm3.67,4.3a40.12,40.12,0,0,1,10.39,4.21,2.27,2.27,0,0,0,1.17.55.89.89,0,0,0,1.23-1.24v-.06c-1.52-5.18-5.63-9.84-11-11C115,68.62,107.68,70.89,111,75c1.46,1.38,3.51,1.69,5.35,2.28"/><path id="path392" class="cls-79" d="M98,119.65c-1.09,1.38-2.53,2.78-4.37,2.93a8.85,8.85,0,0,1-6.24-3A15.9,15.9,0,0,0,98,119.65Zm-5.67,4.53c3.48.77,6.78-1.49,8.32-4.51a2.67,2.67,0,0,0,.43-2.1,1.2,1.2,0,0,0-1.84-.5,16.53,16.53,0,0,1-6.33,1.32,15.18,15.18,0,0,1-4.51-.1c-1.13-.43-2.27-1.23-3.56-1.3-.79.2-.19,1,.19,1.39,1.77,2.47,4.17,5.15,7.3,5.8"/><path id="path394" class="cls-79" d="M88.75,151.62c2.58-4.65,6.62-6.07,11.72-4.93-.7,3.85-2,8.68-5.51,9.49C92.4,156.49,90.33,154.47,88.75,151.62Zm-1-1.89a39.29,39.29,0,0,1-3-12.11c1.69,0,3.39.55,5.08.6a25.46,25.46,0,0,0,5.73-1c1.66-.28,3.47-2,5.11-1.21,1.47,2.3.44,5.28.21,7.94-.09.54-.18,1.15-.29,1.8-.56-.16-1.17-.24-1.71-.38a9.65,9.65,0,0,0-7.52,1.1A9.11,9.11,0,0,0,87.8,149.73Zm15.6-2.51c.67-3.88,1.89-8.59-.87-11.92a3,3,0,0,0-3.38-1.37c-3.59.61-7.07,2.26-10.76,2-1.54,0-3.75-1-5.12.18-1.15,2-.26,4.62,0,6.83,1.33,6.17,3.59,14.73,10.81,16,6.14.65,8.24-7,9.31-11.72"/><path id="path396" class="cls-710" d="M73.05,206.39c.82,3,1.52,6.1,2.15,9.16C54,207.86,47.71,190.7,46.31,185.83c4.88,10.32,15.44,17.1,26.7,20.4a.42.42,0,0,0,0,.16"/><path id="path398" class="cls-711" d="M109.59,206.79a61.76,61.76,0,0,0-2.83,9.86,46.44,46.44,0,0,1-23.45,1.2c-1.71-.36-3.32-.76-4.88-1.23A93.27,93.27,0,0,0,75.69,207a58.63,58.63,0,0,0,10,1.54,69,69,0,0,0,23.92-1.7"/><path id="path400" class="cls-712" d="M140.63,184.89c-.39,7.62-12.71,23.84-30.86,30.72.68-3.19,1.43-6.36,2.23-9.48,10.09-3,19.24-8.7,25.55-17.55a21.56,21.56,0,0,0,2.46-4.17l.62.48"/><path id="path402" class="cls-713" d="M160.6,116c-1.09,3.09.31,6,.32,9.13-.83,10.13-5.87,19.75-12.56,27.32a104.22,104.22,0,0,1-21.63,17.81c-4.52,2.47-9.21,4.71-14,6.79-.92.32-1.84.67-2.75,1-6.89,2.3-13.41,5.86-20.7,6.79-1.34.08-2.52,1.65-.86,2.29,6.54-.58,12.74-4.1,19-6.16a106.63,106.63,0,0,0,15-6.05,85.78,85.78,0,0,0,15-8.4A33.34,33.34,0,0,1,129.87,179a.35.35,0,0,0,.25.58c.53-.23.89-.87,1.33-1.26a46,46,0,0,0,4.68-4.68c.64-.82,1.51-1.9,2.32-3.09a18.8,18.8,0,0,1,.22,8.92c-1.06,5-4.56,9.23-8.35,12.6-6.71,6.63-15.61,10.56-24.85,12.43-18.78,3.17-42.3.54-54.06-16.24-2.74-4-6.2-10-3.22-14.68a38.82,38.82,0,0,0,13.13,12.74c7.52,4.36,16.19,6.1,24.75,7.28a69.54,69.54,0,0,0,37.49-6.42,1.22,1.22,0,0,0-1.09-2.18c-4.2,1.94-8.19,4.4-12.76,5.43-19.16,5.45-41.7.91-55.5-14a32.34,32.34,0,0,1-5.77-9.81,80,80,0,0,0,24.87,13.8.52.52,0,0,0,.24.05c.58,0,.88-1,.26-1.22a112.43,112.43,0,0,1-11-5.55c-15.34-10.07-29.24-24.29-34.19-42.49a35.08,35.08,0,0,1-1.32-12.7c-1.91-8.24-3.76-16.21-4.24-24.74a112.53,112.53,0,0,1,.07-18.08C23.69,67.29,24.57,59,28,51.1c.18-.41.37-.83.57-1.23a167.43,167.43,0,0,0-2.31,18c-.42,5.78-.56,11.67,1,17.23a29.62,29.62,0,0,0,3.66,8c2.63-3.36,2.75-8,3-12.24a96.19,96.19,0,0,1,4.61-23.58,114.7,114.7,0,0,0-2.16,18.75c-.08,4.39,0,8.77.31,13.16,0,0,0,0,0,.07a1.76,1.76,0,0,0,.08.84c.42,6.45,1.17,12.9,2.13,19.29,1.65,8.71,2.73,17.69,5.37,26.17-1.89-2.86-3.78-5.73-5.57-8.65-2.51-4.12-5.33-8-7.8-12.17-.31-.44-1-1.83-1.6-1.4a.35.35,0,0,0,0,.42,116.38,116.38,0,0,0,18,29.47c7.9,15.09,28.8,30.63,45.05,33.07a2.24,2.24,0,0,0,1.41-.06c9.91,0,18.74-4.88,26.54-10.76a112.31,112.31,0,0,0,12.69-11c3.76-3.63,7.29-7.79,9.28-12.68a54.94,54.94,0,0,0,8.12-11.17A67,67,0,0,0,157.07,115c0-.46.73-1.4.09-1.68a.35.35,0,0,0-.4.27c-2.31,4.52-5.07,9-7.47,13.47-1.76,3-3.5,6-5.29,9,2.33-9.24,3.67-18.75,5.08-28.18a143.39,143.39,0,0,0,1.25-34c-.82-7.84-.58-16.36-4.06-23.56a.39.39,0,0,0-.58,0,6.63,6.63,0,0,0-.28,3.12,249.69,249.69,0,0,1,2.14,30.19c-2.63-9.14-8.14-17.56-13.82-25C124.83,47,111.41,38,96.77,35.63a22.58,22.58,0,0,0-4.61-.34c.44-.06.89-.08,1.33-.11a38,38,0,0,1,10.91.67c7.43,1.7,13.49,3.77,19.56,8.4s11.31,10.21,17.09,15.18c.46.39,1.07.79,1.59.52a1.42,1.42,0,0,0,.61-1c1.31-5-.58-10.31-2.45-15.16L137.43,35c2.56,1.21,4.28,3.67,5.8,6.08a125.25,125.25,0,0,1,11.64,23.77c.5,1.42,1.57,3.15,3,2.72a75.82,75.82,0,0,0-1.79-23.45,93.86,93.86,0,0,1,4.47,8.63c4.54,10.61,4.46,22.44,3.3,33.74-.82,9.87-1.26,19.79-3.25,29.5"/><path id="path404" class="cls-713" d="M39.56,78.39c0-8.36.91-16.66,1.25-25,0,2.24.06,4.5.08,6.74,0,1.18.26,2.69,1.4,3s2-.73,2.64-1.61A66.87,66.87,0,0,1,86.37,36c-6.92,1.6-13.45,5.5-19.58,8.9A65.73,65.73,0,0,0,39.56,78.39"/><path id="path406" class="cls-714" d="M40.79,51.47l-.07-.08s0-.1.07-.16v.24"/></g></g></svg>