<svg xmlns="http://www.w3.org/2000/svg" viewBox="0 0 188.59 292.25"><defs><style>.cls-11{fill:#fc9595;}.cls-12{fill:#e5893e;}.cls-13{fill:#ffdecc;}.cls-14{fill:#f7b76b;}.cls-15{fill:#aa8980;}.cls-16{fill:#fff89f;}.cls-17{fill:#e5650e;}.cls-18{fill:#f48f2a;}.cls-19{fill:#26073d;}</style></defs><g id="Layer_2" data-name="Layer 2"><g id="svg2"><path id="path18" class="cls-11" d="M23.29,128.78c.14,5.67,3.74,10.91,8,14.36a.8.8,0,0,0,.16.15,26.44,26.44,0,0,1-2.8-8,18.32,18.32,0,0,0-5.4-6.55"/><path id="path20" class="cls-12" d="M134.8,97.66c-1.89-3.61-5.48-8-10-7.48-.91.29-2.48,1.08-2.16,2.23,4.12,1.57,8.54,2.58,12.17,5.25"/><path id="path22" class="cls-11" d="M94.69,149.21a8.81,8.81,0,0,0,8.11-5c-4.24,2.69-9.57,3.83-14.29,1.71a7,7,0,0,0,6.18,3.32"/><path id="path24" class="cls-12" d="M65.15,90.18c-4.54-.57-8.12,3.87-10,7.48,3.63-2.67,8-3.68,12.18-5.25.33-1.15-1.24-2-2.16-2.23"/><path id="path26" class="cls-13" d="M155,129.63c-.85,4.79-1.69,9.68-2.73,14.51a12.32,12.32,0,0,0,1.67-1c2.38-2,5-4.4,5.69-7.56.29-1.48-.17-2.93-.15-4.37.71-2.14,3-3.3,4.6-4.75,1.71-1.08,3.63-2.81,5.66-3,1,.51-.12,1.35-.63,1.75l-.39.36c.08,6.41-2.65,13-8.29,16.41a18,18,0,0,1-2.48,1.34,10.79,10.79,0,0,1-5.39,3.12,1.25,1.25,0,0,1-.72-.3s0,0,0,0c-.32,1.38-.67,2.77-1,4.14a24.92,24.92,0,0,0,9.49-1.9c6.91-2.88,11-10.1,11.76-17.24.31-3.95,1.32-11.27-3.93-12.12-5.72,1-9.67,6.18-13.1,10.62"/><path id="path28" class="cls-11" d="M167.05,127.06c-1.62,1.6-3.16,3.31-4.72,5-1.68,1.07-.9,3.35-1.28,5a10.82,10.82,0,0,1-1.54,4.15c4.61-2.8,7.32-8.83,7.54-14.16"/><path id="path30" class="cls-13" d="M52.89,100.73c-3-1,4.24-9.44,5.75-10.44,2.11-1.66,4.83-3,7.55-2.43s4.65,3.39,3.46,5.92c-1.17,2.07-4.2,1.41-6.06,2.2a32.18,32.18,0,0,0-9.3,4.41C53.92,100.7,53.35,101.09,52.89,100.73Zm15.59,21.84c-.61,1.92-2.93,3.17-4.68,1.81-3.63-2-2.49-16.71,3.17-12.93,1.59,1.41,1.15,3.69,1.51,5.58.19,1.84.56,3.75,0,5.54Zm17.25,18.62c1,.24,1.48,1.27,2.28,1.8,3.63,2.88,8.67,2,12.67.5,1.43-.75,2.37-2.19,3.84-2.74,3,.26-1,5.32-1.81,6.44a10.19,10.19,0,0,1-9.18,3.52,8.57,8.57,0,0,1-5.81-3.49,38.08,38.08,0,0,0-2.67-3.84C84.51,142.66,84.49,141,85.73,141.19Zm22.51,21.68c1.17,3.88-16.27,4.78-19,4.36-.75,0-2-.22-2-1.21.11-.45.52-.63.92-.75,3.36-.36,6.79-.46,10.13-.94a28.23,28.23,0,0,0,6-1.55c1.23-.39,3.12-1.64,3.84.09Zm15.51-75c2.72-.56,5.45.77,7.54,2.43,1.52,1,8.8,9.4,5.75,10.44-.45.36-1,0-1.41-.32a31.69,31.69,0,0,0-9.3-4.42c-1.86-.78-4.9-.13-6.08-2.2C119.08,91.25,121.15,88.34,123.75,87.86Zm2.37,36.52c-1.75,1.35-4.07.11-4.68-1.81s-.17-3.7,0-5.52c.36-1.9-.08-4.18,1.51-5.59,5.66-3.77,6.81,10.89,3.17,12.92ZM58.76,176.86c8.41,6.07,18.53,9.23,28.77,10.57,1.9.15,3.76.26,5.62.27s3.5,0,5.25,0c41-5,47.57-23.24,53.76-60.68,1.13-6.12,2.16-12.26,3.79-18.29.09-.27.16-.59.25-.92a20.58,20.58,0,0,1-4.67-4.36c-3-3.76-2.69-8.8-2.5-13.32.21-1.09-.12-3.29.33-4.68,0,0,0,0,0,0a35.86,35.86,0,0,1-4.81-7.34c-.74,2.46-2.44,10.34-5.82,5.7-1.61-2.9-3.29-5.85-3.53-9.25-2.71,2-4.83,5.15-8.43,5.57-1.69.35-4.28.12-4.33-2.09.41-2.43,2.49-4.33,2.65-7.08a3.46,3.46,0,0,0,.11-.92,4.75,4.75,0,0,1-.75,0c-1.89.13-3.78.28-5.69.25A43.93,43.93,0,0,1,97.25,64.1a8.44,8.44,0,0,1,0,3.35c-2.79,6.84-11.35.78-14.79-2.54.27,3.51-.89,9.46-5.58,8.47-4.59-1.57-7.24-6.17-9.47-10.2a17.49,17.49,0,0,0-1.21-2.13c0,.17-.08.34-.11.5-1.55,8.14-8,17.84-17.27,16.1A33.6,33.6,0,0,1,42.63,82c-.86.31-2.06,1.34-3.15,1.74,1.44,7.32,1.32,15.66-4.36,21.21a20.23,20.23,0,0,0-1.6,1.65,17.3,17.3,0,0,1,.56,3.51c.72,5.45,1.69,10.85,2.71,16.24,1.32,7.19,3.05,14.61,5,21.61,2.76,11.15,7.57,22,17,28.87"/><path id="path32" class="cls-14" d="M168,65.77c.06.16.12.32.17.49,1.92,5,4,10.09,3.12,15.65-.57,4.75-2.43,9.32-3.84,13.86-.32,7-1.73,13.89-2.64,20.82a18.19,18.19,0,0,0-4.73,3.16h0a35.83,35.83,0,0,0-4.13,4.5c.13-.71.27-1.42.41-2.11.07-2,2.27-9.89,2.26-13.84,2-1.2-4.82-5.85-5.22-7.39-2-3.48-1.52-7.64-1.64-11.5-.18-1.22.54-4.34-.84-5v0c-1.44-2.91-3.05-5.79-4.28-8.83-.46-.84-.41-2.24-1.25-2.91a1.45,1.45,0,0,0-2.08.51,55.3,55.3,0,0,1-2.68,8.71,24.55,24.55,0,0,1-2.4-8.38,3.33,3.33,0,0,0-.71-1.9c-1.41-1.38-2.74-.14-3.14,1.4-2.15,2.33-5.23,5-8.66,4.7,1.47-2.65,3.91-8.32.83-10.5h0a1.67,1.67,0,0,0-1.1-.42c-5.82.56-11.74.51-17.41-1.24a39.51,39.51,0,0,1-13.29-7c-1.11-.63-4-4.35-5-2.28,0,2.32,2.08,3.93,3.91,5.36,4.22,11.68-7.08,3.81-10.92-.49-.59-.58-1.38-1.52-2-2.16a1.34,1.34,0,0,0-2,.62c-.28,2,.86,4.12.58,6.24-.18,1.2-.17,5.15-2,4.58C72.64,67.86,70,63,67.41,58.59c-.38-.68-.9-1.72-1.84-1.58a1,1,0,0,0-.68.94.88.88,0,0,0-.1.3c-2.18,6.86-5.94,16.76-14,17.42a21.29,21.29,0,0,0,1.68-2.2A15.26,15.26,0,0,0,54.89,66c.27-.45-.28-.89-.57-.42A35.87,35.87,0,0,1,38.91,81.19a3.19,3.19,0,0,0-1.06.59,1.19,1.19,0,0,0-.88.92c1,10.53.9,16.4-7.64,23.81-.74.66-1.5,1.66-.7,2.58.61.65,1.38.54,2.18.06.08.67.19,1.34.22,1.92.49,4.3,1.21,8.56,2,12.82a23.71,23.71,0,0,0-6-5.51,1.82,1.82,0,0,0-.23-.15c-.61-.26-1.18-.49-1.76-.68-.89-4.53-2.64-8.82-3.6-13.37-1.29-4.57-1.17-9.45-2.3-14-5.78-7.06-5.95-16.74-2.35-24.89a11,11,0,0,0,.51-1.6c-.06-.87-1-.45-1.35,0a20.78,20.78,0,0,0-4,7.84c-.72-.83-1.63-1.55-1.84-2.75-.6-3,.24-6,1.41-8.8a6.71,6.71,0,0,0,.86-3.22,1.83,1.83,0,0,0-1-1.28c-2.24-.91-5.61-.63-6.78-3.18,15-3,14.22-13.93,25.46-20.94a35.82,35.82,0,0,1,6-2.63c2-.6,2.23-2.76.65-4-.58-.86-1.6-1.88-1.34-3a2,2,0,0,1,.54-.74c7.58-3.94,18.42-2.71,24.5,3.53,1,.84,1.72,2.31,3,2.76a1.24,1.24,0,0,0,.43,0c1.17.42,1.6-1.42,1.77-2.36a49.28,49.28,0,0,1,1.67-5.07A37.35,37.35,0,0,1,73.49,9.63c.83-.77,1.67-1.85,2.84-2a2.09,2.09,0,0,1,.44,1.16c.1,1.12.12,2.27.15,3.42-1.36,1.48-2.21,3-2,4.5.65,1.12,1.89.15,2.52-.5,9.3-10,17.64-10,30.36-8.26a28.82,28.82,0,0,0,12.36-1.5c2.72-.79,9.3-5,11.7-3,.36,3.43-3,6.19-4.92,8.71A1.34,1.34,0,0,0,128.81,14q.66-.63,1.32-1.32c.62-.1,1.26-.34,1.76-.37,5.79-.76,15.55-.72,19.64,4-.69,2.08-3.36,2.82-4.2,4.82-.45,1.38.88,2.26,2,2.63C156,26.23,164.77,30.42,164,38.79c-.89-.73-1.77-1.49-2.64-2.25-1.16-.85-2.51-2.41-4.07-2h0a.32.32,0,0,0-.2.42,11.64,11.64,0,0,0,2.09,3,21.8,21.8,0,0,0,16.64,8.62c-2,2.81-5.3,4.37-8.32,5.89-2.94,2.41,2,3.71,3.55,5.07a20.58,20.58,0,0,1,4.91,5.2,27.92,27.92,0,0,1,3.14,6.48c-2.5.38-5.1-.38-7.56-1.2a7.6,7.6,0,0,0-2.85-2.46.34.34,0,0,0-.61.26"/><path id="path34" class="cls-13" d="M37.33,148.23a12,12,0,0,1-2.94-1.64c-5.9-3.29-11-8.8-11.88-15.7a20.61,20.61,0,0,1-.27-3c-.43-.35-.85-.7-1.27-1-1.33-.91-2.12-2.51.06-1.72,3.77,1.75,8.93,4.28,10,8.61.27,2.42.08,5.08,1.35,7.23a15.78,15.78,0,0,0,5.4,5c-1.17-4.6-2.19-9.24-3.21-13.84L34.35,131c-2.58-3.72-5.15-7.48-9-9.82-9.41-5-9.4,7.59-7.5,13.47,2.3,10.15,10.69,19.16,21.73,17.84-.44-1.45-.85-2.92-1.24-4.39a1,1,0,0,1-1,.16"/><path id="path36" class="cls-15" d="M39.44,270A5.63,5.63,0,0,0,42,271.46,68.58,68.58,0,0,1,47,253c1.48-4.29,4-8.06,5-12.44h0c-.93-.72-1.85-1.47-2.77-2.2a75.57,75.57,0,0,0-8.87,18.67c-1,4.22-2.47,8.74-.88,12.92"/><path id="path38" class="cls-16" d="M122.6,234.41a67.65,67.65,0,0,1,7.23-15.8c1.24-2.07,2.76-4.11,4.16-6.19a62.91,62.91,0,0,1-8.14-5c-.22.3-.46.58-.66.82a43.24,43.24,0,0,1-8.51,8.58c-6.83,5-15.57,6.42-23.87,6.17-11.92.09-24.12-6-29.92-16.57a71,71,0,0,1-7.5,4.48,6.48,6.48,0,0,1-1.62.74,69.75,69.75,0,0,0,6.48,11.71A83.37,83.37,0,0,1,71,246.73c3.72,13,5.09,26.53,5.93,40a4.69,4.69,0,0,1-.13,2c5.85.26,11.72.31,17.53.23,6.65-.05,13.32-.31,20-.85-.4-1.26.24-3.35,0-4.46,0-2.61.23-5.24.4-7.85a172.25,172.25,0,0,1,7.84-41.37"/><path id="path40" class="cls-17" d="M137.19,197.83a5.44,5.44,0,0,1-.15-.77,57.3,57.3,0,0,0-9.65-9.41c-1.23-1-2.54-1.92-3.83-2.83-1,.45-2.13.87-3.21,1.25.13,4.32-.43,8.87.66,13,4.1,4.52,9.54,7.52,14.47,11,2.19-3.76,3.48-7.7,1.71-12.2"/><path id="path42" class="cls-15" d="M137.77,239.15c-.32.32-.64.63-.93,1,3.43,9.75,7.43,19.31,9.76,29.39.12.4.25.8.39,1.19s.2.65.32,1a4.14,4.14,0,0,0,2.13-4.79,36.18,36.18,0,0,0-2.51-8.57c-2.68-6.8-5.34-13.37-8.26-20-.34.31-.67.63-.9.85"/><path id="path44" class="cls-13" d="M123.52,205.59c-6.16,7.72-13.76,13.18-24,14C85.71,221.37,73.4,217,65.15,205.39c-.08-.12-.19-.26-.3-.41.74-.56,1.47-1.13,2.16-1.73,4.22-3.59,5.18-5.55,5-11.07,0-.28,0-.56,0-.84,0-1.37,0-2.75-.09-4.12a79.45,79.45,0,0,0,17.65,3.88,51.15,51.15,0,0,0,6.78.21,1.47,1.47,0,0,0,.72-.24c5.4,0,10.65-1.48,15.85-2.81q2.4-.58,4.79-1.32a28.21,28.21,0,0,1-.27,3.37c0,.14,0,.27,0,.42,0,3.08-.61,6.6.5,9.42a43.1,43.1,0,0,0,5.53,5.44"/><path id="path46" class="cls-18" d="M74,288.57c-17.6-.95-35.16-3.78-51.55-10.26A98.45,98.45,0,0,1,3,268.1l-.49-.32.17-.92c.81-3.28,1.56-6.59,2.43-9.85A58.42,58.42,0,0,1,15.6,238.07a60.08,60.08,0,0,1,9-8.89,4.46,4.46,0,0,0,.39-.32c1.05.49,2.2.87,3.21,1.39a51.38,51.38,0,0,1,15.46,10.82,4.58,4.58,0,0,0,.54.54c-.28.48-.54,1-.8,1.46A63.48,63.48,0,0,0,37,263.27c-.92,5.2-1,10.6,5.57,11.28a1.88,1.88,0,0,0,2.15-1.94c.24-1.86.55-3.71.85-5.62a114.94,114.94,0,0,1,5.32-17.84c.95-3,3.15-6.69,3.58-9.62-.26-1.35-1.7-2-2.67-2.79a16.67,16.67,0,0,0-3.6-2.21c-2-.67-2.48,1.26-.93,2.32-.26.34-.48.69-.72,1s-.52.8-.79,1.21a1.25,1.25,0,0,0-.16-.17,52.18,52.18,0,0,0-14.31-10.71c-2.26-1-4.5-2.89-7-2.89-2.23-3.68-1.67-8.34.2-12.27a18.3,18.3,0,0,1,3.17-4.73c1.56-1.82,4.43-2.4,5.15-4.87,1.34-4.49,2.48-9.15,4.89-13.23a36.45,36.45,0,0,1,14.27-13,8.06,8.06,0,0,1,1.44-.66,50.66,50.66,0,0,0,12.24,8.05c-1.14.87-2.23,1.76-2.5,1.91q-4.86,3.57-9.37,7.61c.4-2-2.8,1.07-3.32,2.24-2.32,3.92-2.12,8.84-.81,13.07,3.61,11.12,12,19.9,16.06,30.89,5.75,15.15,7.12,31.71,8.22,47.87a1.55,1.55,0,0,0,.08.36"/><path id="path48" class="cls-18" d="M185.73,267.74a206.89,206.89,0,0,1-36,14,172.17,172.17,0,0,1-32.79,6.12.86.86,0,0,0,0-.32c.28-5.32.7-10.73,1.18-16.05,1.41-12.79,3.76-25.72,8-37.92A66.54,66.54,0,0,1,135.37,216c2.64-4,5.92-8.23,5.84-13.23a8.7,8.7,0,0,0-2.29-5.88,3.84,3.84,0,0,0-1-.73,60.16,60.16,0,0,0-7.08-7.07c-2-1.7-4.19-3.13-6.23-4.73a45.5,45.5,0,0,0,8.86-5.24c1.12-.87,2.16-1.76,3.14-2.69a25.58,25.58,0,0,1,3.64,1.24c6.46,2.69,10.5,9.2,12.23,15.74,1.09,3.78,1.07,8.66,4,11.6a19,19,0,0,1,6.19,5.35c3,4.2,3.73,9.45,1.77,15.29A49.19,49.19,0,0,0,147,235c-1.59,1.52-3.83,3.12-4.68,5.23-.59-1.26-1.19-2.52-1.83-3.76.58-.66,1.47-1.07,1.86-1.83.14-.6-.26-.83-.71-.81a1.3,1.3,0,0,0-.81.32,14,14,0,0,1-2.35,1.4c-1.11,1.25-2.64,2.13-3.79,3.37-.84,1.71.63,3.55,1.11,5.19,2.39,6.44,4.76,12.89,6.68,19.49,1.16,3.32,1,7.15,2.63,10.28,1.61,1.69,4,.21,5.34-1.15a5.28,5.28,0,0,0,1.82-4.57c-.15-5.44-2.7-10.47-4.62-15.45-.93-2.19-1.84-4.39-2.77-6.58-.59-1.42-1.19-2.84-1.81-4.24a7.3,7.3,0,0,0,1.62-1.45,49.92,49.92,0,0,1,9.78-7.4,65,65,0,0,1,9.17-4.31c.39-.16.81-.25,1.21-.37a61,61,0,0,1,6.92,7.73c7,9.23,11.56,20.32,14,31.67"/><path id="path50" class="cls-17" d="M69,186.78a3.55,3.55,0,0,1,0-.67c-.84-.33-1.66-.69-2.49-1.06a116.21,116.21,0,0,0-13.23,10.38,20.32,20.32,0,0,0-.4,13.58,9.55,9.55,0,0,1,1.19-.71c5.2-3.17,10.39-6.13,14.08-11,.88-3.26.67-7.25.88-10.57"/><path id="path52" class="cls-19" d="M146.93,258.29a36.31,36.31,0,0,1,2.51,8.57,4.13,4.13,0,0,1-2.13,4.79c-.12-.32-.22-.64-.32-1s-.26-.78-.39-1.18c-2.35-10.08-6.35-19.64-9.76-29.39.29-.33.63-.64.93-1s.56-.53.9-.85c2.92,6.62,5.58,13.2,8.26,20Zm2.8,23.44A170.67,170.67,0,0,1,117,287.85a1.61,1.61,0,0,0,0-.31c.28-5.32.69-10.75,1.17-16.05,1.41-12.79,3.76-25.71,8-37.92A67.07,67.07,0,0,1,135.37,216c2.64-4,5.92-8.21,5.84-13.23a8.7,8.7,0,0,0-2.29-5.88,4,4,0,0,0-1-.74,58.24,58.24,0,0,0-7.08-7.06c-2-1.7-4.19-3.13-6.23-4.73a44,44,0,0,0,8.86-5.24,41.41,41.41,0,0,0,3.16-2.69,26.21,26.21,0,0,1,3.62,1.24c6.46,2.69,10.5,9.2,12.23,15.76,1.09,3.76,1.07,8.65,4,11.58,7.94,4.5,10.9,11.95,8,20.64A49.19,49.19,0,0,0,147,235c-1.59,1.53-3.83,3.12-4.69,5.24-.59-1.27-1.19-2.52-1.83-3.76h0c.57-.65,1.47-1.07,1.85-1.84.24-1-1-1-1.52-.48a13.93,13.93,0,0,1-2.34,1.4c-1.11,1.25-2.64,2.13-3.79,3.37-.85,1.72.63,3.55,1.11,5.19,2.37,6.44,4.76,12.89,6.68,19.49,1.16,3.32,1,7.15,2.62,10.28,1.62,1.7,4.06.22,5.35-1.14a5.26,5.26,0,0,0,1.81-4.58c-.14-5.44-2.69-10.46-4.62-15.46-1.52-3.6-3-7.23-4.59-10.82a6.74,6.74,0,0,0,1.63-1.45,49.33,49.33,0,0,1,9.78-7.4,63.4,63.4,0,0,1,9.18-4.29,8.53,8.53,0,0,1,1.21-.39c11,10.37,17.76,24.67,20.88,39.4A205.86,205.86,0,0,1,149.73,281.73Zm-35.42,6.36c-6.63.54-13.3.8-20,.85-5.81.08-11.68,0-17.53-.23a5.21,5.21,0,0,0,.13-2c-.84-13.44-2.21-27-5.93-40a83.37,83.37,0,0,0-10.78-23.39,69.75,69.75,0,0,1-6.48-11.71,7.24,7.24,0,0,0,1.62-.74,71,71,0,0,0,7.5-4.48c5.8,10.61,18,16.66,29.92,16.57,8.3.24,17-1.19,23.87-6.17a43.24,43.24,0,0,0,8.51-8.58c.18-.24.42-.52.66-.82a62.91,62.91,0,0,0,8.14,5c-1.39,2.08-2.91,4.13-4.15,6.19a68,68,0,0,0-7.23,15.8,172.25,172.25,0,0,0-7.84,41.37c-.17,2.61-.36,5.23-.4,7.85.18,1.11-.46,3.2-.06,4.46ZM49.19,238.38c.92.73,1.84,1.48,2.77,2.2h0C51,245,48.47,248.74,47,253a68.78,68.78,0,0,0-5,18.43A5.82,5.82,0,0,1,39.44,270c-1.59-4.18-.09-8.7.88-12.92a75.06,75.06,0,0,1,8.87-18.67ZM22.4,278.31A100.12,100.12,0,0,1,3,268.1l-.49-.31c.06-.32.1-.65.17-.92.8-3.28,1.56-6.58,2.43-9.85A60,60,0,0,1,24.6,229.18a2.5,2.5,0,0,0,.4-.31c1.05.5,2.19.86,3.21,1.38a51.27,51.27,0,0,1,15.46,10.84,5.12,5.12,0,0,0,.53.52A62.94,62.94,0,0,0,37,263.27c-.92,5.2-1,10.6,5.57,11.28a1.89,1.89,0,0,0,2.15-1.94c.22-1.86.53-3.71.85-5.62a114.94,114.94,0,0,1,5.32-17.84c.95-3,3.15-6.69,3.57-9.62-.25-1.34-1.69-2-2.66-2.79a16.91,16.91,0,0,0-3.6-2.21c-2-.68-2.48,1.25-.94,2.32-.53.73-1,1.49-1.5,2.24l-.16-.16a52.27,52.27,0,0,0-14.31-10.72c-2.27-1-4.52-2.9-7-2.9-3.23-5.33-.6-12.73,3.37-17,1.56-1.81,4.43-2.4,5.16-4.85,1.34-4.49,2.48-9.15,4.9-13.24a36.5,36.5,0,0,1,14.26-13,7.1,7.1,0,0,1,1.44-.65,51.05,51.05,0,0,0,12.24,8.05c-1.14.85-2.22,1.76-2.5,1.89-3.23,2.4-6.38,4.94-9.38,7.62.4-2-2.78,1.06-3.32,2.24-2.32,3.92-2.12,8.84-.81,13.06,3.61,11.12,12,19.91,16.07,30.9,5.74,15.14,7.12,31.7,8.21,47.86a1.06,1.06,0,0,0,.09.36C56.36,287.62,38.8,284.79,22.4,278.31ZM121,199c-1.09-4.08-.53-8.63-.66-12.95,1.08-.39,2.16-.8,3.21-1.25,1.29.92,2.6,1.81,3.83,2.82a58.51,58.51,0,0,1,9.65,9.42,5.72,5.72,0,0,0,.15.77c1.77,4.51.48,8.45-1.71,12.19-4.92-3.5-10.36-6.48-14.47-11Zm-66.94,9.3a9.08,9.08,0,0,0-1.19.71,20.29,20.29,0,0,1,.4-13.57,117.19,117.19,0,0,1,13.23-10.39c.82.37,1.65.73,2.49,1.07a3.48,3.48,0,0,0,0,.66c-.22,3.32,0,7.31-.9,10.59-3.68,4.8-8.86,7.76-14.06,10.93ZM67,203.23c4.22-3.57,5.18-5.54,5-11.06,0-1.66,0-3.31-.08-5a79.45,79.45,0,0,0,17.65,3.88,52.91,52.91,0,0,0,6.78.21,1.54,1.54,0,0,0,.72-.24c5.41.05,10.66-1.47,15.85-2.81,1.61-.39,3.2-.83,4.79-1.32a30.1,30.1,0,0,1-.26,3.37c.1,3.17-.65,6.88.5,9.84a45.14,45.14,0,0,0,5.53,5.44c-6.15,7.72-13.75,13.19-23.93,14-13.87,1.74-26.18-2.59-34.43-14.23-.09-.12-.19-.25-.29-.4.72-.56,1.45-1.13,2.14-1.75ZM41.77,148.05c-1.92-7-3.64-14.43-5-21.62-1-5.4-2-10.8-2.7-16.24a18.05,18.05,0,0,0-.56-3.5,14.56,14.56,0,0,1,1.6-1.66c5.68-5.56,5.78-13.89,4.36-21.21,1.09-.4,2.29-1.43,3.14-1.73A32.92,32.92,0,0,0,48.8,77.7c9.31,1.75,15.72-8,17.27-16.09a5.09,5.09,0,0,1,.1-.51,21.46,21.46,0,0,1,1.22,2.13c2.22,4,4.89,8.63,9.46,10.2,4.71,1,5.86-5,5.59-8.46,3.44,3.32,12,9.37,14.79,2.53a8.45,8.45,0,0,0,0-3.35,43.66,43.66,0,0,0,21.47,6.16c1.89,0,3.78-.13,5.69-.25a4.8,4.8,0,0,0,.75,0,3.86,3.86,0,0,1-.11.92c-.16,2.75-2.24,4.66-2.65,7.08,0,2.2,2.64,2.44,4.33,2.1,3.6-.43,5.72-3.55,8.43-5.58.24,3.4,1.92,6.34,3.53,9.26,3.37,4.64,5.09-3.24,5.81-5.71a36.4,36.4,0,0,0,4.82,7.35l0,0c-.46,1.38-.14,3.59-.34,4.68-.18,4.52-.45,9.56,2.51,13.32a20.26,20.26,0,0,0,4.65,4.36c-.08.34-.16.66-.24.92-1.61,6-2.65,12.16-3.78,18.3-6.19,37.44-12.74,55.69-53.76,60.68-1.76,0-3.51,0-5.26,0s-3.73-.12-5.61-.26C77.33,186.14,67.2,183,58.79,176.91c-9.47-6.94-14.28-17.77-17-28.86Zm-10.29-4.76-.16-.15c-4.29-3.45-7.91-8.69-8-14.36a18.39,18.39,0,0,1,5.4,6.55,26.44,26.44,0,0,0,2.8,8Zm-13.64-8.7c-1.89-5.88-1.91-18.49,7.51-13.46,3.86,2.34,6.42,6.09,9,9.81l.24,1.24c1,4.6,2,9.24,3.21,13.84a15.78,15.78,0,0,1-5.4-5c-1.26-2.13-1.08-4.81-1.34-7.22-1.1-4.34-6.27-6.87-10-8.62-2.17-.77-1.39.83-.05,1.72l1.26,1a23.94,23.94,0,0,0,.27,3c.88,6.89,6,12.41,11.88,15.71a11.89,11.89,0,0,0,3,1.64.93.93,0,0,0,1-.19c.4,1.47.8,2.93,1.24,4.39C28.53,153.77,20.16,144.75,17.84,134.59Zm3.57-30.41c-1.28-4.57-1.16-9.47-2.3-14-5.78-7.07-5.95-16.75-2.35-24.89a10.25,10.25,0,0,0,.51-1.6c-.06-.87-1-.46-1.34,0a20.92,20.92,0,0,0-4,7.84c-.73-.83-1.64-1.55-1.84-2.74-.6-3,.24-6,1.42-8.8a6.69,6.69,0,0,0,.84-3.22,1.8,1.8,0,0,0-1-1.28c-2.24-.92-5.62-.64-6.78-3.18,15-3,14.21-13.93,25.46-20.93a35.82,35.82,0,0,1,6-2.63c2-.6,2.24-2.76.67-4-.59-.85-1.62-1.88-1.35-3a2.15,2.15,0,0,1,.53-.74c7.58-3.92,18.43-2.71,24.5,3.53,1,.84,1.73,2.31,3,2.76a1,1,0,0,0,.43,0c1.18.41,1.6-1.41,1.78-2.36a52.73,52.73,0,0,1,1.67-5.07A36.7,36.7,0,0,1,73.51,9.65c.82-.78,1.65-1.86,2.84-2a2.41,2.41,0,0,1,.44,1.16c.09,1.12.12,2.26.14,3.41-1.36,1.48-2.21,3-2,4.51.65,1.13,1.89.16,2.53-.51,9.31-10,17.64-10,30.36-8.25a29,29,0,0,0,12.36-1.5c2.72-.8,9.31-5,11.71-3,.36,3.43-3,6.19-4.92,8.71A1.33,1.33,0,0,0,128.83,14c.44-.43.88-.88,1.32-1.33a14.14,14.14,0,0,1,1.76-.36c5.78-.78,15.54-.74,19.64,4-.7,2.08-3.36,2.83-4.2,4.83-.47,1.37.88,2.25,2,2.62,6.64,2.5,15.43,6.68,14.61,15.06-.89-.74-1.77-1.5-2.64-2.24-1.16-.87-2.5-2.42-4.06-2.06h0a.36.36,0,0,0-.2.43,11.65,11.65,0,0,0,2.11,3,21.71,21.71,0,0,0,16.64,8.61c-2,2.82-5.31,4.38-8.33,5.9-2.95,2.4,2,3.7,3.54,5a23.94,23.94,0,0,1,8.06,11.68h0c-2.51.39-5.11-.37-7.56-1.2a7.79,7.79,0,0,0-2.86-2.45.34.34,0,0,0-.61.25,2.81,2.81,0,0,1,.16.49c1.92,5,4,10.1,3.12,15.67-.56,4.75-2.41,9.32-3.84,13.85-.32,7-1.72,13.88-2.64,20.83-3.27,1.39-6.44,4.51-8.88,7.65.13-.7.27-1.41.41-2.1.07-2,2.27-9.9,2.26-13.84,2-1.2-4.8-5.86-5.22-7.39-2-3.48-1.5-7.64-1.64-11.51-.18-1.21.54-4.33-.84-5,0,0,0,0,0,0-1.44-2.9-3-5.78-4.28-8.82-.47-.84-.41-2.24-1.25-2.92a1.44,1.44,0,0,0-2.08.5,55.3,55.3,0,0,1-2.68,8.71,24.34,24.34,0,0,1-2.4-8.37,3.48,3.48,0,0,0-.71-1.9c-1.43-1.37-2.75-.13-3.15,1.4-2.14,2.32-5.22,5-8.65,4.7,1.47-2.64,3.91-8.32.81-10.51h0a1.63,1.63,0,0,0-1.09-.4c-5.83.56-11.75.51-17.42-1.25a39.22,39.22,0,0,1-13.28-7c-1.12-.62-4-4.34-5-2.28,0,2.32,2.1,3.94,3.91,5.36,4.21,11.68-7.08,3.82-10.92-.48-.59-.57-1.37-1.52-2-2.16a1.34,1.34,0,0,0-2,.63c-.28,2,.87,4.11.6,6.24-.19,1.2-.17,5.13-2,4.56C72.61,67.87,70,63.05,67.4,58.61c-.39-.67-.91-1.72-1.84-1.58a1,1,0,0,0-.69.95,1.15,1.15,0,0,0-.11.29c-2.17,6.87-5.93,16.75-14,17.42A22.29,22.29,0,0,0,52.4,73.5,15.11,15.11,0,0,0,54.85,66c.27-.45-.28-.89-.57-.43A35.76,35.76,0,0,1,38.87,81.21a3.29,3.29,0,0,0-1.06.6,1.17,1.17,0,0,0-.88.92c1,10.53.9,16.4-7.65,23.81-.75.65-1.49,1.65-.71,2.57a1.61,1.61,0,0,0,2.19.07c.08.67.19,1.32.21,1.92.51,4.29,1.22,8.56,2,12.81a22.87,22.87,0,0,0-6.25-5.65c-.6-.28-1.19-.49-1.75-.69-.84-4.55-2.6-8.84-3.56-13.39Zm138.08,37a10.74,10.74,0,0,0,1.55-4.15c.39-1.69-.39-4,1.28-5,1.55-1.66,3.09-3.37,4.72-5C166.83,132.39,164.12,138.42,159.49,141.22ZM168.07,119c5.25.85,4.24,8.17,3.93,12.12-.79,7.15-4.85,14.36-11.76,17.24a25.12,25.12,0,0,1-9.49,1.91c.37-1.38.7-2.75,1-4.15h0a1.27,1.27,0,0,0,.72.29,10.79,10.79,0,0,0,5.39-3.12,19.14,19.14,0,0,0,2.48-1.33c5.64-3.4,8.37-10,8.29-16.42l.39-.36c.51-.4,1.6-1.25.63-1.74-2,.18-4,1.9-5.66,3-1.58,1.46-3.9,2.62-4.6,4.75,0,1.44.46,2.91.15,4.37-.68,3.16-3.31,5.55-5.69,7.56a12.32,12.32,0,0,1-1.67,1c1-4.82,1.89-9.72,2.73-14.5,3.43-4.42,7.38-9.58,13.1-10.63Zm-1.48,107.87a9.53,9.53,0,0,0,.72-2.19c1.34-7.47-.12-16-6.91-20.41-1.27-1.19-3.39-1.48-4-3.28-1.48-4.16-1.74-8.76-3.29-12.94-2.17-6.58-7.51-12.17-14.25-13.94,5.34-5.94,8.68-13.14,11-20.83,11.31,1.29,22.66-7.19,24.68-18.41,1.08-5.92,2.42-14.55-3.49-18.31A6.55,6.55,0,0,0,167,116c.3-1,.46-2.12.82-3.2.84-3.7.56-7.5.79-11.24.13-2.26,1.47-4.26,2.21-6.35,1.67-5.08,3.28-10.29,3.28-15.69-.09-3-.25-6.7-1.53-9.66a18.56,18.56,0,0,0,5.39,1.56c1.48.27,3.56,0,3.85-1.78,0-1.75-1.25-3.28-1.75-5a22.38,22.38,0,0,0-9.56-10.73c2.72-1.58,10.15-5.66,8.12-9.48a1.85,1.85,0,0,0-1.49-.64,24,24,0,0,1-7.68-1.56,19,19,0,0,1-2.84-1.54,11.81,11.81,0,0,0,.35-2.62c.76-9-8.39-14.16-15.78-16.66,8.6-6.69-.7-10.57-7.34-11.78a29.75,29.75,0,0,0-11.32.28,11.91,11.91,0,0,0,2.33-5A4.15,4.15,0,0,0,131.61.15c-3.85-.7-7.52,1.16-10.94,2.67A24.85,24.85,0,0,1,110.73,5c-7.8-.27-15.89-2.7-23.48.48A33.42,33.42,0,0,0,79.4,9.94a7.05,7.05,0,0,0-.08-2.29c-3-8.42-11.33,3.42-13,7.32a52.74,52.74,0,0,0-3.19,8.09c-2.77-3.73-7.52-6-12-6.83-6.37-1.5-22.92-.05-17,9.91A30.44,30.44,0,0,0,20,36.33c-3.21,4-5.69,8.88-10.33,11.42a22,22,0,0,1-4,1.82c-1.11.33-2.35.5-3.15,1.41a3,3,0,0,0-.06,3.35C3.75,56.94,7,57.45,9.6,58c-2.17,4.93-5,12.77,1,16.06a1.31,1.31,0,0,0,.72.14,20.72,20.72,0,0,0,1.52,11.33A36.36,36.36,0,0,0,17,92.06a5,5,0,0,1,.75,1.63c1.89,7.62,1.92,15.94,4.85,23.28C6.33,114.73,13.28,153,34,155.57c1.36.13,4.64.6,6.51-.12a83.16,83.16,0,0,0,3.31,8.48A39.06,39.06,0,0,0,51,174.3a36.8,36.8,0,0,0-20.39,26.32,15.89,15.89,0,0,1-.7,2.13,14,14,0,0,0-2,1.3,15.22,15.22,0,0,0-5.73,7.76,22.73,22.73,0,0,0,1.08,15.68C11,235.86,3.52,249.9.68,264.22c0,1.41-1.64,4.55.2,5.16.16.19.33.36.49.52C6,274.19,11.83,277,17.52,279.69c18,8,37.8,11.24,57.36,12.14,35.77,1.75,69.68-1.66,102.63-16.6,2.52-1.1,5-2.22,7.52-3.41,1.24-.67,3.57-1.27,3.4-2.88,1.08-3.31-3.62-15.39-4.3-17.25-4-9.31-9.32-18.72-17.54-24.84"/><path id="path54" class="cls-19" d="M65.15,90.18c.9.29,2.48,1.08,2.16,2.23C63.17,94,58.76,95,55.13,97.66,57,94,60.61,89.61,65.15,90.18ZM63.59,96c1.86-.79,4.9-.13,6.06-2.2,1.19-2.53-.88-5.45-3.46-5.92s-5.46.77-7.55,2.43c-1.52,1-8.8,9.4-5.75,10.44.46.36,1,0,1.42-.32A31.37,31.37,0,0,1,63.59,96"/><path id="path56" class="cls-19" d="M67,111.45c-5.65-3.78-6.8,10.9-3.17,12.93,1.75,1.35,4.07.11,4.68-1.81s.17-3.7,0-5.52c-.36-1.9.08-4.18-1.51-5.6"/><path id="path58" class="cls-19" d="M124.77,90.18c4.54-.57,8.12,3.87,10,7.48-3.63-2.67-8-3.68-12.18-5.25C122.29,91.26,123.87,90.46,124.77,90.18Zm1.58,5.8a31.94,31.94,0,0,1,9.28,4.41c.38.31.94.68,1.41.32,3.05-1-4.23-9.44-5.75-10.44-2.1-1.65-4.82-3-7.54-2.42s-4.66,3.38-3.47,5.92c1.16,2.08,4.2,1.42,6.07,2.21"/><path id="path60" class="cls-19" d="M123,111.45c-1.59,1.41-1.15,3.69-1.51,5.58-.18,1.83-.56,3.74,0,5.52s2.94,3.18,4.68,1.82c3.63-2,2.48-16.68-3.17-12.92"/><path id="path62" class="cls-19" d="M102.8,144.18a8.81,8.81,0,0,1-8.11,5,7,7,0,0,1-6.18-3.31c4.72,2.11,10.06,1,14.29-1.72Zm-15.07,3a8.7,8.7,0,0,0,5.82,3.49,10.15,10.15,0,0,0,9.17-3.52c.84-1.12,4.81-6.18,1.81-6.44-1.48.55-2.41,2-3.84,2.74-4,1.49-9,2.4-12.66-.5-.8-.53-1.32-1.56-2.28-1.8-1.24-.16-1.23,1.48-.67,2.19a43.5,43.5,0,0,1,2.65,3.84"/><path id="path64" class="cls-19" d="M98.37,164.34c-3.34.48-6.77.59-10.13.95a1.09,1.09,0,0,0-.92.74c-.09,1,1.21,1.2,2,1.22,2.69.41,20.12-.5,19-4.36-.72-1.74-2.61-.48-3.84-.1a27.07,27.07,0,0,1-6,1.55"/><path id="path66" class="cls-12" d="M50.48,136.51l.33.19c.07.25-.46.13-.38-.12a.1.1,0,0,1,0-.07"/><path id="path68" class="cls-12" d="M158.49,61.42a39,39,0,0,1,5.8,33.36,6.66,6.66,0,0,1-3.2-3.88,78.86,78.86,0,0,1-1,28.85h0a35.83,35.83,0,0,0-4.13,4.5c.13-.71.27-1.42.41-2.11.07-2,2.27-9.89,2.26-13.84,2-1.2-4.82-5.85-5.22-7.39-2-3.48-1.52-7.64-1.64-11.5-.18-1.22.54-4.34-.84-5v0c-1.44-2.91-3.05-5.79-4.28-8.83-.46-.84-.41-2.24-1.25-2.91a1.45,1.45,0,0,0-2.08.51,55.3,55.3,0,0,1-2.68,8.71,24.55,24.55,0,0,1-2.4-8.38,3.33,3.33,0,0,0-.71-1.9c-1.41-1.38-2.74-.14-3.14,1.4-2.15,2.33-5.23,5-8.66,4.7,1.47-2.65,3.91-8.32.83-10.5h0a1.67,1.67,0,0,0-1.1-.42c-5.82.56-11.74.51-17.41-1.24a39.51,39.51,0,0,1-13.29-7c-1.11-.63-4-4.35-5-2.28,0,2.32,2.08,3.93,3.91,5.36,4.22,11.68-7.08,3.81-10.92-.49-.59-.58-1.38-1.52-2-2.16a1.34,1.34,0,0,0-2,.62c-.28,2,.86,4.12.58,6.24-.18,1.2-.17,5.15-2,4.58C72.64,67.86,70,63,67.41,58.59c-.38-.68-.9-1.72-1.84-1.58a1,1,0,0,0-.68.94.88.88,0,0,0-.1.3c-2.18,6.86-5.94,16.76-14,17.42a21.29,21.29,0,0,0,1.68-2.2A15.26,15.26,0,0,0,54.89,66c.27-.45-.28-.89-.57-.42A35.87,35.87,0,0,1,38.91,81.19a3.19,3.19,0,0,0-1.06.59,1.19,1.19,0,0,0-.88.92c1,10.53.9,16.4-7.64,23.81-.74.66-1.5,1.66-.7,2.58.61.65,1.38.54,2.18.06.08.67.19,1.34.22,1.92.49,4.3,1.21,8.56,2,12.82a23.71,23.71,0,0,0-6-5.51c-3.51-12.64-6.43-25.56-5.07-38.55l-3.85,4.23a26.46,26.46,0,0,1,8.16-25.93A51.29,51.29,0,0,1,15.44,58l5.87-9.21c1.66-2.61,3.38-5.29,5.84-7.17a23,23,0,0,1,5.61-3A86.94,86.94,0,0,1,48,34.09a9.1,9.1,0,0,1-6.49-6.91,34,34,0,0,1,23,4.12c.73.44.58.92,1.36,1.29,2.56-5.69,5.9-12.05,12-13.46-.88,2.38-1.74,4.76-2.62,7.14a32.76,32.76,0,0,1,22.9-12.34c3.36-.28,6.78,0,10.11-.54s6.69-1.84,10.15-2a1.81,1.81,0,0,1,1.56.47c.4.55.09,1.31-.24,1.89a41.16,41.16,0,0,1-4.31,6.34,52.41,52.41,0,0,1,19.32-2.84,7.46,7.46,0,0,1,3.57.8,2.81,2.81,0,0,1,1.39,3.13,4.05,4.05,0,0,1-1.32,1.59,26.17,26.17,0,0,1-5.88,3.57c5.6,0,10.32,4,14.31,7.92s8.2,8.25,13.7,9.27a13.56,13.56,0,0,1-10.56,2.6c7.18,4,12.36,9.62,18.16,15.49a11.14,11.14,0,0,1-9.6-.2"/><path id="path70" class="cls-11" d="M117.48,190.31c0,.14,0,.27,0,.42a44.24,44.24,0,0,1-22.6,8.62c-10.18.79-18.06-4-22.84-8,0-1.37,0-2.75-.09-4.12a79.45,79.45,0,0,0,17.65,3.88,51.15,51.15,0,0,0,6.78.21,1.47,1.47,0,0,0,.72-.24c5.4,0,10.65-1.48,15.85-2.81q2.4-.58,4.79-1.32a28.21,28.21,0,0,1-.27,3.37"/><path id="path72" class="cls-17" d="M4.76,227.77c.07,0,0,.08,0,.12l0-.12"/><path id="path74" class="cls-17" d="M44.21,241.61c-.28.48-.54,1-.8,1.46a35.36,35.36,0,0,0-16.65-6,32.58,32.58,0,0,0-11.16,1,60.08,60.08,0,0,1,9-8.89,4.46,4.46,0,0,0,.39-.32c1.05.49,2.2.87,3.21,1.39a51.38,51.38,0,0,1,15.46,10.82,4.58,4.58,0,0,0,.54.54"/><path id="path76" class="cls-17" d="M46.51,237.89c-.27.4-.52.8-.79,1.21a1.25,1.25,0,0,0-.16-.17,52.18,52.18,0,0,0-14.31-10.71c-2.26-1-4.5-2.89-7-2.89-2.23-3.68-1.67-8.34.2-12.27A11.73,11.73,0,0,0,25,214.9c1.13,3,3.53,5.32,6.11,7.23s5.38,3.48,7.82,5.54a29.85,29.85,0,0,1,7.62,10.22"/><path id="path78" class="cls-17" d="M142.32,240.21c-.59-1.26-1.19-2.52-1.83-3.76.58-.66,1.47-1.07,1.86-1.83.14-.6-.26-.83-.71-.81,6-6.56,16.27-9.88,19.77-18.2a17.58,17.58,0,0,0,1.27-5.27c3,4.2,3.73,9.45,1.77,15.29A49.19,49.19,0,0,0,147,235c-1.59,1.52-3.83,3.12-4.68,5.23"/><path id="path80" class="cls-17" d="M171.77,236.07a28.19,28.19,0,0,0-26.89,10c-.59-1.42-1.19-2.84-1.81-4.24a7.3,7.3,0,0,0,1.62-1.45,49.92,49.92,0,0,1,9.78-7.4,65,65,0,0,1,9.17-4.31c.39-.16.81-.25,1.21-.37a61,61,0,0,1,6.92,7.73"/></g></g></svg>