<svg xmlns="http://www.w3.org/2000/svg" viewBox="0 0 190.35 279.19"><defs><style>.cls-41{fill:#fff4ee;}.cls-42{fill:#fc9595;}.cls-43{fill:#ffdecc;}.cls-44{fill:#fff89f;}.cls-45{fill:#f4d760;}.cls-46{fill:#7ea391;}.cls-47{fill:#ecffd2;}.cls-48{fill:#26073d;}.cls-49{fill:#61917d;}</style></defs><g id="Layer_2" data-name="Layer 2"><g id="svg2"><path id="path138" class="cls-41" d="M76.78,110.22c-.85.8-2.38,1.45-3.5.84-3-2.27.48-12.31,4.41-8.74C79.21,104.64,78.29,108.1,76.78,110.22Zm8.54-16c-.72-.84-2.07-.69-3.08-.83a53,53,0,0,0-5.75-.12c-8.28.58-16.92,1.8-24.15,6.07l.08-.09c-2.61,2.37-1.57,6.24-1.05,9.24,1.92,9.18,10.05,17.29,19.8,16.58a17.38,17.38,0,0,0,15.67-14.94c.72-5.39,1-11.06-1.52-15.91"/><path id="path140" class="cls-42" d="M90.8,129.83a.89.89,0,0,0,.16.36c1.22,1.52,2.78,3.15,4.81,3.35,2.37.08,4.15-2.06,4.68-4.2a8.35,8.35,0,0,1-9.65.49"/><path id="path142" class="cls-43" d="M94.22,153.76c-1.2.08-8.57-1.4-11.17-3.2-.76,1.08-1.65,1.92-2.29.9-.94-1.1,3.69-5.36,3.6-3-.08.12-.19.31-.31.52.32.28.61.61.88.84,5.47,3.85,14.4,2.75,19.63-1,.52-.32.86-1,1.52-1a1.11,1.11,0,0,1,.73,2,18.43,18.43,0,0,1-12.59,4Zm6.9-22.45a5.17,5.17,0,0,1-6.1,3.45c-2.77-.69-5.58-3.17-5.48-6.18-.16-.27-.12-.68.24-.74,1.46.55,2.75,1.75,4.46,1.67a8.92,8.92,0,0,0,6-2.09,1,1,0,0,1,1.63-.18c.53,1.22-.39,2.86-.77,4.07ZM66.57,127.8a21.63,21.63,0,0,1-15.2-11.57,33.94,33.94,0,0,1-3.19-9.59c-2.33,1.14-6.32,3.07-7,1.28-.42-1.3,4.28-4,6.81-4.77a14.71,14.71,0,0,1,.53-3.08c5.15-8.27,23.83-10.16,32.9-10a12.81,12.81,0,0,1,4.92.8A11.86,11.86,0,0,1,89.54,97a11.84,11.84,0,0,1,2.08-.52,24.13,24.13,0,0,1,8.19,0,9.66,9.66,0,0,1,2.08.52,11.86,11.86,0,0,1,3.19-6.11,12.9,12.9,0,0,1,4.93-.8c9.07-.16,27.75,1.75,32.89,10a13,13,0,0,1,.54,3.08c2.54.75,7.22,3.48,6.81,4.77-.65,1.79-4.65-.14-7-1.28a33.92,33.92,0,0,1-3.18,9.59,21.57,21.57,0,0,1-15.2,11.57c-9.64,1.86-20.1-4.5-22.47-14.1a45.67,45.67,0,0,1-1-13.48,14.84,14.84,0,0,0-3.82-.82c-.53-.08-1.22,0-1.85-.06s-1.32,0-1.85.06a16.21,16.21,0,0,0-3.82.82,45.67,45.67,0,0,1-1,13.48c-2.32,9.6-12.76,15.94-22.4,14.1ZM58,85c1.67-2.92,3.86-5.92,6.88-7.55,3.56-2,8.23-3.64,12.06-1.5,1.42.85,3.49,3.22,2,4.78-5.28,1.87-10.67,3.51-15.8,5.82A36.12,36.12,0,0,1,58,88.52a.58.58,0,0,1-.4-.12h0c-.77-1,0-2.34.41-3.37ZM57.64,85l0,.08h0a.63.63,0,0,1,0-.09Zm56.92-9c3.82-2.13,8.5-.45,12,1.51,3,1.62,5.21,4.62,6.88,7.54.44,1,1.19,2.4.41,3.38h0a.65.65,0,0,1-.4.12,38.74,38.74,0,0,1-5.16-2c-5.14-2.31-10.52-3.93-15.8-5.81C111.06,79.22,113.13,76.84,114.56,76ZM99.41,180.59h0l.84-.06c13.67-1.48,25.88-10.84,34.43-21,8-9.8,10.87-22.36,13-34.53a154,154,0,0,1,3.47-16.64l.2-.54c-.28-6.65-.44-13.66-1.87-20.24-5.61-5.34-10.21-11.89-11.28-19.74-3.41,4.29-7.48-1.68-9-4.78-1.87-3.7-2.52-7.92-3-12,0-.3,0-.59,0-.9l-.88,1.26c-1.42,1.9-2.53.09-3.17-1.34-.92-1.77-2.56-3.16-4.64-2.64-4.6,1.07-8.19,4.47-12.11,6.92-6.18,4-13.41,8-21,7.52A4.25,4.25,0,0,1,81,58.19a31.56,31.56,0,0,1-3.29,2.27c-3.92,2.14-17.63,9.4-16.22-.18a39.86,39.86,0,0,1-14.61,8.59L46.4,69a2.84,2.84,0,0,1,.05.42c.57,4.65.84,9.8-1.11,14.16-1.58,3-3.6,5.61-4.72,8.81-1,4.91-.78,9.91-.38,14.83,1.26,4.53,1.9,9.21,2.88,13.81,3.44,15.64,6.8,32.2,18.25,44a54.62,54.62,0,0,0,36.39,15.48,5.37,5.37,0,0,1,1.65.12"/><path id="path144" class="cls-43" d="M153.36,111.27c-.59,4.13-1.8,9.16-1.86,10.51-.64,4.24-1.4,8.54-2.37,12.78a22.38,22.38,0,0,0,2.75-4.7c1.33-3,.49-6.35,1.28-9.46.1-1.21,6.16-10.89,7-8-.63,1.51-1.86,2.78-2.5,4.32.43.15.48.7.64,1.07.67,2.81.11,5.73-.57,8.48-1.13,5.35-4.75,10.69-9.75,12.92-.65,2.33-1.36,4.63-2.2,6.88a1.12,1.12,0,0,0,.32,0c10.11-4,14.74-15.94,16.27-26,1.23-7.14-1.81-16.83-9-8.83"/><path id="path146" class="cls-42" d="M157,118a30.21,30.21,0,0,0-2.56,7.76c-.45,4-2.33,7.46-4.36,10.85,6.19-3.81,7.59-11.91,6.92-18.61"/><path id="path148" class="cls-44" d="M166.17,66.64c-.51,11.87-6.21,22.9-8.88,34.38-.08.86-1.15,3.12-1.53,4.84a8.26,8.26,0,0,0-2.1,1.44,5.07,5.07,0,0,0-.14-1.08,55.21,55.21,0,0,0,0-7.16c0-.86-.07-1.48-.07-1.75-.21-3.45-1.12-6.77-1.69-10.17.52-1-.32-1.86-1-2.46-3.05-3.14-6-6.48-7.73-10.68a37.34,37.34,0,0,1-2.53-9.86,2,2,0,0,0-.59-1.23,1.31,1.31,0,0,0-2,.45,5,5,0,0,0,0,2.5c-1.06,1.46-1.88,1.69-3.14.28a15.45,15.45,0,0,1-3.8-7.28c-.92-3.26-1.52-6.74-2.12-10.1-.28-1-.44-4.24-2.1-3.12a3.91,3.91,0,0,0-.42,1.07c-.79.72-1.58,1.85-2,2.28-3.1-8-11.94-3-16.73.48a63.24,63.24,0,0,1-15.08,8.19c-2.59.62-8.92,4.21-9.12-.64a2.37,2.37,0,0,0-.11-.74,19.79,19.79,0,0,0,4.32-6.2c.16-.46.8-1.48,0-1.66-.72.13-1.15.9-1.72,1.3-3.56,3.42-7.09,7-11.61,9.11a39.86,39.86,0,0,1-9.63,3.41c-.83.11-.45-1.24-.47-1.76,0-1.57.88-3.2.75-4.77a1.25,1.25,0,0,0-2.11-.37c-4.09,5.34-10.28,8.68-16.57,11-1.25.78-4.76,1-4.25,3a1.52,1.52,0,0,0,1.94.66c-.2,6.58,0,13.38-4.42,18.88-1.9,3.58-1.16,8.07-1.39,12A42.76,42.76,0,0,0,38.4,106a3.21,3.21,0,0,0-.23.72,6.57,6.57,0,0,0-2.6-1.36,6.21,6.21,0,0,0-1.72-.24,10.59,10.59,0,0,1-.67-2.23c-2-7.49-3.54-15.06-5.12-22.65-1.8-8.12-2.72-16.36-1.58-24.69C29.94,32.84,64.42,1.74,88.33,5.79a76.84,76.84,0,0,1,25.37,8.07c1.26.72,2.79,1.86,4.19,2.6a2,2,0,0,0,1.75.22c1.12-.72,0-2.08-.68-2.66a24.66,24.66,0,0,0-4.44-3.27c-.54-2.45-2.19-5.2-.76-7.59,8.6,4,14.81,11.88,19.57,20a102,102,0,0,1,5,9.64,2.15,2.15,0,0,0,1.22,1.33,1.19,1.19,0,0,0,1.33-.54,16.68,16.68,0,0,1,5.31.57c10.92,3.2,19.3,21.91,20,32.53"/><path id="path150" class="cls-42" d="M34.66,117.54c-.58,6,0,13,4.72,16.7A17.14,17.14,0,0,1,37.77,128c-.2-2.72-.15-5.7-1.69-8-.43-.83-.91-1.61-1.42-2.41"/><path id="path152" class="cls-45" d="M115,79a92,92,0,0,1,17.44,7.63c-1.6-5.4-12.68-12.31-17.44-7.63"/><path id="path154" class="cls-41" d="M113.78,102.32c3.94-3.57,7.4,6.47,4.42,8.74-1.11.61-2.66,0-3.51-.84C113.18,108.1,112.28,104.64,113.78,102.32Zm6.55,22.76c9.73.71,17.88-7.38,19.8-16.58.52-3,1.56-6.88-1-9.24a.34.34,0,0,0,.08.09c-7.23-4.28-15.87-5.51-24.15-6.07a53,53,0,0,0-5.75.12c-1,.12-2.36,0-3.08.83-2.53,4.85-2.24,10.52-1.5,15.91a17.32,17.32,0,0,0,15.65,14.94"/><path id="path156" class="cls-43" d="M42.86,139.16a17.38,17.38,0,0,1-2.44-3c-6.6-3.92-7.68-13.07-6.84-20.27a32.24,32.24,0,0,1-2-3.48c.26-1.49,2.14-.25,2.74.39,6.68,5.51,2.8,12.73,6.21,19.39.92,1.45,1.85,3,2.92,4.38-1.2-4.53-2.2-9.12-3.21-13.62-.22-1.31-1.43-6.78-1.92-11.24a.21.21,0,0,1,0-.06c-1-2.76-4.72-4.58-7-2-1.38,2-1.27,4.51-1.38,6.83.52,9.61,2.63,21.24,11.35,26.79a32.86,32.86,0,0,0,5,2.44c-.75-2.11-1.42-4.24-2-6.39a1,1,0,0,1-1.31-.07"/><path id="path158" class="cls-45" d="M59,86.56a92,92,0,0,1,17.44-7.62C71.72,74.27,60.64,81.18,59,86.56"/><path id="path160" class="cls-46" d="M167.76,221.66a111.5,111.5,0,0,0-3.71,12.46,174.29,174.29,0,0,0-5.59,31.58c-4.06,1.14-8.16,2.21-12.25,3.18-6.52,1.58-13.12,2.95-19.76,4.06-3,.49-6,.94-9.07,1.33.3-.53.47-1.16.76-1.65a62.4,62.4,0,0,1,6.31-11.54c6.88-10,11.44-14.73,11-21.48-.19-3.2-1.49-6.88-4.2-11.8-.59-1.06-1.25-2.18-2-3.38,14.58-13.52,13.93-19.23,6.68-31.34a214,214,0,0,1,25.45,21.78q3.26,3.3,6.31,6.8"/><path id="path162" class="cls-46" d="M168.74,222.8c-2.46,6.1-3.54,12.66-5.09,19a120.71,120.71,0,0,0-3,18.08q-.24,2.64-.45,5.28a163.63,163.63,0,0,0,23.62-8.71c1.12-.36,2.42-1.68,3.58-1.74-4.34-10.2-9.38-20.26-16.2-29-.79-1-1.63-1.92-2.46-2.9"/><path id="path164" class="cls-46" d="M123.37,192.8c1.47-.48.75,3.48.63,4.26-2.16,11.78-4.18,23.62-5.79,35.5l.05-.06c5.78-8.74,16.18-14.51,19.48-24.7.64-2.94-.82-5.66-2.08-8.22a141.39,141.39,0,0,0-8-14.11c-1.25-1.95-2.33-3.59-3.69-5.33-.22,4.21-.42,8.44-.55,12.66"/><path id="path166" class="cls-43" d="M120.88,181.76c-.07,3.4,0,6.82.24,10.22a1.72,1.72,0,0,0-1.18.89c-4.36,5-9.72,9.57-16.14,11.67-9.9,2.64-21.11-.35-28.8-7.07-.59-.35-2.4-2.59-3.64-3.61a44.52,44.52,0,0,0,0-11.76,1.15,1.15,0,0,0,0-.26c-.22-.9-.33-3.5-.7-5.77a57.82,57.82,0,0,0,27.76,7.77,1.81,1.81,0,0,0,1.17-.18c6.73.53,14.75-3.14,21.63-7.68q-.21,2.88-.28,5.78"/><path id="path168" class="cls-46" d="M119.76,264.5c3.93-7.44,10.09-14,12.44-22.15.86-5.77-3-10.75-5.22-15.8a79.5,79.5,0,0,0-9.34,10.2c-1.12,8.85-2,17.73-2.54,26.65-.18,3.72-.32,7.46-.38,11.18l.86-.11a2.62,2.62,0,0,1,.28-1.51,53,53,0,0,1,3.9-8.46"/><path id="path170" class="cls-46" d="M22.26,219.46c-2.22,2.61-4.34,5.32-6.3,8.14C10.85,235,7.16,243.2,3.8,251.52c-.15.38-.31.83-.5,1.24l.27.16a97.38,97.38,0,0,0,10.29,5.88,155.55,155.55,0,0,0,18,7.26c-1.52-6.94-2.42-14-3.84-21-1.83-8.55-3.92-17.06-5.78-25.6"/><path id="path172" class="cls-46" d="M67.28,226.27c2.53,3.11,5,6.25,7.25,9.59-.68-4.2-1.41-8.4-2.15-12.59-1.4-9.25-4.22-18.36-4.73-27.72,0-1.44.53-2.23,1.12-1.91,0-.45,0-.89,0-1.34a78,78,0,0,0-.65-12.23,6.78,6.78,0,0,0-.53.67A116.6,116.6,0,0,0,59.81,194c-2.12,4.51-5,8.81-6.25,13.65-.42,6.56,10,13.3,13.72,18.59"/><path id="path174" class="cls-46" d="M77.22,275.28q-3.63-.33-7.28-.8a200.7,200.7,0,0,1-36-7.72c-3.28-16.1-7-32.26-10.92-48.21a115,115,0,0,1,9.48-9.64,157.33,157.33,0,0,1,25.9-19c-1,1.77-1.89,3.57-2.82,5.32-1.71,3.75-4.35,7.25-5.07,11.36-.47,7.51,6.17,13.4,12,18.68a24.79,24.79,0,0,0-2.15,2.95c-.6,1-1.2,1.92-1.84,2.8a23.87,23.87,0,0,0-3.13,6.49,9,9,0,0,0,.41,6.27c6,11.21,16.15,19.8,21.44,31.46"/><path id="path176" class="cls-47" d="M121.05,198.8c.2-.6.36-1.24.53-1.88a2.33,2.33,0,0,0-.08-.62c0-.35-.06-.7-.1-1-1.07,1.25-2.58,2.52-3.06,3.21-5.77,6.2-13.62,10.67-22.32,10.08-9.32-.28-20-4.2-25-12.48-.16.83-.36,1.65-.57,2.48,4.88,22,8.93,44.4,10.85,66.89.19,3.22.4,6.42.52,9.63a1.52,1.52,0,0,1-.1.6,191,191,0,0,0,30.06-.76c0-17.88,2.16-35.71,5-53.32a227.79,227.79,0,0,1,4.35-22.79"/><path id="path178" class="cls-46" d="M67.21,229.84c-.88-.94-1.88-1.92-2.93-2.9-8.16,14-8.76,13.18,1.61,27,.79.87,10.21,14.52,13,20.92a310.8,310.8,0,0,0-3.62-33.89c-2.43-3.9-4.74-7.9-8.11-11.1"/><path id="path180" class="cls-48" d="M95.77,133.54c-2-.2-3.6-1.83-4.81-3.35a1,1,0,0,1-.16-.36,8.37,8.37,0,0,0,9.66-.49C99.93,131.48,98.14,133.62,95.77,133.54Zm4.47-6.12a9,9,0,0,1-6,2.09c-1.71.08-3-1.11-4.45-1.67-.36.07-.4.47-.24.74-.11,3,2.7,5.49,5.48,6.18a5.17,5.17,0,0,0,6.09-3.45c.39-1.23,1.31-2.85.76-4.07a1,1,0,0,0-1.61.18"/><path id="path182" class="cls-48" d="M106.08,147.8c-.66,0-1,.66-1.52,1-5.23,3.74-14.16,4.84-19.63,1-.27-.24-.56-.56-.88-.84.12-.21.23-.4.31-.52.08-2.33-4.55,1.94-3.6,3,.65,1,1.54.19,2.29-.89,2.6,1.8,10,3.28,11.17,3.2a18.32,18.32,0,0,0,12.59-4,1.11,1.11,0,0,0-.73-2"/><path id="path184" class="cls-48" d="M73.28,111.06c1.12.61,2.65,0,3.5-.84,1.51-2.12,2.42-5.58.91-7.88-3.93-3.59-7.4,6.45-4.41,8.72"/><path id="path186" class="cls-48" d="M76.48,79A92,92,0,0,0,59,86.58C60.64,81.18,71.72,74.27,76.48,79ZM57.56,88.42a.63.63,0,0,0,.4.12,38.74,38.74,0,0,0,5.16-2c5.13-2.31,10.52-3.93,15.8-5.81,1.49-1.56-.56-3.94-2-4.79-3.83-2.13-8.51-.45-12.06,1.51-3,1.62-5.21,4.62-6.88,7.54-.44,1-1.18,2.4-.42,3.38h0"/><path id="path188" class="cls-48" d="M71.16,125.08c-9.74.71-17.88-7.38-19.8-16.58-.52-3-1.56-6.88,1-9.24l-.08.09c7.21-4.28,15.87-5.51,24.15-6.07a52.78,52.78,0,0,1,5.74.12c1,.12,2.36,0,3.08.83,2.54,4.85,2.24,10.52,1.51,15.91a17.35,17.35,0,0,1-15.65,14.94Zm35-30.85c.72-.84,2.06-.69,3.08-.83a52.78,52.78,0,0,1,5.74-.12c8.27.58,16.92,1.8,24.15,6.07a.73.73,0,0,0-.08-.09c2.61,2.37,1.57,6.24,1,9.24-1.92,9.18-10,17.29-19.8,16.58a17.36,17.36,0,0,1-15.66-14.94c-.72-5.39-1-11.06,1.52-15.91ZM89,113.68a45.28,45.28,0,0,0,1.06-13.48,15.08,15.08,0,0,1,3.81-.81c.53-.08,1.21,0,1.85-.07s1.32,0,1.86.07a16.11,16.11,0,0,1,3.81.81,45.64,45.64,0,0,0,1,13.48c2.38,9.62,12.83,16,22.47,14.11a21.66,21.66,0,0,0,15.2-11.57,33.94,33.94,0,0,0,3.19-9.59c2.33,1.13,6.33,3.07,7,1.28.42-1.31-4.26-4-6.81-4.77a14.09,14.09,0,0,0-.53-3.08c-5.15-8.27-23.83-10.16-32.9-10a12.9,12.9,0,0,0-4.93.8,12,12,0,0,0-3.19,6.1,12.56,12.56,0,0,0-2.08-.52,24.77,24.77,0,0,0-8.18,0A10.13,10.13,0,0,0,89.6,97a11.87,11.87,0,0,0-3.19-6.1,12.88,12.88,0,0,0-4.92-.8c-9.07-.16-27.75,1.74-32.89,10a13,13,0,0,0-.54,3.08c-2.54.74-7.22,3.48-6.81,4.77.65,1.79,4.65-.15,7-1.28a33.92,33.92,0,0,0,3.18,9.59,21.59,21.59,0,0,0,15.2,11.57c9.59,1.85,20-4.49,22.4-14.11"/><path id="path190" class="cls-48" d="M118.2,111.06c3-2.27-.48-12.31-4.42-8.74-1.5,2.32-.6,5.78.91,7.88.85.82,2.39,1.47,3.51.86"/><path id="path192" class="cls-48" d="M132.44,86.56A92.29,92.29,0,0,0,115,78.94C119.77,74.27,130.85,81.18,132.44,86.56Zm-4.08,0a37.41,37.41,0,0,0,5.16,2,.65.65,0,0,0,.4-.12h0c.78-1,0-2.36-.41-3.38-1.67-2.92-3.87-5.92-6.88-7.54-3.56-2-8.23-3.64-12-1.51-1.43.85-3.5,3.23-2,4.79,5.28,1.86,10.66,3.5,15.8,5.81"/><path id="path194" class="cls-48" d="M57.64,85a.25.25,0,0,0,0,.09h0l0-.08"/><path id="path196" class="cls-48" d="M78.86,278.68l.22,0a.1.1,0,0,1-.07,0s-.09,0-.15,0"/><path id="path198" class="cls-48" d="M183.82,256.5a164.78,164.78,0,0,1-23.62,8.7c.14-1.76.28-3.52.45-5.28a120.71,120.71,0,0,1,3-18.08c1.55-6.37,2.63-12.93,5.09-19,.83,1,1.67,1.92,2.47,2.9,6.84,8.78,11.87,18.83,16.2,29-1.16.06-2.47,1.38-3.59,1.74Zm-37.6,12.38a262.53,262.53,0,0,1-28.82,5.38c.28-.52.45-1.16.76-1.66a61.13,61.13,0,0,1,6.3-11.53c10.86-15.81,15.94-18.4,4.87-36.67,14.59-13.52,13.92-19.22,6.68-31.33,11.47,8.48,22.37,17.81,31.76,28.57a109.59,109.59,0,0,0-3.71,12.47,173.76,173.76,0,0,0-5.58,31.57q-6.1,1.74-12.26,3.2Zm-30.64,5.6-.86.11c.06-3.73.2-7.45.38-11.17.52-8.91,1.42-17.79,2.54-26.66a79.5,79.5,0,0,1,9.34-10.2c2.22,5.06,6.08,10,5.22,15.8-2.35,8.18-8.51,14.71-12.44,22.15a52.4,52.4,0,0,0-3.9,8.48,2.4,2.4,0,0,0-.28,1.49Zm-33.89,1.19a1.52,1.52,0,0,0,.11-.6c-.12-3.21-.34-6.41-.52-9.63-1.92-22.49-6-44.86-10.86-66.89.23-.81.42-1.64.58-2.48,5,8.27,15.72,12.2,25,12.48,8.69.59,16.54-3.87,22.32-10.08.48-.71,2-2,3-3.21,0,.34.07.69.11,1a2.42,2.42,0,0,1,.06.62c-.16.64-.32,1.27-.53,1.88a223.74,223.74,0,0,0-4.33,22.79c-2.8,17.61-5,35.44-5,53.32a192.33,192.33,0,0,1-30.07.76Zm-15.8-21.76c-10.37-13.79-9.77-13-1.61-27,1,1,2,1.94,2.93,2.9,3.39,3.2,5.69,7.2,8.12,11.1A315.85,315.85,0,0,1,79,274.83c-2.87-6.4-12.3-20-13.07-20.92ZM34,266.75C30.68,250.64,27,234.5,23,218.54c10-11.44,22.38-20.86,35.38-28.6-1,1.77-1.89,3.56-2.82,5.32-1.72,3.74-4.35,7.25-5.07,11.36-.47,7.5,6.16,13.4,12,18.68-1.52,1.73-2.65,3.9-4,5.74-2.42,3.76-4.78,8.31-2.72,12.76,6,11.23,16.15,19.82,21.44,31.47A206.46,206.46,0,0,1,34,266.75Zm-20.11-7.93a101,101,0,0,1-10.29-5.88l-.27-.16c.19-.43.35-.87.49-1.24,3.36-8.32,7.06-16.5,12.16-23.92a99.52,99.52,0,0,1,6.31-8.15C24.12,228,26.2,236.52,28,245.08c1.43,7,2.32,14.07,3.84,21A157.2,157.2,0,0,1,13.85,258.82ZM59.8,194a115.07,115.07,0,0,1,7.82-13.29,6.88,6.88,0,0,1,.54-.67,78,78,0,0,1,.65,12.23c0,.45,0,.89,0,1.34-.59-.32-1.1.48-1.12,1.91.5,9.36,3.33,18.47,4.73,27.72.73,4.19,1.47,8.39,2.15,12.59-2.24-3.34-4.72-6.47-7.26-9.59-3.68-5.29-14.13-12-13.73-18.59,1.29-4.82,4.15-9.14,6.27-13.65ZM121.13,192a1.8,1.8,0,0,0-1.19.89c-4.36,5-9.72,9.57-16.14,11.67-9.9,2.64-21.11-.35-28.8-7.07-.59-.35-2.4-2.59-3.63-3.61a45.63,45.63,0,0,0-.05-12c-.24-.9-.34-3.5-.72-5.77a57.71,57.71,0,0,0,27.76,7.77,1.81,1.81,0,0,0,1.17-.18c6.75.53,14.75-3.14,21.63-7.68a113.91,113.91,0,0,0,0,16ZM61.37,165c-11.45-11.76-14.81-28.32-18.25-44-1-4.6-1.62-9.28-2.88-13.81-.4-4.92-.64-9.93.38-14.83,1.12-3.2,3.14-5.78,4.72-8.81,1.95-4.37,1.68-9.51,1.11-14.16A2.87,2.87,0,0,0,46.4,69a3.71,3.71,0,0,1,.49-.14A39.77,39.77,0,0,0,61.5,60.3c-1.41,9.57,12.3,2.32,16.22.17A31.56,31.56,0,0,0,81,58.2a4.27,4.27,0,0,0,3.4,3.66c7.55.45,14.77-3.58,21-7.52,3.92-2.46,7.51-5.86,12.11-6.92,2.08-.52,3.73.86,4.64,2.64.64,1.42,1.75,3.24,3.17,1.33l.88-1.25c0,.3,0,.6,0,.89.46,4.09,1.1,8.31,3,12,1.5,3.09,5.56,9.06,9,4.77,1.07,7.85,5.67,14.4,11.28,19.75,1.43,6.57,1.59,13.58,1.87,20.24l-.2.53A155,155,0,0,0,147.65,125c-2.09,12.16-4.93,24.73-13,34.53-8.55,10.19-20.76,19.55-34.43,21l-.84.07v0a4.89,4.89,0,0,0-1.67-.1A54.68,54.68,0,0,1,61.37,165Zm-22-30.76c-4.7-3.69-5.32-10.73-4.72-16.7A27.67,27.67,0,0,1,36.08,120c1.54,2.33,1.49,5.31,1.69,8A17,17,0,0,0,39.38,134.24Zm1.84,8.94c-8.7-5.56-10.81-17.18-11.34-26.79.1-2.33,0-4.8,1.37-6.83,2.24-2.53,5.92-.7,7,2,0,0,0,0,0,.06.49,4.46,1.71,9.93,1.92,11.24,1,4.49,2,9.09,3.21,13.62a52.07,52.07,0,0,1-2.92-4.38c-3.41-6.66.48-13.88-6.21-19.39-.6-.64-2.48-1.89-2.73-.39a28.48,28.48,0,0,0,2,3.48c-.83,7.2.25,16.35,6.84,20.27a16.26,16.26,0,0,0,2.44,3,1,1,0,0,0,1.28.07c.61,2.16,1.29,4.28,2,6.39a35.08,35.08,0,0,1-4.92-2.44ZM28.06,80.27c-1.81-8.12-2.72-16.36-1.58-24.69C29.93,32.83,64.42,1.72,88.33,5.79a76.71,76.71,0,0,1,25.36,8.07c1.25.72,2.79,1.85,4.19,2.6a2,2,0,0,0,1.74.21c1.12-.71,0-2.07-.68-2.67a24.73,24.73,0,0,0-4.44-3.26c-.53-2.46-2.18-5.2-.76-7.59,8.6,4.05,14.83,11.89,19.58,20a104.41,104.41,0,0,1,5,9.64,2.12,2.12,0,0,0,1.22,1.33c.69.08,1.12-.12,1.33-.55a17,17,0,0,1,5.31.58c10.92,3.2,19.29,21.9,20,32.52C165.66,78.5,160,89.51,157.28,101c-.08.88-1.15,3.12-1.54,4.84a8.21,8.21,0,0,0-2.09,1.44,4.45,4.45,0,0,0-.15-1.08,71.91,71.91,0,0,0-.05-8.89c-.2-3.46-1.12-6.78-1.69-10.19.52-1-.31-1.85-1-2.45-3-3.15-6-6.48-7.73-10.68a37.62,37.62,0,0,1-2.54-9.87,2,2,0,0,0-.58-1.23,1.3,1.3,0,0,0-2,.46,5,5,0,0,0,0,2.5c-1.07,1.47-1.88,1.7-3.15.28a15.31,15.31,0,0,1-3.8-7.28c-.92-3.25-1.52-6.73-2.13-10.09-.28-1-.44-4.24-2.09-3.12a4,4,0,0,0-.42,1.07c-.8.72-1.58,1.86-2,2.28-3.1-8-12-3-16.74.49a62.45,62.45,0,0,1-15.08,8.17c-2.58.63-8.92,4.22-9.1-.64a2.39,2.39,0,0,0-.12-.74,19.31,19.31,0,0,0,4.32-6.19c.16-.48.8-1.48,0-1.67-.72.14-1.13.91-1.72,1.31-3.56,3.41-7.09,7-11.6,9.11a40.06,40.06,0,0,1-9.64,3.41c-.82.12-.44-1.23-.46-1.75,0-1.57.88-3.2.74-4.77a1.23,1.23,0,0,0-2.09-.37v0c-4.08,5.36-10.28,8.7-16.57,11-1.26.78-4.75,1-4.24,3a1.52,1.52,0,0,0,1.94.68c-.2,6.57,0,13.36-4.42,18.86-1.91,3.58-1.16,8.07-1.39,12A42.76,42.76,0,0,0,38.4,106a2.54,2.54,0,0,0-.23.72,6.69,6.69,0,0,0-4.33-1.59,12.55,12.55,0,0,1-.67-2.22c-2-7.51-3.53-15.08-5.11-22.67Zm122,56.36c2-3.39,3.91-6.88,4.36-10.85A30.34,30.34,0,0,1,157,118C157.68,124.72,156.28,132.82,150.1,136.63Zm12.24-16.52c-1.53,10-6.16,22-16.26,26a1.77,1.77,0,0,1-.32,0c.82-2.25,1.54-4.54,2.2-6.88,5-2.22,8.6-7.57,9.74-12.92.68-2.76,1.23-5.66.58-8.48-.15-.37-.22-.93-.64-1.06.64-1.54,1.86-2.8,2.49-4.32-.8-2.92-6.85,6.76-7,8-.79,3.1.05,6.44-1.28,9.45a22.26,22.26,0,0,1-2.75,4.71c1-4.26,1.74-8.55,2.38-12.79,0-1.35,1.26-6.39,1.85-10.51,7.15-8,10.19,1.68,9,8.83ZM127.6,185.46a143.23,143.23,0,0,1,8.05,14.1c1.24,2.56,2.72,5.27,2.08,8.23-3.31,10.19-13.71,16-19.48,24.69a.21.21,0,0,1,0,.07c1.61-11.88,3.62-23.72,5.78-35.51.14-.76.86-4.72-.62-4.25.14-4.23.33-8.45.54-12.67,1.36,1.76,2.44,3.39,3.7,5.34Zm57.92,57.38A107.09,107.09,0,0,0,164.12,213c-9.43-9.24-19.47-18.16-30.58-25.3a4.84,4.84,0,0,0-1.13-.36c-1-1.63-2.11-3.35-3.25-5.22-.76-1-3.24-4.94-5.08-5.61,0-.88.08-1.75.13-2.63A77.78,77.78,0,0,0,132.4,167a51.08,51.08,0,0,0,12.46-18.6,3.67,3.67,0,0,0,1.4.39c5.78-.83,10.9-6.3,13.63-11.22,4-7.8,9.91-24.92,1.67-31.41a5.4,5.4,0,0,0-3.2-.89c.65-2,1.25-3.94,2-5.86,4-11.37,7.6-23,8.6-35.12,0-5.54-2.62-10.72-5-15.61-4.38-8.25-11-17.92-21.32-17.87a6.35,6.35,0,0,0-1.87.38c-1.47-5.36-8.83-16.23-10-17.59C126.64,8.16,121.56,3.3,115.36.34a3.5,3.5,0,0,0-4.74,2.08A9.33,9.33,0,0,0,111,9c-3.78-1.68-7.85-2.88-11.7-4.17C88.62,1.5,76.8,1,66.69,6.24a83.51,83.51,0,0,0-40.91,40c-6.69,15.76.86,42.81,6,59.24a6.48,6.48,0,0,0-1.64.77c-5.76,4.36-3.11,16.15-1.82,22.3,2.43,10.21,8.38,18.32,19,20.76.07,0,.15,0,.23,0a55.92,55.92,0,0,0,8.56,14.67,53,53,0,0,0,11.21,10.05c.15,1,.3,2.11.43,3.16a7.61,7.61,0,0,0-1.45,1.16,43.69,43.69,0,0,0-5.58,7.51c-.7.22-1.41.56-1.84.73-8.5,3.75-15.85,9.61-23,15.43-12.9,10.38-24,23.18-30.79,38.41-1.75,3.81-3.29,7.71-5,11.56A1.62,1.62,0,0,0,1,254.18a1.92,1.92,0,0,0,.75.12,46.14,46.14,0,0,0,3.77,2.77C26.13,270.2,54.81,276.42,79,278.75c22.51,1.63,45.14-1.37,67.06-6.48,13-3.12,26.06-6.55,38.09-12.48,1.21-.91,4.92-1.88,4.73-3.72a1.46,1.46,0,0,0,1.4-1.08,4.31,4.31,0,0,0-.46-2.33q-2-5-4.32-9.82"/><path id="path200" class="cls-45" d="M162.46,72.23a63.22,63.22,0,0,1-2.69,7.89,22.64,22.64,0,0,0-6-9.93c3.69,5.75,3,13.19,1.71,19.89-.58,3-1.23,6-2,9,0-.86-.07-1.48-.07-1.75-.21-3.45-1.12-6.77-1.69-10.17.52-1-.32-1.86-1-2.46-3.05-3.14-6-6.48-7.73-10.68a37.34,37.34,0,0,1-2.53-9.86,2,2,0,0,0-.59-1.23,1.31,1.31,0,0,0-2,.45,5,5,0,0,0,0,2.5c-1.06,1.46-1.88,1.69-3.14.28a15.45,15.45,0,0,1-3.8-7.28c-.92-3.26-1.52-6.74-2.12-10.1-.28-1-.44-4.24-2.1-3.12a3.91,3.91,0,0,0-.42,1.07c-.79.72-1.58,1.85-2,2.28-3.1-8-11.94-3-16.73.48a63.24,63.24,0,0,1-15.08,8.19c-2.59.62-8.92,4.21-9.12-.64a2.37,2.37,0,0,0-.11-.74,19.79,19.79,0,0,0,4.32-6.2c.16-.46.8-1.48,0-1.66-.72.13-1.15.9-1.72,1.3-3.56,3.42-7.09,7-11.61,9.11a39.86,39.86,0,0,1-9.63,3.41c-.83.11-.45-1.24-.47-1.76,0-1.57.88-3.2.75-4.77a1.25,1.25,0,0,0-2.11-.37c-4.09,5.34-10.28,8.68-16.57,11-1.25.78-4.76,1-4.25,3a1.52,1.52,0,0,0,1.94.66c-.2,6.58,0,13.38-4.42,18.88-1.9,3.58-1.16,8.07-1.39,12A42.76,42.76,0,0,0,38.4,106a3.21,3.21,0,0,0-.23.72,6.57,6.57,0,0,0-2.6-1.36C33.72,94,32.08,82.52,31.86,71a32.7,32.7,0,0,1,1.06-10.35c2-6.36,7.22-11.08,12.22-15.48a22,22,0,0,1-6.53,2.69,1.62,1.62,0,0,1-1.35-.09,1.48,1.48,0,0,1-.46-.8c-.84-3,1.28-6,3.42-8.31,10.46-11.22,24.67-19.18,39.9-21s31.37,2.67,42.66,13.07a46.06,46.06,0,0,1-1.4-9.26c-.06-1.44.51-3.42,1.94-3.24a2.61,2.61,0,0,1,1.5,1.15,123.75,123.75,0,0,1,11.76,18.12c3.9-1.08,7.71.68,11,3.07s5.68,5.74,7.86,9.14c2,3.07,3.83,6.24,5.54,9.47a19.41,19.41,0,0,1,2.28,6,17.87,17.87,0,0,1-.78,7.13"/><path id="path202" class="cls-42" d="M121.16,176q-.21,2.88-.28,5.78A40.28,40.28,0,0,1,96,190.83c-9.57,0-18.22-4.28-24.65-8.73a1.15,1.15,0,0,0,0-.26c-.22-.9-.33-3.5-.7-5.77a57.82,57.82,0,0,0,27.76,7.77,1.81,1.81,0,0,0,1.17-.18c6.73.53,14.75-3.14,21.63-7.68"/><path id="path204" class="cls-49" d="M60.34,228.26C55.4,222,49,213.94,46.65,210.83c-2.08-2.77-8.47-2.67-14.13-1.92a157.33,157.33,0,0,1,25.9-19c-1,1.77-1.89,3.57-2.82,5.32-1.71,3.75-4.35,7.25-5.07,11.36-.47,7.51,6.17,13.4,12,18.68a24.79,24.79,0,0,0-2.15,2.95"/><path id="path206" class="cls-49" d="M77.22,275.28q-3.63-.33-7.28-.8c-5.22-8.7-11.7-19.32-14-22.32-3.29-4.38-1.38-12-.61-14.61a9,9,0,0,0,.41,6.27c6,11.21,16.15,19.8,21.44,31.46"/><path id="path208" class="cls-49" d="M135.49,239.6c1.29,4.07,2.56,9,1.83,11.23-.82,2.43-6.5,13.64-10.87,22.11-3,.49-6,.94-9.07,1.33.3-.53.47-1.16.76-1.65a62.4,62.4,0,0,1,6.31-11.54c6.88-10,11.44-14.73,11-21.48"/><path id="path210" class="cls-49" d="M161.45,214.86c-4.32-2.15-12.83-6-14.8-4-1.52,1.52-9.12,10-15.36,17-.59-1.06-1.25-2.18-2-3.38,14.58-13.52,13.93-19.23,6.68-31.34a214,214,0,0,1,25.45,21.78"/></g></g></svg>