<svg xmlns="http://www.w3.org/2000/svg" viewBox="0 0 169.96 281.14"><defs><style>.cls-81{fill:#ffdecc;}.cls-82{fill:#f9dc4e;}.cls-83{fill:#d8855b;}.cls-84{fill:#fc9595;}.cls-85{fill:#b75f41;}.cls-86{fill:#fff;}.cls-87{fill:#62bdcc;}.cls-88{fill:#26073d;}.cls-89{fill:#4a96bc;}</style></defs><g id="Layer_2" data-name="Layer 2"><g id="svg2"><path id="path272" class="cls-81" d="M151.69,94.39c-3,.29-4.61,3.22-6.92,4.74,0,0,0,0-.05,0-.75,4.82-1.66,9.62-2.51,14.41-.61,3.33-1.24,6.68-1.89,10a31.78,31.78,0,0,0,4.66-7.48c1.26-7.93-4.29-4,3.47-13.49,1.55-1.43,3.2-3.36,5.27-3.88,1.62.57-1.22,2.25-1.54,3,.51.25.48,1,.56,1.44a32.2,32.2,0,0,1-1.38,9c-1.86,6.14-5.31,13.5-11.84,15.38-.34,1.62-.68,3.26-1,4.89.62-.11,1.25-.16,1.7-.28a15.31,15.31,0,0,0,8.59-6.6c4.35-7.73,7.37-16.72,6.84-25.56-.27-2.27-.91-5.89-3.92-5.61"/><path id="path274" class="cls-81" d="M120.21,92.72a1,1,0,0,1-.71-.11c-2.68-1.68-5.17-3.65-8-5.08-2.26-1.1-4.39-2.36-6.92-2.82a1.37,1.37,0,0,1-1.42-.54,1.86,1.86,0,0,1,1-2.7c2.37-1,5-.19,7.31.66,4.21,1.62,6.8,5.44,8.62,9.38.19.3.5.93.11,1.21Zm-9.83,19.55c-3.94.45-6.1-6.12-1.65-7.22C112.82,103.88,114.8,111.87,110.38,112.27Zm-8.94,32.52c-.46-.38-.92-.78-1.36-1.19-1.1,1.25-3.78,2.23-4.74,2.89a21.07,21.07,0,0,1-12.56,2.31,8.38,8.38,0,0,1-4.68-1.73c-.26-.23-.48-.74-.06-.94,4.57.15,9.32.94,13.69-.93a29.27,29.27,0,0,0,6.44-3.48.73.73,0,0,0,.09-.08c-.05-.07-.12-.13-.17-.21a1.59,1.59,0,0,1-.43-1.26c1-1.52,4,1.14,4.64,2.16.87,1,.91,3-.86,2.46ZM76.17,127.43a.34.34,0,0,1,.64-.1c3,2,6.85,2,10.27,1.62a10.69,10.69,0,0,0,6-2.19,1.2,1.2,0,0,1,2.13.11c.39,1.29-.38,2.65-1,3.73-2.15,3.36-5.93,6-10,5.44-2.92-.23-8.66-4.63-7.51-7.85-.15-.26-.44-.47-.44-.76Zm-8-43.26a1.4,1.4,0,0,1-1.41.54c-2.52.48-4.65,1.73-6.92,2.84a93.73,93.73,0,0,0-8,5.08c-.21.06-.48.2-.7.1-.39-.29-.08-.9.1-1.22,1.82-3.94,4.4-7.76,8.63-9.38,2.29-.84,4.93-1.61,7.31-.66a1.87,1.87,0,0,1,1,2.7Zm-7.24,28.1c-4.4-.4-2.44-8.39,1.66-7.22C67.05,106.15,64.89,112.72,60.94,112.27Zm64.27,48.34c4.12-5.14,5.37-12,7.43-18.1,2.89-10.4,4.78-21,6.73-31.54,1-5.44,2-10.86,2.84-16.33.72-3.49.8-7.24,1.81-10.68a1.2,1.2,0,0,1-.9-.25c-3.38-3.7-6.58-8.34-6.9-13.48-.25-3.5.7-7.11-.48-10.5-1.85-4.4-6.17-6.54-10.53-8,8.44,9.37,10.69,22.91,9.32,35.13-.23,1.54-.57,5.48-2.91,4.06-.74-.9-.54-2.23-.76-3.31A59.5,59.5,0,0,0,127.36,71c-3.12-7.48-8.86-19-18.16-17.6,8.92,6,12.93,18.34,14.54,28.59.14,2,2,12.65-1.73,11.41-1.05-.86-.93-2.5-1.41-3.7a60.84,60.84,0,0,0-17.75-30.32,4,4,0,0,0-.39-.3,2.32,2.32,0,0,1-1.08.72,45.35,45.35,0,0,1-21,2.51c-1.27-.2-7.34-.53-9.24-1.92-10.28,4.91-18.92,18.89-23.31,28-.53,1.1-.89,2.11-1.45,3.15-.26.49-.62,1-1.22,1a.94.94,0,0,1-.93-1.16c2.73-11.49,7-23,14.69-32.14,1.23-1.26,2.56-2.75,4-4.08C51.61,58,44.05,70.05,41.45,80.87c-.56,2.14-.89,4.46-1.27,6.6-.28,1.26-.22,3.86-2.13,3.37a1.54,1.54,0,0,1-.88-1.19,32.48,32.48,0,0,1-.4-7.69c.09-8.85,4.49-21.81,12.15-28.85-5.56.29-13,1.49-14.42,7.69-.6,4.59.38,9.12-.65,13.64-.16,1.84-4.61,9.47-7.51,10.83.46,2.46.74,5,1.2,7.44,1.68,9.42,3.11,18.94,5.06,28.32a278.6,278.6,0,0,0,7.46,28.78c1.24,3.66,2.55,7.39,5.23,10.27,8.92,9.31,21.47,14.6,33.92,16.73q2.76.57,5.56.95h.79a5.06,5.06,0,0,1,.92-.17c12.74-1.37,30-7.44,38.73-17"/><path id="path276" class="cls-82" d="M32.29,135a7.32,7.32,0,0,0-.87.28,3.1,3.1,0,0,0-.82,3.64c.74,1,2,.76,3,.32-.25-.93-.5-1.87-.77-2.79-.13-.5-.24-1-.36-1.52a.34.34,0,0,1-.16.07"/><path id="path278" class="cls-83" d="M151.44,90.53a1.54,1.54,0,0,0,.06.68,10,10,0,0,0-4.84,1.92,12.42,12.42,0,0,0-1.26,1,100.61,100.61,0,0,0,.81-11.24c0-.69-.15-2.45-1.17-1.65-.07.13-.11.28-.18.41a37,37,0,0,1-5.06-9c-1.67-4.58-.92-10-2-14.73-1.39-4.11-5-6.91-9.07-8.52a42.29,42.29,0,0,0,7.28-3.88A42.81,42.81,0,0,0,142.3,41a.43.43,0,0,0,.07-.62.45.45,0,0,0-.63-.07c-1.12.87-2.21,1.76-3.36,2.59a31.91,31.91,0,0,1-11.52,4.9l-2.18.48c-.76-.14-1.52-.26-2.26-.34a2.36,2.36,0,0,0-.46,0,40.17,40.17,0,0,0,4-2.23,34.14,34.14,0,0,0,7.15-5.77,50.54,50.54,0,0,0,5.16-6.42c1.17-2,2.76-4,3.53-6.28A48.55,48.55,0,0,1,152.92,49c2.66,11.64.88,23.88-.68,35.61-.27,2-.51,4-.8,5.93"/><path id="path280" class="cls-84" d="M144.93,121.76c-.2.35-.4.68-.61,1,4.76-5.28,7.08-12.8,6.93-19.77a64.9,64.9,0,0,0-4.48,7.16c-.32,1.94.57,3.9.21,5.86a16.43,16.43,0,0,1-2,5.75"/><path id="path282" class="cls-83" d="M140.41,25.67a16.5,16.5,0,0,1-2,3.66c-.4.6-.8,1.19-1.21,1.76v0A50.87,50.87,0,0,1,126.8,41.84a56.72,56.72,0,0,1-6.5,4.47,3.7,3.7,0,0,0-.92.6,10.68,10.68,0,0,0-4.72-1.46,1.12,1.12,0,0,0-.22,2.23,11.91,11.91,0,0,1,1.64.33c11.16,5.26,15.37,19.31,16,30.76C130,69.33,120,45.11,107.3,51.51a2.09,2.09,0,0,0-.61.45,20.26,20.26,0,0,0-3.84-1.44.93.93,0,0,0-.49,1.57,4.86,4.86,0,0,0,1.37.72c11.92,6,16.52,20.22,17.72,32.7-3.12-11.11-10-25.07-20.69-30.44-1-.51-4.42-.72-3.63,1.16.37.4,1,.42,1.47.62a8.11,8.11,0,0,1,1,.42,43.5,43.5,0,0,1-9.4,2,58.33,58.33,0,0,1-14-.41c-.14,0-.27,0-.42,0l.39-.08c.6-.14,1.32,0,1.79-.48.61-.67-.1-1.55-.86-1.66C65.56,56,55.78,70.15,49.89,78.73,54.52,69.24,59.44,55,71.61,53.85c1.21,0,1.73-1,.59-1.64a6.92,6.92,0,0,0-5.47.31,1.64,1.64,0,0,0-.51-.27c-14-1-23.28,18.26-27.1,29.52.73-12,7-29.44,20.33-31.84.6-.1,1.21-.2,1.81-.36,1.08-.57.31-1.54-.69-1.49a15.92,15.92,0,0,0-7.51,2c-2.26-1.94-4.78-3.7-6.93-5.86-1.63-1.54-3.2-3.14-4.67-4.82v0a54.68,54.68,0,0,1-9.33-14.32A72.2,72.2,0,0,1,47.52,14c-.76,4.74,1.25,10.17,3.48,14.2a44.61,44.61,0,0,0,4,6.16s0,0,0,0A53.79,53.79,0,0,0,71.76,48.56c.37.21.68-.4.32-.59A58.46,58.46,0,0,1,61,39.8c-.59-.53-1.15-1.08-1.69-1.67-6.43-6.73-10.4-16.3-9-25.62A96.66,96.66,0,0,1,60,8.21a90.54,90.54,0,0,1,21.75-5,12.62,12.62,0,0,1,2.16-.14A100.58,100.58,0,0,1,99.06,4.48a79.52,79.52,0,0,1,15.84,4.4l-.4.47c-2.28,2.88-4.33,5.92-6.48,8.89A137.21,137.21,0,0,0,100.22,31c-1.58,3-3.06,6-4.4,9-1.1,2.56-2.12,5.18-3.16,7.76a.48.48,0,0,0,.27.62.48.48,0,0,0,.61-.27c2.08-4.79,4-9.63,6.2-14.36.63-1.28,1.27-2.53,2-3.79,4-7.42,8.91-14.37,15.37-19.89l.23-.23a74.77,74.77,0,0,1,14.11,7.92,1,1,0,0,0-.08.14,76.42,76.42,0,0,1-7.43,10.8c-.25.29-.51.57-.77.85-2.42,2.65-5.12,5.05-7.71,7.53a.33.33,0,1,0,.43.51,64.49,64.49,0,0,0,9.4-7.76c.28-.27,1-1,1.88-2.09a55.86,55.86,0,0,0,6.2-8.54,63.94,63.94,0,0,1,7.09,6.46"/><path id="path284" class="cls-81" d="M103.77,188.53a9.29,9.29,0,0,0-.35.87c-3.61,6.76-8.65,22.51-17.14,23.27-6.63-.11-12.46-7.4-16-12.5a45.3,45.3,0,0,1-4.55-9.46A8.06,8.06,0,0,0,68,185.2c.11-.87.2-1.75.27-2.63a45.11,45.11,0,0,0,.16-4.93c.93.28,1.85.55,2.79.8a54,54,0,0,0,9.37,2.31,33.93,33.93,0,0,0,9.44-.19c3.92-.25,7.73-1.72,11.6-3,0,.45,0,.92,0,1.36.09,1.11.15,2.23.24,3.33a22.1,22.1,0,0,0,.67,4.36,4.94,4.94,0,0,0,1.17,1.88"/><path id="path286" class="cls-85" d="M106.3,83.19A36.07,36.07,0,0,1,117,88.55c-2.18-3.5-6.46-6.2-10.7-5.36"/><path id="path288" class="cls-83" d="M161.9,174.11c-.05,4.61-1.53,9-2.81,13.4a84.08,84.08,0,0,0-2.21-11,57.7,57.7,0,0,0-6-14.56c-.35-1-.76-1.23-.93-.86a.59.59,0,0,0-.07.2c.08.32.27.6.37.91,2.82,11.67,6.58,23.12,6.56,35.27.35,7.52-.78,15-1.64,22.44-.09.68-.17,1.34-.25,2a111.05,111.05,0,0,0-8.79-11.18A90.94,90.94,0,0,0,133.54,199c-.69-.42-1.36-1-2.09-1.49,3.6-5.6,4.45-11.68.16-20.05,3.08-6.11,3.72-14.47-.57-20.12a76.27,76.27,0,0,0,4.12-11.74c.24-.8.45-1.6.68-2.41a.15.15,0,0,0,0,.07,4.45,4.45,0,0,0,1.57.62,7.3,7.3,0,0,0,5.1-3.06,5.74,5.74,0,0,0-.68-5.87,19.12,19.12,0,0,0,3.69-1.75,16.74,16.74,0,0,0,3.13-2.32c.16,1.19.46,2.39.56,3.35,2.8,13.77,13,25.35,12.64,39.87"/><path id="path290" class="cls-84" d="M85.64,134.88a8.59,8.59,0,0,0,7.06-5.83c-4.58,2.87-10.3,3.32-14.88.24.39,1.31,1.5,2.22,2.39,3.22a6.47,6.47,0,0,0,5.43,2.37"/><path id="path292" class="cls-85" d="M54.32,88.55A36,36,0,0,1,65,83.19c-4.23-.84-8.51,1.86-10.69,5.36"/><path id="path294" class="cls-82" d="M140,139.43c.64-1.55-.22-2.88-1.32-3.88a4.07,4.07,0,0,1-.87-.1c-.51,2.16-1,4.32-1.61,6.47a.62.62,0,0,1,.33,0c1.51.37,2.65-1.47,3.47-2.49"/><path id="path296" class="cls-86" d="M108.61,196.79c.53-1.15,1.11-2.3,1.69-3.44a11.36,11.36,0,0,1-4-2.5l-.25-.24a15.94,15.94,0,0,0-.7,1.51c-1.06,2.39-2.12,4.8-3.22,7.19-3.5,7.25-8.84,16.13-18,15.76-7.1-.88-12.26-7.2-16.14-12.72-.71-1.22-3.58-5.75-4.6-9.11-.52.51-1,1-1.6,1.44l-.18.12a56.72,56.72,0,0,1,2.72,5.09C68,209,68.33,219,69.69,228.56,71,239.79,71.53,251.09,72,262.37c.16,4.18.36,8.35.46,12.52a16.69,16.69,0,0,1-.06,2.59,155.11,155.11,0,0,0,26.91.08c-.24-1.95.2-4.09.11-6,.22-8.24.76-16.47,1.41-24.68,1.09-11.23,1-22.58,2.69-33.74a65.9,65.9,0,0,1,5.11-16.34"/><path id="path298" class="cls-87" d="M69.24,277.13l-2.5-.26c-12.37-1.54-25.06-3.44-37-7.35-.07-4-4.95-18.72-5.31-19.56-2.66-7-5.22-14.37-9.42-20.61a107.75,107.75,0,0,1,11.52-16.19,85.58,85.58,0,0,1,11-10.63c3.67,3.27,8.14,5.54,12,8.48a58.45,58.45,0,0,1,7.62,7s0,0,0,0c1.44,1.49,2.85,3,4.36,4.41.28.23.63.57,1,.52,1.4-.51-.32-2.84-.82-3.75-.48-.76-1-1.5-1.54-2.22a48.76,48.76,0,0,0-12.51-11.27c-3.79-2.73-8.85-5.08-11.52-9.09a10.45,10.45,0,0,1-1.53-3.6c-.55-3.07,1-6,2.7-8.39.84-1.4,2.22-2.68,2.12-4.43-.73-5.77-.12-11.84,3.66-16.57a3.53,3.53,0,0,1,.57-.69c.73.77,1.49,1.52,2.29,2.25a58.64,58.64,0,0,0,19.8,11.52c-.14,2,0,4.16-.34,6.21A10.25,10.25,0,0,1,61.85,190c-.4.51-1.25,1.19-2,1.92-2.52-4.27-4.89-8.6-5.36-13.68.56-2.79-2.41-3.37-2.51-.52.19,5.8,3.35,11,5.87,16.09a60.42,60.42,0,0,1,6,16.3h0c.13.73.25,1.47.36,2.21a365,365,0,0,1,4.15,41.75c.29,6,.53,12,.72,18,.21,1.56-.12,3.38.08,5"/><path id="path300" class="cls-87" d="M154.4,226.87c-1.51,3-2.26,6.57-3.36,9.74-1.62,5.48-3,11-4.16,16.62-.79,3.85-1.48,7.7-2,11.61,0,.64-.25,1.57-.28,2.37-3.08,1.08-6.18,2.08-9.32,3.06a167,167,0,0,1-33,7c.44-3.09.11-7.8.36-9,.72-16.6,2.31-33.18,3.39-49.76a62.81,62.81,0,0,1,4-16.68c.48-1.28,1-2.54,1.58-3.76,3.12-7.08,7.15-14.27,6.8-22.26a4.35,4.35,0,0,0-.48-1.94,1.17,1.17,0,0,0-2.18.66c.7,5.91-1.67,11.24-4.28,16.44-1.56-.56-2.74-1.94-4-3-2.44-1.84-2.16-4.79-2.46-7.66a17.74,17.74,0,0,0-.46-3.64,68.31,68.31,0,0,0,12.61-5.56,40.88,40.88,0,0,0,7.64-5.34,25.75,25.75,0,0,0,4.49-5.32,20.52,20.52,0,0,1,1.39,12.3c-.35,2-1.91,3.71-2,5.75.85,3,2.29,6,2.48,9.15h0a9.72,9.72,0,0,1-.33,3.24c-1.1,5.08-4.88,8.44-8.44,12a51.63,51.63,0,0,0-6.11,6.94,42,42,0,0,0-4.33,7.43c-.5,1.35-2.42,4.8-.59,5.68.45,0,.71-.33.91-.72h0c.13-.23.24-.48.36-.67a63.32,63.32,0,0,1,9.89-14.16,71.9,71.9,0,0,0,7-7.32,3.58,3.58,0,0,0,.44.31,100.58,100.58,0,0,1,8,6.8,105.06,105.06,0,0,1,16.36,19.72"/><path id="path302" class="cls-83" d="M48.9,50h-.66c-.88-.21-1.75-.44-2.6-.72A33.29,33.29,0,0,1,30.26,38a34.13,34.13,0,0,1-2-2.84c-.22-.21-.29-.72-.68-.69a.35.35,0,0,0-.2.57c.76,1.23,1.54,2.43,2.34,3.59,3.69,5.37,7.94,9.82,14,11.78a21.13,21.13,0,0,0-4.5,1.27A88.08,88.08,0,0,1,28.68,48a11.52,11.52,0,0,1-3-2,.25.25,0,0,0-.16-.1.32.32,0,0,0-.41.21.54.54,0,0,0,.16.43,4.8,4.8,0,0,0,.76.62,34.22,34.22,0,0,0,11.1,5.54,11.55,11.55,0,0,0-4.58,5c-1.87,4.19.73,8.75-.35,13.13-.64,3.79-2.85,7.1-5.29,10-.68,1-2.94,2.27-2.44,3.66-.42,2.06-.1,6.13.41,10.13a11.21,11.21,0,0,0-1.25-1A9.05,9.05,0,0,0,20,92.12a1.49,1.49,0,0,0-.11-.76c-.21-1-.48-2-.65-3.09A170.15,170.15,0,0,1,16.77,67c-.53-9.16.25-18.7,4.29-27.06a52.17,52.17,0,0,1,9.79-13.65,26.48,26.48,0,0,0,2.29,6.09,43.69,43.69,0,0,0,3.28,5.34A51.81,51.81,0,0,0,48.9,50"/><path id="path304" class="cls-81" d="M31.66,131.6c-.45-1.93-.9-3.85-1.32-5.8a19,19,0,0,1-10.9-12.35c-.7-3-1.23-7,.54-9.66a39.08,39.08,0,0,0-3.21-4.55c-.07-1.57,2.24.84,2.76,1.12,9,7.45,2.88,6.61,5,14.65a29.24,29.24,0,0,0,4.87,6.42c-1.12-5.46-2.14-10.92-3-16.42-.08-.68-.37-2.44-.72-4.68a7.09,7.09,0,0,0-.7-1.21c-2.32-3.56-8.82-6.83-9.66-.52-.78,7.85,2.3,24,8.4,29.25a17.23,17.23,0,0,0,8,3.75"/><path id="path306" class="cls-84" d="M22.56,108.17a22.91,22.91,0,0,0-2.12-3.61c-2.36,6.67.82,14.73,6.88,18.27a14.14,14.14,0,0,1-4.12-8c-.26-2.21.08-4.51-.64-6.63"/><path id="path308" class="cls-86" d="M155.17,228.08c-3.59,9.35-5.21,19.27-6.87,29.11-.49,3.05-1,6.09-1.28,9.17A105.39,105.39,0,0,0,167,257a1.54,1.54,0,0,1,.32-.23,1.31,1.31,0,0,1-.33-.6,94.27,94.27,0,0,0-11.79-28"/><path id="path310" class="cls-86" d="M14.5,230.2c-1.72,3-3.33,6-4.82,9.09-2.14,4.28-4,8.67-5.87,13.08-.35.74-.52,1.82-1,2.55a56.19,56.19,0,0,0,6.08,4.85A85.57,85.57,0,0,0,28.29,269c-3.05-13.16-6.51-26.61-13.47-38.29a2.61,2.61,0,0,0-.32-.52"/><path id="path312" class="cls-83" d="M37.08,172.77c-.23,2.35.58,4.91-.3,7.12-5.65,5.76-6.58,14.43-1.28,20.6a74.65,74.65,0,0,0-15.32,15.32c-2.09,2.75-4,5.6-5.86,8.55,0-8.12-1.23-16.19-1.23-24.31-.35-12.92,3.77-25.46,7.12-37.85.19-.73.39-1.45.57-2.17.07-.16.12-.31.19-.47a.33.33,0,0,0-.61-.24,81.87,81.87,0,0,0-7.72,19.61A84,84,0,0,0,10.74,189a37.58,37.58,0,0,0-1-4.24c-5.33-23.17,12.09-33.26,13.47-53.33a16.35,16.35,0,0,0,4,2.05,14.89,14.89,0,0,0,1.93.58,5,5,0,0,0-1,3,3.32,3.32,0,0,0,3.27,4.13,7.56,7.56,0,0,0,2.65-.37c1.67,6.27,3.29,12.61,6.47,18.28.41.57.86,1.12,1.3,1.68-.38.44-.73.93-1,1.31a18.43,18.43,0,0,0-3.68,10.66"/><path id="path314" class="cls-88" d="M167,257a105.89,105.89,0,0,1-19.94,9.4c.26-3.07.78-6.12,1.28-9.18,1.65-9.82,3.26-19.76,6.86-29.1A94.42,94.42,0,0,1,167,256.12a1.75,1.75,0,0,0,.33.6A2.62,2.62,0,0,0,167,257Zm-22.08,7.88c0,.64-.25,1.57-.28,2.37-3.08,1.08-6.2,2.08-9.32,3.05a165.65,165.65,0,0,1-33,7c.44-3.08.11-7.79.36-9,.72-16.62,2.32-33.18,3.39-49.78A63.62,63.62,0,0,1,111.66,198c3.14-7.08,7.15-14.26,6.8-22.24a4.37,4.37,0,0,0-.49-2,1.17,1.17,0,0,0-2.19.67c.71,5.91-1.66,11.24-4.26,16.44-1.58-.57-2.74-1.95-4-3-2.44-1.84-2.16-4.77-2.46-7.64a20.12,20.12,0,0,0-.46-3.64A68.35,68.35,0,0,0,117.21,171c6-3.35,9.57-6.64,12.13-10.67a20.67,20.67,0,0,1,1.38,12.32c-.35,2-1.91,3.7-2,5.75,1.13,4,3.35,8.07,2.13,12.39-1.09,5.08-4.88,8.45-8.42,12A46,46,0,0,0,112,217.24c-.51,1.35-2.42,4.79-.59,5.67.73,0,.93-.9,1.27-1.4a63.64,63.64,0,0,1,9.89-14.16,74.09,74.09,0,0,0,7-7.32,2.86,2.86,0,0,0,.44.3,104.94,104.94,0,0,1,24.33,26.54c-1.5,3-2.25,6.57-3.36,9.74-1.61,5.48-3,11-4.16,16.6-.77,3.86-1.46,7.72-2,11.62Zm-45.48,6.69c.11,1.91-.34,4.07-.1,6a156.11,156.11,0,0,1-26.91-.08,15.32,15.32,0,0,0,0-2.58c-.08-4.18-.28-8.35-.45-12.52-.45-11.28-1-22.59-2.29-33.82-1.38-9.6-1.7-19.6-5.43-28.66-.8-1.74-1.75-3.43-2.72-5.1l.17-.12a18.24,18.24,0,0,0,1.6-1.44c1,3.36,3.9,7.9,4.6,9.11,3.88,5.52,9,11.85,16.15,12.72,9.16.37,14.52-8.51,18-15.76,1.11-2.39,2.16-4.79,3.23-7.19a15.58,15.58,0,0,1,.69-1.5l.26.24a10.82,10.82,0,0,0,4,2.49c-.59,1.15-1.16,2.29-1.69,3.44a65,65,0,0,0-5.08,16.32c-1.66,11.16-1.62,22.51-2.7,33.73-.68,8.24-1.21,16.47-1.44,24.71Zm-32.66,5.35c-12.38-1.54-25.07-3.44-37-7.35-.07-4-4.95-18.72-5.31-19.56-2.66-7-5.22-14.37-9.41-20.61a97.29,97.29,0,0,1,22.51-26.82c3.65,3.27,8.13,5.55,12,8.5,4.5,3.26,8,7.65,12,11.46.28.23.63.58,1,.52,1.4-.5-.32-2.84-.8-3.76-3.5-5.54-8.62-9.9-14.06-13.48-4.8-3.46-11.65-6.3-13.06-12.69-.55-3.08,1-6,2.7-8.4.84-1.4,2.23-2.67,2.14-4.43-.75-5.76-.12-11.84,3.65-16.56a5.61,5.61,0,0,1,.57-.69c5.72,6.09,13.68,10.79,22.1,13.77-.15,2,0,4.16-.36,6.23a10.15,10.15,0,0,1-3.58,7.05c-.41.51-1.25,1.19-2,1.92-2.52-4.26-4.89-8.6-5.37-13.68.56-2.78-2.4-3.37-2.51-.52.19,5.82,3.35,11,5.87,16.1,3,5.82,5.47,11.82,6.4,18.52a364.59,364.59,0,0,1,4.15,41.74c.28,6,.53,12,.7,18,.22,1.57-.12,3.4.08,5C68.41,277,67.58,277,66.76,276.87ZM8.93,259.77a56.19,56.19,0,0,1-6.08-4.85,21.39,21.39,0,0,0,1-2.55c1.83-4.41,3.73-8.8,5.87-13.08,1.49-3.08,3.1-6.12,4.82-9.09a3.09,3.09,0,0,1,.31.53c7,11.68,10.41,25.14,13.47,38.3A86.64,86.64,0,0,1,8.93,259.77ZM10.76,189a36.69,36.69,0,0,0-1-4.24c-5.33-23.17,12.11-33.26,13.47-53.33a17,17,0,0,0,5.89,2.63,5,5,0,0,0-1,3,3.32,3.32,0,0,0,3.28,4.13,7.57,7.57,0,0,0,2.65-.38c1.67,6.26,3.3,12.61,6.47,18.28.41.57.87,1.12,1.31,1.68-.39.44-.74.93-1,1.3a18.56,18.56,0,0,0-3.68,10.67c-.24,2.35.59,4.91-.31,7.12-5.64,5.76-6.58,14.41-1.28,20.6-8.69,6.35-15.49,14.73-21.17,23.87,0-8.12-1.23-16.18-1.24-24.31-.36-13.67,4.27-26.93,7.71-40l.18-.46a.33.33,0,0,0-.61-.24A82,82,0,0,0,10.76,189Zm16.56-66.18c-6.06-3.54-9.26-11.6-6.88-18.27a23.37,23.37,0,0,1,2.12,3.61c.73,2.11.4,4.4.65,6.62a14.24,14.24,0,0,0,4.11,8Zm-12-24.2c.84-6.31,7.33-3,9.65.52a5.43,5.43,0,0,1,.71,1.21c.35,2.24.64,4,.72,4.68q1.32,8.24,3,16.41A28.16,28.16,0,0,1,24.52,115c-2.12-8,4-7.2-5-14.65-.52-.3-2.82-2.7-2.76-1.12A38.27,38.27,0,0,1,20,103.81c-1.77,2.7-1.23,6.62-.55,9.67a19,19,0,0,0,10.91,12.35q.65,2.9,1.32,5.8a17.73,17.73,0,0,1-8-3.72c-6.1-5.31-9.18-21.43-8.39-29.28ZM16.77,67C16.25,57.87,17,48.32,21.06,40a52,52,0,0,1,9.8-13.65,26.06,26.06,0,0,0,2.3,6.09A49.82,49.82,0,0,0,48.9,50l-.66,0c-.87-.22-1.75-.44-2.6-.71A33.68,33.68,0,0,1,28.3,35.16c-.22-.23-.29-.73-.68-.69a.34.34,0,0,0-.2.56c4.28,6.93,9,13,16.3,15.38a21.46,21.46,0,0,0-4.5,1.27A88.08,88.08,0,0,1,28.68,48a11.07,11.07,0,0,1-3-2c-.13-.18-.53-.16-.58.11,0,.49.6.76.93,1.07a34.15,34.15,0,0,0,11.11,5.53,11.59,11.59,0,0,0-4.59,5c-1.88,4.2.73,8.76-.36,13.13-.64,3.79-2.84,7.1-5.29,10-.68,1-2.94,2.25-2.43,3.65-.43,2.07-.09,6.13.41,10.13A9.73,9.73,0,0,0,20,92.12a1.8,1.8,0,0,0-.1-.76c-.23-1-.5-2-.66-3.09A168.62,168.62,0,0,1,16.77,67ZM47.52,13.93c-.75,4.75,1.26,10.18,3.48,14.2,4.66,8.75,12.14,15.64,20.76,20.42.38.22.69-.39.32-.59A57.61,57.61,0,0,1,61,39.8C53.58,33,48.76,22.63,50.25,12.49A101.12,101.12,0,0,1,60,8.2a90.65,90.65,0,0,1,21.75-5,14.92,14.92,0,0,1,2.16-.15A100.28,100.28,0,0,1,99.06,4.48a80.73,80.73,0,0,1,15.86,4.39c-.15.16-.28.32-.42.46-2.26,2.88-4.33,5.92-6.48,8.91A133.36,133.36,0,0,0,95.82,40c-1.1,2.56-2.12,5.17-3.17,7.76a.47.47,0,0,0,.88.35c2.08-4.78,4-9.63,6.2-14.36,4.33-8.84,9.76-17.23,17.31-23.68l.24-.23a73.52,73.52,0,0,1,14.09,7.92l-.08.13a71.59,71.59,0,0,1-7.43,10.79c-2.6,3-5.61,5.65-8.48,8.39a.33.33,0,0,0,0,.46.35.35,0,0,0,.47.06,62.94,62.94,0,0,0,9.4-7.76c.89-.87,6-6.74,8.08-10.63a60.31,60.31,0,0,1,7.09,6.45,16.41,16.41,0,0,1-2,3.68,50.93,50.93,0,0,1-11.62,12.51,56.72,56.72,0,0,1-6.5,4.47,3.76,3.76,0,0,0-.92.61,10.8,10.8,0,0,0-4.72-1.45,1.12,1.12,0,0,0-.22,2.22,16.53,16.53,0,0,1,1.65.32c11.15,5.27,15.37,19.32,16,30.78-2.1-9.46-12.17-33.67-24.82-27.27a1.89,1.89,0,0,0-.63.45,20.69,20.69,0,0,0-3.84-1.44.93.93,0,0,0-.48,1.58,5.71,5.71,0,0,0,1.36.72c11.93,6,16.52,20.21,17.72,32.69-3.12-11.11-10-25.07-20.69-30.44-1-.52-4.42-.72-3.63,1.15.37.4,1,.42,1.47.62a10,10,0,0,1,1,.42,42.93,42.93,0,0,1-9.4,2,58.85,58.85,0,0,1-14-.41l-.4,0,.38-.08c.6-.13,1.31,0,1.78-.48.62-.67-.1-1.55-.84-1.65-11.56-.58-21.34,13.53-27.22,22.12C54.48,69.24,59.4,55,71.58,53.85c1.22.06,1.74-1,.59-1.64a6.92,6.92,0,0,0-5.47.31,1.58,1.58,0,0,0-.5-.27c-14-1-23.28,18.26-27.11,29.52.73-12,7-29.44,20.33-31.84.6-.12,1.22-.21,1.82-.37,1.08-.57.3-1.55-.7-1.48a15.88,15.88,0,0,0-7.5,2c-2.27-1.94-4.79-3.7-6.94-5.86a59.39,59.39,0,0,1-14-19.16A74,74,0,0,1,47.52,13.93Zm94.29,13.28A48.67,48.67,0,0,1,152.93,49c2.67,11.64.88,23.88-.68,35.61-.27,2-.51,4-.81,5.93a1.3,1.3,0,0,0,.08.68,10.63,10.63,0,0,0-6.11,3A102.68,102.68,0,0,0,146.22,83c0-.7-.14-2.46-1.17-1.67-.07.13-.12.28-.19.43a37.23,37.23,0,0,1-5.06-9c-1.67-4.59-.92-10-2-14.74-1.39-4.1-5-6.9-9.07-8.52a41.93,41.93,0,0,0,7.28-3.88A45,45,0,0,0,142.33,41a.45.45,0,0,0-.56-.71c-1.12.87-2.21,1.76-3.36,2.6a32.59,32.59,0,0,1-11.52,4.91l-2.19.48a20.51,20.51,0,0,0-2.25-.35,2.25,2.25,0,0,0-.45,0,42.37,42.37,0,0,0,4-2.23,40.26,40.26,0,0,0,12.3-12.18c1.15-2,2.74-4.06,3.51-6.3Zm5,82.95a70.83,70.83,0,0,1,4.48-7.16c.15,7-2.17,14.49-6.93,19.77.21-.33.41-.66.61-1a16.2,16.2,0,0,0,2-5.73C147.34,114.07,146.45,112.11,146.77,110.16ZM155.62,100c.55,8.85-2.49,17.84-6.84,25.56a15.38,15.38,0,0,1-8.58,6.6c-.44.1-1.07.17-1.71.28.36-1.63.71-3.26,1-4.9,6.53-1.88,10-9.25,11.84-15.37a33,33,0,0,0,1.39-9c-.07-.47-.06-1.19-.56-1.44.3-.78,3.16-2.46,1.53-3-2,.52-3.71,2.45-5.27,3.88-7.76,9.48-2.22,5.56-3.46,13.49a31.91,31.91,0,0,1-4.67,7.48c.65-3.33,1.27-6.68,1.89-10,.86-4.79,1.76-9.59,2.51-14.42h.05c2.32-1.53,3.9-4.45,6.92-4.75s3.64,3.32,3.92,5.62Zm-17.81,35.41a4.84,4.84,0,0,0,.87.09c1.1,1,1.94,2.34,1.32,3.88-.82,1-2,2.87-3.47,2.5a.62.62,0,0,0-.33,0q.87-3.22,1.61-6.47ZM33.6,139.24c-1,.44-2.24.61-3-.32a3.12,3.12,0,0,1,.83-3.64,5.77,5.77,0,0,1,.86-.28.39.39,0,0,0,.16-.07l.36,1.52c.27.94.52,1.86.78,2.79ZM86.52,177.6a7.67,7.67,0,0,0-.92.17h-.79c-1.85-.25-3.72-.57-5.56-.95-12.47-2.13-25-7.42-33.92-16.73-2.68-2.87-4-6.61-5.23-10.27A278.6,278.6,0,0,1,32.64,121c-1.95-9.38-3.36-18.9-5.06-28.32-.45-2.47-.74-5-1.2-7.44,2.9-1.36,7.34-9,7.51-10.83,1-4.52,0-9,.65-13.64C36,54.59,43.38,53.39,49,53.11c-7.66,7-12.06,20-12.15,28.85a33.57,33.57,0,0,0,.4,7.69,1.5,1.5,0,0,0,.88,1.19c1.91.48,1.85-2.12,2.13-3.37.38-2.14.71-4.44,1.27-6.6C44.08,70.05,51.65,58,63,55.19c-1.44,1.33-2.77,2.84-4,4.08-7.7,9.12-12,20.65-14.69,32.14a.94.94,0,0,0,.93,1.16c.62,0,1-.56,1.22-1,.56-1,.93-2.07,1.45-3.15,4.39-9.12,13-23.1,23.31-28,1.9,1.39,8,1.72,9.24,1.92a45.35,45.35,0,0,0,21-2.51,2.43,2.43,0,0,0,1.08-.72,4,4,0,0,1,.39.3,60.84,60.84,0,0,1,17.75,30.32c.46,1.21.36,2.84,1.41,3.7,3.69,1.26,1.87-9.36,1.73-11.41-1.61-10.24-5.64-22.61-14.54-28.59,9.3-1.41,15,10.12,18.16,17.6a59.5,59.5,0,0,1,3.5,16.59c.2,1.09,0,2.43.76,3.31,2.32,1.42,2.68-2.52,2.91-4.06,1.37-12.22-.87-25.76-9.32-35.13,4.36,1.51,8.68,3.65,10.53,8,1.18,3.39.22,7,.48,10.5.34,5.13,3.52,9.78,6.9,13.48a1.19,1.19,0,0,0,.9.25c-1,3.44-1.09,7.19-1.81,10.68-.84,5.47-1.87,10.89-2.84,16.33-1.95,10.58-3.84,21.14-6.73,31.54-2.06,6.12-3.31,12.94-7.43,18.1-8.81,9.55-26,15.62-38.73,17Zm-18.06,0c.94.28,1.86.55,2.79.8a53,53,0,0,0,9.36,2.31,34,34,0,0,0,9.45-.19c3.92-.27,7.74-1.72,11.59-3,0,.46,0,.93,0,1.37a42.17,42.17,0,0,0,.91,7.69,5.34,5.34,0,0,0,1.17,1.88c-.13.27-.25.56-.36.86-3.6,6.77-8.65,22.5-17.13,23.26-6.63-.1-12.47-7.4-16-12.49a44.65,44.65,0,0,1-4.55-9.47,8,8,0,0,0,2.28-5.5,50,50,0,0,0,.44-7.55Zm93.44-3.53c0,4.61-1.53,9-2.81,13.4-1.24-8.9-3.63-17.8-8.24-25.54-.4-1.17-.88-1.25-1-.64.07.31.27.6.37.91,2.82,11.67,6.56,23.11,6.56,35.27.35,7.52-.8,15-1.64,22.44-.09.68-.17,1.36-.25,2a101.57,101.57,0,0,0-21.35-23c-.69-.42-1.36-1-2.1-1.49,3.61-5.6,4.45-11.67.16-20.05,3.06-6.11,3.72-14.47-.59-20.11a74.72,74.72,0,0,0,4.13-11.73c.24-.8.46-1.6.68-2.42l.06.06a4.31,4.31,0,0,0,1.57.64,7.36,7.36,0,0,0,5.09-3.08,5.79,5.79,0,0,0-.68-5.87,19.93,19.93,0,0,0,6.83-4.07c.16,1.19.45,2.4.56,3.35,2.83,13.77,13.05,25.33,12.65,39.87Zm.74,60.57c-1.74-3.23-3.62-6.43-5.63-9.53.53-1.43.47-4,.75-4.92,1.18-9.19,2.65-18.44,1.88-27.71a14,14,0,0,0,.73-1.53c1-3,2.16-5.75,3-8.86,6.19-19.09-9.89-35.26-12.13-53.54,0-.23-.06-.51-.11-.78,5.53-8.53,10.2-25.64,6-33.65a5.85,5.85,0,0,0-2.89-2.56,1.56,1.56,0,0,0,.32-.73c.4-2.79.83-5.56,1.2-8.35C158.86,64,159,43.2,146.57,27.81,132.77,10.29,110.37,1.15,88.45.08A33.4,33.4,0,0,0,82,.28c-5.49.24-14,2.33-15.67,2.77C43.77,9.24,20.68,24.48,15.05,48.44c-1.93,8.27-1.57,16.88-.64,25.27.92,6.13,1.16,12.57,3.52,18.34a7.23,7.23,0,0,0-.81.15c-9.51,3.28-3.52,21.48-1.52,28.52a19.91,19.91,0,0,0,5,8.56c-.25,11.37-7.33,20.81-11.62,30.95-4.1,10.24-4.43,22.56,1.38,32.16a96.7,96.7,0,0,0,.6,21.33c.27,4.15.72,8,.87,12.24.13.67,0,1.63,0,2.45-2.53,4.4-4.87,8.92-7.07,13.44A100.05,100.05,0,0,0,.46,252.08c-.42,1-.8,2.51,0,3.24.11,3.33,11.07,10,13.38,11,17.66,8.53,37.41,12.05,56.8,14a185.56,185.56,0,0,0,31.8.22c10.34-1,20.42-3.64,30.45-6.26,11.32-3.13,22.55-7.14,32.77-13,1.32-1.07,4.86-2,3.62-4.21,3-1.88-5.48-20-6.68-22.43"/><path id="path316" class="cls-88" d="M62.6,105.05c-4.1-1.17-6.07,6.82-1.66,7.22,4,.45,6.11-6.12,1.66-7.22"/><path id="path318" class="cls-88" d="M92.7,129.05a8.58,8.58,0,0,1-7.06,5.83,6.45,6.45,0,0,1-5.44-2.37c-.88-1-2-1.91-2.39-3.22,4.59,3.08,10.31,2.62,14.89-.24Zm-8.6,7c4.14.54,7.92-2.08,10.06-5.44.65-1.08,1.44-2.44,1-3.74a1.21,1.21,0,0,0-2.13-.1,10.56,10.56,0,0,1-6,2.18c-3.41.38-7.3.38-10.26-1.61a.34.34,0,0,0-.64.09c0,.3.29.52.44.76-1.15,3.24,4.6,7.63,7.5,7.86"/><path id="path320" class="cls-88" d="M97.64,140.16a1.59,1.59,0,0,0,.42,1.25l.18.22a.35.35,0,0,0-.1.08,29.7,29.7,0,0,1-6.44,3.48c-4.37,1.86-9.12,1.08-13.69.93-.4.2-.19.71.07.93a8.22,8.22,0,0,0,4.68,1.74,21.08,21.08,0,0,0,12.56-2.31c1-.67,3.64-1.64,4.73-2.89.45.41.91.8,1.36,1.18,1.79.58,1.73-1.46.84-2.45-.61-1-3.64-3.67-4.61-2.16"/><path id="path322" class="cls-88" d="M54.32,88.55c2.17-3.5,6.45-6.2,10.69-5.36A36.14,36.14,0,0,0,54.32,88.55Zm12.82-7.08c-2.37-1-5-.19-7.3.66-4.22,1.62-6.8,5.44-8.63,9.38-.17.32-.48.93-.11,1.22a1,1,0,0,0,.71-.1C54.49,91,57,89,59.84,87.55c2.25-1.11,4.38-2.36,6.92-2.84a1.36,1.36,0,0,0,1.41-.54,1.85,1.85,0,0,0-1-2.7"/><path id="path324" class="cls-88" d="M108.73,105.05c-4.45,1.1-2.29,7.67,1.65,7.22,4.42-.4,2.44-8.39-1.65-7.22"/><path id="path326" class="cls-88" d="M106.3,83.19c4.24-.83,8.52,1.88,10.7,5.36A35.84,35.84,0,0,0,106.3,83.19Zm5.19-1.06c-2.29-.84-4.93-1.61-7.31-.66a1.85,1.85,0,0,0-1,2.7,1.4,1.4,0,0,0,1.41.54c2.52.48,4.65,1.73,6.92,2.82,2.87,1.43,5.35,3.4,8,5.08a1.08,1.08,0,0,0,.7.11c.39-.29.07-.91-.1-1.23-1.83-3.92-4.42-7.74-8.63-9.36"/><path id="path328" class="cls-85" d="M26,47.21a34.22,34.22,0,0,0,11.1,5.54,11.55,11.55,0,0,0-4.58,5c-1.87,4.19.73,8.75-.35,13.13-.64,3.79-2.85,7.1-5.29,10-.68,1-2.94,2.27-2.44,3.66-.42,2.06-.1,6.13.41,10.13a11.21,11.21,0,0,0-1.25-1c-.84-5.52-1.23-11.1-1.52-16.69-.39-7.2-.62-14.48.64-21.57a43.75,43.75,0,0,1,2.52-8.84,4.8,4.8,0,0,0,.76.62"/><path id="path330" class="cls-85" d="M25.65,46.05a.25.25,0,0,0-.16-.1,32.61,32.61,0,0,1,4.27-7.32c3.69,5.37,7.94,9.82,14,11.78a21.13,21.13,0,0,0-4.5,1.27A88.08,88.08,0,0,1,28.68,48a11.52,11.52,0,0,1-3-2"/><path id="path332" class="cls-85" d="M30.26,38a23,23,0,0,1,1.62-1.81,1.94,1.94,0,0,1,1.29-.74,2,2,0,0,1,1.15.58l2.1,1.72A51.81,51.81,0,0,0,48.9,50h-.66c-.88-.21-1.75-.44-2.6-.72A33.29,33.29,0,0,1,30.26,38"/><path id="path334" class="cls-85" d="M137.21,31.09v0A50.87,50.87,0,0,1,126.8,41.84a56.72,56.72,0,0,1-6.5,4.47,3.7,3.7,0,0,0-.92.6,10.68,10.68,0,0,0-4.72-1.46,1.12,1.12,0,0,0-.22,2.23,11.91,11.91,0,0,1,1.64.33c11.16,5.26,15.37,19.31,16,30.76C130,69.33,120,45.11,107.3,51.51a2.09,2.09,0,0,0-.61.45,20.26,20.26,0,0,0-3.84-1.44.93.93,0,0,0-.49,1.57,4.86,4.86,0,0,0,1.37.72c11.92,6,16.52,20.22,17.72,32.7-3.12-11.11-10-25.07-20.69-30.44-1-.51-4.42-.72-3.63,1.16.37.4,1,.42,1.47.62a8.11,8.11,0,0,1,1,.42,43.5,43.5,0,0,1-9.4,2,58.33,58.33,0,0,1-14-.41c-.14,0-.27,0-.42,0l.39-.08c.6-.14,1.32,0,1.79-.48.61-.67-.1-1.55-.86-1.66C65.56,56,55.78,70.15,49.89,78.73,54.52,69.24,59.44,55,71.61,53.85c1.21,0,1.73-1,.59-1.64a6.92,6.92,0,0,0-5.47.31,1.64,1.64,0,0,0-.51-.27c-14-1-23.28,18.26-27.1,29.52.73-12,7-29.44,20.33-31.84.6-.1,1.21-.2,1.81-.36,1.08-.57.31-1.54-.69-1.49a15.92,15.92,0,0,0-7.51,2c-2.26-1.94-4.78-3.7-6.93-5.86-1.63-1.54-3.2-3.14-4.67-4.82v0a15.94,15.94,0,0,1,1.37-14c.91-1.4,2.58-2.77,4.06-2a4,4,0,0,1,1.57,1.95,38.39,38.39,0,0,0,6.52,9s0,0,0,0A53.79,53.79,0,0,0,71.76,48.56c.37.21.68-.4.32-.59A58.46,58.46,0,0,1,61,39.8c-.59-.53-1.15-1.08-1.69-1.67a34.91,34.91,0,0,0,4,2.68c-3.16-4.52-6.26-9.69-5.59-15.17.56-4.61,3.8-8.59,7.76-11S74.05,11,78.62,10.15C84.69,9,91,8.29,97,10c3.26,1,6.65,3,7.29,6.39a10.94,10.94,0,0,1-.6,5.05A82.24,82.24,0,0,1,100.22,31c-1.58,3-3.06,6-4.4,9-1.1,2.56-2.12,5.18-3.16,7.76a.48.48,0,0,0,.27.62.48.48,0,0,0,.61-.27c2.08-4.79,4-9.63,6.2-14.36.63-1.28,1.27-2.53,2-3.79a34,34,0,0,1,5.15-5.7c4.08-3.56,9.28-6,14.69-6,1.93,0,4.16.5,5,2.24s-.08,3.56-1,5.14c-.76,1.35-1.57,2.66-2.42,3.95-2.42,2.65-5.12,5.05-7.71,7.53a.33.33,0,1,0,.43.51,64.49,64.49,0,0,0,9.4-7.76c.28-.27,1-1,1.88-2.09a6.71,6.71,0,0,1,.68-.4c3.17-1.7,8.06-1.14,9.2,2.29a4.25,4.25,0,0,1,.21,1.45"/><path id="path336" class="cls-85" d="M146.66,93.13a12.42,12.42,0,0,0-1.26,1,100.61,100.61,0,0,0,.81-11.24c0-.69-.15-2.45-1.17-1.65-.07.13-.11.28-.18.41a37,37,0,0,1-5.06-9c-1.67-4.58-.92-10-2-14.73-1.39-4.11-5-6.91-9.07-8.52a42.29,42.29,0,0,0,7.28-3.88A42.81,42.81,0,0,0,142.3,41a.43.43,0,0,0,.07-.62.45.45,0,0,0-.63-.07c-1.12.87-2.21,1.76-3.36,2.59a31.91,31.91,0,0,1-11.52,4.9l-2.18.48c-.76-.14-1.52-.26-2.26-.34a2.36,2.36,0,0,0-.46,0,40.17,40.17,0,0,0,4-2.23,34.14,34.14,0,0,0,7.15-5.77,14.73,14.73,0,0,1,6.36-.87c4.24.65,6.61,5.19,7.84,9.28,4.33,14.49,2.58,29.89-.66,44.81"/><path id="path338" class="cls-85" d="M37.08,172.77c-.23,2.35.58,4.91-.3,7.12-5.65,5.76-6.58,14.43-1.28,20.6a74.65,74.65,0,0,0-15.32,15.32c-.1-1-.2-2-.28-2.94a171.86,171.86,0,0,1,5.58-59.76,101.31,101.31,0,0,0-5.27,9.09c.19-.73.39-1.45.57-2.17.07-.16.12-.31.19-.47a.33.33,0,0,0-.61-.24,81.87,81.87,0,0,0-7.72,19.61c-1.43-9.16,2.93-18.37,7.22-26.72,3.06-5.93,6.2-12.25,7.34-18.72a14.89,14.89,0,0,0,1.93.58,5,5,0,0,0-1,3,3.32,3.32,0,0,0,3.27,4.13,7.56,7.56,0,0,0,2.65-.37c1.67,6.27,3.29,12.61,6.47,18.28.41.57.86,1.12,1.3,1.68-.38.44-.73.93-1,1.31a18.43,18.43,0,0,0-3.68,10.66"/><path id="path340" class="cls-85" d="M156.88,176.55a57.7,57.7,0,0,0-6-14.56c-.35-1-.76-1.23-.93-.86a40.79,40.79,0,0,0-4.9-6.66,103.76,103.76,0,0,1,3.71,14.78,89.82,89.82,0,0,1,.64,14.76c-.16,9-.77,18.23-3.27,26.78A90.94,90.94,0,0,0,133.54,199c-.69-.42-1.36-1-2.09-1.49,3.6-5.6,4.45-11.68.16-20.05,3.08-6.11,3.72-14.47-.57-20.12a76.27,76.27,0,0,0,4.12-11.74c.24-.8.45-1.6.68-2.41a.15.15,0,0,0,0,.07,4.45,4.45,0,0,0,1.57.62,7.3,7.3,0,0,0,5.1-3.06,5.74,5.74,0,0,0-.68-5.87,19.12,19.12,0,0,0,3.69-1.75,67.88,67.88,0,0,0,2.07,9.79c1.89,6.33,5,12.24,7.1,18.49,1.64,4.83,2.71,10,2.14,15.06"/><path id="path342" class="cls-84" d="M101.93,182.29c-1.48.72-3,1.42-4.52,2.06-4.47,1.89-9.2,3.48-14,3.38-5.43-.1-10.42-2.24-15.07-5.16a45.11,45.11,0,0,0,.16-4.93c.93.28,1.85.55,2.79.8a54,54,0,0,0,9.37,2.31,33.93,33.93,0,0,0,9.44-.19c3.92-.25,7.73-1.72,11.6-3,0,.45,0,.92,0,1.36.09,1.11.15,2.23.24,3.33"/><path id="path344" class="cls-89" d="M46,165.24a58.64,58.64,0,0,0,19.8,11.52c-.14,2,0,4.16-.34,6.21A10.25,10.25,0,0,1,61.85,190c-.4.51-1.25,1.19-2,1.92-2.52-4.27-4.89-8.6-5.36-13.68.56-2.79-2.41-3.37-2.51-.52.19,5.8,3.35,11,5.87,16.09a60.42,60.42,0,0,1,6,16.3q-1.93-3.63-4.16-7.1c-2.39-3.69-5-7.22-7.23-11.05a54,54,0,0,1-5.33-13A37.51,37.51,0,0,1,46,165.24"/><path id="path346" class="cls-89" d="M124.85,165.71c-.6,11.24-5,22.33-11.64,31.58-1.07,1.48-2.19,3-3.13,4.5.48-1.28,1-2.54,1.58-3.76,3.12-7.08,7.15-14.27,6.8-22.26a4.35,4.35,0,0,0-.48-1.94,1.17,1.17,0,0,0-2.18.66c.7,5.91-1.67,11.24-4.28,16.44-1.56-.56-2.74-1.94-4-3-2.44-1.84-2.16-4.79-2.46-7.66a17.74,17.74,0,0,0-.46-3.64,68.31,68.31,0,0,0,12.61-5.56,40.88,40.88,0,0,0,7.64-5.34"/><path id="path348" class="cls-89" d="M138,207.15a62.87,62.87,0,0,0-25.9,15.65l.18-.6h0c.13-.23.24-.48.36-.67a63.32,63.32,0,0,1,9.89-14.16,71.9,71.9,0,0,0,7-7.32,3.58,3.58,0,0,0,.44.31,100.58,100.58,0,0,1,8,6.8"/><path id="path350" class="cls-89" d="M57.16,218.05a29.34,29.34,0,0,0-5-2.73,40.62,40.62,0,0,0-25.62-2.16,85.58,85.58,0,0,1,11-10.63c3.67,3.27,8.14,5.54,12,8.48a58.45,58.45,0,0,1,7.62,7"/></g></g></svg>