<svg xmlns="http://www.w3.org/2000/svg" viewBox="0 0 183.36 273.94"><defs><style>.cls-51{fill:#f78c74;}.cls-52{fill:#ffc3a1;}.cls-53{fill:#775f5f;}.cls-54{fill:#8db8db;}.cls-55{fill:#fff;}.cls-56{fill:#440829;}.cls-57{fill:#6297cc;}.cls-58{fill:#564d4e;}</style></defs><g id="Layer_2" data-name="Layer 2"><g id="svg2"><path id="path18" class="cls-51" d="M24.05,120.77l-.27-.26a14.38,14.38,0,0,0,2.92,9.77c.29-3.08,1-6.58-2.65-9.51"/><path id="path20" class="cls-52" d="M72.64,107.09c-.21,1.38.06,2.9-.67,4.15-1,1.62-3,3-4.93,2.25-3.35-1.25-4.09-6.59-2.79-9.56,1.25-3.17,5.78-4.81,8.19-2C73.5,103.43,72.78,105.44,72.64,107.09ZM57.09,86.69c-3-1.24,3.85-7.77,5.36-8.62,2.28-1.64,5.29-3.37,8.11-2.14,2,1,3.12,3.82,1.85,5.8-1.16,1.64-3.2,2.29-5,2.92-2.91,1.06-6.11,1.19-9,2.18a1.17,1.17,0,0,1-1.29-.14Zm26,61.83a58.91,58.91,0,0,0,13.14,0,40,40,0,0,0,11.65-3.77,35.48,35.48,0,0,0,3.49-2c-1.25-.79-2-1.67-.83-2.59,2.1-.65,4,1.53,5.28,3,.21.31.55.5.67.87a.82.82,0,0,1-1,1,5.61,5.61,0,0,0-1.23-.75,1.35,1.35,0,0,1-.45.5c-1.79,1-4,1.85-5.77,2.68a52.78,52.78,0,0,1-20.81,3.67,21.73,21.73,0,0,1-6-.83c-1.54-1.41.28-3,1.86-1.77Zm-.34-19.76c.79-.3,1.6.16,2.39.28a30.8,30.8,0,0,0,9.48.45c2.29-.25,4.16-1.31,6.33-1.59a1.07,1.07,0,0,1,.67,1.64h0a1.7,1.7,0,0,1-.39.37,10.06,10.06,0,0,1-9.1,6.28c-3.83.09-7.08-3-9.24-5.82-.58-.33-.83-1.26-.15-1.61ZM112.24,102c2.4-2.85,6.93-1.21,8.19,2,1.29,3,.56,8.31-2.79,9.56-2,.75-3.93-.63-4.94-2.25-.73-1.25-.46-2.77-.66-4.15-.14-1.65-.87-3.66.2-5.12Zm1.87-26c2.83-1.23,5.84.5,8.11,2.14,1.52.85,8.37,7.38,5.36,8.62a1.17,1.17,0,0,1-1.29.14c-2.89-1-6.1-1.12-9-2.18-1.81-.63-3.85-1.28-5-2.92-1.28-2-.18-4.79,1.84-5.8ZM92.3,180a1.8,1.8,0,0,1,.35.08c.87-.06,1.8-.12,2.49-.1,1,0,2-.07,3-.15l.75-.17c14.86-2.64,28.24-11.77,37.07-23.75,6.1-9.09,8.9-19.74,12.11-30.06.85-2.15,1.2-4.83,2.82-6.53,1.54-.2.68,2.59.61,3.44-1,4.22-2.05,8.53-3.29,12.8a11.7,11.7,0,0,1,4.6-3.15c.95-1.51,1-3.53,1.19-5.29a16.45,16.45,0,0,1,2.81-6.74c.92-1.12,2.58-5.21,4.35-3.94a1,1,0,0,1,.15,1.21c-.09.12-.2.24-.3.35.89,4.4-1.3,8.24-4.17,11.41a.28.28,0,0,0,0,.09,6.91,6.91,0,0,1-3.89,5.61,2.93,2.93,0,0,1-.73.21c-1.47,1-3,2-4.45,3a.78.78,0,0,1-.42.09q-.8,2.49-1.69,4.93c7.51.67,12.77-3.62,16-10.34,5.8-10.28,7.21-34.53-8.79-16.77-1.68,2-3.06.66-1.86-1.42,0-.1.1-.18.15-.28a1.38,1.38,0,0,1-.17-.32c-3.14-9.45-4.72-19.5-3.5-29.45-1.66-3.85-3.71-8.16-3.29-12.44a10.05,10.05,0,0,0-2,.64,32.77,32.77,0,0,1-11.89,2.07c-2.63-.26-11.07.22-10.65-3.73.65-1.46,2.52-1.85,3.74-2.73a56.82,56.82,0,0,0,9.54-7A48.94,48.94,0,0,1,119.38,66c-1.8.16-3.9,1.09-5.58.14a1.48,1.48,0,0,1-.09-2.17c1.89-1.47,4-2.58,5.79-4.09a25.71,25.71,0,0,0,3.15-2.58,45.91,45.91,0,0,1-11.56,2.58c-2.84,1.44-5,3.95-8.09,5.1-5.29,2.26-11.18,2.56-16.87,2.44-1.28,0-2.74-.75-2.63-2.2.25-2.1,2.48-3.24,3.86-4.62.92-.78,1.79-1.62,2.64-2.47a92.2,92.2,0,0,1-11.49,2.13C73.37,65.87,68.09,71.67,61.06,75c-4.2,2.08-8.8,3.18-13.25,4.58-1.43.57-3.53-.14-3.14-2S46,74.4,46.6,72.74a59.8,59.8,0,0,1-9.91,8.47c-.25.16-.53.39-.83.62,0,.17.06.35.09.51a66.51,66.51,0,0,1,.55,14.1c-.28,5.42-1.47,10.73-2.39,16.07-.41,1.18-.07,3.59-1.16,4.34.35,1.12.18,2-.85,2.28-1.15.08-1.77-1.21-2.31-2-9.6-14-14.44-3.92-10.68,8,2.35,9.24,8.63,21.91,19.82,19.78-.75-1.91-1.46-3.83-2.16-5.76-1.69-.28-3-1.37-4.53-2.16l-.1-.07a5.27,5.27,0,0,1-1.57-.15c-3.4-1.12-4-3-3.95-5.26a17.18,17.18,0,0,1-3.5-11.64c-.13-.13-.27-.25-.4-.39A1,1,0,0,1,24,117.91c3.73,2.52,7.62,7.3,4.69,11.8-1.17,2.77,1.63,4.74,4.1,5l.09,0a5.82,5.82,0,0,1,2.72,1.18c-1.6-4.67-3.54-9.41-3.8-14.35a1.08,1.08,0,0,1,1.41-1c1.82,1.35,1.93,4.4,2.79,6.41,4.46,13.26,8.39,28,19.26,37.55a70,70,0,0,0,21,12.22,62.67,62.67,0,0,0,16,3.27"/><path id="path22" class="cls-51" d="M160.27,118.85a22.72,22.72,0,0,0-3.19,4.3,6.5,6.5,0,0,0-.76,3.08,12.54,12.54,0,0,0,.39,1.82c2-2.76,4-5.79,3.56-9.2"/><path id="path24" class="cls-52" d="M67.69,209.43c2.3,1.42,4.18,3.64,6.76,4.6,13.86,6.31,30.85,3.77,42.89-5.25-.35-4.14-.75-8.29-1.18-12.49a48.44,48.44,0,0,1-.24-5.52,5.11,5.11,0,0,1,.07-.93c-1.35-.9-.37-3.52-.35-4.91.28-1.55.6-3.11,1-4.65-8.21,7.82-18.38,14.33-30.11,13.46-5.51-.27-10.3-3.36-14.09-7.18a39.34,39.34,0,0,1-4.15-4c.08.62.16,1.25.22,1.87-.06,1.23.67,4.22-.22,5.35.23,4.89-.22,9.82-.39,14.72l-.21,4.94"/><path id="path26" class="cls-51" d="M91.91,135c3.15.06,5.89-2.1,7.65-4.5a24.76,24.76,0,0,1-13.77.87c1.51,1.9,3.63,3.55,6.12,3.63"/><path id="path28" class="cls-53" d="M69.32,78.2c-4-.76-8.24,3.54-10.47,6.42,2.12-.69,15.54-2.85,10.47-6.42"/><path id="path30" class="cls-53" d="M125.82,84.62c-2.22-2.88-6.5-7.18-10.47-6.42-5.06,3.57,8.36,5.73,10.47,6.42"/><path id="path32" class="cls-53" d="M165.66,82.23c-.78,3.66-1.54,7.34-2.38,11-.92,4.07-1.92,8.14-3.11,12.15a6.88,6.88,0,0,0-.48,2.18c-.45.1-.93.23-1.41.38A17.23,17.23,0,0,0,153,112c-.85-3.07-1.71-6.14-2.35-9.26a50.58,50.58,0,0,1-.38-18.84c-1.32-4.08-3.86-8-3.49-12.42,0-.64.07-1.55-.58-1.89-1.19-1.09-3.86.85-5.41,1.08a34.2,34.2,0,0,1-17.9,1c5.29-2.7,10.84-5.7,14.36-10.63.84-1.25-.29-3.07-1.76-2.29-1.61,1.92-4.1,2.63-6.38,3.57a35.34,35.34,0,0,1-11.3,2,39.33,39.33,0,0,0,7.4-5.7,29,29,0,0,0,4.23-5.35c1.57-1.39,2.75-3,1.23-3.71a1.35,1.35,0,0,0-.74.2,35.18,35.18,0,0,1-5.6,3.81c-4,2-8.71,2.41-13,3.58C104.63,62.4,96,64.46,87.58,64.29a72.12,72.12,0,0,0,7.34-7.39,1.08,1.08,0,0,0,.2-.4c.2-.2.41-.42.59-.64a20.61,20.61,0,0,0,4-2.72,10.89,10.89,0,0,0,2.32-2.7.48.48,0,0,0-.07-.58.44.44,0,0,0-.56-.06c-2.35,1.11-4.56,2.55-7,3.54-4.85,1.94-10,2.69-15.12,3.8A2.67,2.67,0,0,0,77,58.8c-7,9.54-18.42,14.79-29.6,18,1.23-3.46,2.78-6.8,4-10.26.27-.72.76-1.58.2-2.3-.72-.92-1.92-.31-2.39.54a49.17,49.17,0,0,1-4,5.17,67.57,67.57,0,0,1-8.76,8.28c-.53.59-1.7,1.13-2.51,1.8a1.67,1.67,0,0,0-.92,1.7,75.45,75.45,0,0,1-.58,26.21c-.28,2-.71,4-1.09,6.06a25.81,25.81,0,0,0-5.06-5.15,9.18,9.18,0,0,0-1.37-.87,12.55,12.55,0,0,1-.82-1.94c-1-3.26-1.85-6.79-2.56-10.16s-1.13-7-1.63-10.55c-.31-2.45-2.14-3.33-4.1-1.75.6-4,1-8,1.72-12a111.75,111.75,0,0,1,9.37-21.22c10.54-17.89,26.3-34.86,47.53-38.87a61.86,61.86,0,0,1,21.24-.72,1.39,1.39,0,0,0,1,.12c1.32.19,2.68.71,3.91.13,1.7-1.92-1-2.85-4.39-3.33C94.66,6.29,93.08,5,91.67,3.46c15.88,2.64,32.74,8.14,44.1,20.15a57.43,57.43,0,0,1,9.08,14.13c.32.79.79,1.81,1.74,1.88a2.45,2.45,0,0,0,.39,0c.49.25,1,.42,1.53.66,17.18,6.66,21,25.61,17.15,42"/><path id="path34" class="cls-51" d="M118,176.05a48.05,48.05,0,0,1-16.77,6.41,32.28,32.28,0,0,1-8.45.66,1.64,1.64,0,0,1-1,.16,69.67,69.67,0,0,1-25-7.11l.24.7a6.25,6.25,0,0,1,.58.87c2.72,3.64,4.34,8.21,8.18,10.87,12.91,9.69,28.64.93,38.76-8.62,1.07-1,2.08-2,3.09-3l.36-.94"/><path id="path36" class="cls-54" d="M141.94,250.8c1.34-2.73,2.66-5.8,2.07-8.89-3.24-10-9.54-18.78-15.64-27.13-2.15-2.78-4-5.78-6.08-8.55-.84-2.85,8.45,6.47,8.67,7.17,2.74,3.54,5.38,7.2,7.8,11,.25-.22.49-.44.68-.64a41,41,0,0,0,6.45-8.53c2.07-3.35-.6-7-2.45-9.63a113.9,113.9,0,0,0-13-15.19c-3.35-3.48-7.2-6.39-10.75-9.64-.42,1.48-.79,3-1.07,4.39-.38,1-.24,3-.85,4.12,1.1,1.51,1.23,6.14,1.49,7.17,1.36,12.21,1.89,24.39,2.51,36.64q.54,14.08.39,28.2c-.23,1.15.15,6.15-.37,9.13,2.84-.17,5.68-.38,8.52-.65a6.32,6.32,0,0,1,.48-.74c1-1.51,1.88-2.93,2.87-4.44,2.89-4.51,5.82-9,8.3-13.79"/><path id="path38" class="cls-54" d="M180.6,251.24c-.87.63-1.68,1.68-2.49,2.12C167.52,261.69,155,266,142,268.22q-4.22.73-8.47,1.21a5,5,0,0,1,.54-.75c2.86-4.19,5.78-8.38,8.49-12.69,1.85-3.12,3.86-6.63,4.51-10.27a12.11,12.11,0,0,0-.15-5.25,75.57,75.57,0,0,0-4.57-10c-.67-1.24-1.37-2.48-2.1-3.69a60.58,60.58,0,0,0,6.23-6.59c3.43-4.41,4.72-9.25,1.12-14-.87-1.35-1.78-2.65-2.72-3.94a155.29,155.29,0,0,1,15.2,13.92c.36.38.71.77,1,1.15A115,115,0,0,1,175,237.7a83.23,83.23,0,0,1,5.47,13.2,3.4,3.4,0,0,0,.12.34"/><path id="path40" class="cls-55" d="M117.61,212.13a42.88,42.88,0,0,1-6,3.52c-6.2,2.83-12.88,4.95-19.75,5-8.2-.12-16.86-1.93-23.29-7.3a10.36,10.36,0,0,1-1-1c-.6,13.75-1.12,27.51-1,41.28,0,3.91,0,7.83.1,11.74A6.49,6.49,0,0,1,66.6,267c0,.6,0,1.19-.06,1.79a2.29,2.29,0,0,1,0,.78c13.85,1,27.75,1.46,41.61,1.35,3.55-.1,7.16-.22,10.78-.39-.06-.78,0-1.6,0-2.35.18-4,.23-7.91.25-11.86.09-10.9-.1-21.8-.79-32.68-.21-3.91-.48-7.74-.77-11.55"/><path id="path42" class="cls-54" d="M52.61,268.46l-.77-.07c-2.68-.35-5.38-.75-8.07-1.23a106.66,106.66,0,0,1-26.66-7.8c-5.32-2.34-9.9-5.88-14.33-9.61h0a21.78,21.78,0,0,1,.29-2.5c2.1-11.7,10.73-23.18,20.75-33.08a190.54,190.54,0,0,1,17-14.76c-1.43,1.81-2.82,3.67-4.12,5.58-6.12,7.57,1.91,15.86,8.2,20.18-.72,1-1.42,2.08-2.08,3.15a37.5,37.5,0,0,0-4.14,9,.08.08,0,0,0,0,0,25.14,25.14,0,0,0-1.07,7.3c1.48,9.27,8.61,16.92,15,23.79"/><path id="path44" class="cls-54" d="M65.75,197.77a62,62,0,0,1,1-7.81,1.29,1.29,0,0,1-.49-.8,77.2,77.2,0,0,0-1.64-9.77c-1.53,1.21-3.08,2.51-4.47,3.75-7.54,7.05-15,14.58-20.79,23.15-5,5.34.82,11.18,4.9,14.86.52.6,1.57,1.15,2.23,1.81,1.65-2.19,3.38-4.3,5.07-6.32a132.85,132.85,0,0,1,9.19-9.94c.34-.28.65-.73,1.12-.72s.32.59.11.87C59.09,211,56,215.07,53,219.1c-18.8,24.59-14.81,27.25,2.77,49.64,2.63.24,5.27.45,7.9.65a51.12,51.12,0,0,1,0-7.22c0-.55.09-1.11.12-1.66-.18-5.94-.19-11.89-.12-17.84.19-15,.93-30,2.08-44.9"/><path id="path46" class="cls-56" d="M178.1,253.37c-12.85,10.12-28.53,14.24-44.57,16.07a4.14,4.14,0,0,1,.54-.75c2.87-4.2,5.78-8.39,8.48-12.7,2.76-4.58,5.81-10,4.36-15.53a79.94,79.94,0,0,0-6.66-13.67,59.58,59.58,0,0,0,6.23-6.58c3.42-4.41,4.72-9.25,1.12-14-.87-1.35-1.78-2.66-2.72-3.95,5.67,4.75,11.33,9.52,16.25,15.08A116.72,116.72,0,0,1,175,237.69a84.64,84.64,0,0,1,5.46,13.21,1.18,1.18,0,0,0,.12.33,30.21,30.21,0,0,1-2.5,2.14Zm-47.81,16.4c-2.84.27-5.68.48-8.52.65.52-3,.14-8,.37-9.13q.15-14.1-.39-28.2c-.62-12.25-1.15-24.43-2.51-36.64-.26-1-.39-5.66-1.49-7.17.61-1.1.47-3.1.85-4.12.28-1.43.65-2.91,1.07-4.39,3.55,3.25,7.4,6.16,10.75,9.64a113.9,113.9,0,0,1,13,15.19c1.85,2.66,4.52,6.28,2.45,9.63a41,41,0,0,1-6.45,8.53c-.19.2-.43.42-.68.64-2.42-3.8-5.06-7.46-7.8-11-.22-.7-9.51-10-8.67-7.17,2.07,2.77,3.93,5.77,6.08,8.55,6.1,8.35,12.4,17.16,15.64,27.13.59,3.09-.73,6.16-2.07,8.89-2.48,4.76-5.41,9.28-8.3,13.79-1,1.51-1.85,2.93-2.87,4.44a6.32,6.32,0,0,0-.48.74Zm-11.12-13.41c0,3.95-.07,7.91-.25,11.86,0,.75-.08,1.57,0,2.35-3.62.17-7.23.29-10.78.39-13.86.11-27.76-.38-41.61-1.35a2.29,2.29,0,0,0,0-.78c0-.6,0-1.19.06-1.79a6.49,6.49,0,0,0,.06-1.69c-.1-3.91-.1-7.83-.1-11.74-.12-13.77.4-27.53,1-41.28a10.36,10.36,0,0,0,1,1c6.43,5.37,15.09,7.18,23.29,7.3,6.87,0,13.55-2.13,19.75-5a42.88,42.88,0,0,0,6-3.52c.29,3.81.56,7.64.77,11.55.69,10.88.88,21.78.79,32.68Zm-55.38,4.15c0,.55-.07,1.11-.12,1.66a51.12,51.12,0,0,0,0,7.22c-2.63-.2-5.27-.41-7.9-.65C38.18,246.35,34.19,243.69,53,219.1c3-4,6.1-8.09,9-12.25.21-.28.34-.77-.11-.87s-.78.44-1.12.72a132.85,132.85,0,0,0-9.19,9.94c-1.69,2-3.42,4.13-5.07,6.32-.66-.66-1.71-1.21-2.23-1.81-4.08-3.68-9.87-9.52-4.9-14.86,5.75-8.57,13.25-16.1,20.79-23.15,1.39-1.24,2.94-2.54,4.47-3.75a77.2,77.2,0,0,1,1.64,9.77,1.29,1.29,0,0,0,.49.8,62,62,0,0,0-1,7.81c-1.15,14.93-1.89,29.92-2.08,44.9-.07,6-.06,11.9.12,17.84Zm-12,7.88c-11.71-1.53-23.78-4-34.71-9-5.33-2.33-9.92-5.88-14.34-9.61h0a22.21,22.21,0,0,1,.29-2.51c3.26-18.15,22.26-35.8,37.75-47.83-1.44,1.82-2.83,3.67-4.14,5.58-6.11,7.58,1.92,15.86,8.2,20.18-4.11,5.86-7.34,12.32-7.29,19.52,1.49,9.27,8.61,16.91,15,23.78l-.78-.07ZM114.59,180c-10.12,9.55-25.85,18.31-38.76,8.62-3.84-2.66-5.46-7.23-8.18-10.87a6.25,6.25,0,0,0-.58-.87l-.24-.7a69.67,69.67,0,0,0,25,7.11,1.64,1.64,0,0,0,1-.16,32.28,32.28,0,0,0,8.45-.66A48.05,48.05,0,0,0,118,176.05l-.36.94c-1,1-2,2-3.09,3Zm-46.3,9.78c.89-1.13.16-4.12.22-5.35-.06-.62-.14-1.25-.22-1.87a39.34,39.34,0,0,0,4.15,4c3.79,3.82,8.58,6.91,14.09,7.18,11.73.87,21.9-5.64,30.11-13.46-.4,1.54-.72,3.1-1,4.65,0,1.39-1,4,.35,4.91a5.11,5.11,0,0,0-.07.93,48.44,48.44,0,0,0,.24,5.52c.43,4.2.83,8.35,1.18,12.49-12,9-29,11.56-42.89,5.25-2.58-1-4.46-3.18-6.76-4.6l.21-4.94c.17-4.9.62-9.83.39-14.72Zm88-63.54a6.5,6.5,0,0,1,.76-3.08,22.72,22.72,0,0,1,3.19-4.3c.43,3.41-1.54,6.44-3.56,9.2A12.54,12.54,0,0,1,156.32,126.23Zm-129.62,4a14.38,14.38,0,0,1-2.92-9.77l.27.26C27.73,123.7,27,127.2,26.7,130.28Zm28.6,34.27C44.43,155,40.5,140.26,36,127c-.86-2-1-5.06-2.79-6.41a1.08,1.08,0,0,0-1.41,1c.26,4.94,2.2,9.68,3.8,14.35a5.82,5.82,0,0,0-2.72-1.18l-.09,0c-2.47-.26-5.27-2.23-4.1-5,2.93-4.5-1-9.28-4.69-11.8a1,1,0,0,0-1.32,1.56c.13.14.27.26.4.39a17.18,17.18,0,0,0,3.5,11.64c-.05,2.24.55,4.14,3.95,5.26a5.27,5.27,0,0,0,1.57.15l.1.07c1.49.79,2.84,1.88,4.53,2.16.7,1.93,1.41,3.85,2.16,5.76C27.74,147,21.46,134.36,19.11,125.12c-3.76-11.92,1.08-22,10.68-8,.54.8,1.16,2.09,2.31,2,1-.3,1.2-1.16.85-2.28,1.09-.75.75-3.16,1.16-4.34.92-5.34,2.11-10.65,2.39-16.07A66.51,66.51,0,0,0,36,82.34c0-.16-.05-.34-.09-.51.3-.23.58-.46.83-.62a59.8,59.8,0,0,0,9.91-8.47C46,74.4,45.11,76,44.67,77.66s1.71,2.52,3.14,2c4.45-1.4,9-2.5,13.25-4.58,7-3.36,12.31-9.16,17.45-14.81A92.2,92.2,0,0,0,90,58.09c-.85.85-1.72,1.69-2.64,2.47-1.38,1.38-3.61,2.52-3.86,4.62-.11,1.45,1.35,2.24,2.63,2.2,5.69.12,11.58-.18,16.87-2.44,3-1.15,5.25-3.66,8.09-5.1a45.91,45.91,0,0,0,11.56-2.58,25.71,25.71,0,0,1-3.15,2.58c-1.84,1.51-3.9,2.62-5.79,4.09a1.48,1.48,0,0,0,.09,2.17c1.68,1,3.78,0,5.58-.14a48.94,48.94,0,0,0,13.49-4.3,56.82,56.82,0,0,1-9.54,7c-1.22.88-3.09,1.27-3.74,2.73-.42,4,8,3.47,10.65,3.73a32.77,32.77,0,0,0,11.89-2.07,10.05,10.05,0,0,1,2-.64c-.42,4.28,1.63,8.59,3.29,12.44-1.22,10,.36,20,3.5,29.45a1.38,1.38,0,0,0,.17.32c-.05.1-.11.18-.15.28-1.2,2.08.18,3.4,1.86,1.42,16-17.76,14.59,6.49,8.79,16.77-3.23,6.72-8.49,11-16,10.34q.9-2.44,1.69-4.93a.78.78,0,0,0,.42-.09c1.46-1,3-2,4.45-3a2.93,2.93,0,0,0,.73-.21,6.91,6.91,0,0,0,3.89-5.61.28.28,0,0,1,0-.09c2.87-3.17,5.06-7,4.17-11.41.1-.11.21-.23.3-.35a1,1,0,0,0-.15-1.21c-1.77-1.27-3.43,2.82-4.35,3.94a16.45,16.45,0,0,0-2.81,6.74c-.22,1.76-.24,3.78-1.19,5.29a11.7,11.7,0,0,0-4.6,3.15c1.24-4.27,2.29-8.58,3.29-12.8.07-.85.93-3.64-.61-3.44-1.62,1.7-2,4.38-2.82,6.53-3.21,10.32-6,21-12.11,30.06-8.83,12-22.21,21.11-37.07,23.75l-.75.17c-1,.08-2,.14-3,.15-.69,0-1.62,0-2.49.1a1.8,1.8,0,0,0-.35-.08,62.67,62.67,0,0,1-16-3.27,70,70,0,0,1-21-12.22ZM21.53,95.85c-.76-3.47-1.13-7-1.63-10.53-.31-2.46-2.14-3.34-4.11-1.76.61-4,1-8,1.73-12a111.43,111.43,0,0,1,9.36-21.22C37.43,32.45,53.19,15.49,74.42,11.47a61.81,61.81,0,0,1,21.23-.72,1.37,1.37,0,0,0,1,.11c1.31.2,2.68.72,3.91.14,1.69-1.92-1-2.86-4.38-3.33C94.66,6.3,93.08,5,91.68,3.47c15.87,2.63,32.74,8.13,44.09,20.13a57.39,57.39,0,0,1,9.09,14.15c.32.78.77,1.79,1.73,1.87a2.23,2.23,0,0,0,.39,0c.49.25,1,.42,1.54.66,17.17,6.65,21,25.61,17.14,42-1.66,7.76-3.23,15.54-5.49,23.15a6.94,6.94,0,0,0-.48,2.18q-.67.15-1.41.39A16.9,16.9,0,0,0,153,112c-.85-3.07-1.71-6.14-2.34-9.26a50.37,50.37,0,0,1-.39-18.84c-1.32-4.08-3.85-8-3.48-12.42,0-.64.06-1.54-.59-1.89-1.2-1.09-3.86.84-5.41,1.08a34.3,34.3,0,0,1-17.9,1C128.13,69,133.68,66,137.21,61.08c.83-1.24-.3-3.06-1.77-2.29-1.61,1.91-4.1,2.63-6.38,3.56a35.37,35.37,0,0,1-11.31,2,39.13,39.13,0,0,0,7.41-5.71,29.56,29.56,0,0,0,4.23-5.34c1.57-1.41,2.74-3,1.23-3.72a1.26,1.26,0,0,0-.73.2,34.56,34.56,0,0,1-5.61,3.8c-4,2-8.71,2.42-13,3.59C104.63,62.4,96,64.46,87.59,64.29a75.09,75.09,0,0,0,7.33-7.38,1.25,1.25,0,0,0,.2-.4c.21-.21.4-.43.59-.65a20.22,20.22,0,0,0,4-2.73A10.46,10.46,0,0,0,102,50.44a.46.46,0,0,0,0-.58.47.47,0,0,0-.57-.06c-2.35,1.11-4.56,2.55-7,3.54-4.85,1.94-10,2.68-15.12,3.79A2.7,2.7,0,0,0,77,58.8c-7,9.55-18.42,14.79-29.6,18,1.23-3.45,2.77-6.79,4-10.24.27-.73.75-1.6.2-2.31-.72-.93-1.92-.31-2.39.54a50.23,50.23,0,0,1-4,5.17,67.6,67.6,0,0,1-8.76,8.28A28.54,28.54,0,0,1,33.92,80,1.69,1.69,0,0,0,33,81.72a75.89,75.89,0,0,1-.57,26.2c-.29,2-.71,4-1.1,6a23.17,23.17,0,0,0-6.42-6,11.91,11.91,0,0,1-.84-1.93c-1-3.26-1.83-6.8-2.55-10.17ZM178.9,238.42c-9.06-18.86-23.87-32.51-40.27-45a9.45,9.45,0,0,0-2.66-1.69q-1.92-2-3.9-3.88a93.79,93.79,0,0,0-10.95-9.13,3.85,3.85,0,0,0-.66-.47c.42-1.2.87-2.38,1.39-3.5a19.1,19.1,0,0,1,.87-1.76,78,78,0,0,0,12.15-10.66A56.91,56.91,0,0,0,144.63,146c1.41.2,3,.16,3.83.3,6.65.29,12-4.46,14.88-10.12,4.06-6.4,9.66-28.12-.76-28.84.24-.71.38-1.52.6-2.1q1.74-6.17,3.21-12.39c1.48-6.63,3.29-13.27,3.53-20.09.58-15-5.84-30.71-21.16-35.47a2.41,2.41,0,0,0-.87-.18C146.62,31.9,137.66,20.56,136,19.29a43.17,43.17,0,0,0-6.41-5.09A91.67,91.67,0,0,0,107.44,3.76,108.67,108.67,0,0,0,95.52.92c-2.37-.31-5-1.53-7.35-.54-2.64,1.83,2.62,5.07,4.21,7-2.4-.14-4.56-.14-5.29-.18-17-.19-33.4,7-45.43,18.88C31.31,36.65,22.33,49.28,17.36,63.34c-1.13,5-2.7,10-3.65,15-.56,3-2,8.75,3.13,7.08.83,7.37,1.95,15.07,5.37,21.72a6.39,6.39,0,0,0-6.81,5.31c-1.69,7.9,1.49,16,4.45,23.24,2.61,5.71,7.49,11,13.88,12.25a7.77,7.77,0,0,0,3.46-.1h-.1a20.28,20.28,0,0,0,2.73-.8,65.41,65.41,0,0,0,5.84,11.27,55.68,55.68,0,0,0,17,15.49,26.27,26.27,0,0,1,1.22,3l-.4.26a54.76,54.76,0,0,0-4.67,3.65,161.48,161.48,0,0,0-12.7,12.4l-.11.06c-16.66,9.45-35.93,27.88-43.61,45.55a42.67,42.67,0,0,0-2.08,7.26c-.31,1.42-.58,3,.37,4.28a1,1,0,0,0,.3.27,5.62,5.62,0,0,0,1.5,2.18c22.73,21.49,67.33,19.79,97.06,21.14,27.34-.1,62.77-.61,83.39-21a1.45,1.45,0,0,0,.24-1.28c1.28-2.28-3.62-11.67-4.25-13.26"/><path id="path48" class="cls-56" d="M64.25,103.93c-1.3,3-.56,8.31,2.79,9.56,2,.75,3.92-.63,4.93-2.25.73-1.25.46-2.77.67-4.15.14-1.65.86-3.66-.2-5.12-2.41-2.85-6.94-1.21-8.19,2"/><path id="path50" class="cls-56" d="M69.32,78.2c5.07,3.57-8.35,5.73-10.47,6.42C61.08,81.74,65.36,77.44,69.32,78.2Zm3.09,3.53c1.27-2,.17-4.79-1.85-5.8-2.82-1.23-5.83.5-8.11,2.14-1.51.85-8.37,7.38-5.36,8.62a1.17,1.17,0,0,0,1.29.14c2.9-1,6.1-1.12,9-2.18,1.82-.63,3.86-1.28,5-2.92"/><path id="path52" class="cls-56" d="M112.7,111.24c1,1.62,3,3,4.94,2.25,3.35-1.25,4.08-6.59,2.79-9.56-1.26-3.17-5.79-4.81-8.19-2-1.07,1.46-.34,3.47-.2,5.12.2,1.38-.07,2.9.66,4.15"/><path id="path54" class="cls-56" d="M115.35,78.2c4-.76,8.25,3.54,10.47,6.42C123.71,83.93,110.29,81.77,115.35,78.2Zm1.93,6.45c2.91,1.06,6.12,1.19,9,2.18a1.17,1.17,0,0,0,1.29-.14c3-1.24-3.84-7.77-5.36-8.62-2.27-1.64-5.28-3.37-8.11-2.14-2,1-3.12,3.82-1.84,5.8,1.16,1.64,3.2,2.29,5,2.92"/><path id="path56" class="cls-56" d="M99.56,130.54c-1.76,2.4-4.5,4.56-7.65,4.5-2.49-.08-4.61-1.73-6.12-3.63A24.76,24.76,0,0,0,99.56,130.54Zm-16.66-.17c2.16,2.84,5.41,5.91,9.24,5.82a10.06,10.06,0,0,0,9.1-6.28,1.7,1.7,0,0,0,.39-.37h0a1.07,1.07,0,0,0-.67-1.64c-2.17.28-4,1.34-6.33,1.59a30.8,30.8,0,0,1-9.48-.45c-.79-.12-1.6-.58-2.39-.28s-.43,1.28.15,1.61"/><path id="path58" class="cls-56" d="M87.2,151.12A52.78,52.78,0,0,0,108,147.45c1.78-.83,4-1.69,5.77-2.68a1.35,1.35,0,0,0,.45-.5,5.61,5.61,0,0,1,1.23.75.82.82,0,0,0,1-1c-.12-.37-.46-.56-.67-.87-1.23-1.42-3.18-3.6-5.28-3-1.18.92-.42,1.8.83,2.59a35.48,35.48,0,0,1-3.49,2,40,40,0,0,1-11.65,3.77,58.91,58.91,0,0,1-13.14,0c-1.58-1.19-3.4.36-1.86,1.77a21.73,21.73,0,0,0,6,.83"/><path id="path60" class="cls-57" d="M42.81,228.31c-2.19-2.29-6.49-6.84-10.13-11.4-2.13-2.66-5.56-3.12-8.86-2.75a190.54,190.54,0,0,1,17-14.76c-1.43,1.81-2.82,3.67-4.12,5.58-6.12,7.57,1.91,15.86,8.2,20.18-.72,1-1.42,2.08-2.08,3.15"/><path id="path62" class="cls-57" d="M52.61,268.46l-.77-.07c-2.68-.35-5.38-.75-8.07-1.23a103.49,103.49,0,0,1-5.94-15.44,21.11,21.11,0,0,1,.83-14.35,25.14,25.14,0,0,0-1.07,7.3c1.48,9.27,8.61,16.92,15,23.79"/><path id="path64" class="cls-57" d="M147.07,245.72a19.9,19.9,0,0,1-.92,9.87c-.91,2.31-2.5,7.24-4.15,12.63q-4.22.73-8.47,1.21a5,5,0,0,1,.54-.75c2.86-4.19,5.78-8.38,8.49-12.69,1.85-3.12,3.86-6.63,4.51-10.27"/><path id="path66" class="cls-57" d="M160.08,216.18c-2.64.51-5.65,1.48-7.48,3.31-2.14,2.14-6.65,7-10.25,11-.67-1.24-1.37-2.48-2.1-3.69a60.58,60.58,0,0,0,6.23-6.59c3.43-4.41,4.72-9.25,1.12-14-.87-1.35-1.78-2.65-2.72-3.94a155.29,155.29,0,0,1,15.2,13.92"/><path id="path68" class="cls-58" d="M163.47,83.87c0,3.12-.09,6.24-.19,9.36-.92,4.07-1.92,8.14-3.11,12.15a6.88,6.88,0,0,0-.48,2.18c-.45.1-.93.23-1.41.38A17.23,17.23,0,0,0,153,112c-.85-3.07-1.71-6.14-2.35-9.26a50.58,50.58,0,0,1-.38-18.84c-1.32-4.08-3.86-8-3.49-12.42,0-.64.07-1.55-.58-1.89-1.19-1.09-3.86.85-5.41,1.08a34.2,34.2,0,0,1-17.9,1c5.29-2.7,10.84-5.7,14.36-10.63.84-1.25-.29-3.07-1.76-2.29-1.61,1.92-4.1,2.63-6.38,3.57a35.34,35.34,0,0,1-11.3,2,39.33,39.33,0,0,0,7.4-5.7,29,29,0,0,0,4.23-5.35c1.57-1.39,2.75-3,1.23-3.71a1.35,1.35,0,0,0-.74.2,35.18,35.18,0,0,1-5.6,3.81c-4,2-8.71,2.41-13,3.58C104.63,62.4,96,64.46,87.58,64.29a72.12,72.12,0,0,0,7.34-7.39,1.08,1.08,0,0,0,.2-.4c.2-.2.41-.42.59-.64a20.61,20.61,0,0,0,4-2.72,10.89,10.89,0,0,0,2.32-2.7.48.48,0,0,0-.07-.58.44.44,0,0,0-.56-.06c-2.35,1.11-4.56,2.55-7,3.54-4.85,1.94-10,2.69-15.12,3.8A2.67,2.67,0,0,0,77,58.8c-7,9.54-18.42,14.79-29.6,18,1.23-3.46,2.78-6.8,4-10.26.27-.72.76-1.58.2-2.3-.72-.92-1.92-.31-2.39.54a49.17,49.17,0,0,1-4,5.17,67.57,67.57,0,0,1-8.76,8.28c-.53.59-1.7,1.13-2.51,1.8a1.67,1.67,0,0,0-.92,1.7,75.45,75.45,0,0,1-.58,26.21c-.28,2-.71,4-1.09,6.06a25.81,25.81,0,0,0-5.06-5.15,85.61,85.61,0,0,1-1.54-15.29c.06-8.24,2-16.71,7.06-23.25a38.32,38.32,0,0,0-8.52,8.86c-.38-5.46,1.79-10.74,4.15-15.67C36.2,45.19,49.7,27.5,69.1,21.6c13-3.94,26.9-2.13,40.33-.29l-6.59-8c7.63,2.46,15.36,5,22.1,9.3s12.5,10.78,14.25,18.61c-.85,0,.07.37-.79.37a49.58,49.58,0,0,1,18.42,16.17A36.78,36.78,0,0,1,162,68.41c1.43,5,1.52,10.26,1.48,15.46"/></g></g></svg>