<svg xmlns="http://www.w3.org/2000/svg" viewBox="0 0 187.97 281.05"><defs><style>.cls-31{fill:#fc9595;}.cls-32{fill:#b75f41;}.cls-33{fill:#ffdecc;}.cls-34{fill:#d8855b;}.cls-35{fill:#fff;}.cls-36{fill:#a3ce76;}.cls-37{fill:#26073d;}.cls-38{fill:#d7f4ec;}.cls-39{fill:#79af5d;}</style></defs><g id="Layer_2" data-name="Layer 2"><g id="svg2"><path id="path214" class="cls-31" d="M35.75,127.22a31.93,31.93,0,0,0-4.64-7.54,3.2,3.2,0,0,0,0,.9c.21,5,2.18,10.44,6.29,13.31A9.1,9.1,0,0,1,37,133c-.77-1.82-.67-3.87-1.2-5.74"/><path id="path216" class="cls-32" d="M66.2,83.68c-3.34,1-5.68,4.3-6.3,7.58,4-3.57,9.54-4.49,14.68-5.2-.79-3.37-5.76-3-8.38-2.38"/><path id="path218" class="cls-31" d="M93.48,139.45a7.39,7.39,0,0,0,1.56.05c2.4-.26,5.11-1.88,5.44-4.44a15.53,15.53,0,0,1-11.78.67c1.13,1.69,2.7,3.33,4.78,3.72"/><path id="path220" class="cls-32" d="M124.2,83.68c-2.61-.59-7.58-1-8.36,2.38,5.12.72,10.7,1.63,14.67,5.2-.64-3.28-3-6.57-6.31-7.58"/><path id="path222" class="cls-31" d="M152,129.44c-.33,3.84-2.74,7-5.62,9.36,7.64-3.42,10.54-12.2,11.94-19.84-2.25,3.4-5.84,6.28-6.32,10.48"/><path id="path224" class="cls-33" d="M40.48,137.29a2.14,2.14,0,0,1-1-.39c-6.89-4.05-9-10.66-9.47-18.25a.85.85,0,0,1,0-.23c-.92-1.06-1.88-2.1-2.86-3.13-.88-1.85,3.14.39,3.61.83,2.53,2.08,5.05,4.58,6.28,7.69a10,10,0,0,1,.15,3.65c.08,4.56,3.56,7.58,7.25,9.6-1.48-4.14-3-8.48-4.61-13-.51-1.81-2.19-5.6-3.16-8.93-3.12-4.07-8.6-6.4-11.44-.43-1,3.14.1,6.39,1,9.38,3.18,9,9.11,20.81,20.26,19.65l.36-.09c-.52-1.36-1-2.75-1.54-4.15a14.71,14.71,0,0,1-4.88-2.24"/><path id="path226" class="cls-33" d="M153,113.56c-2.32,6.94-5,13.86-7.71,20.61-.45,1-.83,2.09-1.23,3.16-.08.27-.17.52-.26.79a30.57,30.57,0,0,0,3.14-2.75,11.48,11.48,0,0,0,3.46-8.33,4.76,4.76,0,0,1,1.09-4c2.75-3.42,5.52-7.6,9.73-9.19,2,.52-1.49,2.87-1.88,3.8-1.21,9.56-5.28,20.95-15.76,23.33a1.46,1.46,0,0,1-.82.27q-.53,1.56-1.08,3.12c11.84-.29,18.41-13.27,21-23.4,2.13-7.32-2.12-14.65-9.19-7.79a3.1,3.1,0,0,1-.5.38"/><path id="path228" class="cls-34" d="M161.24,45.29a33.68,33.68,0,0,1,3.46,9.91c.32,4.78-.82,9.61-1.38,14.38-1.17,8-2.33,15.92-4.06,23.86-1,4.85-2.2,9.69-3.7,14.42a8.47,8.47,0,0,0-1,.54c.08-.78-.09-1.44-1.07-1.19a4.12,4.12,0,0,0-.33.4,22.08,22.08,0,0,0-1.08-5.36c-1.52-4.68-4.4-9-7.47-12.79a32.4,32.4,0,0,1-2.94-4,13.27,13.27,0,0,1,1-2.8c5.3-11.33,5-25.8-3.8-35.32-.16-.15-.3-.32-.46-.49l1.77-.46a29.85,29.85,0,0,1,6.92-.54.34.34,0,0,0,.09-.67,31.7,31.7,0,0,0-11.84-.48c-.92-.55-2.2.21-3.28.67A30.64,30.64,0,0,0,127.35,47c-9.79,3-22.67,4.28-35.55,4.07-1.64-.45-3.28-.95-4.89-1.43-9.37-3.68-19.67-12.17-17.36-23.4A2.43,2.43,0,0,1,69.7,26a.34.34,0,0,0-.58-.34,12.78,12.78,0,0,0-1.9,5.72C66.8,40.81,75,47.3,83.5,50.7,73.38,50,63.68,48.38,56,45.85c-4.62-3.19-6.16-8-4.36-17.44v0q.45-2.29,1.16-5a6.69,6.69,0,0,1,.41-1.49.33.33,0,0,0-.61-.27,1.61,1.61,0,0,1-.23.43c-3.27,4.48-5.27,11.13-4.15,16.87a13.71,13.71,0,0,0,2,5,4.86,4.86,0,0,0-1.82,1.61A30.15,30.15,0,0,0,44.11,53c-4.68,10.32-4,21.24,1.21,31.21-5.37,7.52-11,16.6-9.42,25.9a6.3,6.3,0,0,0-.6-.48,9.4,9.4,0,0,0-2.36-1.27c-.19-.07-.38-.12-.56-.17a80.87,80.87,0,0,1-3.64-8.26C24.83,87.62,20.55,75,20.64,62,20.87,53.12,31,45,38,40.66c1.21-.86,2.84-1.29,3.8-2.46a.86.86,0,0,0-.15-1.11,5.67,5.67,0,0,0,1-2.13c.75-2.44,1.48-4.88,2.4-7.26C48,19.81,52.86,12.13,60.58,8.08c18.13-8.8,48.06-4.46,66,3.7a79.52,79.52,0,0,1,16.63,10.94c6.93,6.21,13.88,13.41,23.4,15.45-.51,1.65-2,2.71-3.48,3.63a3.93,3.93,0,0,0-1.6,1.14c-.59.34-.86,1.16-.26,2.35"/><path id="path230" class="cls-35" d="M32.44,269.32c-2.89-1.07-5.74-2.24-8.54-3.54a103.53,103.53,0,0,1-11.26-6.06,109.59,109.59,0,0,1-10-6.75,12.05,12.05,0,0,0,.72-1.6,149.19,149.19,0,0,1,6.06-14.12,99.52,99.52,0,0,1,8-12.11,30,30,0,0,1,2.4,3.56,108,108,0,0,1,5.36,12.1,149.91,149.91,0,0,1,7.26,28.52"/><path id="path232" class="cls-31" d="M101.48,186.44c6-2,10.54-6.36,14.87-10.71a49.35,49.35,0,0,1-21.11,4.91,1.79,1.79,0,0,1-.86.14c-8.83-.42-15.86-2-21.6-4.5.36.5.66,1.05,1,1.46,5.72,9.55,17.64,12.34,27.73,8.7"/><path id="path234" class="cls-36" d="M167.08,223.52a48,48,0,0,0-5,8.86c-.49,1.06-1,2.11-1.43,3.18a75.9,75.9,0,0,0-6,31.7c-3.08,1-6.18,1.94-9.3,2.79-1.47.41-3,.8-4.43,1.17a200.94,200.94,0,0,1-68.11,6,144.71,144.71,0,0,1-31.49-5c-2.32-.65-4.61-1.37-6.89-2.16a133.73,133.73,0,0,0-3.32-18.6A97.87,97.87,0,0,0,27.4,239.6a123,123,0,0,0-5-11.54c-.82-1.22-1.66-3.89-2.92-5.46,10.62-13.07,24.3-23.71,39-31.92a28.14,28.14,0,0,0,1.48,8c4.41,13.77,18.29,22.2,32.36,22.65,13.4.52,29.08-5.47,34-18.89.53-1.48,3.13-7.86,3.65-12,14.19,8,26.95,19.66,37.09,33.14"/><path id="path236" class="cls-33" d="M116.86,177.93a7,7,0,0,0-.7.79c-6.25,7.17-15.5,11.42-25.09,10.41-6.83-.65-14-4.65-18.81-9.8a66.91,66.91,0,0,1-.15,15.56c4.75,8.43,15,13.08,24.52,12.83,7.36-.55,13.76-5.06,18.77-10.16.15-.16.27-.32.4-.48,0-.39,0-.8,0-1.19.16-3.52.1-7,.36-10.56.21-2.45.34-5,.72-7.4"/><path id="path238" class="cls-35" d="M184.56,255a1.48,1.48,0,0,0-.58.16,100.92,100.92,0,0,1-10.35,4.91c-3.71,1.63-7.45,3.13-11.25,4.52-1.88.71-3.76,1.36-5.66,2,.18-2.61.32-5.21.62-7.81a83.88,83.88,0,0,1,5.93-22.56,105.32,105.32,0,0,1,5.17-10.83A127.69,127.69,0,0,1,184.56,255"/><path id="path240" class="cls-35" d="M62.75,197.76c5,14,20.43,21.69,34.77,20.14,11.7-.93,23.64-7.65,27.38-19.3a79.23,79.23,0,0,0,2.32-9.59.49.49,0,0,1,0-.12l-1.69-.87c-1.86-.9-3.75-1.74-5.62-2.62l-.68-.34c-.25,2.87-.52,5.74-.72,8.6a1.84,1.84,0,0,1,.14-.14c2.92-1.11-.43,5.53-1.26,6.25-5.58,6.68-14.32,11.63-23.21,11.23-9.69-.72-20.15-5.54-24.55-14.62-.64-1.53-1.66-3.4-1-5a.79.79,0,0,1,1-.39c0-.48-.06-.94-.11-1.37-.09-1.37-.13-2.76-.16-4.15a24.57,24.57,0,0,0-3.72,1.46c-1.61.8-3.23,1.64-4.83,2.49a.37.37,0,0,1,0,.15,36.51,36.51,0,0,0,1.84,8.24"/><path id="path242" class="cls-33" d="M89.42,154.77a14,14,0,0,1-5-1.16,1.08,1.08,0,0,1-1.79-.27c-.77-1.44,2-3.29,2.51-1.6.44.06.88.16,1.28.23a31.34,31.34,0,0,0,8.54.39,32,32,0,0,0,10.68-2.78c.06,0,.14-.06.2-.1a1.55,1.55,0,0,1-.29-1c.23-1,1.53-.4,2,.19s1.86,2.67.22,2.65a.54.54,0,0,1-.22-.09c-.75,1-3,1.31-3.91,1.85-4.45,1.84-9.41,1.83-14.17,1.71ZM75,89A39.45,39.45,0,0,0,62.32,92.3c-1,.34-2,1.22-3.12,1-4.6-.13.32-8.28,2.12-9.72A13,13,0,0,1,73,80.6a6.21,6.21,0,0,1,4.58,3.86c.62,1.87-.44,4.39-2.59,4.56Zm-5.19,27.26c-6.25-1.64-2.5-12.28,3.38-10.66C79.35,108.26,76.64,117.5,69.76,116.28Zm22.15,18.14a12.51,12.51,0,0,0,4,0c1.65,0,5.83-3.1,6.31-.69,0,4.77-5.38,8.32-9.82,6.53a9.93,9.93,0,0,1-5.64-5.84c-1-2.65,4.12,0,5.19,0Zm21-50a6.27,6.27,0,0,1,4.57-3.87,13,13,0,0,1,11.64,3c1.8,1.44,6.72,9.58,2.12,9.72-1.08.22-2.12-.66-3.12-1A39.2,39.2,0,0,0,115.46,89c-2.15-.16-3.22-2.68-2.59-4.56Zm7.77,31.83c-6.88,1.22-9.58-8-3.37-10.66C123.15,104,126.9,114.65,120.64,116.28ZM95,177.48l1.38,0a49.76,49.76,0,0,0,23.4-7.3,43.26,43.26,0,0,0,11.62-10.93c4.88-7.81,7.92-16.4,11.66-24.76,2.33-7.53,4.8-15,7.78-22.32a30.85,30.85,0,0,0-.09-3.55c-.87-8.08-6-14.42-10.88-20.53a4.16,4.16,0,0,1-.48-4.88c.79-1.83,1.44-3.87,2-5.72,3.6-10.12,1.48-22.17-6.15-29.84h-.05l0,0a54.55,54.55,0,0,1-6.86,2.48c-11.48,3.48-23.65,4.12-35.58,4.08-6.3-.33-12.7-.64-19-1.37h-.05l-.11,0a86,86,0,0,1-20.26-4.57,12.27,12.27,0,0,1-2.46-1.4A45.13,45.13,0,0,0,48.07,52a32.49,32.49,0,0,0-.21,30.16c1,1.53.24,3.21-.83,4.48-4.69,6-8.37,13.17-8.61,20.92a30.09,30.09,0,0,0,.13,3.92c1.81,3.41,3.57,10.3,4.4,11.74,10.91,29,14.67,53.07,51.69,54.24a1.53,1.53,0,0,1,.4.06"/><path id="path244" class="cls-37" d="M184,255.14a102.09,102.09,0,0,1-10.36,4.91c-5.53,2.44-11.17,4.59-16.91,6.51.19-2.6.32-5.22.62-7.82,1.3-11.73,5.42-23,11.12-33.38A128.27,128.27,0,0,1,184.58,255a1.42,1.42,0,0,0-.59.17Zm-43.12,16.08a200.93,200.93,0,0,1-68.11,5.95A138.67,138.67,0,0,1,34.38,270a133.47,133.47,0,0,0-3.32-18.6,112,112,0,0,0-8.68-23.36c-.82-1.22-1.66-3.89-2.92-5.46,10.62-13.07,24.3-23.71,39.05-31.92a27.58,27.58,0,0,0,1.48,8c4.43,13.77,18.29,22.2,32.36,22.65,13.4.52,29.09-5.47,34-18.89.53-1.5,3.13-7.87,3.65-12,14.2,7.95,27,19.65,37.1,33.13a47.54,47.54,0,0,0-5,8.87,76.06,76.06,0,0,0-7.46,34.88c-4.55,1.47-9.12,2.8-13.75,4ZM12.64,259.7a113.64,113.64,0,0,1-10-6.73,12.05,12.05,0,0,0,.72-1.6,144.18,144.18,0,0,1,6.06-14.12,99.52,99.52,0,0,1,8-12.11,27.24,27.24,0,0,1,2.38,3.56c6.58,12.6,10.39,26.63,12.63,40.63A107.31,107.31,0,0,1,12.64,259.7Zm53.07-72.84a26.34,26.34,0,0,1,3.72-1.45c0,1.39.07,2.77.16,4.15,0,.42.08.89.11,1.37a.78.78,0,0,0-1,.39c-.69,1.65.33,3.52,1,5.05C74,205.45,84.5,210.26,94.19,211c8.88.42,17.61-4.53,23.21-11.22.83-.71,4.18-7.36,1.26-6.26a1.79,1.79,0,0,1-.14.15c.22-2.87.47-5.73.72-8.6.23.12.47.24.68.33,1.88.88,3.76,1.74,5.62,2.63.57.28,1.13.57,1.69.87a.49.49,0,0,1,0,.12,78.18,78.18,0,0,1-2.32,9.58c-3.74,11.64-15.68,18.36-27.38,19.31-14.33,1.55-29.74-6.12-34.77-20.15a35.11,35.11,0,0,1-1.84-8.24.58.58,0,0,1,0-.14c1.6-.86,3.22-1.7,4.83-2.5Zm7.07-10.58c5.74,2.52,12.77,4.09,21.6,4.5a1.58,1.58,0,0,0,.86-.14,49.5,49.5,0,0,0,21.11-4.91c-4.33,4.35-8.91,8.76-14.87,10.71-10.1,3.64-22,.85-27.73-8.7-.31-.41-.61-1-1-1.46Zm43,20.8a6,6,0,0,1-.4.48c-5,5.09-11.41,9.6-18.77,10.16-9.5.25-19.78-4.4-24.52-12.83a66.91,66.91,0,0,0,.14-15.56c4.8,5.15,12,9.15,18.82,9.8,9.57,1,18.84-3.24,25.09-10.41a6.12,6.12,0,0,1,.69-.79c-.37,2.44-.5,4.95-.7,7.4-.26,3.51-.2,7-.36,10.56C115.79,196.28,115.76,196.69,115.79,197.08ZM43,123.18c-.82-1.44-2.59-8.33-4.4-11.74a32.18,32.18,0,0,1-.14-3.92c.23-7.75,3.91-14.92,8.62-20.92,1.06-1.27,1.86-2.95.82-4.48A32.52,32.52,0,0,1,48.1,52a40.86,40.86,0,0,1,2.81-5.11,13.25,13.25,0,0,0,2.45,1.4,86,86,0,0,0,20.27,4.57l.11,0s0,0,.05,0c6.32.73,12.72,1,19,1.37,11.94,0,24.11-.59,35.59-4.08a56.48,56.48,0,0,0,6.85-2.48l0,0h.06c7.62,7.67,9.74,19.72,6.14,29.84-.58,1.85-1.24,3.91-2,5.72a4.15,4.15,0,0,0,.48,4.88c4.88,6.11,10,12.45,10.88,20.53.18.7,0,2.28.09,3.55-3,7.29-5.45,14.79-7.79,22.32-3.73,8.36-6.77,17-11.65,24.76a43.59,43.59,0,0,1-11.63,10.93,49.72,49.72,0,0,1-23.4,7.3l-1.37,0a2.2,2.2,0,0,0-.37-.07C57.64,176.25,53.9,152.2,43,123.18Zm-5.55,10.71c-4.11-2.88-6.08-8.35-6.29-13.31a3.59,3.59,0,0,1,0-.9,31.29,31.29,0,0,1,4.64,7.54c.53,1.87.43,3.92,1.2,5.74A9.1,9.1,0,0,0,37.43,133.89Zm9.11,9.85c-11.15,1.16-17.08-10.65-20.26-19.65-.92-3-2-6.25-1-9.37,2.84-6,8.32-3.64,11.44.42,1,3.34,2.65,7.12,3.16,8.94,1.64,4.48,3.14,8.81,4.61,13-3.71-2-7.17-5-7.25-9.6a10,10,0,0,0-.15-3.66c-1.23-3.09-3.75-5.61-6.28-7.69-.45-.43-4.49-2.68-3.61-.83,1,1,1.94,2.07,2.86,3.14a.85.85,0,0,0,0,.22c.46,7.59,2.56,14.2,9.47,18.26a2,2,0,0,0,1,.38,13.52,13.52,0,0,0,4.87,2.22c.51,1.41,1,2.8,1.53,4.14a.7.7,0,0,1-.34.12ZM28.74,99.9c-3.9-12.28-8.19-24.86-8.08-38C20.88,53.12,31,45,38,40.66c1.22-.86,2.84-1.29,3.81-2.46a.89.89,0,0,0-.15-1.11A5.84,5.84,0,0,0,42.7,35c.74-2.43,1.48-4.88,2.38-7.24,3-7.9,7.79-15.58,15.5-19.63,18.13-8.8,48.06-4.45,66,3.69a80.58,80.58,0,0,1,16.63,10.94c6.93,6.22,13.88,13.42,23.4,15.45-.51,1.65-2,2.72-3.47,3.63a3.74,3.74,0,0,0-1.6,1.16c-.59.33-.87,1.14-.25,2.34a33.76,33.76,0,0,1,3.45,9.91c.32,4.79-.81,9.61-1.36,14.39-1.17,8-2.35,15.92-4.07,23.85-1,4.85-2.2,9.68-3.69,14.43a6.09,6.09,0,0,0-1,.53c.08-.76-.08-1.43-1.07-1.17a4.55,4.55,0,0,0-.35.4c-.46-6.8-4.33-12.9-8.54-18.15a31.75,31.75,0,0,1-2.94-4,13.88,13.88,0,0,1,1-2.8c5.29-11.33,5-25.8-3.81-35.32-.15-.16-.31-.32-.46-.49.59-.16,1.19-.3,1.78-.47a29.15,29.15,0,0,1,6.92-.55.33.33,0,0,0,.37-.28.33.33,0,0,0-.28-.37,31.71,31.71,0,0,0-11.84-.48c-.92-.55-2.2.21-3.28.67A29.93,29.93,0,0,0,127.38,47c-9.79,2.95-22.67,4.28-35.56,4.07-1.64-.44-3.27-1-4.9-1.43C77.55,46,67.26,37.48,69.56,26.26c0-.05.1-.2.15-.26a.33.33,0,0,0-.57-.34,12.79,12.79,0,0,0-1.91,5.72c-.41,9.47,7.77,16,16.29,19.36C73.4,50.05,63.71,48.42,56,45.89c-5.37-3.71-6.57-9.6-3.2-22.47a7.2,7.2,0,0,1,.42-1.49.34.34,0,0,0-.62-.27,1.59,1.59,0,0,1-.22.43C48.07,28,46,37.61,50.26,44a4.89,4.89,0,0,0-1.83,1.61A30.09,30.09,0,0,0,44.12,53c-4.66,10.32-3.94,21.24,1.23,31.21-5.37,7.53-11,16.6-9.43,25.89A9.34,9.34,0,0,0,33,108.36l-.56-.18a79.11,79.11,0,0,1-3.68-8.28ZM146.4,138.8c2.9-2.38,5.3-5.52,5.63-9.36.48-4.2,4.07-7.08,6.31-10.5-1.39,7.66-4.28,16.44-11.94,19.86Zm16.32-17.86c-2.6,10.14-9.17,23.11-21,23.4.37-1,.72-2.08,1.08-3.12a1.46,1.46,0,0,0,.83-.26c10.48-2.38,14.56-13.78,15.76-23.34.38-.92,3.92-3.26,1.88-3.8-4.22,1.59-7,5.78-9.74,9.19a4.72,4.72,0,0,0-1.09,4,11.61,11.61,0,0,1-3.45,8.33,28.59,28.59,0,0,1-3.15,2.75c.08-.27.17-.52.27-.79.38-1.05.77-2.12,1.21-3.16,2.69-6.76,5.39-13.66,7.71-20.61a2.51,2.51,0,0,0,.5-.4c7.08-6.84,11.34.49,9.2,7.81Zm20.46,122.23c-13.66-26-34.74-49.59-62.4-60.79a2.8,2.8,0,0,0-1.3-.24c.06-.66.12-1.34.18-2,.21-2,.3-4,.56-6,0-.16,0-.36.06-.55a46,46,0,0,0,10.32-8.38c4.56-5.23,7.58-11.47,10-17.95a1.28,1.28,0,0,0,.32.09c8.09.91,15.51-5.28,19.24-12,3.87-7.26,9.88-19,3.41-26.23a7,7,0,0,0-5-1.89,9.45,9.45,0,0,1,.51-1.64c3.23-10,4.93-20.46,6.33-30.87A125.68,125.68,0,0,0,167,57.81c.52-4.77-.15-9.52-2.88-13.56l.3-.13c4.15-1.35,7.95-7.84,1.84-9.28-11.64-3.78-19.61-13.56-29.17-20.63-19.27-14.4-72-22.75-88-.63-3.63,4.48-6,9.87-7.81,15.28-.42,1.76-2.4,6-1.32,7.87a1.73,1.73,0,0,0-.27.08C32.66,39.17,18.76,50.17,18.55,58c-1.43,12.37,1.33,24.73,5,36.49,1.6,4.55,3.05,9.32,5.6,13.44a8.82,8.82,0,0,0-7.12,6c-1.19,4.16.26,8.52,1.64,12.47,3.32,8.79,8.78,18.92,18.94,20.52a11.5,11.5,0,0,0,5.3-.51c4.81,12.07,10.41,21.84,20.82,27.86a61.23,61.23,0,0,1,.59,8.58,20.36,20.36,0,0,0-2.35.63c-9.37,3.51-18,8.88-26,14.79C26.08,209,13,222.64,5.07,239.48,3.42,243,1.91,246.54.54,250.16c-.35,1-.91,2.36-.19,3.13,1.24,3.12,10.68,8.61,12.89,10.12,18.32,11.72,40.08,16,61.54,17.09a200.35,200.35,0,0,0,69.12-7c12.73-3.43,25.3-7.59,37.06-13.61,1-.8,4.55-1.79,5-3.31a1.48,1.48,0,0,0,.81,0c1.76-.48,1.27-2.4.67-3.64-1.24-3.29-2.67-6.57-4.24-9.77"/><path id="path246" class="cls-37" d="M73.14,105.62c-5.88-1.62-9.63,9-3.38,10.66,6.88,1.22,9.59-8,3.38-10.66"/><path id="path248" class="cls-37" d="M59.9,91.26c.64-3.28,3-6.57,6.3-7.58,2.62-.59,7.59-1,8.38,2.37-5.14.72-10.71,1.64-14.68,5.21ZM73,80.58a13,13,0,0,0-11.64,3c-1.8,1.44-6.72,9.58-2.12,9.72,1.08.22,2.12-.66,3.12-1A39.26,39.26,0,0,1,75,89c2.15-.16,3.21-2.68,2.57-4.56A6.25,6.25,0,0,0,73,80.58"/><path id="path250" class="cls-37" d="M117.26,105.62c-6.22,2.64-3.5,11.88,3.37,10.66,6.27-1.63,2.52-12.27-3.37-10.66"/><path id="path252" class="cls-37" d="M124.2,83.68c3.35,1,5.68,4.3,6.31,7.58-4-3.57-9.55-4.49-14.67-5.2C116.6,82.69,121.59,83.09,124.2,83.68ZM115.46,89a39.25,39.25,0,0,1,12.62,3.28c1,.34,2,1.22,3.12,1,4.6-.13-.32-8.28-2.12-9.72a13,13,0,0,0-11.64-3,6.19,6.19,0,0,0-4.57,3.86c-.63,1.87.44,4.39,2.59,4.56"/><path id="path254" class="cls-37" d="M100.47,135.05c-.32,2.56-3,4.17-5.44,4.44a7.41,7.41,0,0,1-1.56-.05c-2.08-.38-3.65-2-4.8-3.72a15.63,15.63,0,0,0,11.8-.67Zm-8.09,5.16c4.42,1.79,9.8-1.76,9.81-6.53-.48-2.42-4.65.69-6.31.69a12.22,12.22,0,0,1-4,0c-1.06,0-6.2-2.69-5.17,0a9.88,9.88,0,0,0,5.63,5.85"/><path id="path256" class="cls-37" d="M107.5,151.21a.68.68,0,0,0,.22.09c1.64,0,.19-2-.22-2.65s-1.71-1.2-2-.19a1.6,1.6,0,0,0,.29,1c-.06,0-.13.05-.2.1A32,32,0,0,1,95,152.36a30.56,30.56,0,0,1-8.54-.39c-.42-.07-.84-.17-1.28-.23-.51-1.69-3.28.16-2.51,1.6a1.09,1.09,0,0,0,1.79.27,13.85,13.85,0,0,0,5,1.16c4.76.12,9.7.13,14.17-1.71,1-.54,3.16-.89,3.91-1.85"/><path id="path258" class="cls-32" d="M48.2,38.92a13.71,13.71,0,0,0,2,5,4.86,4.86,0,0,0-1.82,1.61A30.15,30.15,0,0,0,44.11,53c-4.68,10.32-4,21.24,1.21,31.21-5.37,7.52-11,16.6-9.42,25.9a6.3,6.3,0,0,0-.6-.48,110,110,0,0,1-6.54-31.08c-.5-8.16-.05-16.58,3.16-24.1,3-7.13,8.9-13.36,16.28-15.5"/><path id="path260" class="cls-32" d="M152.11,102.25c-1.52-4.68-4.4-9-7.47-12.79a32.4,32.4,0,0,1-2.94-4,13.27,13.27,0,0,1,1-2.8c5.3-11.33,5-25.8-3.8-35.32-.16-.15-.3-.32-.46-.49l1.77-.46a29.85,29.85,0,0,1,6.92-.54.34.34,0,0,0,.09-.67,31.7,31.7,0,0,0-11.84-.48c-.92-.55-2.2.21-3.28.67A30.64,30.64,0,0,0,127.35,47c-9.79,3-22.67,4.28-35.55,4.07-1.64-.45-3.28-.95-4.89-1.43-9.37-3.68-19.67-12.17-17.36-23.4A2.43,2.43,0,0,1,69.7,26a.34.34,0,0,0-.58-.34,12.78,12.78,0,0,0-1.9,5.72C66.8,40.81,75,47.3,83.5,50.7,73.38,50,63.68,48.38,56,45.85c-4.62-3.19-6.16-8-4.36-17.44v0A20.63,20.63,0,0,1,54,25,33,33,0,0,1,65.88,16.6c12.22-5.46,26.19-6.36,39.35-3.94s25.56,8.06,36.92,15.14c1.87,1.16,4,3.22,3,5.2a4.7,4.7,0,0,1-2.49,1.85l-8.2,3.57c6-2.22,13.41,1,17.29,6.38,4.17,5.74,5.17,13.16,5.39,20.25a115.41,115.41,0,0,1-5,37.2"/><path id="path262" class="cls-38" d="M25.18,240.8a149.91,149.91,0,0,1,7.26,28.52c-2.89-1.07-5.74-2.24-8.54-3.54,1.17-6.89,2.36-16.85,1.28-25"/><path id="path264" class="cls-39" d="M27.4,239.6c4.32,6.62,11.06,18.64,13.87,32.58-2.32-.65-4.61-1.37-6.89-2.16a133.73,133.73,0,0,0-3.32-18.6A97.87,97.87,0,0,0,27.4,239.6"/><path id="path266" class="cls-39" d="M154.6,267.26c-3.08,1-6.18,1.94-9.3,2.79,2.64-9.35,8.1-26.11,15.34-34.49a75.9,75.9,0,0,0-6,31.7"/><path id="path268" class="cls-38" d="M162.38,264.57c-1.88.71-3.76,1.36-5.66,2,.18-2.61.32-5.21.62-7.81a83.88,83.88,0,0,1,5.93-22.56c-.39,5.49-1.05,16.8-.89,28.37"/></g></g></svg>