<svg xmlns="http://www.w3.org/2000/svg" viewBox="0 0 206.72 293.89"><defs><style>.cls-21{fill:#fc9595;}.cls-22{fill:#b75f41;}.cls-23{fill:#ffdecc;}.cls-24{fill:#d8855b;}.cls-25{fill:#ed698b;}.cls-26{fill:#fcbef5;}.cls-27{fill:#26073d;}.cls-28{fill:#ce497f;}</style></defs><g id="Layer_2" data-name="Layer 2"><g id="svg2"><path id="path84" class="cls-21" d="M39.67,131.73c-1.77-1.85-2.92-4.21-4.64-6.11-.92,6.36,1.12,13.59,6.72,17.18a11.75,11.75,0,0,1-2.25-6.46c-.16-1.53.57-3.13.17-4.61"/><path id="path86" class="cls-22" d="M129.51,87.93a49.56,49.56,0,0,1,9.25,2.79c-2.45-2.82-5.85-4.66-9.13-6.16a10.55,10.55,0,0,0-5.23-1c-1,.29-.9,1.74-.48,2.46,1.32,1.59,3.75,1.36,5.59,1.91"/><path id="path88" class="cls-22" d="M82.75,84.53c-1.33-3.13-7.92,1.68-9.59,2.88a48.92,48.92,0,0,0-4.08,3.68c4.34-1.83,9.3-2.07,13.36-4.44.82-.47.64-1.43.31-2.12"/><path id="path90" class="cls-21" d="M110.47,136.09a24.94,24.94,0,0,1-13.6.43c1.92,1.66,4.19,3.38,6.84,3.41a8.45,8.45,0,0,0,6.76-3.84"/><path id="path92" class="cls-23" d="M162.7,127.86c-1,5.87-2,11.72-3.2,17.54,3.37-2.72,7.42-7.19,5.37-11.28-1.53-1.31-1-2.66.12-4,2.57-3.77,5.36-7.28,9.48-9.36a3.13,3.13,0,0,1,.93-.33.61.61,0,0,1,.4,1.13,16,16,0,0,0-2.34,2.07c1.89,9.72-4,20.58-13,24.6a2.33,2.33,0,0,1-1.73.77c-.31,1.39-.59,2.77-.92,4.16l0,.16a22.71,22.71,0,0,0,7.33-1.59c9.56-3.25,16.71-27.72,10.53-35.49-5.46-4-10.1,8-12.9,11.65"/><path id="path94" class="cls-23" d="M48.88,147.6A11.61,11.61,0,0,1,45.43,146a35.74,35.74,0,0,1-4.25-2.11c-6.35-3.88-8.4-12.26-7-19.18-.85-1-1.83-1.76-2.67-2.7-.25-.36-.45-1,.06-1.22,2.38-.16,4.62,2.3,6.21,3.89a39.6,39.6,0,0,1,3.71,4.67,2.54,2.54,0,0,1,.28,1.24c-.48,2.68-1.15,5.49,0,8.08a15.12,15.12,0,0,0,6.53,6.28c-1.21-5.86-2.47-11.67-3.77-17.5a21.28,21.28,0,0,0-2-4.3c-2.67-4.8-11.07-12.88-13.61-3.62C26.7,130.32,32.34,147.34,43,152c2.33.71,4.79,2.08,7.25,1.81-.42-1.88-.82-3.76-1.21-5.58,0-.2-.07-.4-.11-.6"/><path id="path96" class="cls-23" d="M72,121.54c-.77-.13-1.05-.61-1-1.12a1.57,1.57,0,0,1-.23-2.2c3.28-2.8,8.52-2.41,12.39-1.13a1.69,1.69,0,0,1,.72,2.69,1.11,1.11,0,0,1,.13.86,1.52,1.52,0,0,1-1.76,1.17A48.07,48.07,0,0,0,72,121.54ZM66.1,94.17a.94.94,0,0,1-1.3.08c-1.16-2.07,2.7-5.25,4-6.67,3.58-3.1,9.52-8.29,14.5-6a4.74,4.74,0,0,1,1.47,5.82c-1.23,2.29-4.13,2.58-6.39,3.24a80,80,0,0,0-9,2.5c-1.11.26-2.16,1.16-3.32,1Zm22.4,64.68a1.24,1.24,0,0,1,1.89-.57c.84,1,2.29.92,3.45,1.14a45.47,45.47,0,0,0,16.2-1.14c2.18-.63,4.38-1.19,6.48-2,.8-.37,2-.81,2.48.21.67,1.52-1.32,1.95-2.37,2.35a36.61,36.61,0,0,1-14.69,2.43c-4.12,0-8.24-.46-12.3-.74a1.28,1.28,0,0,1-1.14-1.65Zm6.66-23.43c.08-.9,1.27-.62,1.88-.52a26.61,26.61,0,0,0,5.6.52c3.3.12,6.26-1.24,9.36-1.82,1.48.4.6,2,.12,2.93-1.84,4.45-7.29,5.75-11.49,4-1.15-.32-6.6-3.8-5.47-5.1Zm26.6-53.08c5-5.22,18,4.22,20.43,9.34.23.77,1,1.8.55,2.56a.94.94,0,0,1-1,.36c-3.06-1.4-6-3-9.34-3.82-3.05-1-6.54-.65-9.37-2.26a4.56,4.56,0,0,1-1.23-6.18Zm13.68,39a30.57,30.57,0,0,0-4.6-.35c-2.54-.22-5.24,1-7.68.22a1.24,1.24,0,0,1,0-1.74,2.34,2.34,0,0,1-.48-.18c-3.08-4.1,11.47-4,13-2.18a1.32,1.32,0,0,1,.28,1.59,1.52,1.52,0,0,1,1,1.6,1.39,1.39,0,0,1-1.59,1ZM92,185.68a49,49,0,0,0,12.72,1.69c.83-.08,1.68-.15,2.54-.21,12.57-1.59,36.49-8.8,42.22-18.83,4-8.05,5.31-17.16,7.34-25.85,2.17-10.95,3.8-22,5.6-33,.92-5.56,1.86-11.12,2.66-16.71.23-1,.28-2.07.44-3.11h0c-5.18-3.75-13-9.53-12.61-16.6-.12-5.33,2.77-10.53,2.59-15.72-4.19-6.29-12-9.36-19.15-10.21-2.53-.5-5.17,0-7.69-.26a1.18,1.18,0,0,1-1.36.78c-1.22-.31-2-1.72-3-2.38-15-11.46-38.55-5.13-54.06,2.26A96.88,96.88,0,0,0,59.5,54c-1.58,1.1-3.11,2.26-4.64,3.4a8.24,8.24,0,0,1-1.67,1.15c.52,2.07.24,4.57.56,6.57-.11,3.94,1.63,8.51-1.17,11.83a93.68,93.68,0,0,1-8.26,9.33l-3.22,3.6a23.44,23.44,0,0,1,.6,3.07c1.2,8,2.25,16,3.89,23.92,3.55,14.92,5.92,30.36,10.33,45,2.95,10.42,12.56,16.62,22.34,19.72,4.5,1.52,9.08,2.95,13.7,4.1"/><path id="path98" class="cls-21" d="M172.56,124.61c-2.41,2.72-3.94,5.87-6,8.79.09.85.44,1.54.6,2.37.66,2.61-.51,5.25-1.86,7.44,5.48-4.33,7.59-11.85,7.28-18.6"/><path id="path100" class="cls-24" d="M173.63,53.26a11.76,11.76,0,0,1,3.84,3.39A28.91,28.91,0,0,1,183.38,70c.3,2.66.66,5.41,0,8.05a2,2,0,0,1-.48.89c-.89.48-1.94-.29-2.76-.66a7.85,7.85,0,0,1-1.33-.92,1.14,1.14,0,0,0-1.73,1.17c1.37,4.56-.1,9.44-1.14,13.93-1.36,4.9-3.21,10.07-4.93,14.92-.23,1-1.93,4.52-2,6.36a19.16,19.16,0,0,0-5,5.82c.31-2,.63-4.07.95-6.11.94-6,1.88-11.92,2.62-17.92,0-1.29,1.55-8.8-.73-8.47a40.27,40.27,0,0,1-9.81-10c-1.76-2.74-.8-6-.83-9.11.2-3.52.16-7.28,1.87-10.47.57-2.05-1.78-3.61-2.95-5.05C149.08,45.9,139.64,43.46,131,44a9.41,9.41,0,0,0-3,.76C112.44,29,81.71,37.17,64.75,46.81A113.67,113.67,0,0,0,53,54.73a5.82,5.82,0,0,0-1.92,1.8,1.38,1.38,0,0,0-.67.49,4,4,0,0,0-.28,2.59c.19,4.92,1.11,10,.41,14.91-1.8,3.5-4.76,6.37-7.4,9.28-1.6,1.68-3.21,3.32-4.73,5.06a1.36,1.36,0,0,0,.13,1.88l0,0c-.07,1.76.44,4.15.44,5.15.85,7.69,2.13,15.33,3.69,22.9a17.21,17.21,0,0,0-3.76-4.42,9.89,9.89,0,0,0-1.84-1.24c-.66-2.39-1.57-4.74-2.28-7.12a121.3,121.3,0,0,1-5-19.75A48.84,48.84,0,0,1,30,71.41c.15-1,.41-2.39-.57-3.08-1.26-.85-2.28.45-3.27,1.07-1.63.74-5.29,3.32-6.84,1.7-.53-3.37,1.76-6.74,3.25-9.69a50.86,50.86,0,0,1,11.4-12.95.63.63,0,0,0-.46-1.08c-2.67.36-4.79,2.32-6.71,4.1-.64.65-1.27,1.33-1.88,2a7,7,0,0,1-1.25.52c-2,.7-4.82,2.19-6.86,1.14a1.14,1.14,0,0,1,.1-.63,57.27,57.27,0,0,1,4.85-7A105.38,105.38,0,0,1,72.84,12.09c1.48-.83,11.48-1.71,10-3.83-.9-.81-2.69-.9-4.84-.61-1.37-1-4-2.64-1.18-3.28,9.93-2.32,20.36-.47,30.4.59,7.93,1.28,15.89,2.54,23.38,5.64,2.83.93,5.1,3.22,7.92,4,1.36-.2.34-1.84-.25-2.42a15.7,15.7,0,0,0-3.52-3c0-4.88,5.31-1.16,7.56.45a48.86,48.86,0,0,1,8.65,9.12,86.52,86.52,0,0,1,11,19.12c.49,1,.91,2.62,1.92,3.31a1.85,1.85,0,0,0,1.27.08,3.48,3.48,0,0,0,.36.05c11.93.43,22.66,10.79,19.53,23.15A20.23,20.23,0,0,0,174.67,53a3.12,3.12,0,0,0-.92-.35c-.37-.07-.52.57-.12.65"/><path id="path102" class="cls-25" d="M75.39,289.05q-3.18-.37-6.36-.85c-24.32-3.66-47.77-11.8-65.23-26.72-.33-.26-.68-.56-1-.84A2.4,2.4,0,0,0,3,260a94.39,94.39,0,0,1,8.79-18.32,170.2,170.2,0,0,1,48.14-47C48.6,211,49.94,226.36,58,244.45c1.34,3,2.86,6.05,4.54,9.21,4.1,8.1,9.42,15.63,12.42,24.26a.77.77,0,0,0,.22.34c0,3.5.06,7,.14,10.5a1,1,0,0,0,.07.29"/><path id="path104" class="cls-23" d="M107.75,224.72c8.65-.72,16.11-6.07,21.6-12.5l.61-.76a91.9,91.9,0,0,1,2.74-13.57c0-.09,0-.19,0-.27a72.16,72.16,0,0,1-.1-11.1,49.64,49.64,0,0,1-3,4.46c-6.94,8.63-16.52,17-28.37,15.58a27.94,27.94,0,0,1-15.48-6.76,60.77,60.77,0,0,1-8.45-9.32c-.5-.76-1-1.52-1.58-2.28,0,.28,0,.52,0,.7a65.3,65.3,0,0,1-1.24,11.64,12.6,12.6,0,0,0,.26,1.28c.37,2.56.69,5.14,1,7.71a7.15,7.15,0,0,1,.84,1.2c6.56,10.28,19.51,14.75,31.23,14"/><path id="path106" class="cls-25" d="M136.68,187.17a6.55,6.55,0,0,0-1-1c0,1.27,0,3.31-.08,5.48.75,0,1.15,1.32.86,2.6-1.18,7.56-3.43,15-3.87,22.63a480.58,480.58,0,0,0-.21,55.13c2.08-6,6.14-13.69,7.28-16,13.85-26.48,22.33-45.92-2.94-68.8"/><path id="path108" class="cls-26" d="M128.55,239.6c.12-7.67.2-15.36.85-23-6.81,8-17.6,12.56-28.12,11.18-14.46-1.52-22-8.61-25.08-13.66.16,1.53.31,3.06.46,4.58,1.7,17.14,1.76,34.36,1.6,51.55,0,6.13.06,12.25.16,18.37a1.68,1.68,0,0,1-.15.7,246.73,246.73,0,0,0,52-.34c-1.76-16.32-1.73-33-1.72-49.42"/><path id="path110" class="cls-21" d="M101.64,190.93l-.18,0-.24,0a44.7,44.7,0,0,1-13-2.79c-3.54-1-7-2.07-10.48-3.23-.79-.26-1.58-.56-2.36-.85,2.46,3.37,4.1,7.33,6.8,10.53,5.17,6.3,12.78,11.55,21.26,10.48,14.48-.88,20.63-10.93,29.3-20.62q0-.45.09-.9a124.64,124.64,0,0,1-14.83,5c-1.05.26-2.13.52-3.2.76a39.54,39.54,0,0,1-13.2,1.67"/><path id="path112" class="cls-25" d="M204,261.28a1.26,1.26,0,0,0-.32.18,162.06,162.06,0,0,1-19.5,11.7,172.28,172.28,0,0,1-44.44,14.41q-3.33.6-6.69,1.08c.13-3.51-.28-7.07-.48-10.61.89-2.06,1.47-4.23,2.24-6.32a116.5,116.5,0,0,1,6.71-14,149.55,149.55,0,0,0,9.38-18.53c6.16-15.07,7.34-29.09-1.64-42.32,22.1,16.57,43.95,38.12,54.43,63.69a1.35,1.35,0,0,0,.31.7"/><path id="path114" class="cls-25" d="M75.15,273.22c-.12-24.85.23-49.76-4.17-74.32-.24-1.58-1.75-5.94,1.2-5.22a4.45,4.45,0,0,1,.53.62,95.75,95.75,0,0,0-.15-9.88c-1.82,2-3.7,3.86-5.4,5.92-26.64,30.14-4.16,53.4,8,82.88"/><path id="path116" class="cls-27" d="M84,120.64a1.11,1.11,0,0,0-.13-.86,1.68,1.68,0,0,0-.72-2.69c-3.88-1.28-9.12-1.67-12.39,1.13a1.58,1.58,0,0,0,.23,2.2,1,1,0,0,0,1,1.12,48,48,0,0,1,10.23.28A1.53,1.53,0,0,0,84,120.64"/><path id="path118" class="cls-27" d="M136,118.62a1.31,1.31,0,0,0-.28-1.58c-1.56-1.8-16.11-1.91-13,2.17a2.39,2.39,0,0,0,.48.19,1.23,1.23,0,0,0,0,1.73c2.44.75,5.14-.44,7.68-.21a35.33,35.33,0,0,1,4.6.34A1.35,1.35,0,0,0,137,120.2a1.5,1.5,0,0,0-1-1.58"/><path id="path120" class="cls-27" d="M69.08,91.09a52.71,52.71,0,0,1,4.08-3.68c1.67-1.2,8.26-6,9.59-2.88.35.69.51,1.65-.29,2.12-4.07,2.37-9,2.61-13.38,4.44ZM84.8,87.44a4.74,4.74,0,0,0-1.46-5.82c-5-2.33-10.92,2.86-14.51,6-1.32,1.42-5.17,4.6-4,6.67a.93.93,0,0,0,1.29-.08c1.16.17,2.21-.73,3.32-1a82.34,82.34,0,0,1,9-2.5c2.25-.66,5.16-1,6.38-3.24"/><path id="path122" class="cls-27" d="M124.4,83.56a10.55,10.55,0,0,1,5.23,1c3.28,1.5,6.68,3.34,9.13,6.16a50.32,50.32,0,0,0-9.25-2.79c-1.84-.55-4.27-.32-5.59-1.92-.42-.72-.49-2.17.48-2.45Zm-1.4,5c2.83,1.6,6.32,1.28,9.38,2.27,3.29.78,6.28,2.41,9.33,3.81a.92.92,0,0,0,1-.36c.41-.76-.32-1.79-.55-2.56-2.4-5.12-15.48-14.56-20.42-9.33A4.52,4.52,0,0,0,123,88.53"/><path id="path124" class="cls-27" d="M110.47,136.09a8.5,8.5,0,0,1-6.76,3.84c-2.64,0-4.92-1.75-6.84-3.41A24.85,24.85,0,0,0,110.47,136.09Zm-9.83,4.43c4.2,1.76,9.66.46,11.5-4,.48-.89,1.36-2.53-.12-2.93-3.11.58-6.07,1.94-9.36,1.82a26.49,26.49,0,0,1-5.6-.52c-.62-.1-1.8-.38-1.88.52-1.15,1.3,4.3,4.78,5.46,5.1"/><path id="path126" class="cls-27" d="M89.66,160.49c4.06.28,8.18.75,12.29.73a36.6,36.6,0,0,0,14.69-2.42c1-.4,3-.83,2.38-2.35-.51-1-1.68-.59-2.48-.21a67.43,67.43,0,0,1-6.48,2,45.24,45.24,0,0,1-16.2,1.15c-1.18-.23-2.62-.16-3.46-1.15a1.24,1.24,0,0,0-1.89.58,1.27,1.27,0,0,0,1.15,1.65"/><path id="path128" class="cls-27" d="M204,261.28a1.45,1.45,0,0,0-.32.18,159.35,159.35,0,0,1-19.5,11.68,173,173,0,0,1-51.13,15.5c.13-3.51-.28-7.08-.48-10.62.89-2,1.48-4.22,2.25-6.32a115.39,115.39,0,0,1,6.7-14c13-22.32,20.29-42.36,7.74-60.86,22.1,16.58,44,38.12,54.43,63.7a1.35,1.35,0,0,0,.31.7Zm-71.48-44.4c.44-7.68,2.7-15.07,3.86-22.63.3-1.28-.1-2.65-.85-2.6,0-2.17,0-4.21.08-5.48a7.59,7.59,0,0,1,1,1c25.27,22.89,16.8,42.32,2.92,68.8-1.13,2.36-5.2,10.08-7.28,16a485.16,485.16,0,0,1,.23-55.13ZM78.27,289.37a1.52,1.52,0,0,0,.15-.69c-.1-6.12-.18-12.26-.16-18.38.16-17.2.1-34.41-1.6-51.54-.15-1.54-.3-3.07-.46-4.59,3.11,5.07,10.63,12.16,25.08,13.67,10.52,1.37,21.31-3.19,28.12-11.19-.66,7.6-.73,15.31-.85,23,0,16.47-.05,33.11,1.71,49.44a246,246,0,0,1-52,.32Zm-3.55-87.55c-.1-.41-.17-.84-.25-1.28a66.1,66.1,0,0,0,1.24-11.64c0-.17,0-.42,0-.7.52.77,1.08,1.53,1.57,2.28a60.84,60.84,0,0,0,8.46,9.32,28,28,0,0,0,15.48,6.76C113,208,122.59,199.61,129.55,191c.21-.21,1.85-2.52,3-4.46a72.17,72.17,0,0,0,.09,11.1,2.19,2.19,0,0,1,0,.27A91.1,91.1,0,0,0,130,211.46c-.21.26-.4.51-.61.76-5.51,6.43-12.95,11.78-21.6,12.5-11.72.77-24.68-3.71-31.2-14a9.48,9.48,0,0,0-.84-1.2c-.32-2.57-.64-5.15-1-7.71ZM3.82,261.48c-.35-.26-.68-.55-1-.84A2.09,2.09,0,0,0,3,260a94.54,94.54,0,0,1,8.79-18.34,170,170,0,0,1,48.15-47c-13.19,19-9.2,36.79,2.61,59C66.66,261.76,72,269.28,75,277.92a.92.92,0,0,0,.21.34c0,3.5.07,7,.15,10.5a2.27,2.27,0,0,0,.06.3c-26.57-3.14-52.61-11.37-71.58-27.58Zm63.33-71.12c1.69-2.06,3.59-4,5.4-5.92a98.61,98.61,0,0,1,.15,9.88,3.54,3.54,0,0,0-.54-.63c-2.94-.72-1.44,3.64-1.2,5.23,4.42,24.54,4.07,49.46,4.18,74.3-12.14-29.48-34.62-52.74-8-82.86Zm65.71-6.82c0,.3-.07.59-.1.9-8.65,9.69-14.81,19.74-29.29,20.62-8.48,1.08-16.08-4.18-21.27-10.48-2.69-3.2-4.33-7.16-6.8-10.53.79.29,1.58.59,2.36.85,3.44,1.16,6.95,2.26,10.48,3.23a44.77,44.77,0,0,0,13,2.79l.24,0c.07,0,.12,0,.19,0a39.69,39.69,0,0,0,13.19-1.65l3.2-.76a132.56,132.56,0,0,0,14.84-5Zm-77-21.69c-4.41-14.65-6.79-30.09-10.33-45-1.64-7.87-2.68-16-3.9-23.92a24.1,24.1,0,0,0-.6-3.07l3.23-3.6a92.48,92.48,0,0,0,8.25-9.33c2.82-3.32,1.08-7.9,1.18-11.83-.32-2,0-4.52-.56-6.57a9.06,9.06,0,0,0,1.66-1.15c1.54-1.15,3.07-2.31,4.64-3.4A97.09,97.09,0,0,1,70.15,47.5c15.52-7.38,39.08-13.72,54.05-2.25,1,.67,1.78,2.08,3,2.37a1.14,1.14,0,0,0,1.36-.77c2.52.21,5.16-.24,7.7.25,7.12.86,15,3.92,19.14,10.22.2,5.18-2.69,10.38-2.58,15.72-.38,7.06,7.42,12.85,12.61,16.6h0c-.16,1-.21,2.12-.44,3.11-.8,5.57-1.75,11.14-2.67,16.7-1.8,11-3.42,22.06-5.6,33-2,8.7-3.32,17.8-7.33,25.86-5.73,10-29.65,17.24-42.23,18.82l-2.53.22A49,49,0,0,1,92,185.66c-4.64-1.14-9.21-2.57-13.72-4.1-9.75-3.1-19.36-9.3-22.32-19.71ZM39.5,136.34a11.91,11.91,0,0,0,2.25,6.46c-5.6-3.59-7.65-10.8-6.72-17.18,1.72,1.9,2.87,4.26,4.64,6.11C40.07,133.21,39.34,134.81,39.5,136.34ZM43,152c-10.62-4.63-16.26-21.65-14.06-32.47,2.55-9.26,10.95-1.18,13.62,3.62a21.74,21.74,0,0,1,2,4.3c1.31,5.83,2.55,11.64,3.78,17.5a15.26,15.26,0,0,1-6.54-6.28c-1.14-2.59-.48-5.42,0-8.08a2.43,2.43,0,0,0-.28-1.24,39.51,39.51,0,0,0-3.7-4.67c-1.59-1.59-3.83-4.05-6.22-3.89-.5.26-.3.85-.05,1.22.84.94,1.81,1.72,2.67,2.7-1.43,6.92.64,15.3,7,19.18A35.14,35.14,0,0,0,45.46,146a11.49,11.49,0,0,0,3.45,1.63l.12.6q.59,2.76,1.21,5.58c-2.48.27-4.93-1.1-7.26-1.81ZM29.8,86.29A48.91,48.91,0,0,1,30,71.4c.15-1,.41-2.39-.57-3.08-1.26-.86-2.28.45-3.27,1.06-1.63.75-5.29,3.32-6.84,1.71-.53-3.37,1.76-6.75,3.25-9.71a50.77,50.77,0,0,1,11.4-12.93.63.63,0,0,0-.46-1.09c-2.67.37-4.8,2.32-6.71,4.09-.64.65-1.27,1.33-1.88,2a7.11,7.11,0,0,1-1.25.53c-2,.69-4.82,2.17-6.86,1.13a1.2,1.2,0,0,1,.08-.64,57.13,57.13,0,0,1,4.86-6.93A105.27,105.27,0,0,1,72.84,12.08c1.48-.82,11.47-1.7,10-3.83-.91-.81-2.68-.91-4.84-.61-1.36-1-4-2.64-1.19-3.28,9.94-2.32,20.38-.47,30.4.58,7.94,1.3,15.9,2.55,23.39,5.66,2.83.93,5.09,3.22,7.92,4,1.36-.2.33-1.84-.25-2.42a16,16,0,0,0-3.52-3c0-4.87,5.3-1.15,7.56.47a48.78,48.78,0,0,1,8.65,9.1A86.67,86.67,0,0,1,161.84,37.9c.5,1,.91,2.62,1.94,3.32a1.88,1.88,0,0,0,1.26.08,2,2,0,0,0,.35,0c11.93.43,22.67,10.79,19.53,23.16A20.17,20.17,0,0,0,174.64,53a3.43,3.43,0,0,0-.92-.35c-.38-.08-.52.56-.12.66a11.7,11.7,0,0,1,3.84,3.37A28.91,28.91,0,0,1,183.36,70c.3,2.65.67,5.41,0,8-.07.2-.24.74-.49.9-.9.48-1.94-.31-2.76-.67a7.09,7.09,0,0,1-1.32-.92,1.14,1.14,0,0,0-1.74,1.17c1.38,4.58-.09,9.44-1.13,14-1.37,4.89-3.21,10-4.95,14.92-.22,1-1.93,4.52-1.94,6.35a19.15,19.15,0,0,0-5,5.82c1.22-8,2.56-16,3.57-24,0-1.3,1.55-8.8-.73-8.47a40.18,40.18,0,0,1-9.82-10c-1.77-2.73-.8-6-.84-9.1.22-3.54.16-7.28,1.87-10.47.59-2.05-1.77-3.61-2.95-5.05-6.06-6.51-15.5-8.95-24.18-8.42a9.32,9.32,0,0,0-3,.78c-15.48-15.74-46.2-7.6-63.16,2.05A109.82,109.82,0,0,0,53,54.77,5.72,5.72,0,0,0,51,56.57a1.19,1.19,0,0,0-.67.49,4.08,4.08,0,0,0-.28,2.59c.19,4.92,1.12,10.05.43,14.92-1.8,3.51-4.76,6.37-7.4,9.28-1.6,1.67-3.21,3.32-4.73,5.07a1.34,1.34,0,0,0,.12,1.88l0,0C38.46,92.57,39,95,39,96c.86,7.69,2.12,15.33,3.7,22.91a15.39,15.39,0,0,0-5.6-5.67c-.68-2.39-1.58-4.73-2.28-7.12a125.84,125.84,0,0,1-5-19.8Zm137.34,49.48c-.16-.83-.51-1.52-.6-2.37,2.08-2.92,3.6-6.08,6-8.79.32,6.75-1.8,14.27-7.28,18.6,1.35-2.2,2.52-4.84,1.86-7.44Zm8.48-19.56c6.16,7.76-1,32.23-10.54,35.49a23.25,23.25,0,0,1-7.33,1.59l0-.16c.33-1.39.61-2.77.92-4.16a2.3,2.3,0,0,0,1.73-.77c9.07-4,14.92-14.87,13-24.6a16.58,16.58,0,0,1,2.35-2.07.61.61,0,0,0-.4-1.13,3.29,3.29,0,0,0-.94.33c-4.13,2.07-6.9,5.59-9.48,9.36-1.06,1.39-1.64,2.72-.12,4,2.06,4.09-2,8.56-5.37,11.28,1.2-5.82,2.24-11.67,3.2-17.54,2.79-3.65,7.43-15.68,12.91-11.65ZM147,191.93a12.92,12.92,0,0,0-3-1.49,69.2,69.2,0,0,0-8.28-7.31s0,0,0,0c0-.26,0-.52,0-.78,1.85-.82,3.68-1.7,5.49-2.62,10.67-5.14,13.44-13.28,15.86-23.5,13.16.81,20-9.6,22.49-21.24,1.27-6.8,3.16-15-1.59-20.91a6.46,6.46,0,0,0-6.3-1.65c.45-1.08.9-2.18,1.3-3.28,3.64-9,7.46-18.6,6.83-28.51,7.49,4,7-7.51,6.23-11.93-.07-.47-.16-1-.27-1.42a20.11,20.11,0,0,0,1.87-9.53c-.46-10.89-11.46-19.43-22-18.63-1-5.32-9.1-18.26-10.11-19.54-2.92-4.78-18.33-23.1-23-13.24a7.62,7.62,0,0,0-.17,1.56A48.54,48.54,0,0,0,123.89,5C117,3.14,72-5.5,72.73,5.42a5.58,5.58,0,0,0,1.7,2.95,110.49,110.49,0,0,0-12.58,4.47,115.93,115.93,0,0,0-29,18.45C29.34,34.22,6.59,55.5,17.37,57.6a17.54,17.54,0,0,0,5-1,30.71,30.71,0,0,0-6.16,13C16,76.8,23.18,74.74,27,71.8c-2.08,9.34.42,18.88,3,27.86,1.31,4.27,2.56,8.72,4.77,12.63a8.73,8.73,0,0,0-1.94-.25c-5.84.5-7.51,7.33-7.54,12.25.08,9.49,3.46,19.27,10,26.28a22.24,22.24,0,0,0,13.32,6.24,4.54,4.54,0,0,0,2.32-.24c2,8,5,15.84,12,20.84A40.66,40.66,0,0,0,71,182.22,54.36,54.36,0,0,0,67,186c-1.16,1.21-2.24,2.43-3.25,3.63a5.8,5.8,0,0,0-2.32.89c-21.77,12.56-44.95,34.84-56.41,57.32a103.69,103.69,0,0,0-5,11.93,1.07,1.07,0,0,0,0,.64,2.69,2.69,0,0,0,.85,1.84C27,287.12,65.27,292.65,100,293.85c29.44.59,59.18-4.85,85.73-17.83a125.73,125.73,0,0,0,19.64-12.38,1.27,1.27,0,0,0,.29-1.82c3.59-.89-3.1-10.78-3.9-13-13.3-22.89-32.85-42.08-54.75-56.84"/><path id="path130" class="cls-22" d="M180.8,71.24c-.3.38-.92.17-1.34-.08q-4-2.39-8-4.76c2.43,3.25,3.24,7.45,3.31,11.52.24,12.36-5.58,23.85-9.8,35.49.94-6,1.88-11.92,2.62-17.92,0-1.29,1.55-8.8-.73-8.47a40.27,40.27,0,0,1-9.81-10c-1.76-2.74-.8-6-.83-9.11.2-3.52.16-7.28,1.87-10.47.57-2.05-1.78-3.61-2.95-5.05C149.08,45.9,139.64,43.46,131,44a9.41,9.41,0,0,0-3,.76C112.44,29,81.71,37.17,64.75,46.81A113.67,113.67,0,0,0,53,54.73a5.82,5.82,0,0,0-1.92,1.8,1.38,1.38,0,0,0-.67.49,4,4,0,0,0-.28,2.59c.19,4.92,1.11,10,.41,14.91-1.8,3.5-4.76,6.37-7.4,9.28-1.6,1.68-3.21,3.32-4.73,5.06a1.36,1.36,0,0,0,.13,1.88l0,0c-.07,1.76.44,4.15.44,5.15.85,7.69,2.13,15.33,3.69,22.9a17.21,17.21,0,0,0-3.76-4.42c-4-17.84-7.49-36.52-2-53.86a11.47,11.47,0,0,1-5.6,2.78,2.87,2.87,0,0,1-1.67-.08c-1.73-.78-.84-3.4.35-4.87A59.66,59.66,0,0,1,46.58,44.2c-2.36.46-4.72.94-7.08,1.41a4.28,4.28,0,0,1-2.72,0,2.94,2.94,0,0,1-1.28-3.43,7.76,7.76,0,0,1,2.18-3.26c15.11-15.74,37.19-23,58.87-25.38a14.4,14.4,0,0,1-8.44-4.2c.35-.89,1.55-1,2.51-1a79.75,79.75,0,0,1,54.94,23.53c-.84-2-2.12-3.23-3-5.2-.6-1.4-1.06-3.33.19-4.2s2.91.25,4,1.36a59.2,59.2,0,0,1,13.15,21.29c4.47-2.18,10.21-.52,13.61,3.11a22.57,22.57,0,0,1-8.28,2,64,64,0,0,1,10,8.59,21.44,21.44,0,0,1,5.63,11.75,1,1,0,0,1-.11.72"/><path id="path132" class="cls-28" d="M75.32,288.76a1,1,0,0,0,.07.29q-3.18-.37-6.36-.85L58,244.45c1.34,3,2.86,6.05,4.54,9.21,4.1,8.1,9.42,15.63,12.42,24.26a.77.77,0,0,0,.22.34c0,3.5.06,7,.14,10.5"/><path id="path134" class="cls-28" d="M150.92,239.21l-11.16,48.36q-3.33.6-6.69,1.08c.13-3.51-.28-7.07-.48-10.61.89-2.06,1.47-4.23,2.24-6.32a116.5,116.5,0,0,1,6.71-14,149.55,149.55,0,0,0,9.38-18.53"/></g></g></svg>